solid
facet normal 1.8698493046318422e-16 0.9999999999999999 0
outer loop
vertex -10.631099999999998 4.633656336669924 8.775481343269359
vertex -10.631099999999998 4.633656336669924 11.775481224060059
vertex -1.1310999999999989 4.633656336669922 8.775481343269359
endloop
endfacet
facet normal 1.8698493046318422e-16 0.9999999999999999 0
outer loop
vertex -1.1310999999999989 4.633656336669922 8.775481343269359
vertex -10.631099999999998 4.633656336669924 11.775481224060059
vertex -1.1310999999999989 4.633656336669922 11.775481224060059
endloop
endfacet
facet normal 0.9999999999999999 -1.6917684990368336e-16 0
outer loop
vertex -10.631099999999995 25.633655336669925 8.775481343269359
vertex -10.631099999999995 25.633655336669925 11.775481224060059
vertex -10.631099999999998 4.633656336669924 8.775481343269359
endloop
endfacet
facet normal 0.9999999999999999 -1.6917684990368336e-16 0
outer loop
vertex -10.631099999999998 4.633656336669924 8.775481343269359
vertex -10.631099999999995 25.633655336669925 11.775481224060059
vertex -10.631099999999998 4.633656336669924 11.775481224060059
endloop
endfacet
facet normal -3.7396986092636845e-16 -0.9999999999999999 0
outer loop
vertex -1.1310999999999942 25.63365533666992 8.775481343269359
vertex -1.1310999999999942 25.63365533666992 11.775481224060059
vertex -10.631099999999995 25.633655336669925 8.775481343269359
endloop
endfacet
facet normal -3.7396986092636845e-16 -0.9999999999999999 0
outer loop
vertex -10.631099999999995 25.633655336669925 8.775481343269359
vertex -1.1310999999999942 25.63365533666992 11.775481224060059
vertex -10.631099999999995 25.633655336669925 11.775481224060059
endloop
endfacet
facet normal -1 2.220446154985844e-16 0
outer loop
vertex -1.1310999999999989 4.633656336669922 8.775481343269359
vertex -1.1310999999999989 4.633656336669922 11.775481224060059
vertex -1.1310999999999942 25.63365533666992 8.775481343269359
endloop
endfacet
facet normal -1 2.220446154985844e-16 0
outer loop
vertex -1.1310999999999942 25.63365533666992 8.775481343269359
vertex -1.1310999999999989 4.633656336669922 11.775481224060059
vertex -1.1310999999999942 25.63365533666992 11.775481224060059
endloop
endfacet
facet normal 1.869849304631843e-16 0.9999999999999999 0
outer loop
vertex 1.3689000000000011 4.633656336669922 8.775481343269359
vertex 1.3689000000000011 4.633656336669922 11.775481224060059
vertex 10.868899999999998 4.633656336669921 8.775481343269359
endloop
endfacet
facet normal 1.869849304631843e-16 0.9999999999999999 0
outer loop
vertex 10.868899999999998 4.633656336669921 8.775481343269359
vertex 1.3689000000000011 4.633656336669922 11.775481224060059
vertex 10.868899999999998 4.633656336669921 11.775481224060059
endloop
endfacet
facet normal 1 -2.220446154985844e-16 0
outer loop
vertex 1.3689000000000058 25.63365533666992 8.775481343269359
vertex 1.3689000000000058 25.63365533666992 11.775481224060059
vertex 1.3689000000000011 4.633656336669922 8.775481343269359
endloop
endfacet
facet normal 1 -2.220446154985844e-16 0
outer loop
vertex 1.3689000000000011 4.633656336669922 8.775481343269359
vertex 1.3689000000000058 25.63365533666992 11.775481224060059
vertex 1.3689000000000011 4.633656336669922 11.775481224060059
endloop
endfacet
facet normal -3.739698609263686e-16 -0.9999999999999999 0
outer loop
vertex 10.868900000000002 25.633655336669918 8.775481343269359
vertex 10.868900000000002 25.633655336669918 11.775481224060059
vertex 1.3689000000000058 25.63365533666992 8.775481343269359
endloop
endfacet
facet normal -3.739698609263686e-16 -0.9999999999999999 0
outer loop
vertex 1.3689000000000058 25.63365533666992 8.775481343269359
vertex 10.868900000000002 25.633655336669918 11.775481224060059
vertex 1.3689000000000058 25.63365533666992 11.775481224060059
endloop
endfacet
facet normal -1 1.6917684990368343e-16 0
outer loop
vertex 10.868899999999998 4.633656336669921 8.775481343269359
vertex 10.868899999999998 4.633656336669921 11.775481224060059
vertex 10.868900000000002 25.633655336669918 8.775481343269359
endloop
endfacet
facet normal -1 1.6917684990368343e-16 0
outer loop
vertex 10.868900000000002 25.633655336669918 8.775481343269359
vertex 10.868899999999998 4.633656336669921 11.775481224060059
vertex 10.868900000000002 25.633655336669918 11.775481224060059
endloop
endfacet
facet normal 0 0 1
outer loop
vertex -10.631099999999998 4.633656336669924 11.775481224060059
vertex -12.5 2.3027763366699254 11.775481224060059
vertex -1.1310999999999989 4.633656336669922 11.775481224060059
endloop
endfacet
facet normal 0 0 1
outer loop
vertex -10.631099999999998 4.633656336669924 11.775481224060059
vertex -12.499999999999993 27.302776336669925 11.775481224060059
vertex -12.5 2.3027763366699254 11.775481224060059
endloop
endfacet
facet normal 0 0 1
outer loop
vertex -10.631099999999998 4.633656336669924 11.775481224060059
vertex -10.631099999999995 25.633655336669925 11.775481224060059
vertex -12.499999999999993 27.302776336669925 11.775481224060059
endloop
endfacet
facet normal 0 0 1
outer loop
vertex -12.499999999999993 27.302776336669925 11.775481224060059
vertex -10.631099999999995 25.633655336669925 11.775481224060059
vertex -1.1310999999999942 25.63365533666992 11.775481224060059
endloop
endfacet
facet normal 0 0 1
outer loop
vertex 12.500000000000007 27.30277633666992 11.775481224060059
vertex -1.1310999999999942 25.63365533666992 11.775481224060059
vertex 1.3689000000000058 25.63365533666992 11.775481224060059
endloop
endfacet
facet normal 0 0 1
outer loop
vertex 10.868900000000002 25.633655336669918 11.775481224060059
vertex 12.500000000000007 27.30277633666992 11.775481224060059
vertex 1.3689000000000058 25.63365533666992 11.775481224060059
endloop
endfacet
facet normal 0 0 1
outer loop
vertex 10.868900000000002 25.633655336669918 11.775481224060059
vertex 10.868899999999998 4.633656336669921 11.775481224060059
vertex 12.500000000000007 27.30277633666992 11.775481224060059
endloop
endfacet
facet normal 0 0 1
outer loop
vertex 12.500000000000007 27.30277633666992 11.775481224060059
vertex 10.868899999999998 4.633656336669921 11.775481224060059
vertex 12.5 2.3027763366699183 11.775481224060059
endloop
endfacet
facet normal 0 0 1
outer loop
vertex 12.5 2.3027763366699183 11.775481224060059
vertex 10.868899999999998 4.633656336669921 11.775481224060059
vertex 1.3689000000000011 4.633656336669922 11.775481224060059
endloop
endfacet
facet normal 0 0 1
outer loop
vertex -1.1310999999999989 4.633656336669922 11.775481224060059
vertex 1.3689000000000011 4.633656336669922 11.775481224060059
vertex -1.1310999999999942 25.63365533666992 11.775481224060059
endloop
endfacet
facet normal 0 0 1
outer loop
vertex -1.1310999999999989 4.633656336669922 11.775481224060059
vertex 12.5 2.3027763366699183 11.775481224060059
vertex 1.3689000000000011 4.633656336669922 11.775481224060059
endloop
endfacet
facet normal 0 0 1
outer loop
vertex -1.1310999999999989 4.633656336669922 11.775481224060059
vertex -12.5 2.3027763366699254 11.775481224060059
vertex 12.5 2.3027763366699183 11.775481224060059
endloop
endfacet
facet normal 0 0 1
outer loop
vertex 1.3689000000000058 25.63365533666992 11.775481224060059
vertex -1.1310999999999942 25.63365533666992 11.775481224060059
vertex 1.3689000000000011 4.633656336669922 11.775481224060059
endloop
endfacet
facet normal 0 0 1
outer loop
vertex 12.500000000000007 27.30277633666992 11.775481224060059
vertex -12.499999999999993 27.302776336669925 11.775481224060059
vertex -1.1310999999999942 25.63365533666992 11.775481224060059
endloop
endfacet
facet normal 9.563058036972479e-24 5.11434737991326e-8 -0.9999999999999988
outer loop
vertex -1.1310999999999989 4.633656336669922 8.775481343269359
vertex -12.5 2.3027763366699254 8.775481224060059
vertex -10.631099999999998 4.633656336669924 8.775481343269359
endloop
endfacet
facet normal 1.4535849515804263e-23 5.114347379913257e-8 -0.9999999999999987
outer loop
vertex -1.1310999999999989 4.633656336669922 8.775481343269359
vertex 12.5 2.3027763366699183 8.775481224060059
vertex -12.5 2.3027763366699254 8.775481224060059
endloop
endfacet
facet normal 0 5.114347379913248e-8 -0.9999999999999986
outer loop
vertex -1.1310999999999989 4.633656336669922 8.775481343269359
vertex 1.3689000000000011 4.633656336669922 8.775481343269359
vertex 12.5 2.3027763366699183 8.775481224060059
endloop
endfacet
facet normal 0 0 -1
outer loop
vertex -1.1310999999999989 4.633656336669922 8.775481343269359
vertex 1.3689000000000058 25.63365533666992 8.775481343269359
vertex 1.3689000000000011 4.633656336669922 8.775481343269359
endloop
endfacet
facet normal 0 0 -1
outer loop
vertex -1.1310999999999989 4.633656336669922 8.775481343269359
vertex -1.1310999999999942 25.63365533666992 8.775481343269359
vertex 1.3689000000000058 25.63365533666992 8.775481343269359
endloop
endfacet
facet normal 0 -7.142040643483738e-8 -0.9999999999999974
outer loop
vertex 1.3689000000000058 25.63365533666992 8.775481343269359
vertex -1.1310999999999942 25.63365533666992 8.775481343269359
vertex 12.500000000000007 27.30277633666992 8.775481224060059
endloop
endfacet
facet normal -7.308521869224548e-8 1.2364325967419003e-23 -0.9999999999999973
outer loop
vertex 10.868900000000002 25.633655336669918 8.775481343269359
vertex 12.500000000000007 27.30277633666992 8.775481224060059
vertex 10.868899999999998 4.633656336669921 8.775481343269359
endloop
endfacet
facet normal -2.670907946174079e-23 -7.14204064348372e-8 -0.9999999999999974
outer loop
vertex 10.868900000000002 25.633655336669918 8.775481343269359
vertex 1.3689000000000058 25.63365533666992 8.775481343269359
vertex 12.500000000000007 27.30277633666992 8.775481224060059
endloop
endfacet
facet normal -2.0298898576060043e-23 -7.142040643483722e-8 -0.9999999999999976
outer loop
vertex 12.500000000000007 27.30277633666992 8.775481224060059
vertex -1.1310999999999942 25.63365533666992 8.775481343269359
vertex -12.499999999999993 27.302776336669925 8.775481224060059
endloop
endfacet
facet normal -2.6709079461740804e-23 -7.142040643483726e-8 -0.9999999999999974
outer loop
vertex -12.499999999999993 27.302776336669925 8.775481224060059
vertex -1.1310999999999942 25.63365533666992 8.775481343269359
vertex -10.631099999999995 25.633655336669925 8.775481343269359
endloop
endfacet
facet normal 6.378580994645093e-8 -1.079108143049774e-23 -0.999999999999998
outer loop
vertex -10.631099999999998 4.633656336669924 8.775481343269359
vertex -12.499999999999993 27.302776336669925 8.775481224060059
vertex -10.631099999999995 25.633655336669925 8.775481343269359
endloop
endfacet
facet normal 6.378580994645083e-8 -1.8129017560809993e-23 -0.9999999999999979
outer loop
vertex -10.631099999999998 4.633656336669924 8.775481343269359
vertex -12.5 2.3027763366699254 8.775481224060059
vertex -12.499999999999993 27.302776336669925 8.775481224060059
endloop
endfacet
facet normal 9.563058891976488e-24 5.114347379913254e-8 -0.9999999999999988
outer loop
vertex 1.3689000000000011 4.633656336669922 8.775481343269359
vertex 10.868899999999998 4.633656336669921 8.775481343269359
vertex 12.5 2.3027763366699183 8.775481224060059
endloop
endfacet
facet normal -7.308521869224558e-8 2.0772066636117876e-23 -0.9999999999999973
outer loop
vertex 12.5 2.3027763366699183 8.775481224060059
vertex 10.868899999999998 4.633656336669921 8.775481343269359
vertex 12.500000000000007 27.30277633666992 8.775481224060059
endloop
endfacet
facet normal -2.842170943040401e-16 -1 0
outer loop
vertex -12.5 2.3027763366699254 11.775481224060059
vertex -12.5 2.3027763366699254 8.775481224060059
vertex 12.5 2.3027763366699183 11.775481224060059
endloop
endfacet
facet normal -2.842170943040401e-16 -1 0
outer loop
vertex 12.5 2.3027763366699183 11.775481224060059
vertex -12.5 2.3027763366699254 8.775481224060059
vertex 12.5 2.3027763366699183 8.775481224060059
endloop
endfacet
facet normal -1 2.842170943040401e-16 0
outer loop
vertex -12.499999999999993 27.302776336669925 11.775481224060059
vertex -12.499999999999993 27.302776336669925 8.775481224060059
vertex -12.5 2.3027763366699254 11.775481224060059
endloop
endfacet
facet normal -1 2.842170943040401e-16 0
outer loop
vertex -12.5 2.3027763366699254 11.775481224060059
vertex -12.499999999999993 27.302776336669925 8.775481224060059
vertex -12.5 2.3027763366699254 8.775481224060059
endloop
endfacet
facet normal 2.842170943040401e-16 1 0
outer loop
vertex 12.500000000000007 27.30277633666992 11.775481224060059
vertex 12.500000000000007 27.30277633666992 8.775481224060059
vertex -12.499999999999993 27.302776336669925 11.775481224060059
endloop
endfacet
facet normal 2.842170943040401e-16 1 0
outer loop
vertex -12.499999999999993 27.302776336669925 11.775481224060059
vertex 12.500000000000007 27.30277633666992 8.775481224060059
vertex -12.499999999999993 27.302776336669925 8.775481224060059
endloop
endfacet
facet normal 1 -2.842170943040401e-16 0
outer loop
vertex 12.5 2.3027763366699183 11.775481224060059
vertex 12.5 2.3027763366699183 8.775481224060059
vertex 12.500000000000007 27.30277633666992 11.775481224060059
endloop
endfacet
facet normal 1 -2.842170943040401e-16 0
outer loop
vertex 12.500000000000007 27.30277633666992 11.775481224060059
vertex 12.5 2.3027763366699183 8.775481224060059
vertex 12.500000000000007 27.30277633666992 8.775481224060059
endloop
endfacet
endsolid