solid Edifici
facet normal 0.0 0.0 -1.0
  outer loop
    vertex 5.0 9.0 0.0
    vertex 0.0 -0.9999999999999999 0.0
    vertex 0.0 9.0 0.0
  endloop
endfacet
facet normal 0.0 0.0 -1.0
  outer loop
    vertex 0.0 -0.9999999999999999 0.0
    vertex 5.0 9.0 0.0
    vertex 1.25 0.0 -1.1407631401892812e-18
  endloop
endfacet
facet normal 0.0 0.0 -1.0
  outer loop
    vertex 1.25 0.0 -1.1407631401892812e-18
    vertex 5.0 9.0 0.0
    vertex 3.75 0.0 -1.1407631401892812e-18
  endloop
endfacet
facet normal 0.0 0.0 -1.0
  outer loop
    vertex 3.75 0.0 -1.1407631401892812e-18
    vertex 5.0 9.0 0.0
    vertex 3.75 -0.9999999999999999 0.0
  endloop
endfacet
facet normal 0.0 0.0 -1.0
  outer loop
    vertex 3.75 -0.9999999999999999 0.0
    vertex 5.0 9.0 0.0
    vertex 5.0 -0.9999999999999999 0.0
  endloop
endfacet
facet normal 0.0 0.0 -1.0
  outer loop
    vertex 5.0 -0.9999999999999999 0.0
    vertex 5.0 9.0 0.0
    vertex 10.0 9.0 0.0
  endloop
endfacet
facet normal 0.0 0.0 -1.0
  outer loop
    vertex 5.0 -0.9999999999999999 0.0
    vertex 10.0 9.0 0.0
    vertex 6.25 -0.9999999999999999 0.0
  endloop
endfacet
facet normal 0.0 0.0 -1.0
  outer loop
    vertex 6.25 -0.9999999999999999 0.0
    vertex 10.0 9.0 0.0
    vertex 7.5 -0.9999999999999999 0.0
  endloop
endfacet
facet normal 0.0 0.0 -1.0
  outer loop
    vertex 7.5 -0.9999999999999999 0.0
    vertex 10.0 9.0 0.0
    vertex 8.75 -0.9999999999999999 0.0
  endloop
endfacet
facet normal 0.0 0.0 -1.0
  outer loop
    vertex 8.75 -0.9999999999999999 0.0
    vertex 10.0 9.0 0.0
    vertex 10.0 -0.9999999999999999 0.0
  endloop
endfacet
facet normal 0.0 0.0 -1.0
  outer loop
    vertex 1.25 -0.9999999999999999 0.0
    vertex 0.0 -0.9999999999999999 0.0
    vertex 1.25 0.0 -1.1407631401892812e-18
  endloop
endfacet
facet normal 0.0 -1.0 0.0
  outer loop
    vertex 10.0 -0.9999999999999999 2.2500000000000004
    vertex 8.75 -0.9999999999999999 0.0
    vertex 10.0 -0.9999999999999999 0.0
  endloop
endfacet
facet normal 0.0 -1.0 0.0
  outer loop
    vertex 8.75 -0.9999999999999999 0.0
    vertex 10.0 -0.9999999999999999 2.2500000000000004
    vertex 8.75 -0.9999999999999999 2.2500000000000004
  endloop
endfacet
facet normal 0.0 1.0 0.0
  outer loop
    vertex 0.0 9.0 6.000000000000002
    vertex 4.000000000000001 9.0 7.000000000000001
    vertex 4.000000000000001 9.0 6.000000000000002
  endloop
endfacet
facet normal 0.0 1.0 0.0
  outer loop
    vertex 4.000000000000001 9.0 7.000000000000001
    vertex 0.0 9.0 6.000000000000002
    vertex 5.0 9.0 10.000000000000002
  endloop
endfacet
facet normal 0.0 1.0 0.0
  outer loop
    vertex 4.000000000000001 9.0 7.000000000000001
    vertex 5.0 9.0 10.000000000000002
    vertex 5.000000000000001 9.0 7.000000000000001
  endloop
endfacet
facet normal 0.6246950475544242 -2.2722133807493755e-17 0.7808688094430304
  outer loop
    vertex 10.0 -0.9999999999999999 6.000000000000002
    vertex 5.0 9.0 10.000000000000002
    vertex 5.0 -0.9999999999999999 10.000000000000002
  endloop
endfacet
facet normal 0.6246950475544242 -2.2722133807493755e-17 0.7808688094430304
  outer loop
    vertex 5.0 9.0 10.000000000000002
    vertex 10.0 -0.9999999999999999 6.000000000000002
    vertex 10.0 9.0 6.000000000000002
  endloop
endfacet
facet normal -0.6246950475544244 -8.73928223365145e-18 0.7808688094430305
  outer loop
    vertex 5.0 -0.9999999999999999 10.000000000000002
    vertex 0.0 9.0 6.000000000000002
    vertex 0.0 -0.9999999999999999 6.000000000000002
  endloop
endfacet
facet normal -0.6246950475544244 -8.73928223365145e-18 0.7808688094430305
  outer loop
    vertex 0.0 9.0 6.000000000000002
    vertex 5.0 -0.9999999999999999 10.000000000000002
    vertex 5.0 9.0 10.000000000000002
  endloop
endfacet
facet normal -1.0 0.0 0.0
  outer loop
    vertex 0.0 1.5000000000000004 2.25
    vertex 0.0 -0.9999999999999999 0.0
    vertex 0.0 -0.9999999999999999 2.2500000000000004
  endloop
endfacet
facet normal -1.0 0.0 0.0
  outer loop
    vertex 0.0 -0.9999999999999999 0.0
    vertex 0.0 1.5000000000000004 2.25
    vertex 0.0 9.0 0.0
  endloop
endfacet
facet normal -1.0 0.0 0.0
  outer loop
    vertex 0.0 9.0 0.0
    vertex 0.0 1.5000000000000004 2.25
    vertex 0.0 6.500000000000001 2.25
  endloop
endfacet
facet normal -1.0 0.0 0.0
  outer loop
    vertex 0.0 9.0 0.0
    vertex 0.0 6.500000000000001 2.25
    vertex 0.0 9.0 2.25
  endloop
endfacet
facet normal 1.0 0.0 0.0
  outer loop
    vertex 10.0 9.0 0.0
    vertex 10.0 -0.9999999999999999 2.2500000000000004
    vertex 10.0 -0.9999999999999999 0.0
  endloop
endfacet
facet normal 1.0 0.0 0.0
  outer loop
    vertex 10.0 -0.9999999999999999 2.2500000000000004
    vertex 10.0 9.0 0.0
    vertex 10.0 1.5000000000000004 2.2500000000000004
  endloop
endfacet
facet normal 1.0 0.0 0.0
  outer loop
    vertex 10.0 -0.9999999999999999 2.2500000000000004
    vertex 10.0 1.5000000000000004 2.2500000000000004
    vertex 10.0 -0.9999999999999999 5.250000000000002
  endloop
endfacet
facet normal 1.0 0.0 0.0
  outer loop
    vertex 10.0 -0.9999999999999999 5.250000000000002
    vertex 10.0 1.5000000000000004 2.2500000000000004
    vertex 10.0 -0.9999999999999999 6.000000000000002
  endloop
endfacet
facet normal 1.0 0.0 0.0
  outer loop
    vertex 10.0 1.5000000000000004 2.2500000000000004
    vertex 10.0 9.0 0.0
    vertex 10.0 6.500000000000001 2.2500000000000004
  endloop
endfacet
facet normal 1.0 0.0 0.0
  outer loop
    vertex 10.0 6.500000000000001 2.2500000000000004
    vertex 10.0 9.0 0.0
    vertex 10.0 6.500000000000001 5.25
  endloop
endfacet
facet normal 1.0 0.0 0.0
  outer loop
    vertex 10.0 -0.9999999999999999 6.000000000000002
    vertex 10.0 1.5000000000000004 5.250000000000002
    vertex 10.0 9.0 6.000000000000002
  endloop
endfacet
facet normal 1.0 0.0 0.0
  outer loop
    vertex 10.0 1.5000000000000004 5.250000000000002
    vertex 10.0 -0.9999999999999999 6.000000000000002
    vertex 10.0 1.5000000000000004 2.2500000000000004
  endloop
endfacet
facet normal 1.0 0.0 0.0
  outer loop
    vertex 10.0 9.0 6.000000000000002
    vertex 10.0 1.5000000000000004 5.250000000000002
    vertex 10.0 6.500000000000001 5.25
  endloop
endfacet
facet normal 1.0 0.0 0.0
  outer loop
    vertex 10.0 9.0 6.000000000000002
    vertex 10.0 6.500000000000001 5.25
    vertex 10.0 9.0 0.0
  endloop
endfacet
facet normal 1.0 0.0 0.0
  outer loop
    vertex 9.000000000000002 6.500000000000001 2.2500000000000004
    vertex 9.000000000000002 1.5000000000000004 5.250000000000002
    vertex 9.000000000000002 1.5000000000000004 2.2500000000000004
  endloop
endfacet
facet normal 1.0 0.0 0.0
  outer loop
    vertex 9.000000000000002 1.5000000000000004 5.250000000000002
    vertex 9.000000000000002 6.500000000000001 2.2500000000000004
    vertex 9.000000000000002 6.500000000000001 5.25
  endloop
endfacet
facet normal 0.0 1.0 0.0
  outer loop
    vertex 9.000000000000002 1.5000000000000004 5.250000000000002
    vertex 10.0 1.5000000000000004 2.2500000000000004
    vertex 9.000000000000002 1.5000000000000004 2.2500000000000004
  endloop
endfacet
facet normal 0.0 1.0 0.0
  outer loop
    vertex 10.0 1.5000000000000004 2.2500000000000004
    vertex 9.000000000000002 1.5000000000000004 5.250000000000002
    vertex 10.0 1.5000000000000004 5.250000000000002
  endloop
endfacet
facet normal 0.0 0.0 1.0
  outer loop
    vertex 10.0 1.5000000000000004 2.2500000000000004
    vertex 9.000000000000002 6.500000000000001 2.2500000000000004
    vertex 9.000000000000002 1.5000000000000004 2.2500000000000004
  endloop
endfacet
facet normal 0.0 0.0 1.0
  outer loop
    vertex 9.000000000000002 6.500000000000001 2.2500000000000004
    vertex 10.0 1.5000000000000004 2.2500000000000004
    vertex 10.0 6.500000000000001 2.2500000000000004
  endloop
endfacet
facet normal 0.0 -1.0 0.0
  outer loop
    vertex 10.0 6.500000000000001 5.25
    vertex 9.000000000000002 6.500000000000001 2.2500000000000004
    vertex 10.0 6.500000000000001 2.2500000000000004
  endloop
endfacet
facet normal 0.0 -1.0 0.0
  outer loop
    vertex 9.000000000000002 6.500000000000001 2.2500000000000004
    vertex 10.0 6.500000000000001 5.25
    vertex 9.000000000000002 6.500000000000001 5.25
  endloop
endfacet
facet normal -0.0 -2.8199664825478977e-16 -1.0
  outer loop
    vertex 10.0 6.500000000000001 5.25
    vertex 9.000000000000002 1.5000000000000004 5.250000000000002
    vertex 9.000000000000002 6.500000000000001 5.25
  endloop
endfacet
facet normal -0.0 -2.8199664825478977e-16 -1.0
  outer loop
    vertex 9.000000000000002 1.5000000000000004 5.250000000000002
    vertex 10.0 6.500000000000001 5.25
    vertex 10.0 1.5000000000000004 5.250000000000002
  endloop
endfacet
facet normal 1.1749860343949577e-17 -1.0 -2.2774316531704123e-16
  outer loop
    vertex 10.0 -0.9999999999999999 6.000000000000002
    vertex 8.75 -0.9999999999999999 5.250000000000002
    vertex 10.0 -0.9999999999999999 5.250000000000002
  endloop
endfacet
facet normal 1.1749860343949577e-17 -1.0 -2.2774316531704123e-16
  outer loop
    vertex 8.75 -0.9999999999999999 5.250000000000002
    vertex 10.0 -0.9999999999999999 6.000000000000002
    vertex 6.25 -0.9999999999999999 5.250000000000002
  endloop
endfacet
facet normal 1.1749860343949577e-17 -1.0 -2.2774316531704123e-16
  outer loop
    vertex 6.25 -0.9999999999999999 5.250000000000002
    vertex 10.0 -0.9999999999999999 6.000000000000002
    vertex 5.0 -0.9999999999999999 5.250000000000002
  endloop
endfacet
facet normal 1.1749860343949577e-17 -1.0 -2.2774316531704123e-16
  outer loop
    vertex 5.0 -0.9999999999999999 5.250000000000002
    vertex 10.0 -0.9999999999999999 6.000000000000002
    vertex 3.75 -0.9999999999999999 5.250000000000002
  endloop
endfacet
facet normal 1.1749860343949577e-17 -1.0 -2.2774316531704123e-16
  outer loop
    vertex 3.75 -0.9999999999999999 5.250000000000002
    vertex 10.0 -0.9999999999999999 6.000000000000002
    vertex 1.25 -0.9999999999999999 5.250000000000002
  endloop
endfacet
facet normal 1.1749860343949577e-17 -1.0 -2.2774316531704123e-16
  outer loop
    vertex 1.25 -0.9999999999999999 5.250000000000002
    vertex 0.0 -0.9999999999999999 6.000000000000002
    vertex 0.0 -0.9999999999999999 5.250000000000001
  endloop
endfacet
facet normal 1.1749860343949577e-17 -1.0 -2.2774316531704123e-16
  outer loop
    vertex 0.0 -0.9999999999999999 6.000000000000002
    vertex 1.25 -0.9999999999999999 5.250000000000002
    vertex 10.0 -0.9999999999999999 6.000000000000002
  endloop
endfacet
facet normal 1.1749860343949577e-17 -1.0 -2.2774316531704123e-16
  outer loop
    vertex 0.0 -0.9999999999999999 6.000000000000002
    vertex 10.0 -0.9999999999999999 6.000000000000002
    vertex 5.0 -0.9999999999999999 10.000000000000002
  endloop
endfacet
facet normal -1.0 0.0 0.0
  outer loop
    vertex 0.0 9.0 6.000000000000002
    vertex 0.0 -0.9999999999999999 5.250000000000001
    vertex 0.0 -0.9999999999999999 6.000000000000002
  endloop
endfacet
facet normal -1.0 0.0 0.0
  outer loop
    vertex 0.0 -0.9999999999999999 5.250000000000001
    vertex 0.0 9.0 6.000000000000002
    vertex 0.0 1.5000000000000004 5.25
  endloop
endfacet
facet normal -1.0 0.0 0.0
  outer loop
    vertex 0.0 1.5000000000000004 5.25
    vertex 0.0 9.0 6.000000000000002
    vertex 0.0 6.500000000000001 5.25
  endloop
endfacet
facet normal -1.0 0.0 0.0
  outer loop
    vertex 0.0 6.500000000000001 5.25
    vertex 0.0 9.0 6.000000000000002
    vertex 0.0 9.0 5.25
  endloop
endfacet
facet normal -1.0 0.0 0.0
  outer loop
    vertex 0.0 9.0 5.25
    vertex 0.0 6.500000000000001 2.25
    vertex 0.0 6.500000000000001 5.25
  endloop
endfacet
facet normal -1.0 0.0 0.0
  outer loop
    vertex 0.0 6.500000000000001 2.25
    vertex 0.0 9.0 5.25
    vertex 0.0 9.0 2.25
  endloop
endfacet
facet normal 0.0 1.0 0.0
  outer loop
    vertex 5.0 9.0 10.000000000000002
    vertex 6.000000000000001 9.0 7.000000000000001
    vertex 5.000000000000001 9.0 7.000000000000001
  endloop
endfacet
facet normal 0.0 1.0 0.0
  outer loop
    vertex 6.000000000000001 9.0 7.000000000000001
    vertex 10.0 9.0 6.000000000000002
    vertex 6.000000000000001 9.0 6.000000000000002
  endloop
endfacet
facet normal 0.0 1.0 0.0
  outer loop
    vertex 10.0 9.0 6.000000000000002
    vertex 6.000000000000001 9.0 7.000000000000001
    vertex 5.0 9.0 10.000000000000002
  endloop
endfacet
facet normal 0.0 1.0 0.0
  outer loop
    vertex 0.0 9.0 5.25
    vertex 4.000000000000001 9.0 5.000000000000002
    vertex 0.0 9.0 2.25
  endloop
endfacet
facet normal 0.0 1.0 0.0
  outer loop
    vertex 4.000000000000001 9.0 5.000000000000002
    vertex 0.0 9.0 5.25
    vertex 4.000000000000001 9.0 6.000000000000002
  endloop
endfacet
facet normal 0.0 1.0 0.0
  outer loop
    vertex 4.000000000000001 9.0 6.000000000000002
    vertex 0.0 9.0 5.25
    vertex 0.0 9.0 6.000000000000002
  endloop
endfacet
facet normal 0.0 1.0 0.0
  outer loop
    vertex 0.0 9.0 2.25
    vertex 5.0 9.0 0.0
    vertex 0.0 9.0 0.0
  endloop
endfacet
facet normal 0.0 1.0 0.0
  outer loop
    vertex 5.0 9.0 0.0
    vertex 0.0 9.0 2.25
    vertex 5.000000000000001 9.0 5.000000000000002
  endloop
endfacet
facet normal 0.0 1.0 0.0
  outer loop
    vertex 5.000000000000001 9.0 5.000000000000002
    vertex 0.0 9.0 2.25
    vertex 4.000000000000001 9.0 5.000000000000002
  endloop
endfacet
facet normal 0.0 1.0 0.0
  outer loop
    vertex 5.000000000000001 9.0 5.000000000000002
    vertex 10.0 9.0 0.0
    vertex 5.0 9.0 0.0
  endloop
endfacet
facet normal 0.0 1.0 0.0
  outer loop
    vertex 10.0 9.0 0.0
    vertex 5.000000000000001 9.0 5.000000000000002
    vertex 6.000000000000001 9.0 5.000000000000002
  endloop
endfacet
facet normal 0.0 1.0 0.0
  outer loop
    vertex 10.0 9.0 0.0
    vertex 6.000000000000001 9.0 5.000000000000002
    vertex 10.0 9.0 6.000000000000002
  endloop
endfacet
facet normal 0.0 1.0 0.0
  outer loop
    vertex 10.0 9.0 6.000000000000002
    vertex 6.000000000000001 9.0 5.000000000000002
    vertex 6.000000000000001 9.0 6.000000000000002
  endloop
endfacet
facet normal 0.0 1.0 0.0
  outer loop
    vertex 4.000000000000001 7.000000000000001 6.000000000000002
    vertex 5.000000000000001 7.000000000000001 5.000000000000002
    vertex 4.000000000000001 7.000000000000001 5.000000000000002
  endloop
endfacet
facet normal 0.0 1.0 0.0
  outer loop
    vertex 5.000000000000001 7.000000000000001 5.000000000000002
    vertex 4.000000000000001 7.000000000000001 6.000000000000002
    vertex 6.000000000000001 7.000000000000001 5.000000000000002
  endloop
endfacet
facet normal 0.0 1.0 0.0
  outer loop
    vertex 6.000000000000001 7.000000000000001 5.000000000000002
    vertex 4.000000000000001 7.000000000000001 6.000000000000002
    vertex 6.000000000000001 7.000000000000001 6.000000000000002
  endloop
endfacet
facet normal 0.0 1.0 0.0
  outer loop
    vertex 6.000000000000001 7.000000000000001 6.000000000000002
    vertex 4.000000000000001 7.000000000000001 6.000000000000002
    vertex 4.000000000000001 7.000000000000001 7.000000000000001
  endloop
endfacet
facet normal 0.0 1.0 0.0
  outer loop
    vertex 6.000000000000001 7.000000000000001 6.000000000000002
    vertex 4.000000000000001 7.000000000000001 7.000000000000001
    vertex 6.000000000000001 7.000000000000001 7.000000000000001
  endloop
endfacet
facet normal 0.0 1.0 0.0
  outer loop
    vertex 6.000000000000001 7.000000000000001 7.000000000000001
    vertex 4.000000000000001 7.000000000000001 7.000000000000001
    vertex 5.000000000000001 7.000000000000001 7.000000000000001
  endloop
endfacet
facet normal -1.0 -0.0 -0.0
  outer loop
    vertex 6.000000000000001 9.0 7.000000000000001
    vertex 6.000000000000001 7.000000000000001 6.000000000000002
    vertex 6.000000000000001 7.000000000000001 7.000000000000001
  endloop
endfacet
facet normal -1.0 -0.0 -0.0
  outer loop
    vertex 6.000000000000001 7.000000000000001 6.000000000000002
    vertex 6.000000000000001 9.0 7.000000000000001
    vertex 6.000000000000001 9.0 6.000000000000002
  endloop
endfacet
facet normal -1.0 -0.0 -0.0
  outer loop
    vertex 6.000000000000001 9.0 6.000000000000002
    vertex 6.000000000000001 7.000000000000001 5.000000000000002
    vertex 6.000000000000001 7.000000000000001 6.000000000000002
  endloop
endfacet
facet normal -1.0 -0.0 -0.0
  outer loop
    vertex 6.000000000000001 7.000000000000001 5.000000000000002
    vertex 6.000000000000001 9.0 6.000000000000002
    vertex 6.000000000000001 9.0 5.000000000000002
  endloop
endfacet
facet normal 0.0 0.0 1.0
  outer loop
    vertex 6.000000000000001 7.000000000000001 5.000000000000002
    vertex 5.000000000000001 9.0 5.000000000000002
    vertex 5.000000000000001 7.000000000000001 5.000000000000002
  endloop
endfacet
facet normal 0.0 0.0 1.0
  outer loop
    vertex 5.000000000000001 9.0 5.000000000000002
    vertex 6.000000000000001 7.000000000000001 5.000000000000002
    vertex 6.000000000000001 9.0 5.000000000000002
  endloop
endfacet
facet normal 0.0 0.0 1.0
  outer loop
    vertex 5.000000000000001 7.000000000000001 5.000000000000002
    vertex 4.000000000000001 9.0 5.000000000000002
    vertex 4.000000000000001 7.000000000000001 5.000000000000002
  endloop
endfacet
facet normal 0.0 0.0 1.0
  outer loop
    vertex 4.000000000000001 9.0 5.000000000000002
    vertex 5.000000000000001 7.000000000000001 5.000000000000002
    vertex 5.000000000000001 9.0 5.000000000000002
  endloop
endfacet
facet normal 1.0 0.0 0.0
  outer loop
    vertex 4.000000000000001 9.0 5.000000000000002
    vertex 4.000000000000001 7.000000000000001 6.000000000000002
    vertex 4.000000000000001 7.000000000000001 5.000000000000002
  endloop
endfacet
facet normal 1.0 0.0 0.0
  outer loop
    vertex 4.000000000000001 7.000000000000001 6.000000000000002
    vertex 4.000000000000001 9.0 5.000000000000002
    vertex 4.000000000000001 9.0 6.000000000000002
  endloop
endfacet
facet normal 1.0 0.0 0.0
  outer loop
    vertex 4.000000000000001 9.0 6.000000000000002
    vertex 4.000000000000001 7.000000000000001 7.000000000000001
    vertex 4.000000000000001 7.000000000000001 6.000000000000002
  endloop
endfacet
facet normal 1.0 0.0 0.0
  outer loop
    vertex 4.000000000000001 7.000000000000001 7.000000000000001
    vertex 4.000000000000001 9.0 6.000000000000002
    vertex 4.000000000000001 9.0 7.000000000000001
  endloop
endfacet
facet normal 0.0 0.0 -1.0
  outer loop
    vertex 5.000000000000001 9.0 7.000000000000001
    vertex 4.000000000000001 7.000000000000001 7.000000000000001
    vertex 4.000000000000001 9.0 7.000000000000001
  endloop
endfacet
facet normal 0.0 0.0 -1.0
  outer loop
    vertex 4.000000000000001 7.000000000000001 7.000000000000001
    vertex 5.000000000000001 9.0 7.000000000000001
    vertex 5.000000000000001 7.000000000000001 7.000000000000001
  endloop
endfacet
facet normal 0.0 0.0 -1.0
  outer loop
    vertex 6.000000000000001 9.0 7.000000000000001
    vertex 5.000000000000001 7.000000000000001 7.000000000000001
    vertex 5.000000000000001 9.0 7.000000000000001
  endloop
endfacet
facet normal 0.0 0.0 -1.0
  outer loop
    vertex 5.000000000000001 7.000000000000001 7.000000000000001
    vertex 6.000000000000001 9.0 7.000000000000001
    vertex 6.000000000000001 7.000000000000001 7.000000000000001
  endloop
endfacet
facet normal 0.0 -1.0 0.0
  outer loop
    vertex 10.0 -0.9999999999999999 5.250000000000002
    vertex 8.75 -0.9999999999999999 2.2500000000000004
    vertex 10.0 -0.9999999999999999 2.2500000000000004
  endloop
endfacet
facet normal 0.0 -1.0 0.0
  outer loop
    vertex 8.75 -0.9999999999999999 2.2500000000000004
    vertex 10.0 -0.9999999999999999 5.250000000000002
    vertex 8.75 -0.9999999999999999 5.250000000000002
  endloop
endfacet
facet normal 1.4099832412739493e-16 -1.0 2.3499720687899127e-16
  outer loop
    vertex 5.0 -0.9999999999999992 2.250000000000001
    vertex 3.75 -0.9999999999999999 0.0
    vertex 5.0 -0.9999999999999999 0.0
  endloop
endfacet
facet normal 1.4099832412739493e-16 -1.0 2.3499720687899127e-16
  outer loop
    vertex 3.75 -0.9999999999999999 0.0
    vertex 5.0 -0.9999999999999992 2.250000000000001
    vertex 3.75 -0.9999999999999996 2.2500000000000013
  endloop
endfacet
facet normal 1.4099832412739486e-16 -1.0 -1.7624790515924357e-16
  outer loop
    vertex 5.0 -0.9999999999999999 5.250000000000002
    vertex 3.75 -0.9999999999999996 2.2500000000000013
    vertex 5.0 -0.9999999999999992 2.250000000000001
  endloop
endfacet
facet normal 1.4099832412739486e-16 -1.0 -1.7624790515924357e-16
  outer loop
    vertex 3.75 -0.9999999999999996 2.2500000000000013
    vertex 5.0 -0.9999999999999999 5.250000000000002
    vertex 3.75 -0.9999999999999999 5.250000000000002
  endloop
endfacet
facet normal 0.0 -1.0 0.0
  outer loop
    vertex 1.25 -0.9999999999999999 2.2500000000000013
    vertex 0.0 -0.9999999999999999 5.250000000000001
    vertex 0.0 -0.9999999999999999 2.2500000000000004
  endloop
endfacet
facet normal 0.0 -1.0 0.0
  outer loop
    vertex 0.0 -0.9999999999999999 5.250000000000001
    vertex 1.25 -0.9999999999999999 2.2500000000000013
    vertex 1.25 -0.9999999999999999 5.250000000000002
  endloop
endfacet
facet normal 0.0 -1.0 0.0
  outer loop
    vertex 1.25 -0.9999999999999999 2.2500000000000013
    vertex 0.0 -0.9999999999999999 0.0
    vertex 1.25 -0.9999999999999999 0.0
  endloop
endfacet
facet normal 0.0 -1.0 0.0
  outer loop
    vertex 0.0 -0.9999999999999999 0.0
    vertex 1.25 -0.9999999999999999 2.2500000000000013
    vertex 0.0 -0.9999999999999999 2.2500000000000004
  endloop
endfacet
facet normal -7.04991620636974e-17 -1.0 2.741634080254899e-16
  outer loop
    vertex 7.5 -0.9999999999999994 2.250000000000001
    vertex 6.25 -0.9999999999999999 0.0
    vertex 7.5 -0.9999999999999999 0.0
  endloop
endfacet
facet normal -7.04991620636974e-17 -1.0 2.741634080254899e-16
  outer loop
    vertex 6.25 -0.9999999999999999 0.0
    vertex 7.5 -0.9999999999999994 2.250000000000001
    vertex 6.25 -0.9999999999999992 2.250000000000001
  endloop
endfacet
facet normal -2.114974861910922e-16 -1.0 1.174986034394957e-16
  outer loop
    vertex 8.75 -0.9999999999999999 2.2500000000000004
    vertex 7.5 -0.9999999999999999 0.0
    vertex 8.75 -0.9999999999999999 0.0
  endloop
endfacet
facet normal -2.114974861910922e-16 -1.0 1.174986034394957e-16
  outer loop
    vertex 7.5 -0.9999999999999999 0.0
    vertex 8.75 -0.9999999999999999 2.2500000000000004
    vertex 7.5 -0.9999999999999994 2.250000000000001
  endloop
endfacet
facet normal 1.5962074429516415e-16 -1.0 -3.4584494597285523e-16
  outer loop
    vertex 6.25 -0.9999999999999992 2.250000000000001
    vertex 5.0 -0.9999999999999992 2.250000000000001
    vertex 6.0 -0.9999999999999981 2.2500000000000004
  endloop
endfacet
facet normal 1.5962074429516415e-16 -1.0 -3.4584494597285523e-16
  outer loop
    vertex 5.0 -0.9999999999999992 2.250000000000001
    vertex 6.25 -0.9999999999999992 2.250000000000001
    vertex 6.25 -0.9999999999999999 5.250000000000002
  endloop
endfacet
facet normal 1.5962074429516415e-16 -1.0 -3.4584494597285523e-16
  outer loop
    vertex 5.0 -0.9999999999999992 2.250000000000001
    vertex 6.25 -0.9999999999999999 5.250000000000002
    vertex 5.0 -0.9999999999999999 5.250000000000002
  endloop
endfacet
facet normal 1.596207442951642e-16 -1.0 4.611265946304738e-16
  outer loop
    vertex 6.25 -0.9999999999999992 2.250000000000001
    vertex 5.0 -0.9999999999999999 0.0
    vertex 6.25 -0.9999999999999999 0.0
  endloop
endfacet
facet normal 1.596207442951642e-16 -1.0 4.611265946304738e-16
  outer loop
    vertex 5.0 -0.9999999999999999 0.0
    vertex 6.25 -0.9999999999999992 2.250000000000001
    vertex 6.0 -0.9999999999999981 2.2500000000000004
  endloop
endfacet
facet normal 1.596207442951642e-16 -1.0 4.611265946304738e-16
  outer loop
    vertex 5.0 -0.9999999999999992 2.250000000000001
    vertex 5.0 -0.9999999999999999 0.0
    vertex 6.0 -0.9999999999999981 2.2500000000000004
  endloop
endfacet
facet normal 0.0 1.3708170401274495e-16 -1.0
  outer loop
    vertex 8.75 0.9999999999999999 5.250000000000002
    vertex 6.25 -0.9999999999999999 5.250000000000002
    vertex 6.25 0.9999999999999999 5.250000000000002
  endloop
endfacet
facet normal 0.0 1.3708170401274495e-16 -1.0
  outer loop
    vertex 6.25 -0.9999999999999999 5.250000000000002
    vertex 8.75 0.9999999999999999 5.250000000000002
    vertex 8.75 -0.9999999999999999 5.250000000000002
  endloop
endfacet
facet normal 1.0 -1.4099832412739483e-16 -3.313421234455649e-32
  outer loop
    vertex 6.25 -0.9999999999999992 2.250000000000001
    vertex 6.25 0.9999999999999999 5.250000000000002
    vertex 6.25 -0.9999999999999999 5.250000000000002
  endloop
endfacet
facet normal 1.0 -1.4099832412739483e-16 -3.313421234455649e-32
  outer loop
    vertex 6.25 0.9999999999999999 5.250000000000002
    vertex 6.25 -0.9999999999999992 2.250000000000001
    vertex 6.25 1.0000000000000007 2.250000000000001
  endloop
endfacet
facet normal -1.9328290534324611e-32 -1.3708170401274495e-16 1.0
  outer loop
    vertex 7.5 -0.9999999999999994 2.250000000000001
    vertex 6.25 1.0000000000000007 2.250000000000001
    vertex 6.25 -0.9999999999999992 2.250000000000001
  endloop
endfacet
facet normal -1.9328290534324611e-32 -1.3708170401274495e-16 1.0
  outer loop
    vertex 6.25 1.0000000000000007 2.250000000000001
    vertex 7.5 -0.9999999999999994 2.250000000000001
    vertex 7.5 1.0000000000000007 2.250000000000001
  endloop
endfacet
facet normal 2.8199664825478957e-16 -1.37081704012745e-16 1.0
  outer loop
    vertex 8.75 -0.9999999999999999 2.2500000000000004
    vertex 7.5 1.0000000000000007 2.250000000000001
    vertex 7.5 -0.9999999999999994 2.250000000000001
  endloop
endfacet
facet normal 2.8199664825478957e-16 -1.37081704012745e-16 1.0
  outer loop
    vertex 7.5 1.0000000000000007 2.250000000000001
    vertex 8.75 -0.9999999999999999 2.2500000000000004
    vertex 8.75 0.9999999999999999 2.2500000000000004
  endloop
endfacet
facet normal -1.0 1.4099832412739483e-16 0.0
  outer loop
    vertex 8.75 0.9999999999999999 5.250000000000002
    vertex 8.75 -0.9999999999999999 2.2500000000000004
    vertex 8.75 -0.9999999999999999 5.250000000000002
  endloop
endfacet
facet normal -1.0 1.4099832412739483e-16 0.0
  outer loop
    vertex 8.75 -0.9999999999999999 2.2500000000000004
    vertex 8.75 0.9999999999999999 5.250000000000002
    vertex 8.75 0.9999999999999999 2.2500000000000004
  endloop
endfacet
facet normal 4.699944137579829e-17 -1.0 1.1407631401892814e-18
  outer loop
    vertex 3.75 3.524958103184872e-16 2.2500000000000013
    vertex 1.25 0.0 -1.1407631401892812e-18
    vertex 3.75 0.0 -1.1407631401892812e-18
  endloop
endfacet
facet normal 4.699944137579829e-17 -1.0 1.1407631401892814e-18
  outer loop
    vertex 1.25 0.0 -1.1407631401892812e-18
    vertex 3.75 3.524958103184872e-16 2.2500000000000013
    vertex 1.25 0.0 2.2500000000000013
  endloop
endfacet
facet normal 4.699944137579829e-17 -1.0 1.1407631401892814e-18
  outer loop
    vertex 1.25 0.0 2.2500000000000013
    vertex 3.75 3.524958103184872e-16 2.2500000000000013
    vertex 3.75 0.0 5.250000000000002
  endloop
endfacet
facet normal 4.699944137579829e-17 -1.0 1.1407631401892814e-18
  outer loop
    vertex 1.25 0.0 2.2500000000000013
    vertex 3.75 0.0 5.250000000000002
    vertex 1.25 0.0 5.250000000000002
  endloop
endfacet
facet normal -1.0 -4.6999441375798294e-17 7.363158298790331e-33
  outer loop
    vertex 3.75 -0.9999999999999996 2.2500000000000013
    vertex 3.75 0.0 -1.1407631401892812e-18
    vertex 3.75 -0.9999999999999999 0.0
  endloop
endfacet
facet normal -1.0 -4.6999441375798294e-17 7.363158298790331e-33
  outer loop
    vertex 3.75 0.0 -1.1407631401892812e-18
    vertex 3.75 -0.9999999999999996 2.2500000000000013
    vertex 3.75 3.524958103184872e-16 2.2500000000000013
  endloop
endfacet
facet normal -1.0 -4.699944137579829e-17 -5.52236872409275e-33
  outer loop
    vertex 3.75 0.0 5.250000000000002
    vertex 3.75 -0.9999999999999996 2.2500000000000013
    vertex 3.75 -0.9999999999999999 5.250000000000002
  endloop
endfacet
facet normal -1.0 -4.699944137579829e-17 -5.52236872409275e-33
  outer loop
    vertex 3.75 -0.9999999999999996 2.2500000000000013
    vertex 3.75 0.0 5.250000000000002
    vertex 3.75 3.524958103184872e-16 2.2500000000000013
  endloop
endfacet
facet normal -0.0 -1.1407631401892814e-18 -1.0
  outer loop
    vertex 3.75 0.0 5.250000000000002
    vertex 1.25 -0.9999999999999999 5.250000000000002
    vertex 1.25 0.0 5.250000000000002
  endloop
endfacet
facet normal -0.0 -1.1407631401892814e-18 -1.0
  outer loop
    vertex 1.25 -0.9999999999999999 5.250000000000002
    vertex 3.75 0.0 5.250000000000002
    vertex 3.75 -0.9999999999999999 5.250000000000002
  endloop
endfacet
facet normal 1.0 4.699944137579829e-17 0.0
  outer loop
    vertex 1.25 0.0 2.2500000000000013
    vertex 1.25 -0.9999999999999999 5.250000000000002
    vertex 1.25 -0.9999999999999999 2.2500000000000013
  endloop
endfacet
facet normal 1.0 4.699944137579829e-17 0.0
  outer loop
    vertex 1.25 -0.9999999999999999 5.250000000000002
    vertex 1.25 0.0 2.2500000000000013
    vertex 1.25 0.0 5.250000000000002
  endloop
endfacet
facet normal 1.0 4.6999441375798294e-17 0.0
  outer loop
    vertex 1.25 0.0 -1.1407631401892812e-18
    vertex 1.25 -0.9999999999999999 2.2500000000000013
    vertex 1.25 -0.9999999999999999 0.0
  endloop
endfacet
facet normal 1.0 4.6999441375798294e-17 0.0
  outer loop
    vertex 1.25 -0.9999999999999999 2.2500000000000013
    vertex 1.25 0.0 -1.1407631401892812e-18
    vertex 1.25 0.0 2.2500000000000013
  endloop
endfacet
facet normal -1.4099832412739483e-16 -1.0 -1.3708170401274495e-16
  outer loop
    vertex 8.75 0.9999999999999999 5.250000000000002
    vertex 7.5 1.0000000000000007 2.250000000000001
    vertex 8.75 0.9999999999999999 2.2500000000000004
  endloop
endfacet
facet normal -1.4099832412739483e-16 -1.0 -1.3708170401274495e-16
  outer loop
    vertex 7.5 1.0000000000000007 2.250000000000001
    vertex 8.75 0.9999999999999999 5.250000000000002
    vertex 6.25 1.0000000000000007 2.250000000000001
  endloop
endfacet
facet normal -1.4099832412739483e-16 -1.0 -1.3708170401274495e-16
  outer loop
    vertex 6.25 1.0000000000000007 2.250000000000001
    vertex 8.75 0.9999999999999999 5.250000000000002
    vertex 6.25 0.9999999999999999 5.250000000000002
  endloop
endfacet
facet normal -1.0 0.0 0.0
  outer loop
    vertex 0.0 1.5000000000000004 5.25
    vertex 0.0 -0.9999999999999999 2.2500000000000004
    vertex 0.0 -0.9999999999999999 5.250000000000001
  endloop
endfacet
facet normal -1.0 0.0 0.0
  outer loop
    vertex 0.0 -0.9999999999999999 2.2500000000000004
    vertex 0.0 1.5000000000000004 5.25
    vertex 0.0 1.5000000000000004 2.25
  endloop
endfacet
facet normal -1.0 0.0 0.0
  outer loop
    vertex 0.9999999999999999 6.500000000000001 5.25
    vertex 0.9999999999999999 1.5000000000000004 2.25
    vertex 0.9999999999999999 1.5000000000000004 5.25
  endloop
endfacet
facet normal -1.0 0.0 0.0
  outer loop
    vertex 0.9999999999999999 1.5000000000000004 2.25
    vertex 0.9999999999999999 6.500000000000001 5.25
    vertex 0.9999999999999999 6.500000000000001 2.25
  endloop
endfacet
facet normal 0.0 1.0 0.0
  outer loop
    vertex 0.0 1.5000000000000004 5.25
    vertex 0.9999999999999999 1.5000000000000004 2.25
    vertex 0.0 1.5000000000000004 2.25
  endloop
endfacet
facet normal 0.0 1.0 0.0
  outer loop
    vertex 0.9999999999999999 1.5000000000000004 2.25
    vertex 0.0 1.5000000000000004 5.25
    vertex 0.9999999999999999 1.5000000000000004 5.25
  endloop
endfacet
facet normal 0.0 0.0 -1.0
  outer loop
    vertex 0.9999999999999999 6.500000000000001 5.25
    vertex 0.0 1.5000000000000004 5.25
    vertex 0.0 6.500000000000001 5.25
  endloop
endfacet
facet normal 0.0 0.0 -1.0
  outer loop
    vertex 0.0 1.5000000000000004 5.25
    vertex 0.9999999999999999 6.500000000000001 5.25
    vertex 0.9999999999999999 1.5000000000000004 5.25
  endloop
endfacet
facet normal -0.0 -1.0 -0.0
  outer loop
    vertex 0.9999999999999999 6.500000000000001 5.25
    vertex 0.0 6.500000000000001 2.25
    vertex 0.9999999999999999 6.500000000000001 2.25
  endloop
endfacet
facet normal -0.0 -1.0 -0.0
  outer loop
    vertex 0.0 6.500000000000001 2.25
    vertex 0.9999999999999999 6.500000000000001 5.25
    vertex 0.0 6.500000000000001 5.25
  endloop
endfacet
facet normal 0.0 0.0 1.0
  outer loop
    vertex 0.9999999999999999 1.5000000000000004 2.25
    vertex 0.0 6.500000000000001 2.25
    vertex 0.0 1.5000000000000004 2.25
  endloop
endfacet
facet normal 0.0 0.0 1.0
  outer loop
    vertex 0.0 6.500000000000001 2.25
    vertex 0.9999999999999999 1.5000000000000004 2.25
    vertex 0.9999999999999999 6.500000000000001 2.25
  endloop
endfacet
endsolid Edifici
