solid ascii
  facet normal -1.000000e+00 0.000000e+00 0.000000e+00
    outer loop
      vertex   -3.028631e+01 1.000000e+01 0.000000e+00
      vertex   -3.028631e+01 1.000000e+01 3.000000e+00
      vertex   -3.028631e+01 3.000000e+01 0.000000e+00
    endloop
  endfacet
  facet normal -1.000000e+00 0.000000e+00 0.000000e+00
    outer loop
      vertex   -3.028631e+01 3.000000e+01 0.000000e+00
      vertex   -3.028631e+01 1.000000e+01 3.000000e+00
      vertex   -3.028631e+01 3.000000e+01 3.000000e+00
    endloop
  endfacet
  facet normal 0.000000e+00 7.253111e-08 1.000000e+00
    outer loop
      vertex   -1.000000e+01 3.000000e+01 3.000000e+00
      vertex   -3.028631e+01 3.000000e+01 3.000000e+00
      vertex   -2.836353e+01 2.835644e+01 3.000000e+00
    endloop
  endfacet
  facet normal 0.000000e+00 7.253111e-08 1.000000e+00
    outer loop
      vertex   -1.136353e+01 2.835644e+01 3.000000e+00
      vertex   -1.000000e+01 3.000000e+01 3.000000e+00
      vertex   -2.836353e+01 2.835644e+01 3.000000e+00
    endloop
  endfacet
  facet normal 8.742728e-08 -0.000000e+00 1.000000e+00
    outer loop
      vertex   -1.136353e+01 2.835644e+01 3.000000e+00
      vertex   -1.000000e+01 1.000000e+01 3.000000e+00
      vertex   -1.000000e+01 3.000000e+01 3.000000e+00
    endloop
  endfacet
  facet normal 8.742728e-08 0.000000e+00 1.000000e+00
    outer loop
      vertex   -1.136353e+01 2.835644e+01 3.000000e+00
      vertex   -1.136353e+01 1.135644e+01 3.000000e+00
      vertex   -1.000000e+01 1.000000e+01 3.000000e+00
    endloop
  endfacet
  facet normal 0.000000e+00 -8.788400e-08 1.000000e+00
    outer loop
      vertex   -1.000000e+01 1.000000e+01 3.000000e+00
      vertex   -1.136353e+01 1.135644e+01 3.000000e+00
      vertex   -2.836353e+01 1.135644e+01 3.000000e+00
    endloop
  endfacet
  facet normal -6.199812e-08 0.000000e+00 1.000000e+00
    outer loop
      vertex   -3.028631e+01 1.000000e+01 3.000000e+00
      vertex   -2.836353e+01 1.135644e+01 3.000000e+00
      vertex   -2.836353e+01 2.835644e+01 3.000000e+00
    endloop
  endfacet
  facet normal -6.199812e-08 0.000000e+00 1.000000e+00
    outer loop
      vertex   -3.028631e+01 3.000000e+01 3.000000e+00
      vertex   -3.028631e+01 1.000000e+01 3.000000e+00
      vertex   -2.836353e+01 2.835644e+01 3.000000e+00
    endloop
  endfacet
  facet normal 0.000000e+00 -8.788400e-08 1.000000e+00
    outer loop
      vertex   -3.028631e+01 1.000000e+01 3.000000e+00
      vertex   -1.000000e+01 1.000000e+01 3.000000e+00
      vertex   -2.836353e+01 1.135644e+01 3.000000e+00
    endloop
  endfacet
  facet normal 0.000000e+00 -1.000000e+00 0.000000e+00
    outer loop
      vertex   -3.028631e+01 1.000000e+01 3.000000e+00
      vertex   -3.028631e+01 1.000000e+01 0.000000e+00
      vertex   -1.000000e+01 1.000000e+01 3.000000e+00
    endloop
  endfacet
  facet normal 0.000000e+00 -1.000000e+00 -0.000000e+00
    outer loop
      vertex   -1.000000e+01 1.000000e+01 3.000000e+00
      vertex   -3.028631e+01 1.000000e+01 0.000000e+00
      vertex   -1.000000e+01 1.000000e+01 0.000000e+00
    endloop
  endfacet
  facet normal -0.000000e+00 1.000000e+00 0.000000e+00
    outer loop
      vertex   -2.836353e+01 1.135644e+01 1.192093e-07
      vertex   -2.836353e+01 1.135644e+01 3.000000e+00
      vertex   -1.136353e+01 1.135644e+01 1.192093e-07
    endloop
  endfacet
  facet normal 0.000000e+00 1.000000e+00 -0.000000e+00
    outer loop
      vertex   -1.136353e+01 1.135644e+01 1.192093e-07
      vertex   -2.836353e+01 1.135644e+01 3.000000e+00
      vertex   -1.136353e+01 1.135644e+01 3.000000e+00
    endloop
  endfacet
  facet normal 1.000000e+00 0.000000e+00 -0.000000e+00
    outer loop
      vertex   -2.836353e+01 2.835644e+01 1.192093e-07
      vertex   -2.836353e+01 2.835644e+01 3.000000e+00
      vertex   -2.836353e+01 1.135644e+01 1.192093e-07
    endloop
  endfacet
  facet normal 1.000000e+00 0.000000e+00 -0.000000e+00
    outer loop
      vertex   -2.836353e+01 1.135644e+01 1.192093e-07
      vertex   -2.836353e+01 2.835644e+01 3.000000e+00
      vertex   -2.836353e+01 1.135644e+01 3.000000e+00
    endloop
  endfacet
  facet normal -0.000000e+00 -1.000000e+00 0.000000e+00
    outer loop
      vertex   -1.136353e+01 2.835644e+01 1.192093e-07
      vertex   -1.136353e+01 2.835644e+01 3.000000e+00
      vertex   -2.836353e+01 2.835644e+01 1.192093e-07
    endloop
  endfacet
  facet normal 0.000000e+00 -1.000000e+00 0.000000e+00
    outer loop
      vertex   -2.836353e+01 2.835644e+01 1.192093e-07
      vertex   -1.136353e+01 2.835644e+01 3.000000e+00
      vertex   -2.836353e+01 2.835644e+01 3.000000e+00
    endloop
  endfacet
  facet normal -1.000000e+00 0.000000e+00 0.000000e+00
    outer loop
      vertex   -1.136353e+01 1.135644e+01 1.192093e-07
      vertex   -1.136353e+01 1.135644e+01 3.000000e+00
      vertex   -1.136353e+01 2.835644e+01 1.192093e-07
    endloop
  endfacet
  facet normal -1.000000e+00 0.000000e+00 0.000000e+00
    outer loop
      vertex   -1.136353e+01 2.835644e+01 1.192093e-07
      vertex   -1.136353e+01 1.135644e+01 3.000000e+00
      vertex   -1.136353e+01 2.835644e+01 3.000000e+00
    endloop
  endfacet
  facet normal 6.199812e-08 0.000000e+00 -1.000000e+00
    outer loop
      vertex   -3.028631e+01 3.000000e+01 0.000000e+00
      vertex   -2.836353e+01 2.835644e+01 1.192093e-07
      vertex   -3.028631e+01 1.000000e+01 0.000000e+00
    endloop
  endfacet
  facet normal 0.000000e+00 -7.253111e-08 -1.000000e+00
    outer loop
      vertex   -3.028631e+01 3.000000e+01 0.000000e+00
      vertex   -1.000000e+01 3.000000e+01 0.000000e+00
      vertex   -2.836353e+01 2.835644e+01 1.192093e-07
    endloop
  endfacet
  facet normal 0.000000e+00 -7.253111e-08 -1.000000e+00
    outer loop
      vertex   -2.836353e+01 2.835644e+01 1.192093e-07
      vertex   -1.000000e+01 3.000000e+01 0.000000e+00
      vertex   -1.136353e+01 2.835644e+01 1.192093e-07
    endloop
  endfacet
  facet normal -8.742728e-08 -0.000000e+00 -1.000000e+00
    outer loop
      vertex   -1.136353e+01 2.835644e+01 1.192093e-07
      vertex   -1.000000e+01 3.000000e+01 0.000000e+00
      vertex   -1.000000e+01 1.000000e+01 0.000000e+00
    endloop
  endfacet
  facet normal 0.000000e+00 8.788400e-08 -1.000000e+00
    outer loop
      vertex   -1.136353e+01 1.135644e+01 1.192093e-07
      vertex   -1.000000e+01 1.000000e+01 0.000000e+00
      vertex   -2.836353e+01 1.135644e+01 1.192093e-07
    endloop
  endfacet
  facet normal -8.742728e-08 0.000000e+00 -1.000000e+00
    outer loop
      vertex   -1.136353e+01 1.135644e+01 1.192093e-07
      vertex   -1.136353e+01 2.835644e+01 1.192093e-07
      vertex   -1.000000e+01 1.000000e+01 0.000000e+00
    endloop
  endfacet
  facet normal 0.000000e+00 8.788400e-08 -1.000000e+00
    outer loop
      vertex   -1.000000e+01 1.000000e+01 0.000000e+00
      vertex   -3.028631e+01 1.000000e+01 0.000000e+00
      vertex   -2.836353e+01 1.135644e+01 1.192093e-07
    endloop
  endfacet
  facet normal 6.199812e-08 0.000000e+00 -1.000000e+00
    outer loop
      vertex   -2.836353e+01 1.135644e+01 1.192093e-07
      vertex   -3.028631e+01 1.000000e+01 0.000000e+00
      vertex   -2.836353e+01 2.835644e+01 1.192093e-07
    endloop
  endfacet
  facet normal -0.000000e+00 1.000000e+00 0.000000e+00
    outer loop
      vertex   -3.028631e+01 3.000000e+01 0.000000e+00
      vertex   -3.028631e+01 3.000000e+01 3.000000e+00
      vertex   -1.000000e+01 3.000000e+01 0.000000e+00
    endloop
  endfacet
  facet normal 0.000000e+00 1.000000e+00 -0.000000e+00
    outer loop
      vertex   -1.000000e+01 3.000000e+01 0.000000e+00
      vertex   -3.028631e+01 3.000000e+01 3.000000e+00
      vertex   -1.000000e+01 3.000000e+01 3.000000e+00
    endloop
  endfacet
  facet normal 1.000000e+00 -0.000000e+00 0.000000e+00
    outer loop
      vertex   -1.000000e+01 1.000000e+01 3.000000e+00
      vertex   -1.000000e+01 1.000000e+01 0.000000e+00
      vertex   -1.000000e+01 3.000000e+01 3.000000e+00
    endloop
  endfacet
  facet normal 1.000000e+00 -0.000000e+00 0.000000e+00
    outer loop
      vertex   -1.000000e+01 3.000000e+01 3.000000e+00
      vertex   -1.000000e+01 1.000000e+01 0.000000e+00
      vertex   -1.000000e+01 3.000000e+01 0.000000e+00
    endloop
  endfacet
endsolid
