<svg xmlns="http://www.w3.org/2000/svg" xmlns:xlink="http://www.w3.org/1999/xlink" version="1.1" x="0px" y="0px" viewBox="0 0 80 100" enable-background="new 0 0 80 80" xml:space="preserve"><g><g><path fill="#000000" d="M40.5,23C30.6,23,20,21.1,20,17s10.6-6,20.5-6S61,12.9,61,17S50.4,23,40.5,23z M40.5,13    c-12,0-18.5,2.6-18.5,4s6.5,4,18.5,4S59,18.4,59,17S52.5,13,40.5,13z"/></g><g><path fill="#000000" d="M40.5,64C30.6,64,20,62.1,20,58h2c0,1.4,6.5,4,18.5,4S59,59.4,59,58h2C61,62.1,50.4,64,40.5,64z"/></g><g><rect x="20" y="17" fill="#000000" width="2" height="41"/></g><g><rect x="59" y="17" fill="#000000" width="2" height="41"/></g></g><text x="0" y="95" fill="#000000" font-size="5px" font-weight="bold" font-family="'Helvetica Neue', Helvetica, Arial-Unicode, Arial, Sans-serif">Created by BraveBros.</text><text x="0" y="100" fill="#000000" font-size="5px" font-weight="bold" font-family="'Helvetica Neue', Helvetica, Arial-Unicode, Arial, Sans-serif">from the Noun Project</text></svg>