solid ascii
  facet normal 0.000000e+00 -0.000000e+00 1.000000e+00
    outer loop
      vertex   -2.006890e+01 -4.113148e+01 5.000000e+00
      vertex   2.993110e+01 -4.113148e+01 5.000000e+00
      vertex   -2.006890e+01 8.868516e+00 5.000000e+00
    endloop
  endfacet
  facet normal 0.000000e+00 -0.000000e+00 1.000000e+00
    outer loop
      vertex   -7.006890e+01 8.868516e+00 5.000000e+00
      vertex   -2.006890e+01 8.868516e+00 5.000000e+00
      vertex   -7.006890e+01 5.886852e+01 5.000000e+00
    endloop
  endfacet
  facet normal -0.000000e+00 0.000000e+00 1.000000e+00
    outer loop
      vertex   -7.006890e+01 8.868516e+00 5.000000e+00
      vertex   -2.006890e+01 -4.113148e+01 5.000000e+00
      vertex   -2.006890e+01 8.868516e+00 5.000000e+00
    endloop
  endfacet
  facet normal -0.000000e+00 0.000000e+00 1.000000e+00
    outer loop
      vertex   -7.006890e+01 8.868516e+00 5.000000e+00
      vertex   -7.006890e+01 -4.113148e+01 5.000000e+00
      vertex   -2.006890e+01 -4.113148e+01 5.000000e+00
    endloop
  endfacet
  facet normal 0.000000e+00 0.000000e+00 1.000000e+00
    outer loop
      vertex   2.993110e+01 5.886852e+01 5.000000e+00
      vertex   -2.006890e+01 5.886852e+01 5.000000e+00
      vertex   2.993110e+01 8.868516e+00 5.000000e+00
    endloop
  endfacet
  facet normal 0.000000e+00 0.000000e+00 1.000000e+00
    outer loop
      vertex   2.993110e+01 8.868516e+00 5.000000e+00
      vertex   -2.006890e+01 5.886852e+01 5.000000e+00
      vertex   -2.006890e+01 8.868516e+00 5.000000e+00
    endloop
  endfacet
  facet normal 0.000000e+00 -0.000000e+00 1.000000e+00
    outer loop
      vertex   2.993110e+01 -4.113148e+01 5.000000e+00
      vertex   2.993110e+01 8.868516e+00 5.000000e+00
      vertex   -2.006890e+01 8.868516e+00 5.000000e+00
    endloop
  endfacet
  facet normal 0.000000e+00 0.000000e+00 1.000000e+00
    outer loop
      vertex   -2.006890e+01 5.886852e+01 5.000000e+00
      vertex   -7.006890e+01 5.886852e+01 5.000000e+00
      vertex   -2.006890e+01 8.868516e+00 5.000000e+00
    endloop
  endfacet
  facet normal 0.000000e+00 -0.000000e+00 -1.000000e+00
    outer loop
      vertex   -2.006890e+01 5.886852e+01 0.000000e+00
      vertex   2.993110e+01 5.886852e+01 0.000000e+00
      vertex   -2.006890e+01 8.868516e+00 0.000000e+00
    endloop
  endfacet
  facet normal 0.000000e+00 -0.000000e+00 -1.000000e+00
    outer loop
      vertex   -7.006890e+01 8.868516e+00 0.000000e+00
      vertex   -2.006890e+01 8.868516e+00 0.000000e+00
      vertex   -7.006890e+01 -4.113148e+01 0.000000e+00
    endloop
  endfacet
  facet normal 0.000000e+00 0.000000e+00 -1.000000e+00
    outer loop
      vertex   -7.006890e+01 8.868516e+00 0.000000e+00
      vertex   -2.006890e+01 5.886852e+01 0.000000e+00
      vertex   -2.006890e+01 8.868516e+00 0.000000e+00
    endloop
  endfacet
  facet normal 0.000000e+00 0.000000e+00 -1.000000e+00
    outer loop
      vertex   -7.006890e+01 8.868516e+00 0.000000e+00
      vertex   -7.006890e+01 5.886852e+01 0.000000e+00
      vertex   -2.006890e+01 5.886852e+01 0.000000e+00
    endloop
  endfacet
  facet normal 0.000000e+00 0.000000e+00 -1.000000e+00
    outer loop
      vertex   2.993110e+01 -4.113148e+01 0.000000e+00
      vertex   -2.006890e+01 -4.113148e+01 0.000000e+00
      vertex   2.993110e+01 8.868516e+00 0.000000e+00
    endloop
  endfacet
  facet normal -0.000000e+00 0.000000e+00 -1.000000e+00
    outer loop
      vertex   2.993110e+01 8.868516e+00 0.000000e+00
      vertex   -2.006890e+01 -4.113148e+01 0.000000e+00
      vertex   -2.006890e+01 8.868516e+00 0.000000e+00
    endloop
  endfacet
  facet normal -0.000000e+00 -0.000000e+00 -1.000000e+00
    outer loop
      vertex   2.993110e+01 5.886852e+01 0.000000e+00
      vertex   2.993110e+01 8.868516e+00 0.000000e+00
      vertex   -2.006890e+01 8.868516e+00 0.000000e+00
    endloop
  endfacet
  facet normal 0.000000e+00 0.000000e+00 -1.000000e+00
    outer loop
      vertex   -2.006890e+01 -4.113148e+01 0.000000e+00
      vertex   -7.006890e+01 -4.113148e+01 0.000000e+00
      vertex   -2.006890e+01 8.868516e+00 0.000000e+00
    endloop
  endfacet
  facet normal 0.000000e+00 -1.000000e+00 0.000000e+00
    outer loop
      vertex   -7.006890e+01 -4.113148e+01 5.000000e+00
      vertex   -7.006890e+01 -4.113148e+01 0.000000e+00
      vertex   -2.006890e+01 -4.113148e+01 5.000000e+00
    endloop
  endfacet
  facet normal 0.000000e+00 -1.000000e+00 -0.000000e+00
    outer loop
      vertex   -2.006890e+01 -4.113148e+01 5.000000e+00
      vertex   -7.006890e+01 -4.113148e+01 0.000000e+00
      vertex   -2.006890e+01 -4.113148e+01 0.000000e+00
    endloop
  endfacet
  facet normal 0.000000e+00 -1.000000e+00 -0.000000e+00
    outer loop
      vertex   2.993110e+01 -4.113148e+01 5.000000e+00
      vertex   -2.006890e+01 -4.113148e+01 0.000000e+00
      vertex   2.993110e+01 -4.113148e+01 0.000000e+00
    endloop
  endfacet
  facet normal -0.000000e+00 -1.000000e+00 -0.000000e+00
    outer loop
      vertex   2.993110e+01 -4.113148e+01 5.000000e+00
      vertex   -2.006890e+01 -4.113148e+01 5.000000e+00
      vertex   -2.006890e+01 -4.113148e+01 0.000000e+00
    endloop
  endfacet
  facet normal -1.000000e+00 -0.000000e+00 -0.000000e+00
    outer loop
      vertex   -7.006890e+01 5.886852e+01 5.000000e+00
      vertex   -7.006890e+01 5.886852e+01 0.000000e+00
      vertex   -7.006890e+01 8.868516e+00 5.000000e+00
    endloop
  endfacet
  facet normal -1.000000e+00 -0.000000e+00 -0.000000e+00
    outer loop
      vertex   -7.006890e+01 8.868516e+00 5.000000e+00
      vertex   -7.006890e+01 5.886852e+01 0.000000e+00
      vertex   -7.006890e+01 8.868516e+00 0.000000e+00
    endloop
  endfacet
  facet normal -1.000000e+00 -0.000000e+00 -0.000000e+00
    outer loop
      vertex   -7.006890e+01 -4.113148e+01 5.000000e+00
      vertex   -7.006890e+01 8.868516e+00 0.000000e+00
      vertex   -7.006890e+01 -4.113148e+01 0.000000e+00
    endloop
  endfacet
  facet normal -1.000000e+00 0.000000e+00 0.000000e+00
    outer loop
      vertex   -7.006890e+01 -4.113148e+01 5.000000e+00
      vertex   -7.006890e+01 8.868516e+00 5.000000e+00
      vertex   -7.006890e+01 8.868516e+00 0.000000e+00
    endloop
  endfacet
  facet normal 0.000000e+00 1.000000e+00 0.000000e+00
    outer loop
      vertex   2.993110e+01 5.886852e+01 5.000000e+00
      vertex   2.993110e+01 5.886852e+01 0.000000e+00
      vertex   -2.006890e+01 5.886852e+01 5.000000e+00
    endloop
  endfacet
  facet normal 0.000000e+00 1.000000e+00 0.000000e+00
    outer loop
      vertex   -2.006890e+01 5.886852e+01 5.000000e+00
      vertex   2.993110e+01 5.886852e+01 0.000000e+00
      vertex   -2.006890e+01 5.886852e+01 0.000000e+00
    endloop
  endfacet
  facet normal 0.000000e+00 1.000000e+00 0.000000e+00
    outer loop
      vertex   -7.006890e+01 5.886852e+01 5.000000e+00
      vertex   -2.006890e+01 5.886852e+01 0.000000e+00
      vertex   -7.006890e+01 5.886852e+01 0.000000e+00
    endloop
  endfacet
  facet normal -0.000000e+00 1.000000e+00 0.000000e+00
    outer loop
      vertex   -7.006890e+01 5.886852e+01 5.000000e+00
      vertex   -2.006890e+01 5.886852e+01 5.000000e+00
      vertex   -2.006890e+01 5.886852e+01 0.000000e+00
    endloop
  endfacet
  facet normal 1.000000e+00 -0.000000e+00 0.000000e+00
    outer loop
      vertex   2.993110e+01 -4.113148e+01 5.000000e+00
      vertex   2.993110e+01 -4.113148e+01 0.000000e+00
      vertex   2.993110e+01 8.868516e+00 5.000000e+00
    endloop
  endfacet
  facet normal 1.000000e+00 -0.000000e+00 0.000000e+00
    outer loop
      vertex   2.993110e+01 8.868516e+00 5.000000e+00
      vertex   2.993110e+01 -4.113148e+01 0.000000e+00
      vertex   2.993110e+01 8.868516e+00 0.000000e+00
    endloop
  endfacet
  facet normal 1.000000e+00 -0.000000e+00 0.000000e+00
    outer loop
      vertex   2.993110e+01 5.886852e+01 5.000000e+00
      vertex   2.993110e+01 8.868516e+00 0.000000e+00
      vertex   2.993110e+01 5.886852e+01 0.000000e+00
    endloop
  endfacet
  facet normal 1.000000e+00 0.000000e+00 0.000000e+00
    outer loop
      vertex   2.993110e+01 5.886852e+01 5.000000e+00
      vertex   2.993110e+01 8.868516e+00 5.000000e+00
      vertex   2.993110e+01 8.868516e+00 0.000000e+00
    endloop
  endfacet
endsolid
