solid ascii
  facet normal 0.000000e+00 1.000000e+01 0.000000e+00
    outer loop
      vertex   3.959676e+00 9.228635e-01 2.298000e+01
      vertex   3.959676e+00 9.228635e-01 2.138000e+01
      vertex   7.596759e-01 9.228635e-01 2.298000e+01
    endloop
  endfacet
  facet normal 0.000000e+00 8.944272e+00 0.000000e+00
    outer loop
      vertex   7.596759e-01 9.228635e-01 2.298000e+01
      vertex   3.959676e+00 9.228635e-01 2.138000e+01
      vertex   7.596759e-01 9.228635e-01 2.138000e+01
    endloop
  endfacet
  facet normal 1.023047e-15 2.931977e+00 -4.607393e+00
    outer loop
      vertex   7.596759e-01 2.682863e+00 2.410000e+01
      vertex   3.959676e+00 2.682863e+00 2.410000e+01
      vertex   3.959676e+00 9.228635e-01 2.298000e+01
    endloop
  endfacet
  facet normal 1.873305e-15 5.368754e+00 -8.436615e+00
    outer loop
      vertex   7.596759e-01 9.228635e-01 2.298000e+01
      vertex   7.596759e-01 2.682863e+00 2.410000e+01
      vertex   3.959676e+00 9.228635e-01 2.298000e+01
    endloop
  endfacet
  facet normal -7.071067e+00 0.000000e+00 -1.570092e-15
    outer loop
      vertex   7.596759e-01 2.682863e+00 2.730000e+01
      vertex   7.596759e-01 2.682863e+00 2.410000e+01
      vertex   7.596759e-01 -5.171364e-01 3.050000e+01
    endloop
  endfacet
  facet normal -2.710162e+00 0.000000e+00 -6.017769e-16
    outer loop
      vertex   7.596759e-01 -5.171364e-01 3.050000e+01
      vertex   7.596759e-01 2.682863e+00 2.410000e+01
      vertex   7.596759e-01 9.228635e-01 2.298000e+01
    endloop
  endfacet
  facet normal -3.259137e-01 0.000000e+00 -7.236738e-17
    outer loop
      vertex   7.596759e-01 -5.171364e-01 3.050000e+01
      vertex   7.596759e-01 9.228635e-01 2.298000e+01
      vertex   7.596759e-01 9.228635e-01 2.138000e+01
    endloop
  endfacet
  facet normal -9.298064e+00 0.000000e+00 -2.064585e-15
    outer loop
      vertex   7.596759e-01 9.228635e-01 2.138000e+01
      vertex   7.596759e-01 1.562863e+00 2.058000e+01
      vertex   7.596759e-01 -3.571364e-01 1.914000e+01
    endloop
  endfacet
  facet normal -6.254810e+00 0.000000e+00 -1.388847e-15
    outer loop
      vertex   7.596759e-01 9.228635e-01 2.138000e+01
      vertex   7.596759e-01 -3.571364e-01 1.914000e+01
      vertex   7.596759e-01 -5.171364e-01 3.050000e+01
    endloop
  endfacet
  facet normal -5.507221e+00 0.000000e+00 -1.222849e-15
    outer loop
      vertex   7.596759e-01 -1.971363e-01 1.738000e+01
      vertex   7.596759e-01 1.562863e+00 1.610000e+01
      vertex   7.596759e-01 7.628637e-01 1.482000e+01
    endloop
  endfacet
  facet normal -1.135466e+00 0.000000e+00 -2.521241e-16
    outer loop
      vertex   7.596759e-01 -1.971363e-01 1.738000e+01
      vertex   7.596759e-01 7.628637e-01 1.482000e+01
      vertex   7.596759e-01 7.628637e-01 1.354000e+01
    endloop
  endfacet
  facet normal -5.487372e+00 0.000000e+00 -1.218441e-15
    outer loop
      vertex   7.596759e-01 7.628637e-01 1.354000e+01
      vertex   7.596759e-01 2.202863e+00 1.178000e+01
      vertex   7.596759e-01 1.082864e+00 1.050000e+01
    endloop
  endfacet
  facet normal -1.396438e+00 0.000000e+00 -3.100715e-16
    outer loop
      vertex   7.596759e-01 7.628637e-01 1.354000e+01
      vertex   7.596759e-01 1.082864e+00 1.050000e+01
      vertex   7.596759e-01 -1.971363e-01 1.738000e+01
    endloop
  endfacet
  facet normal -2.834484e-01 0.000000e+00 -6.293819e-17
    outer loop
      vertex   7.596759e-01 -1.971363e-01 1.738000e+01
      vertex   7.596759e-01 1.082864e+00 1.050000e+01
      vertex   7.596759e-01 1.082864e+00 9.219999e+00
    endloop
  endfacet
  facet normal -6.121730e+00 0.000000e+00 -1.359297e-15
    outer loop
      vertex   7.596759e-01 1.082864e+00 9.219999e+00
      vertex   7.596759e-01 2.522864e+00 7.939999e+00
      vertex   7.596759e-01 1.562863e+00 6.660000e+00
    endloop
  endfacet
  facet normal -6.095517e-01 0.000000e+00 -1.353477e-16
    outer loop
      vertex   7.596759e-01 1.082864e+00 9.219999e+00
      vertex   7.596759e-01 1.562863e+00 6.660000e+00
      vertex   7.596759e-01 1.562863e+00 5.379999e+00
    endloop
  endfacet
  facet normal -3.123478e-01 0.000000e+00 -6.935514e-17
    outer loop
      vertex   7.596759e-01 1.082864e+00 9.219999e+00
      vertex   7.596759e-01 1.562863e+00 5.379999e+00
      vertex   7.596759e-01 -1.971363e-01 1.738000e+01
    endloop
  endfacet
  facet normal -7.096920e+00 0.000000e+00 -1.575833e-15
    outer loop
      vertex   7.596759e-01 1.562863e+00 5.379999e+00
      vertex   7.596759e-01 2.842864e+00 3.939999e+00
      vertex   7.596759e-01 1.402864e+00 2.820002e+00
    endloop
  endfacet
  facet normal -3.616950e-01 0.000000e+00 -8.031242e-17
    outer loop
      vertex   7.596759e-01 -1.971363e-01 1.738000e+01
      vertex   7.596759e-01 1.562863e+00 5.379999e+00
      vertex   7.596759e-01 1.402864e+00 2.820002e+00
    endloop
  endfacet
  facet normal -2.989388e-01 0.000000e+00 -6.637775e-17
    outer loop
      vertex   7.596759e-01 -1.971363e-01 1.738000e+01
      vertex   7.596759e-01 2.362864e+00 -2.470000e+01
      vertex   7.596759e-01 -3.571364e-01 1.914000e+01
    endloop
  endfacet
  facet normal -1.092326e+00 0.000000e+00 -2.425450e-16
    outer loop
      vertex   7.596759e-01 1.402864e+00 2.820002e+00
      vertex   7.596759e-01 1.402864e+00 1.539999e+00
      vertex   7.596759e-01 -1.971363e-01 1.738000e+01
    endloop
  endfacet
  facet normal -5.902229e+00 0.000000e+00 -1.310558e-15
    outer loop
      vertex   7.596759e-01 1.402864e+00 1.539999e+00
      vertex   7.596759e-01 2.522864e+00 2.600002e-01
      vertex   7.596759e-01 2.202863e+00 -7.579998e+00
    endloop
  endfacet
  facet normal -1.317292e-01 0.000000e+00 -2.924975e-17
    outer loop
      vertex   7.596759e-01 1.402864e+00 1.539999e+00
      vertex   7.596759e-01 2.202863e+00 -7.579998e+00
      vertex   7.596759e-01 -1.971363e-01 1.738000e+01
    endloop
  endfacet
  facet normal -9.571241e-01 0.000000e+00 -2.125242e-16
    outer loop
      vertex   7.596759e-01 2.202863e+00 -7.579998e+00
      vertex   7.596759e-01 2.202863e+00 -8.860001e+00
      vertex   7.596759e-01 -1.971363e-01 1.738000e+01
    endloop
  endfacet
  facet normal -2.192509e+00 0.000000e+00 -4.868349e-16
    outer loop
      vertex   7.596759e-01 4.922863e+00 -1.014000e+01
      vertex   7.596759e-01 9.402864e+00 -1.142000e+01
      vertex   7.596759e-01 1.020286e+01 -1.302000e+01
    endloop
  endfacet
  facet normal -1.500081e+00 0.000000e+00 -3.330848e-16
    outer loop
      vertex   7.596759e-01 4.922863e+00 -1.014000e+01
      vertex   7.596759e-01 1.020286e+01 -1.302000e+01
      vertex   7.596759e-01 3.162864e+00 -9.500000e+00
    endloop
  endfacet
  facet normal -1.240350e+00 0.000000e+00 -2.754131e-16
    outer loop
      vertex   7.596759e-01 3.162864e+00 -9.500000e+00
      vertex   7.596759e-01 1.020286e+01 -1.302000e+01
      vertex   7.596759e-01 1.084286e+01 -1.462000e+01
    endloop
  endfacet
  facet normal -1.219638e+00 0.000000e+00 -2.708141e-16
    outer loop
      vertex   7.596759e-01 3.162864e+00 -9.500000e+00
      vertex   7.596759e-01 1.084286e+01 -1.462000e+01
      vertex   7.596759e-01 1.116286e+01 -1.638000e+01
    endloop
  endfacet
  facet normal -1.219649e+00 0.000000e+00 -2.708166e-16
    outer loop
      vertex   7.596759e-01 3.162864e+00 -9.500000e+00
      vertex   7.596759e-01 1.116286e+01 -1.638000e+01
      vertex   7.596759e-01 2.202863e+00 -8.860001e+00
    endloop
  endfacet
  facet normal -1.383898e+00 0.000000e+00 -3.072871e-16
    outer loop
      vertex   7.596759e-01 2.202863e+00 -8.860001e+00
      vertex   7.596759e-01 1.116286e+01 -1.638000e+01
      vertex   7.596759e-01 1.100286e+01 -1.862000e+01
    endloop
  endfacet
  facet normal -1.361193e+00 0.000000e+00 -3.022455e-16
    outer loop
      vertex   7.596759e-01 2.202863e+00 -8.860001e+00
      vertex   7.596759e-01 1.100286e+01 -1.862000e+01
      vertex   7.596759e-01 1.036286e+01 -2.086000e+01
    endloop
  endfacet
  facet normal -1.058148e+00 0.000000e+00 -2.349560e-16
    outer loop
      vertex   7.596759e-01 2.202863e+00 -8.860001e+00
      vertex   7.596759e-01 1.036286e+01 -2.086000e+01
      vertex   7.596759e-01 9.562864e+00 -2.262000e+01
    endloop
  endfacet
  facet normal -9.929966e-01 0.000000e+00 -2.204895e-16
    outer loop
      vertex   7.596759e-01 2.202863e+00 -8.860001e+00
      vertex   7.596759e-01 9.562864e+00 -2.262000e+01
      vertex   7.596759e-01 8.282864e+00 -2.358000e+01
    endloop
  endfacet
  facet normal -2.938224e+00 0.000000e+00 -6.524168e-16
    outer loop
      vertex   7.596759e-01 2.202863e+00 -8.860001e+00
      vertex   7.596759e-01 8.282864e+00 -2.358000e+01
      vertex   7.596759e-01 3.642864e+00 -2.422000e+01
    endloop
  endfacet
  facet normal -8.327954e-01 0.000000e+00 -1.849177e-16
    outer loop
      vertex   7.596759e-01 2.202863e+00 -8.860001e+00
      vertex   7.596759e-01 3.642864e+00 -2.422000e+01
      vertex   7.596759e-01 2.362864e+00 -2.470000e+01
    endloop
  endfacet
  facet normal -8.102006e-01 0.000000e+00 -1.799007e-16
    outer loop
      vertex   7.596759e-01 2.202863e+00 -8.860001e+00
      vertex   7.596759e-01 2.362864e+00 -2.470000e+01
      vertex   7.596759e-01 -1.971363e-01 1.738000e+01
    endloop
  endfacet
  facet normal -2.564621e+00 0.000000e+00 -5.694604e-16
    outer loop
      vertex   7.596759e-01 2.362864e+00 -2.470000e+01
      vertex   7.596759e-01 2.202863e+00 -2.550000e+01
      vertex   7.596759e-01 -3.571364e-01 1.914000e+01
    endloop
  endfacet
  facet normal -8.879743e-02 0.000000e+00 -1.971699e-17
    outer loop
      vertex   7.596759e-01 -3.571364e-01 1.914000e+01
      vertex   7.596759e-01 2.202863e+00 -2.550000e+01
      vertex   7.596759e-01 1.882864e+00 -2.710000e+01
    endloop
  endfacet
  facet normal -2.833707e-01 0.000000e+00 -6.292094e-17
    outer loop
      vertex   7.596759e-01 -3.571364e-01 1.914000e+01
      vertex   7.596759e-01 1.882864e+00 -2.710000e+01
      vertex   7.596759e-01 6.028637e-01 -2.870000e+01
    endloop
  endfacet
  facet normal -4.964041e-01 0.000000e+00 -1.102239e-16
    outer loop
      vertex   7.596759e-01 -3.571364e-01 1.914000e+01
      vertex   7.596759e-01 6.028637e-01 -2.870000e+01
      vertex   7.596759e-01 -1.797136e+00 -2.950000e+01
    endloop
  endfacet
  facet normal -4.366630e-01 0.000000e+00 -9.695867e-17
    outer loop
      vertex   7.596759e-01 -3.571364e-01 1.914000e+01
      vertex   7.596759e-01 -1.797136e+00 -2.950000e+01
      vertex   7.596759e-01 -5.171364e-01 3.050000e+01
    endloop
  endfacet
  facet normal -3.773193e-01 0.000000e+00 -8.378171e-17
    outer loop
      vertex   7.596759e-01 -5.171364e-01 3.050000e+01
      vertex   7.596759e-01 -1.797136e+00 -2.950000e+01
      vertex   7.596759e-01 -4.037137e+00 -2.902000e+01
    endloop
  endfacet
  facet normal -2.837286e-01 0.000000e+00 -6.300040e-17
    outer loop
      vertex   7.596759e-01 -5.171364e-01 3.050000e+01
      vertex   7.596759e-01 -4.037137e+00 -2.902000e+01
      vertex   7.596759e-01 -5.637137e+00 -2.790000e+01
    endloop
  endfacet
  facet normal -1.889015e-01 0.000000e+00 -4.194457e-17
    outer loop
      vertex   7.596759e-01 -5.171364e-01 3.050000e+01
      vertex   7.596759e-01 -5.637137e+00 -2.790000e+01
      vertex   7.596759e-01 -6.597136e+00 -2.646000e+01
    endloop
  endfacet
  facet normal -1.480353e-01 0.000000e+00 -3.287044e-17
    outer loop
      vertex   7.596759e-01 -5.171364e-01 3.050000e+01
      vertex   7.596759e-01 -6.597136e+00 -2.646000e+01
      vertex   7.596759e-01 -7.237136e+00 -2.470000e+01
    endloop
  endfacet
  facet normal -1.992424e-01 0.000000e+00 -4.424069e-17
    outer loop
      vertex   7.596759e-01 -5.171364e-01 3.050000e+01
      vertex   7.596759e-01 -7.237136e+00 -2.470000e+01
      vertex   7.596759e-01 -8.197137e+00 -2.358000e+01
    endloop
  endfacet
  facet normal -1.766638e+00 0.000000e+00 -3.922723e-16
    outer loop
      vertex   7.596759e-01 -6.117136e+00 2.762000e+01
      vertex   7.596759e-01 -4.197136e+00 2.858000e+01
      vertex   7.596759e-01 -3.397136e+00 2.842000e+01
    endloop
  endfacet
  facet normal -7.350154e+00 0.000000e+00 -1.632062e-15
    outer loop
      vertex   7.596759e-01 -7.077136e+00 -9.180000e+00
      vertex   7.596759e-01 -1.027714e+01 -2.310000e+01
      vertex   7.596759e-01 -8.197137e+00 -9.820003e+00
    endloop
  endfacet
  facet normal -1.360523e+00 0.000000e+00 -3.020968e-16
    outer loop
      vertex   7.596759e-01 -1.155714e+01 -1.014000e+01
      vertex   7.596759e-01 -1.411714e+01 -2.086000e+01
      vertex   7.596759e-01 -1.491714e+01 -1.878000e+01
    endloop
  endfacet
  facet normal -8.521894e+00 0.000000e+00 -1.892241e-15
    outer loop
      vertex   7.596759e-01 -9.637136e+00 -9.820003e+00
      vertex   7.596759e-01 -1.411714e+01 -2.086000e+01
      vertex   7.596759e-01 -1.155714e+01 -1.014000e+01
    endloop
  endfacet
  facet normal -1.513883e+00 0.000000e+00 -3.361496e-16
    outer loop
      vertex   7.596759e-01 -1.363714e+01 -1.078000e+01
      vertex   7.596759e-01 -1.507714e+01 -1.606000e+01
      vertex   7.596759e-01 -1.491714e+01 -1.366000e+01
    endloop
  endfacet
  facet normal -6.712267e+00 0.000000e+00 -1.490423e-15
    outer loop
      vertex   7.596759e-01 -1.155714e+01 -1.014000e+01
      vertex   7.596759e-01 -1.507714e+01 -1.606000e+01
      vertex   7.596759e-01 -1.363714e+01 -1.078000e+01
    endloop
  endfacet
  facet normal -1.647889e+00 0.000000e+00 -3.659048e-16
    outer loop
      vertex   7.596759e-01 -1.155714e+01 -1.014000e+01
      vertex   7.596759e-01 -1.491714e+01 -1.878000e+01
      vertex   7.596759e-01 -1.507714e+01 -1.606000e+01
    endloop
  endfacet
  facet normal -9.213643e+00 0.000000e+00 -2.045840e-15
    outer loop
      vertex   7.596759e-01 -3.397136e+00 2.842000e+01
      vertex   7.596759e-01 -2.437136e+00 2.874000e+01
      vertex   7.596759e-01 -6.117136e+00 -6.620002e+00
    endloop
  endfacet
  facet normal -8.688529e-01 0.000000e+00 -1.929241e-16
    outer loop
      vertex   7.596759e-01 -9.637136e+00 -9.820003e+00
      vertex   7.596759e-01 -1.347714e+01 -2.230000e+01
      vertex   7.596759e-01 -1.411714e+01 -2.086000e+01
    endloop
  endfacet
  facet normal -9.806927e+00 0.000000e+00 -2.177575e-15
    outer loop
      vertex   7.596759e-01 -1.027714e+01 -2.310000e+01
      vertex   7.596759e-01 -1.347714e+01 -2.230000e+01
      vertex   7.596759e-01 -9.637136e+00 -9.820003e+00
    endloop
  endfacet
  facet normal -1.070035e+00 0.000000e+00 -2.375954e-16
    outer loop
      vertex   7.596759e-01 -1.027714e+01 -2.310000e+01
      vertex   7.596759e-01 -9.637136e+00 -9.820003e+00
      vertex   7.596759e-01 -8.197137e+00 -9.820003e+00
    endloop
  endfacet
  facet normal -6.632477e+00 0.000000e+00 -1.472706e-15
    outer loop
      vertex   7.596759e-01 -2.437136e+00 2.874000e+01
      vertex   7.596759e-01 -5.171364e-01 3.050000e+01
      vertex   7.596759e-01 -6.117136e+00 -6.620002e+00
    endloop
  endfacet
  facet normal -9.888939e+00 0.000000e+00 -2.195786e-15
    outer loop
      vertex   7.596759e-01 -8.197137e+00 -2.358000e+01
      vertex   7.596759e-01 -1.027714e+01 -2.310000e+01
      vertex   7.596759e-01 -7.077136e+00 -9.180000e+00
    endloop
  endfacet
  facet normal -3.764572e-01 0.000000e+00 -8.359028e-17
    outer loop
      vertex   7.596759e-01 -8.197137e+00 -2.358000e+01
      vertex   7.596759e-01 -7.077136e+00 -9.180000e+00
      vertex   7.596759e-01 -6.437137e+00 -8.380001e+00
    endloop
  endfacet
  facet normal -6.755949e-02 0.000000e+00 -1.500122e-17
    outer loop
      vertex   7.596759e-01 -8.197137e+00 -2.358000e+01
      vertex   7.596759e-01 -6.437137e+00 -8.380001e+00
      vertex   7.596759e-01 -6.117136e+00 -6.620002e+00
    endloop
  endfacet
  facet normal -1.903523e-01 0.000000e+00 -4.226671e-17
    outer loop
      vertex   7.596759e-01 -8.197137e+00 -2.358000e+01
      vertex   7.596759e-01 -6.117136e+00 -6.620002e+00
      vertex   7.596759e-01 -5.171364e-01 3.050000e+01
    endloop
  endfacet
  facet normal -4.472135e+00 0.000000e+00 -9.930134e-16
    outer loop
      vertex   7.596759e-01 -4.197136e+00 2.858000e+01
      vertex   7.596759e-01 -6.117136e+00 2.762000e+01
      vertex   7.596759e-01 -5.157137e+00 2.858000e+01
    endloop
  endfacet
  facet normal -2.006518e+00 0.000000e+00 -4.455364e-16
    outer loop
      vertex   7.596759e-01 -1.363714e+01 -1.078000e+01
      vertex   7.596759e-01 -1.491714e+01 -1.366000e+01
      vertex   7.596759e-01 -1.443714e+01 -1.190000e+01
    endloop
  endfacet
  facet normal -9.593655e+00 0.000000e+00 -2.130219e-15
    outer loop
      vertex   7.596759e-01 -6.117136e+00 2.762000e+01
      vertex   7.596759e-01 -3.397136e+00 2.842000e+01
      vertex   7.596759e-01 -6.117136e+00 -6.620002e+00
    endloop
  endfacet
  facet normal -1.387101e-15 7.808691e+00 6.246947e+00
    outer loop
      vertex   3.959676e+00 9.228635e-01 2.138000e+01
      vertex   3.959676e+00 1.562863e+00 2.058000e+01
      vertex   7.596759e-01 9.228635e-01 2.138000e+01
    endloop
  endfacet
  facet normal -1.043493e-15 7.436848e+00 5.949473e+00
    outer loop
      vertex   7.596759e-01 9.228635e-01 2.138000e+01
      vertex   3.959676e+00 1.562863e+00 2.058000e+01
      vertex   7.596759e-01 1.562863e+00 2.058000e+01
    endloop
  endfacet
  facet normal 2.622585e-01 0.000000e+00 5.823309e-17
    outer loop
      vertex   3.959676e+00 -6.117136e+00 -6.620002e+00
      vertex   3.959676e+00 -2.437136e+00 2.874000e+01
      vertex   3.959676e+00 -3.397136e+00 2.842000e+01
    endloop
  endfacet
  facet normal 2.769721e-01 0.000000e+00 6.150016e-17
    outer loop
      vertex   3.959676e+00 -6.117136e+00 -6.620002e+00
      vertex   3.959676e+00 -8.197137e+00 -2.358000e+01
      vertex   3.959676e+00 -5.171364e-01 3.050000e+01
    endloop
  endfacet
  facet normal 1.961151e+00 0.000000e+00 4.354629e-16
    outer loop
      vertex   3.959676e+00 -4.197136e+00 2.858000e+01
      vertex   3.959676e+00 -5.157137e+00 2.858000e+01
      vertex   3.959676e+00 -3.397136e+00 2.842000e+01
    endloop
  endfacet
  facet normal 6.281055e+00 0.000000e+00 1.394674e-15
    outer loop
      vertex   3.959676e+00 -5.171364e-01 3.050000e+01
      vertex   3.959676e+00 -2.437136e+00 2.874000e+01
      vertex   3.959676e+00 -6.117136e+00 -6.620002e+00
    endloop
  endfacet
  facet normal 7.682209e+00 0.000000e+00 1.705793e-15
    outer loop
      vertex   3.959676e+00 -5.157137e+00 2.858000e+01
      vertex   3.959676e+00 -6.117136e+00 2.762000e+01
      vertex   3.959676e+00 -3.397136e+00 2.842000e+01
    endloop
  endfacet
  facet normal 9.593655e+00 0.000000e+00 2.130219e-15
    outer loop
      vertex   3.959676e+00 -6.117136e+00 2.762000e+01
      vertex   3.959676e+00 -6.117136e+00 -6.620002e+00
      vertex   3.959676e+00 -3.397136e+00 2.842000e+01
    endloop
  endfacet
  facet normal 6.453260e-01 0.000000e+00 1.432912e-16
    outer loop
      vertex   3.959676e+00 -6.437137e+00 -8.380001e+00
      vertex   3.959676e+00 -8.197137e+00 -2.358000e+01
      vertex   3.959676e+00 -6.117136e+00 -6.620002e+00
    endloop
  endfacet
  facet normal 1.319238e+00 0.000000e+00 2.929297e-16
    outer loop
      vertex   3.959676e+00 -7.077136e+00 -9.180000e+00
      vertex   3.959676e+00 -1.411714e+01 -2.086000e+01
      vertex   3.959676e+00 -6.437137e+00 -8.380001e+00
    endloop
  endfacet
  facet normal 2.157976e+00 0.000000e+00 4.791670e-16
    outer loop
      vertex   3.959676e+00 -8.197137e+00 -9.820003e+00
      vertex   3.959676e+00 -1.507714e+01 -1.606000e+01
      vertex   3.959676e+00 -7.077136e+00 -9.180000e+00
    endloop
  endfacet
  facet normal 1.643969e+00 0.000000e+00 3.650344e-16
    outer loop
      vertex   3.959676e+00 -9.637136e+00 -9.820003e+00
      vertex   3.959676e+00 -1.155714e+01 -1.014000e+01
      vertex   3.959676e+00 -8.197137e+00 -9.820003e+00
    endloop
  endfacet
  facet normal 4.528096e+00 0.000000e+00 1.005439e-15
    outer loop
      vertex   3.959676e+00 -7.237136e+00 -2.470000e+01
      vertex   3.959676e+00 -6.597136e+00 -2.646000e+01
      vertex   3.959676e+00 -5.171364e-01 3.050000e+01
    endloop
  endfacet
  facet normal 2.021454e+00 0.000000e+00 4.488529e-16
    outer loop
      vertex   3.959676e+00 -1.155714e+01 -1.014000e+01
      vertex   3.959676e+00 -1.363714e+01 -1.078000e+01
      vertex   3.959676e+00 -8.197137e+00 -9.820003e+00
    endloop
  endfacet
  facet normal 7.003426e+00 0.000000e+00 1.555073e-15
    outer loop
      vertex   3.959676e+00 -1.363714e+01 -1.078000e+01
      vertex   3.959676e+00 -1.443714e+01 -1.190000e+01
      vertex   3.959676e+00 -8.197137e+00 -9.820003e+00
    endloop
  endfacet
  facet normal 8.320498e+00 0.000000e+00 1.847522e-15
    outer loop
      vertex   3.959676e+00 -1.443714e+01 -1.190000e+01
      vertex   3.959676e+00 -1.491714e+01 -1.366000e+01
      vertex   3.959676e+00 -8.197137e+00 -9.820003e+00
    endloop
  endfacet
  facet normal 8.333179e+00 0.000000e+00 1.850338e-15
    outer loop
      vertex   3.959676e+00 -1.491714e+01 -1.366000e+01
      vertex   3.959676e+00 -1.507714e+01 -1.606000e+01
      vertex   3.959676e+00 -8.197137e+00 -9.820003e+00
    endloop
  endfacet
  facet normal 7.951657e+00 0.000000e+00 1.765623e-15
    outer loop
      vertex   3.959676e+00 -1.507714e+01 -1.606000e+01
      vertex   3.959676e+00 -1.491714e+01 -1.878000e+01
      vertex   3.959676e+00 -7.077136e+00 -9.180000e+00
    endloop
  endfacet
  facet normal 8.684146e+00 0.000000e+00 1.928268e-15
    outer loop
      vertex   3.959676e+00 -1.491714e+01 -1.878000e+01
      vertex   3.959676e+00 -1.411714e+01 -2.086000e+01
      vertex   3.959676e+00 -7.077136e+00 -9.180000e+00
    endloop
  endfacet
  facet normal 8.248168e+00 0.000000e+00 1.831461e-15
    outer loop
      vertex   3.959676e+00 -1.411714e+01 -2.086000e+01
      vertex   3.959676e+00 -1.347714e+01 -2.230000e+01
      vertex   3.959676e+00 -6.437137e+00 -8.380001e+00
    endloop
  endfacet
  facet normal 9.751818e+00 0.000000e+00 2.165339e-15
    outer loop
      vertex   3.959676e+00 -1.347714e+01 -2.230000e+01
      vertex   3.959676e+00 -1.027714e+01 -2.310000e+01
      vertex   3.959676e+00 -6.437137e+00 -8.380001e+00
    endloop
  endfacet
  facet normal 9.975372e+00 0.000000e+00 2.214978e-15
    outer loop
      vertex   3.959676e+00 1.562863e+00 1.610000e+01
      vertex   3.959676e+00 -1.971363e-01 1.738000e+01
      vertex   3.959676e+00 7.628637e-01 1.482000e+01
    endloop
  endfacet
  facet normal 9.995972e+00 0.000000e+00 2.219552e-15
    outer loop
      vertex   3.959676e+00 -1.027714e+01 -2.310000e+01
      vertex   3.959676e+00 -8.197137e+00 -2.358000e+01
      vertex   3.959676e+00 -6.437137e+00 -8.380001e+00
    endloop
  endfacet
  facet normal 7.510786e+00 0.000000e+00 1.667729e-15
    outer loop
      vertex   3.959676e+00 -8.197137e+00 -2.358000e+01
      vertex   3.959676e+00 -7.237136e+00 -2.470000e+01
      vertex   3.959676e+00 -5.171364e-01 3.050000e+01
    endloop
  endfacet
  facet normal 6.398787e+00 0.000000e+00 1.420816e-15
    outer loop
      vertex   3.959676e+00 -6.597136e+00 -2.646000e+01
      vertex   3.959676e+00 -5.637137e+00 -2.790000e+01
      vertex   3.959676e+00 -5.171364e-01 3.050000e+01
    endloop
  endfacet
  facet normal 8.661857e+00 0.000000e+00 1.923319e-15
    outer loop
      vertex   3.959676e+00 -5.637137e+00 -2.790000e+01
      vertex   3.959676e+00 -4.037137e+00 -2.902000e+01
      vertex   3.959676e+00 -5.171364e-01 3.050000e+01
    endloop
  endfacet
  facet normal 9.884669e+00 0.000000e+00 2.194837e-15
    outer loop
      vertex   3.959676e+00 -4.037137e+00 -2.902000e+01
      vertex   3.959676e+00 -1.797136e+00 -2.950000e+01
      vertex   3.959676e+00 -5.171364e-01 3.050000e+01
    endloop
  endfacet
  facet normal 7.323495e-01 0.000000e+00 1.626143e-16
    outer loop
      vertex   3.959676e+00 -1.971363e-01 1.738000e+01
      vertex   3.959676e+00 -3.571364e-01 1.914000e+01
      vertex   3.959676e+00 6.028637e-01 -2.870000e+01
    endloop
  endfacet
  facet normal 4.472136e+00 0.000000e+00 9.930137e-16
    outer loop
      vertex   3.959676e+00 2.682863e+00 2.410000e+01
      vertex   3.959676e+00 2.682863e+00 2.730000e+01
      vertex   3.959676e+00 -5.171364e-01 3.050000e+01
    endloop
  endfacet
  facet normal 2.157174e+00 0.000000e+00 4.789889e-16
    outer loop
      vertex   3.959676e+00 7.628637e-01 1.354000e+01
      vertex   3.959676e+00 -1.971363e-01 1.738000e+01
      vertex   3.959676e+00 1.882864e+00 -2.710000e+01
    endloop
  endfacet
  facet normal 6.886489e+00 0.000000e+00 1.529108e-15
    outer loop
      vertex   3.959676e+00 2.522864e+00 2.600002e-01
      vertex   3.959676e+00 1.402864e+00 1.539999e+00
      vertex   3.959676e+00 2.202863e+00 -7.579998e+00
    endloop
  endfacet
  facet normal 1.559626e+00 0.000000e+00 3.463065e-16
    outer loop
      vertex   3.959676e+00 9.228635e-01 2.138000e+01
      vertex   3.959676e+00 9.228635e-01 2.298000e+01
      vertex   3.959676e+00 -5.171364e-01 3.050000e+01
    endloop
  endfacet
  facet normal 2.115934e+00 0.000000e+00 4.698318e-16
    outer loop
      vertex   3.959676e+00 1.100286e+01 -1.862000e+01
      vertex   3.959676e+00 1.116286e+01 -1.638000e+01
      vertex   3.959676e+00 1.020286e+01 -1.302000e+01
    endloop
  endfacet
  facet normal 7.669663e-01 0.000000e+00 1.703007e-16
    outer loop
      vertex   3.959676e+00 1.100286e+01 -1.862000e+01
      vertex   3.959676e+00 1.020286e+01 -1.302000e+01
      vertex   3.959676e+00 9.402864e+00 -1.142000e+01
    endloop
  endfacet
  facet normal 9.862144e+00 0.000000e+00 2.189836e-15
    outer loop
      vertex   3.959676e+00 2.202863e+00 1.178000e+01
      vertex   3.959676e+00 7.628637e-01 1.354000e+01
      vertex   3.959676e+00 1.082864e+00 1.050000e+01
    endloop
  endfacet
  facet normal 9.741821e+00 0.000000e+00 2.163119e-15
    outer loop
      vertex   3.959676e+00 3.642864e+00 -2.422000e+01
      vertex   3.959676e+00 8.282864e+00 -2.358000e+01
      vertex   3.959676e+00 4.922863e+00 -1.014000e+01
    endloop
  endfacet
  facet normal 1.229452e+00 0.000000e+00 2.729931e-16
    outer loop
      vertex   3.959676e+00 3.642864e+00 -2.422000e+01
      vertex   3.959676e+00 4.922863e+00 -1.014000e+01
      vertex   3.959676e+00 3.162864e+00 -9.500000e+00
    endloop
  endfacet
  facet normal 9.398283e+00 0.000000e+00 2.086838e-15
    outer loop
      vertex   3.959676e+00 2.362864e+00 -2.470000e+01
      vertex   3.959676e+00 3.642864e+00 -2.422000e+01
      vertex   3.959676e+00 2.202863e+00 -8.860001e+00
    endloop
  endfacet
  facet normal 5.083172e+00 0.000000e+00 1.128691e-15
    outer loop
      vertex   3.959676e+00 -3.571364e-01 1.914000e+01
      vertex   3.959676e+00 9.228635e-01 2.138000e+01
      vertex   3.959676e+00 -5.171364e-01 3.050000e+01
    endloop
  endfacet
  facet normal 2.646529e-01 0.000000e+00 5.876476e-17
    outer loop
      vertex   3.959676e+00 2.362864e+00 -2.470000e+01
      vertex   3.959676e+00 2.202863e+00 -8.860001e+00
      vertex   3.959676e+00 1.402864e+00 1.539999e+00
    endloop
  endfacet
  facet normal 1.146598e-01 0.000000e+00 2.545960e-17
    outer loop
      vertex   3.959676e+00 7.628637e-01 1.354000e+01
      vertex   3.959676e+00 2.362864e+00 -2.470000e+01
      vertex   3.959676e+00 1.402864e+00 1.539999e+00
    endloop
  endfacet
  facet normal 4.163049e-01 0.000000e+00 9.243826e-17
    outer loop
      vertex   3.959676e+00 1.562863e+00 6.660000e+00
      vertex   3.959676e+00 1.402864e+00 2.820002e+00
      vertex   3.959676e+00 1.562863e+00 5.379999e+00
    endloop
  endfacet
  facet normal 4.948061e-02 0.000000e+00 1.098690e-17
    outer loop
      vertex   3.959676e+00 7.628637e-01 1.354000e+01
      vertex   3.959676e+00 2.202863e+00 -2.550000e+01
      vertex   3.959676e+00 2.362864e+00 -2.470000e+01
    endloop
  endfacet
  facet normal 7.495193e+00 0.000000e+00 1.664267e-15
    outer loop
      vertex   3.959676e+00 1.402864e+00 2.820002e+00
      vertex   3.959676e+00 2.842864e+00 3.939999e+00
      vertex   3.959676e+00 1.562863e+00 5.379999e+00
    endloop
  endfacet
  facet normal 3.511234e+00 0.000000e+00 7.796505e-16
    outer loop
      vertex   3.959676e+00 7.628637e-01 1.482000e+01
      vertex   3.959676e+00 -1.971363e-01 1.738000e+01
      vertex   3.959676e+00 7.628637e-01 1.354000e+01
    endloop
  endfacet
  facet normal 2.250462e+00 0.000000e+00 4.997030e-16
    outer loop
      vertex   3.959676e+00 1.562863e+00 6.660000e+00
      vertex   3.959676e+00 1.082864e+00 9.219999e+00
      vertex   3.959676e+00 1.402864e+00 2.820002e+00
    endloop
  endfacet
  facet normal 9.316312e-02 0.000000e+00 2.068637e-17
    outer loop
      vertex   3.959676e+00 7.628637e-01 1.354000e+01
      vertex   3.959676e+00 1.882864e+00 -2.710000e+01
      vertex   3.959676e+00 2.202863e+00 -2.550000e+01
    endloop
  endfacet
  facet normal 9.295779e+00 0.000000e+00 2.064078e-15
    outer loop
      vertex   3.959676e+00 9.228635e-01 2.298000e+01
      vertex   3.959676e+00 2.682863e+00 2.410000e+01
      vertex   3.959676e+00 -5.171364e-01 3.050000e+01
    endloop
  endfacet
  facet normal 7.387167e-01 0.000000e+00 1.640280e-16
    outer loop
      vertex   3.959676e+00 1.082864e+00 9.219999e+00
      vertex   3.959676e+00 1.082864e+00 1.050000e+01
      vertex   3.959676e+00 7.628637e-01 1.354000e+01
    endloop
  endfacet
  facet normal 3.969112e+00 0.000000e+00 8.813199e-16
    outer loop
      vertex   3.959676e+00 -3.571364e-01 1.914000e+01
      vertex   3.959676e+00 1.562863e+00 2.058000e+01
      vertex   3.959676e+00 9.228635e-01 2.138000e+01
    endloop
  endfacet
  facet normal 1.430781e-01 0.000000e+00 3.176972e-17
    outer loop
      vertex   3.959676e+00 7.628637e-01 1.354000e+01
      vertex   3.959676e+00 1.402864e+00 2.820002e+00
      vertex   3.959676e+00 1.082864e+00 9.219999e+00
    endloop
  endfacet
  facet normal 6.347832e-02 0.000000e+00 1.409502e-17
    outer loop
      vertex   3.959676e+00 7.628637e-01 1.354000e+01
      vertex   3.959676e+00 1.402864e+00 1.539999e+00
      vertex   3.959676e+00 1.402864e+00 2.820002e+00
    endloop
  endfacet
  facet normal 6.381560e+00 0.000000e+00 1.416991e-15
    outer loop
      vertex   3.959676e+00 6.028637e-01 -2.870000e+01
      vertex   3.959676e+00 1.882864e+00 -2.710000e+01
      vertex   3.959676e+00 -1.971363e-01 1.738000e+01
    endloop
  endfacet
  facet normal 8.266427e-02 0.000000e+00 1.835516e-17
    outer loop
      vertex   3.959676e+00 -1.797136e+00 -2.950000e+01
      vertex   3.959676e+00 -3.571364e-01 1.914000e+01
      vertex   3.959676e+00 -5.171364e-01 3.050000e+01
    endloop
  endfacet
  facet normal 9.389100e+00 0.000000e+00 2.084799e-15
    outer loop
      vertex   3.959676e+00 -1.797136e+00 -2.950000e+01
      vertex   3.959676e+00 6.028637e-01 -2.870000e+01
      vertex   3.959676e+00 -3.571364e-01 1.914000e+01
    endloop
  endfacet
  facet normal 8.738375e-01 0.000000e+00 1.940309e-16
    outer loop
      vertex   3.959676e+00 2.202863e+00 -7.579998e+00
      vertex   3.959676e+00 1.402864e+00 1.539999e+00
      vertex   3.959676e+00 2.202863e+00 -8.860001e+00
    endloop
  endfacet
  facet normal 9.965458e+00 0.000000e+00 2.212776e-15
    outer loop
      vertex   3.959676e+00 2.522864e+00 7.939999e+00
      vertex   3.959676e+00 1.082864e+00 9.219999e+00
      vertex   3.959676e+00 1.562863e+00 6.660000e+00
    endloop
  endfacet
  facet normal 8.135303e+00 0.000000e+00 1.806400e-15
    outer loop
      vertex   3.959676e+00 3.162864e+00 -9.500000e+00
      vertex   3.959676e+00 2.202863e+00 -8.860001e+00
      vertex   3.959676e+00 3.642864e+00 -2.422000e+01
    endloop
  endfacet
  facet normal 1.993080e+00 0.000000e+00 4.425528e-16
    outer loop
      vertex   3.959676e+00 1.084286e+01 -1.462000e+01
      vertex   3.959676e+00 1.020286e+01 -1.302000e+01
      vertex   3.959676e+00 1.116286e+01 -1.638000e+01
    endloop
  endfacet
  facet normal 1.170533e+00 0.000000e+00 2.599105e-16
    outer loop
      vertex   3.959676e+00 9.402864e+00 -1.142000e+01
      vertex   3.959676e+00 1.036286e+01 -2.086000e+01
      vertex   3.959676e+00 1.100286e+01 -1.862000e+01
    endloop
  endfacet
  facet normal 8.695182e-01 0.000000e+00 1.930718e-16
    outer loop
      vertex   3.959676e+00 9.402864e+00 -1.142000e+01
      vertex   3.959676e+00 9.562864e+00 -2.262000e+01
      vertex   3.959676e+00 1.036286e+01 -2.086000e+01
    endloop
  endfacet
  facet normal 1.059319e+00 0.000000e+00 2.352160e-16
    outer loop
      vertex   3.959676e+00 9.402864e+00 -1.142000e+01
      vertex   3.959676e+00 8.282864e+00 -2.358000e+01
      vertex   3.959676e+00 9.562864e+00 -2.262000e+01
    endloop
  endfacet
  facet normal 9.826677e+00 0.000000e+00 2.181961e-15
    outer loop
      vertex   3.959676e+00 9.402864e+00 -1.142000e+01
      vertex   3.959676e+00 4.922863e+00 -1.014000e+01
      vertex   3.959676e+00 8.282864e+00 -2.358000e+01
    endloop
  endfacet
  facet normal 0.000000e+00 1.000000e+01 0.000000e+00
    outer loop
      vertex   3.959676e+00 2.682863e+00 2.730000e+01
      vertex   3.959676e+00 2.682863e+00 2.410000e+01
      vertex   7.596759e-01 2.682863e+00 2.730000e+01
    endloop
  endfacet
  facet normal 0.000000e+00 7.071068e+00 0.000000e+00
    outer loop
      vertex   7.596759e-01 2.682863e+00 2.730000e+01
      vertex   3.959676e+00 2.682863e+00 2.410000e+01
      vertex   7.596759e-01 2.682863e+00 2.410000e+01
    endloop
  endfacet
  facet normal -1.636811e-15 -6.757246e+00 7.371541e+00
    outer loop
      vertex   7.596759e-01 -2.437136e+00 2.874000e+01
      vertex   3.959676e+00 -2.437136e+00 2.874000e+01
      vertex   7.596759e-01 -5.171364e-01 3.050000e+01
    endloop
  endfacet
  facet normal -1.033262e-15 -4.265617e+00 4.653400e+00
    outer loop
      vertex   7.596759e-01 -5.171364e-01 3.050000e+01
      vertex   3.959676e+00 -2.437136e+00 2.874000e+01
      vertex   3.959676e+00 -5.171364e-01 3.050000e+01
    endloop
  endfacet
  facet normal -1.570092e-15 7.071068e+00 7.071067e+00
    outer loop
      vertex   3.959676e+00 -5.171364e-01 3.050000e+01
      vertex   3.959676e+00 2.682863e+00 2.730000e+01
      vertex   7.596759e-01 -5.171364e-01 3.050000e+01
    endloop
  endfacet
  facet normal -3.513816e-16 4.082483e+00 4.082482e+00
    outer loop
      vertex   7.596759e-01 -5.171364e-01 3.050000e+01
      vertex   3.959676e+00 2.682863e+00 2.730000e+01
      vertex   7.596759e-01 2.682863e+00 2.730000e+01
    endloop
  endfacet
  facet normal -2.106500e-15 -3.162273e+00 9.486835e+00
    outer loop
      vertex   7.596759e-01 -3.397136e+00 2.842000e+01
      vertex   3.959676e+00 -3.397136e+00 2.842000e+01
      vertex   7.596759e-01 -2.437136e+00 2.874000e+01
    endloop
  endfacet
  facet normal -6.351336e-16 -9.534610e-01 2.860387e+00
    outer loop
      vertex   7.596759e-01 -2.437136e+00 2.874000e+01
      vertex   3.959676e+00 -3.397136e+00 2.842000e+01
      vertex   3.959676e+00 -2.437136e+00 2.874000e+01
    endloop
  endfacet
  facet normal -2.177327e-15 1.961151e+00 9.805809e+00
    outer loop
      vertex   3.959676e+00 -4.197136e+00 2.858000e+01
      vertex   3.959676e+00 -3.397136e+00 2.842000e+01
      vertex   7.596759e-01 -4.197136e+00 2.858000e+01
    endloop
  endfacet
  facet normal -2.179226e-15 1.900361e+00 9.501860e+00
    outer loop
      vertex   7.596759e-01 -4.197136e+00 2.858000e+01
      vertex   3.959676e+00 -3.397136e+00 2.842000e+01
      vertex   7.596759e-01 -3.397136e+00 2.842000e+01
    endloop
  endfacet
  facet normal -2.220446e-15 0.000000e+00 1.000000e+01
    outer loop
      vertex   3.959676e+00 -5.157137e+00 2.858000e+01
      vertex   3.959676e+00 -4.197136e+00 2.858000e+01
      vertex   7.596759e-01 -5.157137e+00 2.858000e+01
    endloop
  endfacet
  facet normal -2.126801e-15 0.000000e+00 9.578262e+00
    outer loop
      vertex   7.596759e-01 -5.157137e+00 2.858000e+01
      vertex   3.959676e+00 -4.197136e+00 2.858000e+01
      vertex   7.596759e-01 -4.197136e+00 2.858000e+01
    endloop
  endfacet
  facet normal -1.570092e-15 -7.071068e+00 7.071068e+00
    outer loop
      vertex   7.596759e-01 -6.117136e+00 2.762000e+01
      vertex   3.959676e+00 -6.117136e+00 2.762000e+01
      vertex   7.596759e-01 -5.157137e+00 2.858000e+01
    endloop
  endfacet
  facet normal -6.132256e-16 -2.761723e+00 2.761723e+00
    outer loop
      vertex   7.596759e-01 -5.157137e+00 2.858000e+01
      vertex   3.959676e+00 -6.117136e+00 2.762000e+01
      vertex   3.959676e+00 -5.157137e+00 2.858000e+01
    endloop
  endfacet
  facet normal 0.000000e+00 -9.305244e-01 0.000000e+00
    outer loop
      vertex   7.596759e-01 -6.117136e+00 2.762000e+01
      vertex   7.596759e-01 -6.117136e+00 -6.620002e+00
      vertex   3.959676e+00 -6.117136e+00 -6.620002e+00
    endloop
  endfacet
  facet normal 0.000000e+00 -1.000000e+01 0.000000e+00
    outer loop
      vertex   3.959676e+00 -6.117136e+00 2.762000e+01
      vertex   7.596759e-01 -6.117136e+00 2.762000e+01
      vertex   3.959676e+00 -6.117136e+00 -6.620002e+00
    endloop
  endfacet
  facet normal -3.467097e-16 -8.587922e+00 1.561442e+00
    outer loop
      vertex   7.596759e-01 -6.117136e+00 -6.620002e+00
      vertex   7.596759e-01 -6.437137e+00 -8.380001e+00
      vertex   3.959676e+00 -6.437137e+00 -8.380001e+00
    endloop
  endfacet
  facet normal -3.972058e-16 -9.838699e+00 1.788856e+00
    outer loop
      vertex   3.959676e+00 -6.117136e+00 -6.620002e+00
      vertex   7.596759e-01 -6.117136e+00 -6.620002e+00
      vertex   3.959676e+00 -6.437137e+00 -8.380001e+00
    endloop
  endfacet
  facet normal -1.598605e-15 -7.436844e+00 5.949479e+00
    outer loop
      vertex   7.596759e-01 -6.437137e+00 -8.380001e+00
      vertex   7.596759e-01 -7.077136e+00 -9.180000e+00
      vertex   3.959676e+00 -7.077136e+00 -9.180000e+00
    endloop
  endfacet
  facet normal -1.387102e-15 -7.808686e+00 6.246953e+00
    outer loop
      vertex   3.959676e+00 -6.437137e+00 -8.380001e+00
      vertex   7.596759e-01 -6.437137e+00 -8.380001e+00
      vertex   3.959676e+00 -7.077136e+00 -9.180000e+00
    endloop
  endfacet
  facet normal -1.927885e-15 -4.961402e+00 8.682424e+00
    outer loop
      vertex   7.596759e-01 -8.197137e+00 -9.820003e+00
      vertex   3.959676e+00 -8.197137e+00 -9.820003e+00
      vertex   7.596759e-01 -7.077136e+00 -9.180000e+00
    endloop
  endfacet
  facet normal -7.207953e-16 -1.854963e+00 3.246173e+00
    outer loop
      vertex   7.596759e-01 -7.077136e+00 -9.180000e+00
      vertex   3.959676e+00 -8.197137e+00 -9.820003e+00
      vertex   3.959676e+00 -7.077136e+00 -9.180000e+00
    endloop
  endfacet
  facet normal -2.220446e-15 0.000000e+00 1.000000e+01
    outer loop
      vertex   3.959676e+00 -9.637136e+00 -9.820003e+00
      vertex   3.959676e+00 -8.197137e+00 -9.820003e+00
      vertex   7.596759e-01 -9.637136e+00 -9.820003e+00
    endloop
  endfacet
  facet normal -2.024873e-15 0.000000e+00 9.119216e+00
    outer loop
      vertex   7.596759e-01 -9.637136e+00 -9.820003e+00
      vertex   3.959676e+00 -8.197137e+00 -9.820003e+00
      vertex   7.596759e-01 -8.197137e+00 -9.820003e+00
    endloop
  endfacet
  facet normal -2.190235e-15 -1.643969e+00 9.863943e+00
    outer loop
      vertex   7.596759e-01 -1.155714e+01 -1.014000e+01
      vertex   3.959676e+00 -1.155714e+01 -1.014000e+01
      vertex   7.596759e-01 -9.637136e+00 -9.820003e+00
    endloop
  endfacet
  facet normal -1.138233e-15 -8.543468e-01 5.126147e+00
    outer loop
      vertex   7.596759e-01 -9.637136e+00 -9.820003e+00
      vertex   3.959676e+00 -1.155714e+01 -1.014000e+01
      vertex   3.959676e+00 -9.637136e+00 -9.820003e+00
    endloop
  endfacet
  facet normal -2.122256e-15 -2.940855e+00 9.557792e+00
    outer loop
      vertex   7.596759e-01 -1.363714e+01 -1.078000e+01
      vertex   3.959676e+00 -1.363714e+01 -1.078000e+01
      vertex   7.596759e-01 -1.155714e+01 -1.014000e+01
    endloop
  endfacet
  facet normal -1.193454e-15 -1.653794e+00 5.374837e+00
    outer loop
      vertex   7.596759e-01 -1.155714e+01 -1.014000e+01
      vertex   3.959676e+00 -1.363714e+01 -1.078000e+01
      vertex   3.959676e+00 -1.155714e+01 -1.014000e+01
    endloop
  endfacet
  facet normal -1.185588e-15 -7.475209e+00 5.339416e+00
    outer loop
      vertex   7.596759e-01 -1.363714e+01 -1.078000e+01
      vertex   7.596759e-01 -1.443714e+01 -1.190000e+01
      vertex   3.959676e+00 -1.443714e+01 -1.190000e+01
    endloop
  endfacet
  facet normal -1.290605e-15 -8.137344e+00 5.812368e+00
    outer loop
      vertex   3.959676e+00 -1.363714e+01 -1.078000e+01
      vertex   7.596759e-01 -1.363714e+01 -1.078000e+01
      vertex   3.959676e+00 -1.443714e+01 -1.190000e+01
    endloop
  endfacet
  facet normal -2.299999e-16 -8.381334e+00 2.285828e+00
    outer loop
      vertex   7.596759e-01 -1.443714e+01 -1.190000e+01
      vertex   7.596759e-01 -1.491714e+01 -1.366000e+01
      vertex   3.959676e+00 -1.491714e+01 -1.366000e+01
    endloop
  endfacet
  facet normal -5.842402e-16 -9.647635e+00 2.631184e+00
    outer loop
      vertex   3.959676e+00 -1.443714e+01 -1.190000e+01
      vertex   7.596759e-01 -1.443714e+01 -1.190000e+01
      vertex   3.959676e+00 -1.491714e+01 -1.366000e+01
    endloop
  endfacet
  facet normal -1.180663e-16 -7.975900e+00 5.317233e-01
    outer loop
      vertex   7.596759e-01 -1.491714e+01 -1.366000e+01
      vertex   7.596759e-01 -1.507714e+01 -1.606000e+01
      vertex   3.959676e+00 -1.507714e+01 -1.606000e+01
    endloop
  endfacet
  facet normal -1.477009e-16 -9.977852e+00 6.651858e-01
    outer loop
      vertex   3.959676e+00 -1.491714e+01 -1.366000e+01
      vertex   7.596759e-01 -1.491714e+01 -1.366000e+01
      vertex   3.959676e+00 -1.507714e+01 -1.606000e+01
    endloop
  endfacet
  facet normal 9.927610e-17 -7.600733e+00 -4.470998e-01
    outer loop
      vertex   7.596759e-01 -1.507714e+01 -1.606000e+01
      vertex   7.596759e-01 -1.491714e+01 -1.878000e+01
      vertex   3.959676e+00 -1.491714e+01 -1.878000e+01
    endloop
  endfacet
  facet normal 1.303885e-16 -9.982744e+00 -5.872174e-01
    outer loop
      vertex   3.959676e+00 -1.507714e+01 -1.606000e+01
      vertex   7.596759e-01 -1.507714e+01 -1.606000e+01
      vertex   3.959676e+00 -1.491714e+01 -1.878000e+01
    endloop
  endfacet
  facet normal 9.316601e-16 -7.659128e+00 -2.945824e+00
    outer loop
      vertex   7.596759e-01 -1.491714e+01 -1.878000e+01
      vertex   7.596759e-01 -1.411714e+01 -2.086000e+01
      vertex   3.959676e+00 -1.411714e+01 -2.086000e+01
    endloop
  endfacet
  facet normal 7.970951e-16 -9.333454e+00 -3.589797e+00
    outer loop
      vertex   3.959676e+00 -1.491714e+01 -1.878000e+01
      vertex   7.596759e-01 -1.491714e+01 -1.878000e+01
      vertex   3.959676e+00 -1.411714e+01 -2.086000e+01
    endloop
  endfacet
  facet normal 1.086586e-15 -8.198012e+00 -3.643548e+00
    outer loop
      vertex   7.596759e-01 -1.411714e+01 -2.086000e+01
      vertex   7.596759e-01 -1.347714e+01 -2.230000e+01
      vertex   3.959676e+00 -1.347714e+01 -2.230000e+01
    endloop
  endfacet
  facet normal 9.018057e-16 -9.138121e+00 -4.061372e+00
    outer loop
      vertex   3.959676e+00 -1.411714e+01 -2.086000e+01
      vertex   7.596759e-01 -1.411714e+01 -2.086000e+01
      vertex   3.959676e+00 -1.347714e+01 -2.230000e+01
    endloop
  endfacet
  facet normal 1.777512e-15 -1.688804e+00 -6.755203e+00
    outer loop
      vertex   7.596759e-01 -1.347714e+01 -2.230000e+01
      vertex   7.596759e-01 -1.027714e+01 -2.310000e+01
      vertex   3.959676e+00 -1.027714e+01 -2.310000e+01
    endloop
  endfacet
  facet normal 2.154149e-15 -2.425360e+00 -9.701425e+00
    outer loop
      vertex   3.959676e+00 -1.347714e+01 -2.230000e+01
      vertex   7.596759e-01 -1.347714e+01 -2.230000e+01
      vertex   3.959676e+00 -1.027714e+01 -2.310000e+01
    endloop
  endfacet
  facet normal 1.661087e-15 -1.870571e+00 -8.105870e+00
    outer loop
      vertex   7.596759e-01 -1.027714e+01 -2.310000e+01
      vertex   7.596759e-01 -8.197137e+00 -2.358000e+01
      vertex   3.959676e+00 -8.197137e+00 -2.358000e+01
    endloop
  endfacet
  facet normal 2.163584e-15 -2.248578e+00 -9.743916e+00
    outer loop
      vertex   3.959676e+00 -1.027714e+01 -2.310000e+01
      vertex   7.596759e-01 -1.027714e+01 -2.310000e+01
      vertex   3.959676e+00 -8.197137e+00 -2.358000e+01
    endloop
  endfacet
  facet normal 1.034767e-15 -6.895215e+00 -5.910177e+00
    outer loop
      vertex   7.596759e-01 -8.197137e+00 -2.358000e+01
      vertex   7.596759e-01 -7.237136e+00 -2.470000e+01
      vertex   3.959676e+00 -7.237136e+00 -2.470000e+01
    endloop
  endfacet
  facet normal 1.445046e-15 -7.592570e+00 -6.507909e+00
    outer loop
      vertex   3.959676e+00 -8.197137e+00 -2.358000e+01
      vertex   7.596759e-01 -8.197137e+00 -2.358000e+01
      vertex   3.959676e+00 -7.237136e+00 -2.470000e+01
    endloop
  endfacet
  facet normal 6.549118e-16 -8.111017e+00 -2.949461e+00
    outer loop
      vertex   7.596759e-01 -7.237136e+00 -2.470000e+01
      vertex   7.596759e-01 -6.597136e+00 -2.646000e+01
      vertex   3.959676e+00 -6.597136e+00 -2.646000e+01
    endloop
  endfacet
  facet normal 7.588220e-16 -9.397934e+00 -3.417430e+00
    outer loop
      vertex   3.959676e+00 -7.237136e+00 -2.470000e+01
      vertex   7.596759e-01 -7.237136e+00 -2.470000e+01
      vertex   3.959676e+00 -6.597136e+00 -2.646000e+01
    endloop
  endfacet
  facet normal 1.360940e-15 -7.318709e+00 -4.879128e+00
    outer loop
      vertex   7.596759e-01 -6.597136e+00 -2.646000e+01
      vertex   7.596759e-01 -5.637137e+00 -2.790000e+01
      vertex   3.959676e+00 -5.637137e+00 -2.790000e+01
    endloop
  endfacet
  facet normal 1.231680e-15 -8.320509e+00 -5.546992e+00
    outer loop
      vertex   3.959676e+00 -6.597136e+00 -2.646000e+01
      vertex   7.596759e-01 -6.597136e+00 -2.646000e+01
      vertex   3.959676e+00 -5.637137e+00 -2.790000e+01
    endloop
  endfacet
  facet normal 1.275156e-15 -4.894954e+00 -6.992794e+00
    outer loop
      vertex   7.596759e-01 -5.637137e+00 -2.790000e+01
      vertex   7.596759e-01 -4.037137e+00 -2.902000e+01
      vertex   3.959676e+00 -4.037137e+00 -2.902000e+01
    endloop
  endfacet
  facet normal 1.819060e-15 -5.734622e+00 -8.192320e+00
    outer loop
      vertex   3.959676e+00 -5.637137e+00 -2.790000e+01
      vertex   7.596759e-01 -5.637137e+00 -2.790000e+01
      vertex   3.959676e+00 -4.037137e+00 -2.902000e+01
    endloop
  endfacet
  facet normal 1.765402e-15 -1.703709e+00 -7.950665e+00
    outer loop
      vertex   7.596759e-01 -4.037137e+00 -2.902000e+01
      vertex   7.596759e-01 -1.797136e+00 -2.950000e+01
      vertex   3.959676e+00 -1.797136e+00 -2.950000e+01
    endloop
  endfacet
  facet normal 2.171158e-15 -2.095285e+00 -9.778025e+00
    outer loop
      vertex   3.959676e+00 -4.037137e+00 -2.902000e+01
      vertex   7.596759e-01 -4.037137e+00 -2.902000e+01
      vertex   3.959676e+00 -1.797136e+00 -2.950000e+01
    endloop
  endfacet
  facet normal 1.306396e-15 1.961160e+00 -5.883484e+00
    outer loop
      vertex   7.596759e-01 6.028637e-01 -2.870000e+01
      vertex   3.959676e+00 6.028637e-01 -2.870000e+01
      vertex   3.959676e+00 -1.797136e+00 -2.950000e+01
    endloop
  endfacet
  facet normal 2.106500e-15 3.162275e+00 -9.486834e+00
    outer loop
      vertex   7.596759e-01 -1.797136e+00 -2.950000e+01
      vertex   7.596759e-01 6.028637e-01 -2.870000e+01
      vertex   3.959676e+00 -1.797136e+00 -2.950000e+01
    endloop
  endfacet
  facet normal 1.387102e-15 7.808685e+00 -6.246954e+00
    outer loop
      vertex   3.959676e+00 1.882864e+00 -2.710000e+01
      vertex   3.959676e+00 6.028637e-01 -2.870000e+01
      vertex   7.596759e-01 1.882864e+00 -2.710000e+01
    endloop
  endfacet
  facet normal 1.168151e-15 6.576100e+00 -5.260885e+00
    outer loop
      vertex   7.596759e-01 1.882864e+00 -2.710000e+01
      vertex   3.959676e+00 6.028637e-01 -2.870000e+01
      vertex   7.596759e-01 6.028637e-01 -2.870000e+01
    endloop
  endfacet
  facet normal 4.354641e-16 9.805808e+00 -1.961156e+00
    outer loop
      vertex   3.959676e+00 2.202863e+00 -2.550000e+01
      vertex   3.959676e+00 1.882864e+00 -2.710000e+01
      vertex   7.596759e-01 2.202863e+00 -2.550000e+01
    endloop
  endfacet
  facet normal 2.491642e-16 8.735704e+00 -1.747136e+00
    outer loop
      vertex   7.596759e-01 2.202863e+00 -2.550000e+01
      vertex   3.959676e+00 1.882864e+00 -2.710000e+01
      vertex   7.596759e-01 1.882864e+00 -2.710000e+01
    endloop
  endfacet
  facet normal 4.354658e-16 9.805806e+00 -1.961163e+00
    outer loop
      vertex   3.959676e+00 2.362864e+00 -2.470000e+01
      vertex   3.959676e+00 2.202863e+00 -2.550000e+01
      vertex   7.596759e-01 2.362864e+00 -2.470000e+01
    endloop
  endfacet
  facet normal 4.219677e-16 9.501858e+00 -1.900374e+00
    outer loop
      vertex   7.596759e-01 2.362864e+00 -2.470000e+01
      vertex   3.959676e+00 2.202863e+00 -2.550000e+01
      vertex   7.596759e-01 2.202863e+00 -2.550000e+01
    endloop
  endfacet
  facet normal 8.167698e-16 1.379398e+00 -3.678404e+00
    outer loop
      vertex   7.596759e-01 3.642864e+00 -2.422000e+01
      vertex   3.959676e+00 3.642864e+00 -2.422000e+01
      vertex   3.959676e+00 2.362864e+00 -2.470000e+01
    endloop
  endfacet
  facet normal 2.079069e-15 3.511226e+00 -9.363295e+00
    outer loop
      vertex   7.596759e-01 2.362864e+00 -2.470000e+01
      vertex   7.596759e-01 3.642864e+00 -2.422000e+01
      vertex   3.959676e+00 2.362864e+00 -2.470000e+01
    endloop
  endfacet
  facet normal 1.816229e-15 1.128223e+00 -8.179567e+00
    outer loop
      vertex   7.596759e-01 8.282864e+00 -2.358000e+01
      vertex   3.959676e+00 8.282864e+00 -2.358000e+01
      vertex   3.959676e+00 3.642864e+00 -2.422000e+01
    endloop
  endfacet
  facet normal 2.199620e-15 1.366382e+00 -9.906210e+00
    outer loop
      vertex   7.596759e-01 3.642864e+00 -2.422000e+01
      vertex   7.596759e-01 8.282864e+00 -2.358000e+01
      vertex   3.959676e+00 3.642864e+00 -2.422000e+01
    endloop
  endfacet
  facet normal 7.944117e-16 2.683268e+00 -3.577712e+00
    outer loop
      vertex   7.596759e-01 9.562864e+00 -2.262000e+01
      vertex   3.959676e+00 9.562864e+00 -2.262000e+01
      vertex   3.959676e+00 8.282864e+00 -2.358000e+01
    endloop
  endfacet
  facet normal 1.776361e-15 5.999977e+00 -8.000017e+00
    outer loop
      vertex   7.596759e-01 8.282864e+00 -2.358000e+01
      vertex   7.596759e-01 9.562864e+00 -2.262000e+01
      vertex   3.959676e+00 8.282864e+00 -2.358000e+01
    endloop
  endfacet
  facet normal 9.188239e-16 9.103671e+00 -4.138015e+00
    outer loop
      vertex   3.959676e+00 1.036286e+01 -2.086000e+01
      vertex   3.959676e+00 9.562864e+00 -2.262000e+01
      vertex   7.596759e-01 1.036286e+01 -2.086000e+01
    endloop
  endfacet
  facet normal 5.088843e-16 7.792018e+00 -3.541811e+00
    outer loop
      vertex   7.596759e-01 1.036286e+01 -2.086000e+01
      vertex   3.959676e+00 9.562864e+00 -2.262000e+01
      vertex   7.596759e-01 9.562864e+00 -2.262000e+01
    endloop
  endfacet
  facet normal 6.100037e-16 9.615239e+00 -2.747213e+00
    outer loop
      vertex   3.959676e+00 1.100286e+01 -1.862000e+01
      vertex   3.959676e+00 1.036286e+01 -2.086000e+01
      vertex   7.596759e-01 1.100286e+01 -1.862000e+01
    endloop
  endfacet
  facet normal 7.707149e-16 7.773466e+00 -2.220991e+00
    outer loop
      vertex   7.596759e-01 1.100286e+01 -1.862000e+01
      vertex   3.959676e+00 1.036286e+01 -2.086000e+01
      vertex   7.596759e-01 1.036286e+01 -2.086000e+01
    endloop
  endfacet
  facet normal 1.582017e-16 9.974586e+00 -7.124773e-01
    outer loop
      vertex   3.959676e+00 1.116286e+01 -1.638000e+01
      vertex   3.959676e+00 1.100286e+01 -1.862000e+01
      vertex   7.596759e-01 1.116286e+01 -1.638000e+01
    endloop
  endfacet
  facet normal 1.294953e-16 8.164653e+00 -5.831951e-01
    outer loop
      vertex   7.596759e-01 1.116286e+01 -1.638000e+01
      vertex   3.959676e+00 1.100286e+01 -1.862000e+01
      vertex   7.596759e-01 1.100286e+01 -1.862000e+01
    endloop
  endfacet
  facet normal -3.972065e-16 9.838698e+00 1.788859e+00
    outer loop
      vertex   3.959676e+00 1.084286e+01 -1.462000e+01
      vertex   3.959676e+00 1.116286e+01 -1.638000e+01
      vertex   7.596759e-01 1.084286e+01 -1.462000e+01
    endloop
  endfacet
  facet normal -2.079324e-16 8.587921e+00 1.561444e+00
    outer loop
      vertex   7.596759e-01 1.084286e+01 -1.462000e+01
      vertex   3.959676e+00 1.116286e+01 -1.638000e+01
      vertex   7.596759e-01 1.116286e+01 -1.638000e+01
    endloop
  endfacet
  facet normal -8.246516e-16 9.284769e+00 3.713901e+00
    outer loop
      vertex   3.959676e+00 1.020286e+01 -1.302000e+01
      vertex   3.959676e+00 1.084286e+01 -1.462000e+01
      vertex   7.596759e-01 1.020286e+01 -1.302000e+01
    endloop
  endfacet
  facet normal -4.485092e-16 8.174780e+00 3.269906e+00
    outer loop
      vertex   7.596759e-01 1.020286e+01 -1.302000e+01
      vertex   3.959676e+00 1.084286e+01 -1.462000e+01
      vertex   7.596759e-01 1.084286e+01 -1.462000e+01
    endloop
  endfacet
  facet normal -9.930148e-16 8.944269e+00 4.472141e+00
    outer loop
      vertex   3.959676e+00 9.402864e+00 -1.142000e+01
      vertex   3.959676e+00 1.020286e+01 -1.302000e+01
      vertex   7.596759e-01 9.402864e+00 -1.142000e+01
    endloop
  endfacet
  facet normal -1.144330e-15 7.807199e+00 3.903606e+00
    outer loop
      vertex   7.596759e-01 9.402864e+00 -1.142000e+01
      vertex   3.959676e+00 1.020286e+01 -1.302000e+01
      vertex   7.596759e-01 1.020286e+01 -1.302000e+01
    endloop
  endfacet
  facet normal -2.135012e-15 2.747217e+00 9.615238e+00
    outer loop
      vertex   3.959676e+00 4.922863e+00 -1.014000e+01
      vertex   3.959676e+00 9.402864e+00 -1.142000e+01
      vertex   7.596759e-01 4.922863e+00 -1.014000e+01
    endloop
  endfacet
  facet normal -9.311566e-16 1.555305e+00 5.443556e+00
    outer loop
      vertex   7.596759e-01 4.922863e+00 -1.014000e+01
      vertex   3.959676e+00 9.402864e+00 -1.142000e+01
      vertex   7.596759e-01 9.402864e+00 -1.142000e+01
    endloop
  endfacet
  facet normal -2.086761e-15 3.417425e+00 9.397936e+00
    outer loop
      vertex   3.959676e+00 3.162864e+00 -9.500000e+00
      vertex   3.959676e+00 4.922863e+00 -1.014000e+01
      vertex   7.596759e-01 3.162864e+00 -9.500000e+00
    endloop
  endfacet
  facet normal -2.078564e-15 2.949456e+00 8.111018e+00
    outer loop
      vertex   7.596759e-01 3.162864e+00 -9.500000e+00
      vertex   3.959676e+00 4.922863e+00 -1.014000e+01
      vertex   7.596759e-01 4.922863e+00 -1.014000e+01
    endloop
  endfacet
  facet normal -1.847524e-15 5.546995e+00 8.320508e+00
    outer loop
      vertex   3.959676e+00 2.202863e+00 -8.860001e+00
      vertex   3.959676e+00 3.162864e+00 -9.500000e+00
      vertex   7.596759e-01 2.202863e+00 -8.860001e+00
    endloop
  endfacet
  facet normal -1.460448e-15 5.218174e+00 7.827275e+00
    outer loop
      vertex   7.596759e-01 2.202863e+00 -8.860001e+00
      vertex   3.959676e+00 3.162864e+00 -9.500000e+00
      vertex   7.596759e-01 3.162864e+00 -9.500000e+00
    endloop
  endfacet
  facet normal 0.000000e+00 1.000000e+01 0.000000e+00
    outer loop
      vertex   3.959676e+00 2.202863e+00 -7.579998e+00
      vertex   3.959676e+00 2.202863e+00 -8.860001e+00
      vertex   7.596759e-01 2.202863e+00 -7.579998e+00
    endloop
  endfacet
  facet normal 0.000000e+00 9.284764e+00 0.000000e+00
    outer loop
      vertex   7.596759e-01 2.202863e+00 -7.579998e+00
      vertex   3.959676e+00 2.202863e+00 -8.860001e+00
      vertex   7.596759e-01 2.202863e+00 -8.860001e+00
    endloop
  endfacet
  facet normal 9.055509e-17 9.991680e+00 -4.078239e-01
    outer loop
      vertex   3.959676e+00 2.522864e+00 2.600002e-01
      vertex   3.959676e+00 2.202863e+00 -7.579998e+00
      vertex   7.596759e-01 2.522864e+00 2.600002e-01
    endloop
  endfacet
  facet normal 3.419609e-17 3.773134e+00 -1.540055e-01
    outer loop
      vertex   7.596759e-01 2.522864e+00 2.600002e-01
      vertex   3.959676e+00 2.202863e+00 -7.579998e+00
      vertex   7.596759e-01 2.202863e+00 -7.579998e+00
    endloop
  endfacet
  facet normal -1.462175e-15 7.525764e+00 6.585049e+00
    outer loop
      vertex   3.959676e+00 1.402864e+00 1.539999e+00
      vertex   3.959676e+00 2.522864e+00 2.600002e-01
      vertex   7.596759e-01 1.402864e+00 1.539999e+00
    endloop
  endfacet
  facet normal -1.013576e-15 6.645413e+00 5.814741e+00
    outer loop
      vertex   7.596759e-01 1.402864e+00 1.539999e+00
      vertex   3.959676e+00 2.522864e+00 2.600002e-01
      vertex   7.596759e-01 2.522864e+00 2.600002e-01
    endloop
  endfacet
  facet normal 0.000000e+00 1.000000e+01 0.000000e+00
    outer loop
      vertex   3.959676e+00 1.402864e+00 2.820002e+00
      vertex   3.959676e+00 1.402864e+00 1.539999e+00
      vertex   7.596759e-01 1.402864e+00 2.820002e+00
    endloop
  endfacet
  facet normal 0.000000e+00 9.284764e+00 0.000000e+00
    outer loop
      vertex   7.596759e-01 1.402864e+00 2.820002e+00
      vertex   3.959676e+00 1.402864e+00 1.539999e+00
      vertex   7.596759e-01 1.402864e+00 1.539999e+00
    endloop
  endfacet
  facet normal 8.680504e-16 3.040598e+00 -3.909351e+00
    outer loop
      vertex   7.596759e-01 2.842864e+00 3.939999e+00
      vertex   3.959676e+00 2.842864e+00 3.939999e+00
      vertex   3.959676e+00 1.402864e+00 2.820002e+00
    endloop
  endfacet
  facet normal 1.752716e-15 6.139396e+00 -7.893530e+00
    outer loop
      vertex   7.596759e-01 1.402864e+00 2.820002e+00
      vertex   7.596759e-01 2.842864e+00 3.939999e+00
      vertex   3.959676e+00 1.402864e+00 2.820002e+00
    endloop
  endfacet
  facet normal -1.475184e-15 7.474094e+00 6.643638e+00
    outer loop
      vertex   3.959676e+00 1.562863e+00 5.379999e+00
      vertex   3.959676e+00 2.842864e+00 3.939999e+00
      vertex   7.596759e-01 1.562863e+00 5.379999e+00
    endloop
  endfacet
  facet normal -1.263799e-15 6.403100e+00 5.691643e+00
    outer loop
      vertex   7.596759e-01 1.562863e+00 5.379999e+00
      vertex   3.959676e+00 2.842864e+00 3.939999e+00
      vertex   7.596759e-01 2.842864e+00 3.939999e+00
    endloop
  endfacet
  facet normal 0.000000e+00 1.000000e+01 0.000000e+00
    outer loop
      vertex   3.959676e+00 1.562863e+00 6.660000e+00
      vertex   3.959676e+00 1.562863e+00 5.379999e+00
      vertex   7.596759e-01 1.562863e+00 6.660000e+00
    endloop
  endfacet
  facet normal 0.000000e+00 9.284766e+00 0.000000e+00
    outer loop
      vertex   7.596759e-01 1.562863e+00 6.660000e+00
      vertex   3.959676e+00 1.562863e+00 5.379999e+00
      vertex   7.596759e-01 1.562863e+00 5.379999e+00
    endloop
  endfacet
  facet normal 1.332269e-15 7.999997e+00 -6.000004e+00
    outer loop
      vertex   3.959676e+00 2.522864e+00 7.939999e+00
      vertex   3.959676e+00 1.562863e+00 6.660000e+00
      vertex   7.596759e-01 2.522864e+00 7.939999e+00
    endloop
  endfacet
  facet normal 9.140617e-16 7.155416e+00 -5.366568e+00
    outer loop
      vertex   7.596759e-01 2.522864e+00 7.939999e+00
      vertex   3.959676e+00 1.562863e+00 6.660000e+00
      vertex   7.596759e-01 1.562863e+00 6.660000e+00
    endloop
  endfacet
  facet normal -1.659582e-15 6.643641e+00 7.474092e+00
    outer loop
      vertex   3.959676e+00 1.082864e+00 9.219999e+00
      vertex   3.959676e+00 2.522864e+00 7.939999e+00
      vertex   7.596759e-01 1.082864e+00 9.219999e+00
    endloop
  endfacet
  facet normal -1.421773e-15 5.691646e+00 6.403098e+00
    outer loop
      vertex   7.596759e-01 1.082864e+00 9.219999e+00
      vertex   3.959676e+00 2.522864e+00 7.939999e+00
      vertex   7.596759e-01 2.522864e+00 7.939999e+00
    endloop
  endfacet
  facet normal 0.000000e+00 1.000000e+01 0.000000e+00
    outer loop
      vertex   3.959676e+00 1.082864e+00 1.050000e+01
      vertex   3.959676e+00 1.082864e+00 9.219999e+00
      vertex   7.596759e-01 1.082864e+00 1.050000e+01
    endloop
  endfacet
  facet normal 0.000000e+00 9.284766e+00 0.000000e+00
    outer loop
      vertex   7.596759e-01 1.082864e+00 1.050000e+01
      vertex   3.959676e+00 1.082864e+00 9.219999e+00
      vertex   7.596759e-01 1.082864e+00 9.219999e+00
    endloop
  endfacet
  facet normal 1.462173e-15 7.525769e+00 -6.585044e+00
    outer loop
      vertex   3.959676e+00 2.202863e+00 1.178000e+01
      vertex   3.959676e+00 1.082864e+00 1.050000e+01
      vertex   7.596759e-01 2.202863e+00 1.178000e+01
    endloop
  endfacet
  facet normal 1.568686e-15 6.645416e+00 -5.814735e+00
    outer loop
      vertex   7.596759e-01 2.202863e+00 1.178000e+01
      vertex   3.959676e+00 1.082864e+00 1.050000e+01
      vertex   7.596759e-01 1.082864e+00 1.050000e+01
    endloop
  endfacet
  facet normal -1.406071e-15 7.739571e+00 6.332381e+00
    outer loop
      vertex   3.959676e+00 7.628637e-01 1.354000e+01
      vertex   3.959676e+00 2.202863e+00 1.178000e+01
      vertex   7.596759e-01 7.628637e-01 1.354000e+01
    endloop
  endfacet
  facet normal -5.910322e-16 6.308828e+00 5.161772e+00
    outer loop
      vertex   7.596759e-01 7.628637e-01 1.354000e+01
      vertex   3.959676e+00 2.202863e+00 1.178000e+01
      vertex   7.596759e-01 2.202863e+00 1.178000e+01
    endloop
  endfacet
  facet normal 0.000000e+00 1.000000e+01 0.000000e+00
    outer loop
      vertex   3.959676e+00 7.628637e-01 1.482000e+01
      vertex   3.959676e+00 7.628637e-01 1.354000e+01
      vertex   7.596759e-01 7.628637e-01 1.482000e+01
    endloop
  endfacet
  facet normal 0.000000e+00 9.284766e+00 0.000000e+00
    outer loop
      vertex   7.596759e-01 7.628637e-01 1.482000e+01
      vertex   3.959676e+00 7.628637e-01 1.354000e+01
      vertex   7.596759e-01 7.628637e-01 1.354000e+01
    endloop
  endfacet
  facet normal 1.176834e-15 8.479983e+00 -5.299989e+00
    outer loop
      vertex   3.959676e+00 1.562863e+00 1.610000e+01
      vertex   3.959676e+00 7.628637e-01 1.482000e+01
      vertex   7.596759e-01 1.562863e+00 1.610000e+01
    endloop
  endfacet
  facet normal 7.868098e-16 7.669563e+00 -4.793476e+00
    outer loop
      vertex   7.596759e-01 1.562863e+00 1.610000e+01
      vertex   3.959676e+00 7.628637e-01 1.482000e+01
      vertex   7.596759e-01 7.628637e-01 1.482000e+01
    endloop
  endfacet
  facet normal -1.795754e-15 5.881720e+00 8.087358e+00
    outer loop
      vertex   3.959676e+00 -1.971363e-01 1.738000e+01
      vertex   3.959676e+00 1.562863e+00 1.610000e+01
      vertex   7.596759e-01 -1.971363e-01 1.738000e+01
    endloop
  endfacet
  facet normal -1.484906e-15 4.863584e+00 6.687422e+00
    outer loop
      vertex   7.596759e-01 -1.971363e-01 1.738000e+01
      vertex   3.959676e+00 1.562863e+00 1.610000e+01
      vertex   7.596759e-01 1.562863e+00 1.610000e+01
    endloop
  endfacet
  facet normal -2.010299e-16 9.958932e+00 9.053581e-01
    outer loop
      vertex   3.959676e+00 -3.571364e-01 1.914000e+01
      vertex   3.959676e+00 -1.971363e-01 1.738000e+01
      vertex   7.596759e-01 -3.571364e-01 1.914000e+01
    endloop
  endfacet
  facet normal -2.453657e-16 8.717813e+00 7.925289e-01
    outer loop
      vertex   7.596759e-01 -3.571364e-01 1.914000e+01
      vertex   3.959676e+00 -1.971363e-01 1.738000e+01
      vertex   7.596759e-01 -1.971363e-01 1.738000e+01
    endloop
  endfacet
  facet normal 1.065814e-15 3.600000e+00 -4.800000e+00
    outer loop
      vertex   7.596759e-01 1.562863e+00 2.058000e+01
      vertex   3.959676e+00 1.562863e+00 2.058000e+01
      vertex   3.959676e+00 -3.571364e-01 1.914000e+01
    endloop
  endfacet
  facet normal 1.776357e-15 6.000000e+00 -8.000000e+00
    outer loop
      vertex   7.596759e-01 -3.571364e-01 1.914000e+01
      vertex   7.596759e-01 1.562863e+00 2.058000e+01
      vertex   3.959676e+00 -3.571364e-01 1.914000e+01
    endloop
  endfacet
endsolid
