solid ascii
  facet normal 0.000000e+00 1.000000e+01 0.000000e+00
    outer loop
      vertex   1.895968e+01 9.228635e-01 2.298000e+01
      vertex   1.895968e+01 9.228635e-01 2.138000e+01
      vertex   1.575968e+01 9.228635e-01 2.298000e+01
    endloop
  endfacet
  facet normal 0.000000e+00 8.944271e+00 0.000000e+00
    outer loop
      vertex   1.575968e+01 9.228635e-01 2.298000e+01
      vertex   1.895968e+01 9.228635e-01 2.138000e+01
      vertex   1.575968e+01 9.228635e-01 2.138000e+01
    endloop
  endfacet
  facet normal 0.000000e+00 2.931977e+00 -4.607392e+00
    outer loop
      vertex   1.575968e+01 2.682863e+00 2.410000e+01
      vertex   1.895968e+01 2.682863e+00 2.410000e+01
      vertex   1.895968e+01 9.228635e-01 2.298000e+01
    endloop
  endfacet
  facet normal 0.000000e+00 5.368755e+00 -8.436615e+00
    outer loop
      vertex   1.575968e+01 9.228635e-01 2.298000e+01
      vertex   1.575968e+01 2.682863e+00 2.410000e+01
      vertex   1.895968e+01 9.228635e-01 2.298000e+01
    endloop
  endfacet
  facet normal -7.071068e+00 -0.000000e+00 -0.000000e+00
    outer loop
      vertex   1.575968e+01 2.682863e+00 2.730000e+01
      vertex   1.575968e+01 2.682863e+00 2.410000e+01
      vertex   1.575968e+01 -5.171364e-01 3.050000e+01
    endloop
  endfacet
  facet normal -2.710162e+00 0.000000e+00 0.000000e+00
    outer loop
      vertex   1.575968e+01 -5.171364e-01 3.050000e+01
      vertex   1.575968e+01 2.682863e+00 2.410000e+01
      vertex   1.575968e+01 9.228635e-01 2.298000e+01
    endloop
  endfacet
  facet normal -3.259140e-01 0.000000e+00 0.000000e+00
    outer loop
      vertex   1.575968e+01 -5.171364e-01 3.050000e+01
      vertex   1.575968e+01 9.228635e-01 2.298000e+01
      vertex   1.575968e+01 9.228635e-01 2.138000e+01
    endloop
  endfacet
  facet normal -9.298066e+00 0.000000e+00 0.000000e+00
    outer loop
      vertex   1.575968e+01 9.228635e-01 2.138000e+01
      vertex   1.575968e+01 1.562863e+00 2.058000e+01
      vertex   1.575968e+01 -3.571364e-01 1.914000e+01
    endloop
  endfacet
  facet normal -6.254809e+00 0.000000e+00 0.000000e+00
    outer loop
      vertex   1.575968e+01 9.228635e-01 2.138000e+01
      vertex   1.575968e+01 -3.571364e-01 1.914000e+01
      vertex   1.575968e+01 -5.171364e-01 3.050000e+01
    endloop
  endfacet
  facet normal -5.507224e+00 0.000000e+00 0.000000e+00
    outer loop
      vertex   1.575968e+01 -1.971363e-01 1.738000e+01
      vertex   1.575968e+01 1.562863e+00 1.610000e+01
      vertex   1.575968e+01 7.628637e-01 1.482000e+01
    endloop
  endfacet
  facet normal -1.135467e+00 0.000000e+00 0.000000e+00
    outer loop
      vertex   1.575968e+01 -1.971363e-01 1.738000e+01
      vertex   1.575968e+01 7.628637e-01 1.482000e+01
      vertex   1.575968e+01 7.628637e-01 1.354000e+01
    endloop
  endfacet
  facet normal -5.487366e+00 0.000000e+00 0.000000e+00
    outer loop
      vertex   1.575968e+01 7.628637e-01 1.354000e+01
      vertex   1.575968e+01 2.202863e+00 1.178000e+01
      vertex   1.575968e+01 1.082864e+00 1.050000e+01
    endloop
  endfacet
  facet normal -1.396437e+00 -0.000000e+00 -0.000000e+00
    outer loop
      vertex   1.575968e+01 7.628637e-01 1.354000e+01
      vertex   1.575968e+01 1.082864e+00 1.050000e+01
      vertex   1.575968e+01 -1.971363e-01 1.738000e+01
    endloop
  endfacet
  facet normal -2.834488e-01 0.000000e+00 0.000000e+00
    outer loop
      vertex   1.575968e+01 -1.971363e-01 1.738000e+01
      vertex   1.575968e+01 1.082864e+00 1.050000e+01
      vertex   1.575968e+01 1.082864e+00 9.219999e+00
    endloop
  endfacet
  facet normal -6.121734e+00 0.000000e+00 0.000000e+00
    outer loop
      vertex   1.575968e+01 1.082864e+00 9.219999e+00
      vertex   1.575968e+01 2.522864e+00 7.939999e+00
      vertex   1.575968e+01 1.562863e+00 6.660000e+00
    endloop
  endfacet
  facet normal -6.095508e-01 0.000000e+00 0.000000e+00
    outer loop
      vertex   1.575968e+01 1.082864e+00 9.219999e+00
      vertex   1.575968e+01 1.562863e+00 6.660000e+00
      vertex   1.575968e+01 1.562863e+00 5.379999e+00
    endloop
  endfacet
  facet normal -3.123507e-01 -0.000000e+00 -0.000000e+00
    outer loop
      vertex   1.575968e+01 1.082864e+00 9.219999e+00
      vertex   1.575968e+01 1.562863e+00 5.379999e+00
      vertex   1.575968e+01 -1.971363e-01 1.738000e+01
    endloop
  endfacet
  facet normal -7.096922e+00 0.000000e+00 0.000000e+00
    outer loop
      vertex   1.575968e+01 1.562863e+00 5.379999e+00
      vertex   1.575968e+01 2.842864e+00 3.939999e+00
      vertex   1.575968e+01 1.402864e+00 2.820002e+00
    endloop
  endfacet
  facet normal -3.616944e-01 0.000000e+00 0.000000e+00
    outer loop
      vertex   1.575968e+01 -1.971363e-01 1.738000e+01
      vertex   1.575968e+01 1.562863e+00 5.379999e+00
      vertex   1.575968e+01 1.402864e+00 2.820002e+00
    endloop
  endfacet
  facet normal -2.989386e-01 -0.000000e+00 -0.000000e+00
    outer loop
      vertex   1.575968e+01 -1.971363e-01 1.738000e+01
      vertex   1.575968e+01 2.362864e+00 -2.470000e+01
      vertex   1.575968e+01 -3.571364e-01 1.914000e+01
    endloop
  endfacet
  facet normal -1.092326e+00 -0.000000e+00 -0.000000e+00
    outer loop
      vertex   1.575968e+01 1.402864e+00 2.820002e+00
      vertex   1.575968e+01 1.402864e+00 1.539999e+00
      vertex   1.575968e+01 -1.971363e-01 1.738000e+01
    endloop
  endfacet
  facet normal -5.902231e+00 0.000000e+00 0.000000e+00
    outer loop
      vertex   1.575968e+01 1.402864e+00 1.539999e+00
      vertex   1.575968e+01 2.522864e+00 2.600002e-01
      vertex   1.575968e+01 2.202863e+00 -7.579998e+00
    endloop
  endfacet
  facet normal -1.317304e-01 -0.000000e+00 -0.000000e+00
    outer loop
      vertex   1.575968e+01 1.402864e+00 1.539999e+00
      vertex   1.575968e+01 2.202863e+00 -7.579998e+00
      vertex   1.575968e+01 -1.971363e-01 1.738000e+01
    endloop
  endfacet
  facet normal -9.571238e-01 -0.000000e+00 -0.000000e+00
    outer loop
      vertex   1.575968e+01 2.202863e+00 -7.579998e+00
      vertex   1.575968e+01 2.202863e+00 -8.860001e+00
      vertex   1.575968e+01 -1.971363e-01 1.738000e+01
    endloop
  endfacet
  facet normal -2.192517e+00 0.000000e+00 0.000000e+00
    outer loop
      vertex   1.575968e+01 4.922863e+00 -1.014000e+01
      vertex   1.575968e+01 9.402864e+00 -1.142000e+01
      vertex   1.575968e+01 1.020286e+01 -1.302000e+01
    endloop
  endfacet
  facet normal -1.500071e+00 -0.000000e+00 -0.000000e+00
    outer loop
      vertex   1.575968e+01 4.922863e+00 -1.014000e+01
      vertex   1.575968e+01 1.020286e+01 -1.302000e+01
      vertex   1.575968e+01 3.162864e+00 -9.500000e+00
    endloop
  endfacet
  facet normal -1.240346e+00 0.000000e+00 0.000000e+00
    outer loop
      vertex   1.575968e+01 3.162864e+00 -9.500000e+00
      vertex   1.575968e+01 1.020286e+01 -1.302000e+01
      vertex   1.575968e+01 1.084286e+01 -1.462000e+01
    endloop
  endfacet
  facet normal -1.219639e+00 0.000000e+00 0.000000e+00
    outer loop
      vertex   1.575968e+01 3.162864e+00 -9.500000e+00
      vertex   1.575968e+01 1.084286e+01 -1.462000e+01
      vertex   1.575968e+01 1.116286e+01 -1.638000e+01
    endloop
  endfacet
  facet normal -1.219655e+00 -0.000000e+00 -0.000000e+00
    outer loop
      vertex   1.575968e+01 3.162864e+00 -9.500000e+00
      vertex   1.575968e+01 1.116286e+01 -1.638000e+01
      vertex   1.575968e+01 2.202863e+00 -8.860001e+00
    endloop
  endfacet
  facet normal -1.383899e+00 0.000000e+00 0.000000e+00
    outer loop
      vertex   1.575968e+01 2.202863e+00 -8.860001e+00
      vertex   1.575968e+01 1.116286e+01 -1.638000e+01
      vertex   1.575968e+01 1.100286e+01 -1.862000e+01
    endloop
  endfacet
  facet normal -1.361195e+00 0.000000e+00 0.000000e+00
    outer loop
      vertex   1.575968e+01 2.202863e+00 -8.860001e+00
      vertex   1.575968e+01 1.100286e+01 -1.862000e+01
      vertex   1.575968e+01 1.036286e+01 -2.086000e+01
    endloop
  endfacet
  facet normal -1.058143e+00 0.000000e+00 0.000000e+00
    outer loop
      vertex   1.575968e+01 2.202863e+00 -8.860001e+00
      vertex   1.575968e+01 1.036286e+01 -2.086000e+01
      vertex   1.575968e+01 9.562864e+00 -2.262000e+01
    endloop
  endfacet
  facet normal -9.929978e-01 0.000000e+00 0.000000e+00
    outer loop
      vertex   1.575968e+01 2.202863e+00 -8.860001e+00
      vertex   1.575968e+01 9.562864e+00 -2.262000e+01
      vertex   1.575968e+01 8.282864e+00 -2.358000e+01
    endloop
  endfacet
  facet normal -2.938222e+00 0.000000e+00 0.000000e+00
    outer loop
      vertex   1.575968e+01 2.202863e+00 -8.860001e+00
      vertex   1.575968e+01 8.282864e+00 -2.358000e+01
      vertex   1.575968e+01 3.642864e+00 -2.422000e+01
    endloop
  endfacet
  facet normal -8.327956e-01 0.000000e+00 0.000000e+00
    outer loop
      vertex   1.575968e+01 2.202863e+00 -8.860001e+00
      vertex   1.575968e+01 3.642864e+00 -2.422000e+01
      vertex   1.575968e+01 2.362864e+00 -2.470000e+01
    endloop
  endfacet
  facet normal -8.101997e-01 -0.000000e+00 -0.000000e+00
    outer loop
      vertex   1.575968e+01 2.202863e+00 -8.860001e+00
      vertex   1.575968e+01 2.362864e+00 -2.470000e+01
      vertex   1.575968e+01 -1.971363e-01 1.738000e+01
    endloop
  endfacet
  facet normal -2.564634e+00 0.000000e+00 0.000000e+00
    outer loop
      vertex   1.575968e+01 2.362864e+00 -2.470000e+01
      vertex   1.575968e+01 2.202863e+00 -2.550000e+01
      vertex   1.575968e+01 -3.571364e-01 1.914000e+01
    endloop
  endfacet
  facet normal -8.879720e-02 0.000000e+00 0.000000e+00
    outer loop
      vertex   1.575968e+01 -3.571364e-01 1.914000e+01
      vertex   1.575968e+01 2.202863e+00 -2.550000e+01
      vertex   1.575968e+01 1.882864e+00 -2.710000e+01
    endloop
  endfacet
  facet normal -2.833708e-01 0.000000e+00 0.000000e+00
    outer loop
      vertex   1.575968e+01 -3.571364e-01 1.914000e+01
      vertex   1.575968e+01 1.882864e+00 -2.710000e+01
      vertex   1.575968e+01 6.028637e-01 -2.870000e+01
    endloop
  endfacet
  facet normal -4.964040e-01 0.000000e+00 0.000000e+00
    outer loop
      vertex   1.575968e+01 -3.571364e-01 1.914000e+01
      vertex   1.575968e+01 6.028637e-01 -2.870000e+01
      vertex   1.575968e+01 -1.797136e+00 -2.950000e+01
    endloop
  endfacet
  facet normal -4.366630e-01 0.000000e+00 0.000000e+00
    outer loop
      vertex   1.575968e+01 -3.571364e-01 1.914000e+01
      vertex   1.575968e+01 -1.797136e+00 -2.950000e+01
      vertex   1.575968e+01 -5.171364e-01 3.050000e+01
    endloop
  endfacet
  facet normal -3.773194e-01 0.000000e+00 0.000000e+00
    outer loop
      vertex   1.575968e+01 -5.171364e-01 3.050000e+01
      vertex   1.575968e+01 -1.797136e+00 -2.950000e+01
      vertex   1.575968e+01 -4.037137e+00 -2.902000e+01
    endloop
  endfacet
  facet normal -2.837286e-01 0.000000e+00 0.000000e+00
    outer loop
      vertex   1.575968e+01 -5.171364e-01 3.050000e+01
      vertex   1.575968e+01 -4.037137e+00 -2.902000e+01
      vertex   1.575968e+01 -5.637137e+00 -2.790000e+01
    endloop
  endfacet
  facet normal -1.889014e-01 0.000000e+00 0.000000e+00
    outer loop
      vertex   1.575968e+01 -5.171364e-01 3.050000e+01
      vertex   1.575968e+01 -5.637137e+00 -2.790000e+01
      vertex   1.575968e+01 -6.597136e+00 -2.646000e+01
    endloop
  endfacet
  facet normal -1.480354e-01 0.000000e+00 0.000000e+00
    outer loop
      vertex   1.575968e+01 -5.171364e-01 3.050000e+01
      vertex   1.575968e+01 -6.597136e+00 -2.646000e+01
      vertex   1.575968e+01 -7.237136e+00 -2.470000e+01
    endloop
  endfacet
  facet normal -1.992425e-01 0.000000e+00 0.000000e+00
    outer loop
      vertex   1.575968e+01 -5.171364e-01 3.050000e+01
      vertex   1.575968e+01 -7.237136e+00 -2.470000e+01
      vertex   1.575968e+01 -8.197137e+00 -2.358000e+01
    endloop
  endfacet
  facet normal -1.766641e+00 0.000000e+00 0.000000e+00
    outer loop
      vertex   1.575968e+01 -6.117136e+00 2.762000e+01
      vertex   1.575968e+01 -4.197136e+00 2.858000e+01
      vertex   1.575968e+01 -3.397136e+00 2.842000e+01
    endloop
  endfacet
  facet normal -7.350154e+00 0.000000e+00 0.000000e+00
    outer loop
      vertex   1.575968e+01 -7.077136e+00 -9.180000e+00
      vertex   1.575968e+01 -1.027714e+01 -2.310000e+01
      vertex   1.575968e+01 -8.197137e+00 -9.820003e+00
    endloop
  endfacet
  facet normal -1.360524e+00 0.000000e+00 0.000000e+00
    outer loop
      vertex   1.575968e+01 -1.155714e+01 -1.014000e+01
      vertex   1.575968e+01 -1.411714e+01 -2.086000e+01
      vertex   1.575968e+01 -1.491714e+01 -1.878000e+01
    endloop
  endfacet
  facet normal -8.521892e+00 0.000000e+00 0.000000e+00
    outer loop
      vertex   1.575968e+01 -9.637136e+00 -9.820003e+00
      vertex   1.575968e+01 -1.411714e+01 -2.086000e+01
      vertex   1.575968e+01 -1.155714e+01 -1.014000e+01
    endloop
  endfacet
  facet normal -1.513877e+00 0.000000e+00 0.000000e+00
    outer loop
      vertex   1.575968e+01 -1.363714e+01 -1.078000e+01
      vertex   1.575968e+01 -1.507714e+01 -1.606000e+01
      vertex   1.575968e+01 -1.491714e+01 -1.366000e+01
    endloop
  endfacet
  facet normal -6.712267e+00 0.000000e+00 0.000000e+00
    outer loop
      vertex   1.575968e+01 -1.155714e+01 -1.014000e+01
      vertex   1.575968e+01 -1.507714e+01 -1.606000e+01
      vertex   1.575968e+01 -1.363714e+01 -1.078000e+01
    endloop
  endfacet
  facet normal -1.647892e+00 0.000000e+00 0.000000e+00
    outer loop
      vertex   1.575968e+01 -1.155714e+01 -1.014000e+01
      vertex   1.575968e+01 -1.491714e+01 -1.878000e+01
      vertex   1.575968e+01 -1.507714e+01 -1.606000e+01
    endloop
  endfacet
  facet normal -9.213639e+00 0.000000e+00 0.000000e+00
    outer loop
      vertex   1.575968e+01 -3.397136e+00 2.842000e+01
      vertex   1.575968e+01 -2.437136e+00 2.874000e+01
      vertex   1.575968e+01 -6.117136e+00 -6.620002e+00
    endloop
  endfacet
  facet normal -8.688515e-01 0.000000e+00 0.000000e+00
    outer loop
      vertex   1.575968e+01 -9.637136e+00 -9.820003e+00
      vertex   1.575968e+01 -1.347714e+01 -2.230000e+01
      vertex   1.575968e+01 -1.411714e+01 -2.086000e+01
    endloop
  endfacet
  facet normal -9.806928e+00 0.000000e+00 0.000000e+00
    outer loop
      vertex   1.575968e+01 -1.027714e+01 -2.310000e+01
      vertex   1.575968e+01 -1.347714e+01 -2.230000e+01
      vertex   1.575968e+01 -9.637136e+00 -9.820003e+00
    endloop
  endfacet
  facet normal -1.070035e+00 0.000000e+00 0.000000e+00
    outer loop
      vertex   1.575968e+01 -1.027714e+01 -2.310000e+01
      vertex   1.575968e+01 -9.637136e+00 -9.820003e+00
      vertex   1.575968e+01 -8.197137e+00 -9.820003e+00
    endloop
  endfacet
  facet normal -6.632479e+00 0.000000e+00 0.000000e+00
    outer loop
      vertex   1.575968e+01 -2.437136e+00 2.874000e+01
      vertex   1.575968e+01 -5.171364e-01 3.050000e+01
      vertex   1.575968e+01 -6.117136e+00 -6.620002e+00
    endloop
  endfacet
  facet normal -9.888938e+00 0.000000e+00 0.000000e+00
    outer loop
      vertex   1.575968e+01 -8.197137e+00 -2.358000e+01
      vertex   1.575968e+01 -1.027714e+01 -2.310000e+01
      vertex   1.575968e+01 -7.077136e+00 -9.180000e+00
    endloop
  endfacet
  facet normal -3.764565e-01 0.000000e+00 0.000000e+00
    outer loop
      vertex   1.575968e+01 -8.197137e+00 -2.358000e+01
      vertex   1.575968e+01 -7.077136e+00 -9.180000e+00
      vertex   1.575968e+01 -6.437137e+00 -8.380001e+00
    endloop
  endfacet
  facet normal -6.756022e-02 0.000000e+00 0.000000e+00
    outer loop
      vertex   1.575968e+01 -8.197137e+00 -2.358000e+01
      vertex   1.575968e+01 -6.437137e+00 -8.380001e+00
      vertex   1.575968e+01 -6.117136e+00 -6.620002e+00
    endloop
  endfacet
  facet normal -1.903522e-01 0.000000e+00 0.000000e+00
    outer loop
      vertex   1.575968e+01 -8.197137e+00 -2.358000e+01
      vertex   1.575968e+01 -6.117136e+00 -6.620002e+00
      vertex   1.575968e+01 -5.171364e-01 3.050000e+01
    endloop
  endfacet
  facet normal -4.472135e+00 0.000000e+00 0.000000e+00
    outer loop
      vertex   1.575968e+01 -4.197136e+00 2.858000e+01
      vertex   1.575968e+01 -6.117136e+00 2.762000e+01
      vertex   1.575968e+01 -5.157137e+00 2.858000e+01
    endloop
  endfacet
  facet normal -2.006537e+00 0.000000e+00 0.000000e+00
    outer loop
      vertex   1.575968e+01 -1.363714e+01 -1.078000e+01
      vertex   1.575968e+01 -1.491714e+01 -1.366000e+01
      vertex   1.575968e+01 -1.443714e+01 -1.190000e+01
    endloop
  endfacet
  facet normal -9.593656e+00 0.000000e+00 0.000000e+00
    outer loop
      vertex   1.575968e+01 -6.117136e+00 2.762000e+01
      vertex   1.575968e+01 -3.397136e+00 2.842000e+01
      vertex   1.575968e+01 -6.117136e+00 -6.620002e+00
    endloop
  endfacet
  facet normal 0.000000e+00 7.808688e+00 6.246951e+00
    outer loop
      vertex   1.895968e+01 9.228635e-01 2.138000e+01
      vertex   1.895968e+01 1.562863e+00 2.058000e+01
      vertex   1.575968e+01 9.228635e-01 2.138000e+01
    endloop
  endfacet
  facet normal 0.000000e+00 7.436846e+00 5.949478e+00
    outer loop
      vertex   1.575968e+01 9.228635e-01 2.138000e+01
      vertex   1.895968e+01 1.562863e+00 2.058000e+01
      vertex   1.575968e+01 1.562863e+00 2.058000e+01
    endloop
  endfacet
  facet normal 2.622585e-01 0.000000e+00 0.000000e+00
    outer loop
      vertex   1.895968e+01 -6.117136e+00 -6.620002e+00
      vertex   1.895968e+01 -2.437136e+00 2.874000e+01
      vertex   1.895968e+01 -3.397136e+00 2.842000e+01
    endloop
  endfacet
  facet normal 2.769718e-01 0.000000e+00 0.000000e+00
    outer loop
      vertex   1.895968e+01 -6.117136e+00 -6.620002e+00
      vertex   1.895968e+01 -8.197137e+00 -2.358000e+01
      vertex   1.895968e+01 -5.171364e-01 3.050000e+01
    endloop
  endfacet
  facet normal 1.961166e+00 0.000000e+00 0.000000e+00
    outer loop
      vertex   1.895968e+01 -4.197136e+00 2.858000e+01
      vertex   1.895968e+01 -5.157137e+00 2.858000e+01
      vertex   1.895968e+01 -3.397136e+00 2.842000e+01
    endloop
  endfacet
  facet normal 6.281057e+00 0.000000e+00 0.000000e+00
    outer loop
      vertex   1.895968e+01 -5.171364e-01 3.050000e+01
      vertex   1.895968e+01 -2.437136e+00 2.874000e+01
      vertex   1.895968e+01 -6.117136e+00 -6.620002e+00
    endloop
  endfacet
  facet normal 7.682216e+00 0.000000e+00 0.000000e+00
    outer loop
      vertex   1.895968e+01 -5.157137e+00 2.858000e+01
      vertex   1.895968e+01 -6.117136e+00 2.762000e+01
      vertex   1.895968e+01 -3.397136e+00 2.842000e+01
    endloop
  endfacet
  facet normal 9.593656e+00 0.000000e+00 0.000000e+00
    outer loop
      vertex   1.895968e+01 -6.117136e+00 2.762000e+01
      vertex   1.895968e+01 -6.117136e+00 -6.620002e+00
      vertex   1.895968e+01 -3.397136e+00 2.842000e+01
    endloop
  endfacet
  facet normal 6.453324e-01 0.000000e+00 0.000000e+00
    outer loop
      vertex   1.895968e+01 -6.437137e+00 -8.380001e+00
      vertex   1.895968e+01 -8.197137e+00 -2.358000e+01
      vertex   1.895968e+01 -6.117136e+00 -6.620002e+00
    endloop
  endfacet
  facet normal 1.319232e+00 0.000000e+00 0.000000e+00
    outer loop
      vertex   1.895968e+01 -7.077136e+00 -9.180000e+00
      vertex   1.895968e+01 -1.411714e+01 -2.086000e+01
      vertex   1.895968e+01 -6.437137e+00 -8.380001e+00
    endloop
  endfacet
  facet normal 2.157974e+00 0.000000e+00 0.000000e+00
    outer loop
      vertex   1.895968e+01 -8.197137e+00 -9.820003e+00
      vertex   1.895968e+01 -1.507714e+01 -1.606000e+01
      vertex   1.895968e+01 -7.077136e+00 -9.180000e+00
    endloop
  endfacet
  facet normal 1.643975e+00 0.000000e+00 0.000000e+00
    outer loop
      vertex   1.895968e+01 -9.637136e+00 -9.820003e+00
      vertex   1.895968e+01 -1.155714e+01 -1.014000e+01
      vertex   1.895968e+01 -8.197137e+00 -9.820003e+00
    endloop
  endfacet
  facet normal 4.528096e+00 0.000000e+00 0.000000e+00
    outer loop
      vertex   1.895968e+01 -7.237136e+00 -2.470000e+01
      vertex   1.895968e+01 -6.597136e+00 -2.646000e+01
      vertex   1.895968e+01 -5.171364e-01 3.050000e+01
    endloop
  endfacet
  facet normal 2.021448e+00 0.000000e+00 0.000000e+00
    outer loop
      vertex   1.895968e+01 -1.155714e+01 -1.014000e+01
      vertex   1.895968e+01 -1.363714e+01 -1.078000e+01
      vertex   1.895968e+01 -8.197137e+00 -9.820003e+00
    endloop
  endfacet
  facet normal 7.003415e+00 0.000000e+00 0.000000e+00
    outer loop
      vertex   1.895968e+01 -1.363714e+01 -1.078000e+01
      vertex   1.895968e+01 -1.443714e+01 -1.190000e+01
      vertex   1.895968e+01 -8.197137e+00 -9.820003e+00
    endloop
  endfacet
  facet normal 8.320508e+00 0.000000e+00 0.000000e+00
    outer loop
      vertex   1.895968e+01 -1.443714e+01 -1.190000e+01
      vertex   1.895968e+01 -1.491714e+01 -1.366000e+01
      vertex   1.895968e+01 -8.197137e+00 -9.820003e+00
    endloop
  endfacet
  facet normal 8.333176e+00 0.000000e+00 0.000000e+00
    outer loop
      vertex   1.895968e+01 -1.491714e+01 -1.366000e+01
      vertex   1.895968e+01 -1.507714e+01 -1.606000e+01
      vertex   1.895968e+01 -8.197137e+00 -9.820003e+00
    endloop
  endfacet
  facet normal 7.951662e+00 0.000000e+00 0.000000e+00
    outer loop
      vertex   1.895968e+01 -1.507714e+01 -1.606000e+01
      vertex   1.895968e+01 -1.491714e+01 -1.878000e+01
      vertex   1.895968e+01 -7.077136e+00 -9.180000e+00
    endloop
  endfacet
  facet normal 8.684143e+00 0.000000e+00 0.000000e+00
    outer loop
      vertex   1.895968e+01 -1.491714e+01 -1.878000e+01
      vertex   1.895968e+01 -1.411714e+01 -2.086000e+01
      vertex   1.895968e+01 -7.077136e+00 -9.180000e+00
    endloop
  endfacet
  facet normal 8.248175e+00 0.000000e+00 0.000000e+00
    outer loop
      vertex   1.895968e+01 -1.411714e+01 -2.086000e+01
      vertex   1.895968e+01 -1.347714e+01 -2.230000e+01
      vertex   1.895968e+01 -6.437137e+00 -8.380001e+00
    endloop
  endfacet
  facet normal 9.751818e+00 0.000000e+00 0.000000e+00
    outer loop
      vertex   1.895968e+01 -1.347714e+01 -2.230000e+01
      vertex   1.895968e+01 -1.027714e+01 -2.310000e+01
      vertex   1.895968e+01 -6.437137e+00 -8.380001e+00
    endloop
  endfacet
  facet normal 9.975372e+00 0.000000e+00 0.000000e+00
    outer loop
      vertex   1.895968e+01 1.562863e+00 1.610000e+01
      vertex   1.895968e+01 -1.971363e-01 1.738000e+01
      vertex   1.895968e+01 7.628637e-01 1.482000e+01
    endloop
  endfacet
  facet normal 9.995972e+00 0.000000e+00 0.000000e+00
    outer loop
      vertex   1.895968e+01 -1.027714e+01 -2.310000e+01
      vertex   1.895968e+01 -8.197137e+00 -2.358000e+01
      vertex   1.895968e+01 -6.437137e+00 -8.380001e+00
    endloop
  endfacet
  facet normal 7.510795e+00 0.000000e+00 0.000000e+00
    outer loop
      vertex   1.895968e+01 -8.197137e+00 -2.358000e+01
      vertex   1.895968e+01 -7.237136e+00 -2.470000e+01
      vertex   1.895968e+01 -5.171364e-01 3.050000e+01
    endloop
  endfacet
  facet normal 6.398790e+00 0.000000e+00 0.000000e+00
    outer loop
      vertex   1.895968e+01 -6.597136e+00 -2.646000e+01
      vertex   1.895968e+01 -5.637137e+00 -2.790000e+01
      vertex   1.895968e+01 -5.171364e-01 3.050000e+01
    endloop
  endfacet
  facet normal 8.661851e+00 0.000000e+00 0.000000e+00
    outer loop
      vertex   1.895968e+01 -5.637137e+00 -2.790000e+01
      vertex   1.895968e+01 -4.037137e+00 -2.902000e+01
      vertex   1.895968e+01 -5.171364e-01 3.050000e+01
    endloop
  endfacet
  facet normal 9.884669e+00 0.000000e+00 0.000000e+00
    outer loop
      vertex   1.895968e+01 -4.037137e+00 -2.902000e+01
      vertex   1.895968e+01 -1.797136e+00 -2.950000e+01
      vertex   1.895968e+01 -5.171364e-01 3.050000e+01
    endloop
  endfacet
  facet normal 7.323495e-01 0.000000e+00 0.000000e+00
    outer loop
      vertex   1.895968e+01 -1.971363e-01 1.738000e+01
      vertex   1.895968e+01 -3.571364e-01 1.914000e+01
      vertex   1.895968e+01 6.028637e-01 -2.870000e+01
    endloop
  endfacet
  facet normal 4.472136e+00 0.000000e+00 0.000000e+00
    outer loop
      vertex   1.895968e+01 2.682863e+00 2.410000e+01
      vertex   1.895968e+01 2.682863e+00 2.730000e+01
      vertex   1.895968e+01 -5.171364e-01 3.050000e+01
    endloop
  endfacet
  facet normal 2.157175e+00 0.000000e+00 0.000000e+00
    outer loop
      vertex   1.895968e+01 7.628637e-01 1.354000e+01
      vertex   1.895968e+01 -1.971363e-01 1.738000e+01
      vertex   1.895968e+01 1.882864e+00 -2.710000e+01
    endloop
  endfacet
  facet normal 6.886491e+00 0.000000e+00 0.000000e+00
    outer loop
      vertex   1.895968e+01 2.522864e+00 2.600002e-01
      vertex   1.895968e+01 1.402864e+00 1.539999e+00
      vertex   1.895968e+01 2.202863e+00 -7.579998e+00
    endloop
  endfacet
  facet normal 1.559626e+00 0.000000e+00 0.000000e+00
    outer loop
      vertex   1.895968e+01 9.228635e-01 2.138000e+01
      vertex   1.895968e+01 9.228635e-01 2.298000e+01
      vertex   1.895968e+01 -5.171364e-01 3.050000e+01
    endloop
  endfacet
  facet normal 2.115931e+00 0.000000e+00 0.000000e+00
    outer loop
      vertex   1.895968e+01 1.100286e+01 -1.862000e+01
      vertex   1.895968e+01 1.116286e+01 -1.638000e+01
      vertex   1.895968e+01 1.020286e+01 -1.302000e+01
    endloop
  endfacet
  facet normal 7.669584e-01 0.000000e+00 0.000000e+00
    outer loop
      vertex   1.895968e+01 1.100286e+01 -1.862000e+01
      vertex   1.895968e+01 1.020286e+01 -1.302000e+01
      vertex   1.895968e+01 9.402864e+00 -1.142000e+01
    endloop
  endfacet
  facet normal 9.862144e+00 0.000000e+00 0.000000e+00
    outer loop
      vertex   1.895968e+01 2.202863e+00 1.178000e+01
      vertex   1.895968e+01 7.628637e-01 1.354000e+01
      vertex   1.895968e+01 1.082864e+00 1.050000e+01
    endloop
  endfacet
  facet normal 9.741823e+00 0.000000e+00 0.000000e+00
    outer loop
      vertex   1.895968e+01 3.642864e+00 -2.422000e+01
      vertex   1.895968e+01 8.282864e+00 -2.358000e+01
      vertex   1.895968e+01 4.922863e+00 -1.014000e+01
    endloop
  endfacet
  facet normal 1.229451e+00 0.000000e+00 0.000000e+00
    outer loop
      vertex   1.895968e+01 3.642864e+00 -2.422000e+01
      vertex   1.895968e+01 4.922863e+00 -1.014000e+01
      vertex   1.895968e+01 3.162864e+00 -9.500000e+00
    endloop
  endfacet
  facet normal 9.398277e+00 0.000000e+00 0.000000e+00
    outer loop
      vertex   1.895968e+01 2.362864e+00 -2.470000e+01
      vertex   1.895968e+01 3.642864e+00 -2.422000e+01
      vertex   1.895968e+01 2.202863e+00 -8.860001e+00
    endloop
  endfacet
  facet normal 5.083171e+00 0.000000e+00 0.000000e+00
    outer loop
      vertex   1.895968e+01 -3.571364e-01 1.914000e+01
      vertex   1.895968e+01 9.228635e-01 2.138000e+01
      vertex   1.895968e+01 -5.171364e-01 3.050000e+01
    endloop
  endfacet
  facet normal 2.646523e-01 0.000000e+00 0.000000e+00
    outer loop
      vertex   1.895968e+01 2.362864e+00 -2.470000e+01
      vertex   1.895968e+01 2.202863e+00 -8.860001e+00
      vertex   1.895968e+01 1.402864e+00 1.539999e+00
    endloop
  endfacet
  facet normal 1.146600e-01 0.000000e+00 0.000000e+00
    outer loop
      vertex   1.895968e+01 7.628637e-01 1.354000e+01
      vertex   1.895968e+01 2.362864e+00 -2.470000e+01
      vertex   1.895968e+01 1.402864e+00 1.539999e+00
    endloop
  endfacet
  facet normal 4.163030e-01 0.000000e+00 0.000000e+00
    outer loop
      vertex   1.895968e+01 1.562863e+00 6.660000e+00
      vertex   1.895968e+01 1.402864e+00 2.820002e+00
      vertex   1.895968e+01 1.562863e+00 5.379999e+00
    endloop
  endfacet
  facet normal 4.948084e-02 0.000000e+00 0.000000e+00
    outer loop
      vertex   1.895968e+01 7.628637e-01 1.354000e+01
      vertex   1.895968e+01 2.202863e+00 -2.550000e+01
      vertex   1.895968e+01 2.362864e+00 -2.470000e+01
    endloop
  endfacet
  facet normal 7.495196e+00 0.000000e+00 0.000000e+00
    outer loop
      vertex   1.895968e+01 1.402864e+00 2.820002e+00
      vertex   1.895968e+01 2.842864e+00 3.939999e+00
      vertex   1.895968e+01 1.562863e+00 5.379999e+00
    endloop
  endfacet
  facet normal 3.511235e+00 0.000000e+00 0.000000e+00
    outer loop
      vertex   1.895968e+01 7.628637e-01 1.482000e+01
      vertex   1.895968e+01 -1.971363e-01 1.738000e+01
      vertex   1.895968e+01 7.628637e-01 1.354000e+01
    endloop
  endfacet
  facet normal 2.250457e+00 0.000000e+00 0.000000e+00
    outer loop
      vertex   1.895968e+01 1.562863e+00 6.660000e+00
      vertex   1.895968e+01 1.082864e+00 9.219999e+00
      vertex   1.895968e+01 1.402864e+00 2.820002e+00
    endloop
  endfacet
  facet normal 9.316292e-02 0.000000e+00 0.000000e+00
    outer loop
      vertex   1.895968e+01 7.628637e-01 1.354000e+01
      vertex   1.895968e+01 1.882864e+00 -2.710000e+01
      vertex   1.895968e+01 2.202863e+00 -2.550000e+01
    endloop
  endfacet
  facet normal 9.295779e+00 0.000000e+00 0.000000e+00
    outer loop
      vertex   1.895968e+01 9.228635e-01 2.298000e+01
      vertex   1.895968e+01 2.682863e+00 2.410000e+01
      vertex   1.895968e+01 -5.171364e-01 3.050000e+01
    endloop
  endfacet
  facet normal 7.387176e-01 0.000000e+00 0.000000e+00
    outer loop
      vertex   1.895968e+01 1.082864e+00 9.219999e+00
      vertex   1.895968e+01 1.082864e+00 1.050000e+01
      vertex   1.895968e+01 7.628637e-01 1.354000e+01
    endloop
  endfacet
  facet normal 3.969107e+00 0.000000e+00 0.000000e+00
    outer loop
      vertex   1.895968e+01 -3.571364e-01 1.914000e+01
      vertex   1.895968e+01 1.562863e+00 2.058000e+01
      vertex   1.895968e+01 9.228635e-01 2.138000e+01
    endloop
  endfacet
  facet normal 1.430787e-01 0.000000e+00 0.000000e+00
    outer loop
      vertex   1.895968e+01 7.628637e-01 1.354000e+01
      vertex   1.895968e+01 1.402864e+00 2.820002e+00
      vertex   1.895968e+01 1.082864e+00 9.219999e+00
    endloop
  endfacet
  facet normal 6.347836e-02 0.000000e+00 0.000000e+00
    outer loop
      vertex   1.895968e+01 7.628637e-01 1.354000e+01
      vertex   1.895968e+01 1.402864e+00 1.539999e+00
      vertex   1.895968e+01 1.402864e+00 2.820002e+00
    endloop
  endfacet
  facet normal 6.381555e+00 0.000000e+00 0.000000e+00
    outer loop
      vertex   1.895968e+01 6.028637e-01 -2.870000e+01
      vertex   1.895968e+01 1.882864e+00 -2.710000e+01
      vertex   1.895968e+01 -1.971363e-01 1.738000e+01
    endloop
  endfacet
  facet normal 8.266426e-02 0.000000e+00 0.000000e+00
    outer loop
      vertex   1.895968e+01 -1.797136e+00 -2.950000e+01
      vertex   1.895968e+01 -3.571364e-01 1.914000e+01
      vertex   1.895968e+01 -5.171364e-01 3.050000e+01
    endloop
  endfacet
  facet normal 9.389100e+00 0.000000e+00 0.000000e+00
    outer loop
      vertex   1.895968e+01 -1.797136e+00 -2.950000e+01
      vertex   1.895968e+01 6.028637e-01 -2.870000e+01
      vertex   1.895968e+01 -3.571364e-01 1.914000e+01
    endloop
  endfacet
  facet normal 8.738366e-01 0.000000e+00 0.000000e+00
    outer loop
      vertex   1.895968e+01 2.202863e+00 -7.579998e+00
      vertex   1.895968e+01 1.402864e+00 1.539999e+00
      vertex   1.895968e+01 2.202863e+00 -8.860001e+00
    endloop
  endfacet
  facet normal 9.965459e+00 0.000000e+00 0.000000e+00
    outer loop
      vertex   1.895968e+01 2.522864e+00 7.939999e+00
      vertex   1.895968e+01 1.082864e+00 9.219999e+00
      vertex   1.895968e+01 1.562863e+00 6.660000e+00
    endloop
  endfacet
  facet normal 8.135306e+00 0.000000e+00 0.000000e+00
    outer loop
      vertex   1.895968e+01 3.162864e+00 -9.500000e+00
      vertex   1.895968e+01 2.202863e+00 -8.860001e+00
      vertex   1.895968e+01 3.642864e+00 -2.422000e+01
    endloop
  endfacet
  facet normal 1.993101e+00 0.000000e+00 0.000000e+00
    outer loop
      vertex   1.895968e+01 1.084286e+01 -1.462000e+01
      vertex   1.895968e+01 1.020286e+01 -1.302000e+01
      vertex   1.895968e+01 1.116286e+01 -1.638000e+01
    endloop
  endfacet
  facet normal 1.170534e+00 0.000000e+00 0.000000e+00
    outer loop
      vertex   1.895968e+01 9.402864e+00 -1.142000e+01
      vertex   1.895968e+01 1.036286e+01 -2.086000e+01
      vertex   1.895968e+01 1.100286e+01 -1.862000e+01
    endloop
  endfacet
  facet normal 8.695135e-01 0.000000e+00 0.000000e+00
    outer loop
      vertex   1.895968e+01 9.402864e+00 -1.142000e+01
      vertex   1.895968e+01 9.562864e+00 -2.262000e+01
      vertex   1.895968e+01 1.036286e+01 -2.086000e+01
    endloop
  endfacet
  facet normal 1.059318e+00 0.000000e+00 0.000000e+00
    outer loop
      vertex   1.895968e+01 9.402864e+00 -1.142000e+01
      vertex   1.895968e+01 8.282864e+00 -2.358000e+01
      vertex   1.895968e+01 9.562864e+00 -2.262000e+01
    endloop
  endfacet
  facet normal 9.826678e+00 0.000000e+00 0.000000e+00
    outer loop
      vertex   1.895968e+01 9.402864e+00 -1.142000e+01
      vertex   1.895968e+01 4.922863e+00 -1.014000e+01
      vertex   1.895968e+01 8.282864e+00 -2.358000e+01
    endloop
  endfacet
  facet normal 0.000000e+00 1.000000e+01 0.000000e+00
    outer loop
      vertex   1.895968e+01 2.682863e+00 2.730000e+01
      vertex   1.895968e+01 2.682863e+00 2.410000e+01
      vertex   1.575968e+01 2.682863e+00 2.730000e+01
    endloop
  endfacet
  facet normal 0.000000e+00 7.071068e+00 0.000000e+00
    outer loop
      vertex   1.575968e+01 2.682863e+00 2.730000e+01
      vertex   1.895968e+01 2.682863e+00 2.410000e+01
      vertex   1.575968e+01 2.682863e+00 2.410000e+01
    endloop
  endfacet
  facet normal 0.000000e+00 -6.757245e+00 7.371543e+00
    outer loop
      vertex   1.575968e+01 -2.437136e+00 2.874000e+01
      vertex   1.895968e+01 -2.437136e+00 2.874000e+01
      vertex   1.575968e+01 -5.171364e-01 3.050000e+01
    endloop
  endfacet
  facet normal 0.000000e+00 -4.265615e+00 4.653400e+00
    outer loop
      vertex   1.575968e+01 -5.171364e-01 3.050000e+01
      vertex   1.895968e+01 -2.437136e+00 2.874000e+01
      vertex   1.895968e+01 -5.171364e-01 3.050000e+01
    endloop
  endfacet
  facet normal 0.000000e+00 7.071068e+00 7.071068e+00
    outer loop
      vertex   1.895968e+01 -5.171364e-01 3.050000e+01
      vertex   1.895968e+01 2.682863e+00 2.730000e+01
      vertex   1.575968e+01 -5.171364e-01 3.050000e+01
    endloop
  endfacet
  facet normal 0.000000e+00 4.082483e+00 4.082483e+00
    outer loop
      vertex   1.575968e+01 -5.171364e-01 3.050000e+01
      vertex   1.895968e+01 2.682863e+00 2.730000e+01
      vertex   1.575968e+01 2.682863e+00 2.730000e+01
    endloop
  endfacet
  facet normal 0.000000e+00 -3.162283e+00 9.486831e+00
    outer loop
      vertex   1.575968e+01 -3.397136e+00 2.842000e+01
      vertex   1.895968e+01 -3.397136e+00 2.842000e+01
      vertex   1.575968e+01 -2.437136e+00 2.874000e+01
    endloop
  endfacet
  facet normal 0.000000e+00 -9.534645e-01 2.860388e+00
    outer loop
      vertex   1.575968e+01 -2.437136e+00 2.874000e+01
      vertex   1.895968e+01 -3.397136e+00 2.842000e+01
      vertex   1.895968e+01 -2.437136e+00 2.874000e+01
    endloop
  endfacet
  facet normal 0.000000e+00 1.961166e+00 9.805805e+00
    outer loop
      vertex   1.895968e+01 -4.197136e+00 2.858000e+01
      vertex   1.895968e+01 -3.397136e+00 2.842000e+01
      vertex   1.575968e+01 -4.197136e+00 2.858000e+01
    endloop
  endfacet
  facet normal 0.000000e+00 1.900376e+00 9.501857e+00
    outer loop
      vertex   1.575968e+01 -4.197136e+00 2.858000e+01
      vertex   1.895968e+01 -3.397136e+00 2.842000e+01
      vertex   1.575968e+01 -3.397136e+00 2.842000e+01
    endloop
  endfacet
  facet normal 0.000000e+00 0.000000e+00 1.000000e+01
    outer loop
      vertex   1.895968e+01 -5.157137e+00 2.858000e+01
      vertex   1.895968e+01 -4.197136e+00 2.858000e+01
      vertex   1.575968e+01 -5.157137e+00 2.858000e+01
    endloop
  endfacet
  facet normal 0.000000e+00 0.000000e+00 9.578262e+00
    outer loop
      vertex   1.575968e+01 -5.157137e+00 2.858000e+01
      vertex   1.895968e+01 -4.197136e+00 2.858000e+01
      vertex   1.575968e+01 -4.197136e+00 2.858000e+01
    endloop
  endfacet
  facet normal 0.000000e+00 -7.071070e+00 7.071066e+00
    outer loop
      vertex   1.575968e+01 -6.117136e+00 2.762000e+01
      vertex   1.895968e+01 -6.117136e+00 2.762000e+01
      vertex   1.575968e+01 -5.157137e+00 2.858000e+01
    endloop
  endfacet
  facet normal 0.000000e+00 -2.761723e+00 2.761721e+00
    outer loop
      vertex   1.575968e+01 -5.157137e+00 2.858000e+01
      vertex   1.895968e+01 -6.117136e+00 2.762000e+01
      vertex   1.895968e+01 -5.157137e+00 2.858000e+01
    endloop
  endfacet
  facet normal 0.000000e+00 -9.305244e-01 0.000000e+00
    outer loop
      vertex   1.575968e+01 -6.117136e+00 2.762000e+01
      vertex   1.575968e+01 -6.117136e+00 -6.620002e+00
      vertex   1.895968e+01 -6.117136e+00 -6.620002e+00
    endloop
  endfacet
  facet normal -0.000000e+00 -1.000000e+01 -0.000000e+00
    outer loop
      vertex   1.895968e+01 -6.117136e+00 2.762000e+01
      vertex   1.575968e+01 -6.117136e+00 2.762000e+01
      vertex   1.895968e+01 -6.117136e+00 -6.620002e+00
    endloop
  endfacet
  facet normal 1.387779e-16 -8.587920e+00 1.561447e+00
    outer loop
      vertex   1.575968e+01 -6.117136e+00 -6.620002e+00
      vertex   1.575968e+01 -6.437137e+00 -8.380001e+00
      vertex   1.895968e+01 -6.437137e+00 -8.380001e+00
    endloop
  endfacet
  facet normal 0.000000e+00 -9.838697e+00 1.788862e+00
    outer loop
      vertex   1.895968e+01 -6.117136e+00 -6.620002e+00
      vertex   1.575968e+01 -6.117136e+00 -6.620002e+00
      vertex   1.895968e+01 -6.437137e+00 -8.380001e+00
    endloop
  endfacet
  facet normal -2.775558e-16 -7.436849e+00 5.949474e+00
    outer loop
      vertex   1.575968e+01 -6.437137e+00 -8.380001e+00
      vertex   1.575968e+01 -7.077136e+00 -9.180000e+00
      vertex   1.895968e+01 -7.077136e+00 -9.180000e+00
    endloop
  endfacet
  facet normal 0.000000e+00 -7.808690e+00 6.246948e+00
    outer loop
      vertex   1.895968e+01 -6.437137e+00 -8.380001e+00
      vertex   1.575968e+01 -6.437137e+00 -8.380001e+00
      vertex   1.895968e+01 -7.077136e+00 -9.180000e+00
    endloop
  endfacet
  facet normal 0.000000e+00 -4.961401e+00 8.682425e+00
    outer loop
      vertex   1.575968e+01 -8.197137e+00 -9.820003e+00
      vertex   1.895968e+01 -8.197137e+00 -9.820003e+00
      vertex   1.575968e+01 -7.077136e+00 -9.180000e+00
    endloop
  endfacet
  facet normal 0.000000e+00 -1.854962e+00 3.246175e+00
    outer loop
      vertex   1.575968e+01 -7.077136e+00 -9.180000e+00
      vertex   1.895968e+01 -8.197137e+00 -9.820003e+00
      vertex   1.895968e+01 -7.077136e+00 -9.180000e+00
    endloop
  endfacet
  facet normal 0.000000e+00 0.000000e+00 1.000000e+01
    outer loop
      vertex   1.895968e+01 -9.637136e+00 -9.820003e+00
      vertex   1.895968e+01 -8.197137e+00 -9.820003e+00
      vertex   1.575968e+01 -9.637136e+00 -9.820003e+00
    endloop
  endfacet
  facet normal 0.000000e+00 0.000000e+00 9.119216e+00
    outer loop
      vertex   1.575968e+01 -9.637136e+00 -9.820003e+00
      vertex   1.895968e+01 -8.197137e+00 -9.820003e+00
      vertex   1.575968e+01 -8.197137e+00 -9.820003e+00
    endloop
  endfacet
  facet normal 0.000000e+00 -1.643975e+00 9.863941e+00
    outer loop
      vertex   1.575968e+01 -1.155714e+01 -1.014000e+01
      vertex   1.895968e+01 -1.155714e+01 -1.014000e+01
      vertex   1.575968e+01 -9.637136e+00 -9.820003e+00
    endloop
  endfacet
  facet normal 0.000000e+00 -8.543510e-01 5.126154e+00
    outer loop
      vertex   1.575968e+01 -9.637136e+00 -9.820003e+00
      vertex   1.895968e+01 -1.155714e+01 -1.014000e+01
      vertex   1.895968e+01 -9.637136e+00 -9.820003e+00
    endloop
  endfacet
  facet normal 0.000000e+00 -2.940853e+00 9.557792e+00
    outer loop
      vertex   1.575968e+01 -1.363714e+01 -1.078000e+01
      vertex   1.895968e+01 -1.363714e+01 -1.078000e+01
      vertex   1.575968e+01 -1.155714e+01 -1.014000e+01
    endloop
  endfacet
  facet normal 0.000000e+00 -1.653794e+00 5.374840e+00
    outer loop
      vertex   1.575968e+01 -1.155714e+01 -1.014000e+01
      vertex   1.895968e+01 -1.363714e+01 -1.078000e+01
      vertex   1.895968e+01 -1.155714e+01 -1.014000e+01
    endloop
  endfacet
  facet normal 0.000000e+00 -7.475205e+00 5.339428e+00
    outer loop
      vertex   1.575968e+01 -1.363714e+01 -1.078000e+01
      vertex   1.575968e+01 -1.443714e+01 -1.190000e+01
      vertex   1.895968e+01 -1.443714e+01 -1.190000e+01
    endloop
  endfacet
  facet normal 0.000000e+00 -8.137337e+00 5.812378e+00
    outer loop
      vertex   1.895968e+01 -1.363714e+01 -1.078000e+01
      vertex   1.575968e+01 -1.363714e+01 -1.078000e+01
      vertex   1.895968e+01 -1.443714e+01 -1.190000e+01
    endloop
  endfacet
  facet normal 0.000000e+00 -8.381332e+00 2.285815e+00
    outer loop
      vertex   1.575968e+01 -1.443714e+01 -1.190000e+01
      vertex   1.575968e+01 -1.491714e+01 -1.366000e+01
      vertex   1.895968e+01 -1.491714e+01 -1.366000e+01
    endloop
  endfacet
  facet normal 0.000000e+00 -9.647638e+00 2.631171e+00
    outer loop
      vertex   1.895968e+01 -1.443714e+01 -1.190000e+01
      vertex   1.575968e+01 -1.443714e+01 -1.190000e+01
      vertex   1.895968e+01 -1.491714e+01 -1.366000e+01
    endloop
  endfacet
  facet normal 0.000000e+00 -7.975904e+00 5.317283e-01
    outer loop
      vertex   1.575968e+01 -1.491714e+01 -1.366000e+01
      vertex   1.575968e+01 -1.507714e+01 -1.606000e+01
      vertex   1.895968e+01 -1.507714e+01 -1.606000e+01
    endloop
  endfacet
  facet normal 0.000000e+00 -9.977852e+00 6.651918e-01
    outer loop
      vertex   1.895968e+01 -1.491714e+01 -1.366000e+01
      vertex   1.575968e+01 -1.491714e+01 -1.366000e+01
      vertex   1.895968e+01 -1.507714e+01 -1.606000e+01
    endloop
  endfacet
  facet normal 0.000000e+00 -7.600729e+00 -4.471022e-01
    outer loop
      vertex   1.575968e+01 -1.507714e+01 -1.606000e+01
      vertex   1.575968e+01 -1.491714e+01 -1.878000e+01
      vertex   1.895968e+01 -1.491714e+01 -1.878000e+01
    endloop
  endfacet
  facet normal -0.000000e+00 -9.982744e+00 -5.872210e-01
    outer loop
      vertex   1.895968e+01 -1.507714e+01 -1.606000e+01
      vertex   1.575968e+01 -1.507714e+01 -1.606000e+01
      vertex   1.895968e+01 -1.491714e+01 -1.878000e+01
    endloop
  endfacet
  facet normal -5.551115e-16 -7.659126e+00 -2.945818e+00
    outer loop
      vertex   1.575968e+01 -1.491714e+01 -1.878000e+01
      vertex   1.575968e+01 -1.411714e+01 -2.086000e+01
      vertex   1.895968e+01 -1.411714e+01 -2.086000e+01
    endloop
  endfacet
  facet normal -0.000000e+00 -9.333456e+00 -3.589792e+00
    outer loop
      vertex   1.895968e+01 -1.491714e+01 -1.878000e+01
      vertex   1.575968e+01 -1.491714e+01 -1.878000e+01
      vertex   1.895968e+01 -1.411714e+01 -2.086000e+01
    endloop
  endfacet
  facet normal 2.775558e-16 -8.198012e+00 -3.643560e+00
    outer loop
      vertex   1.575968e+01 -1.411714e+01 -2.086000e+01
      vertex   1.575968e+01 -1.347714e+01 -2.230000e+01
      vertex   1.895968e+01 -1.347714e+01 -2.230000e+01
    endloop
  endfacet
  facet normal -0.000000e+00 -9.138116e+00 -4.061383e+00
    outer loop
      vertex   1.895968e+01 -1.411714e+01 -2.086000e+01
      vertex   1.575968e+01 -1.411714e+01 -2.086000e+01
      vertex   1.895968e+01 -1.347714e+01 -2.230000e+01
    endloop
  endfacet
  facet normal 2.775558e-16 -1.688804e+00 -6.755204e+00
    outer loop
      vertex   1.575968e+01 -1.347714e+01 -2.230000e+01
      vertex   1.575968e+01 -1.027714e+01 -2.310000e+01
      vertex   1.895968e+01 -1.027714e+01 -2.310000e+01
    endloop
  endfacet
  facet normal -0.000000e+00 -2.425360e+00 -9.701424e+00
    outer loop
      vertex   1.895968e+01 -1.347714e+01 -2.230000e+01
      vertex   1.575968e+01 -1.347714e+01 -2.230000e+01
      vertex   1.895968e+01 -1.027714e+01 -2.310000e+01
    endloop
  endfacet
  facet normal 2.775558e-16 -1.870576e+00 -8.105865e+00
    outer loop
      vertex   1.575968e+01 -1.027714e+01 -2.310000e+01
      vertex   1.575968e+01 -8.197137e+00 -2.358000e+01
      vertex   1.895968e+01 -8.197137e+00 -2.358000e+01
    endloop
  endfacet
  facet normal -0.000000e+00 -2.248586e+00 -9.743914e+00
    outer loop
      vertex   1.895968e+01 -1.027714e+01 -2.310000e+01
      vertex   1.575968e+01 -1.027714e+01 -2.310000e+01
      vertex   1.895968e+01 -8.197137e+00 -2.358000e+01
    endloop
  endfacet
  facet normal -2.775558e-16 -6.895208e+00 -5.910187e+00
    outer loop
      vertex   1.575968e+01 -8.197137e+00 -2.358000e+01
      vertex   1.575968e+01 -7.237136e+00 -2.470000e+01
      vertex   1.895968e+01 -7.237136e+00 -2.470000e+01
    endloop
  endfacet
  facet normal -0.000000e+00 -7.592561e+00 -6.507919e+00
    outer loop
      vertex   1.895968e+01 -8.197137e+00 -2.358000e+01
      vertex   1.575968e+01 -8.197137e+00 -2.358000e+01
      vertex   1.895968e+01 -7.237136e+00 -2.470000e+01
    endloop
  endfacet
  facet normal 0.000000e+00 -8.111017e+00 -2.949461e+00
    outer loop
      vertex   1.575968e+01 -7.237136e+00 -2.470000e+01
      vertex   1.575968e+01 -6.597136e+00 -2.646000e+01
      vertex   1.895968e+01 -6.597136e+00 -2.646000e+01
    endloop
  endfacet
  facet normal -0.000000e+00 -9.397934e+00 -3.417430e+00
    outer loop
      vertex   1.895968e+01 -7.237136e+00 -2.470000e+01
      vertex   1.575968e+01 -7.237136e+00 -2.470000e+01
      vertex   1.895968e+01 -6.597136e+00 -2.646000e+01
    endloop
  endfacet
  facet normal -2.775558e-16 -7.318709e+00 -4.879132e+00
    outer loop
      vertex   1.575968e+01 -6.597136e+00 -2.646000e+01
      vertex   1.575968e+01 -5.637137e+00 -2.790000e+01
      vertex   1.895968e+01 -5.637137e+00 -2.790000e+01
    endloop
  endfacet
  facet normal -0.000000e+00 -8.320507e+00 -5.546997e+00
    outer loop
      vertex   1.895968e+01 -6.597136e+00 -2.646000e+01
      vertex   1.575968e+01 -6.597136e+00 -2.646000e+01
      vertex   1.895968e+01 -5.637137e+00 -2.790000e+01
    endloop
  endfacet
  facet normal 0.000000e+00 -4.894960e+00 -6.992788e+00
    outer loop
      vertex   1.575968e+01 -5.637137e+00 -2.790000e+01
      vertex   1.575968e+01 -4.037137e+00 -2.902000e+01
      vertex   1.895968e+01 -4.037137e+00 -2.902000e+01
    endloop
  endfacet
  facet normal -0.000000e+00 -5.734631e+00 -8.192314e+00
    outer loop
      vertex   1.895968e+01 -5.637137e+00 -2.790000e+01
      vertex   1.575968e+01 -5.637137e+00 -2.790000e+01
      vertex   1.895968e+01 -4.037137e+00 -2.902000e+01
    endloop
  endfacet
  facet normal 1.387779e-16 -1.703708e+00 -7.950664e+00
    outer loop
      vertex   1.575968e+01 -4.037137e+00 -2.902000e+01
      vertex   1.575968e+01 -1.797136e+00 -2.950000e+01
      vertex   1.895968e+01 -1.797136e+00 -2.950000e+01
    endloop
  endfacet
  facet normal -0.000000e+00 -2.095284e+00 -9.778026e+00
    outer loop
      vertex   1.895968e+01 -4.037137e+00 -2.902000e+01
      vertex   1.575968e+01 -4.037137e+00 -2.902000e+01
      vertex   1.895968e+01 -1.797136e+00 -2.950000e+01
    endloop
  endfacet
  facet normal 0.000000e+00 1.961160e+00 -5.883484e+00
    outer loop
      vertex   1.575968e+01 6.028637e-01 -2.870000e+01
      vertex   1.895968e+01 6.028637e-01 -2.870000e+01
      vertex   1.895968e+01 -1.797136e+00 -2.950000e+01
    endloop
  endfacet
  facet normal 0.000000e+00 3.162275e+00 -9.486834e+00
    outer loop
      vertex   1.575968e+01 -1.797136e+00 -2.950000e+01
      vertex   1.575968e+01 6.028637e-01 -2.870000e+01
      vertex   1.895968e+01 -1.797136e+00 -2.950000e+01
    endloop
  endfacet
  facet normal 0.000000e+00 7.808689e+00 -6.246949e+00
    outer loop
      vertex   1.895968e+01 1.882864e+00 -2.710000e+01
      vertex   1.895968e+01 6.028637e-01 -2.870000e+01
      vertex   1.575968e+01 1.882864e+00 -2.710000e+01
    endloop
  endfacet
  facet normal -5.551115e-16 6.576101e+00 -5.260880e+00
    outer loop
      vertex   1.575968e+01 1.882864e+00 -2.710000e+01
      vertex   1.895968e+01 6.028637e-01 -2.870000e+01
      vertex   1.575968e+01 6.028637e-01 -2.870000e+01
    endloop
  endfacet
  facet normal 0.000000e+00 9.805808e+00 -1.961154e+00
    outer loop
      vertex   1.895968e+01 2.202863e+00 -2.550000e+01
      vertex   1.895968e+01 1.882864e+00 -2.710000e+01
      vertex   1.575968e+01 2.202863e+00 -2.550000e+01
    endloop
  endfacet
  facet normal 0.000000e+00 8.735707e+00 -1.747134e+00
    outer loop
      vertex   1.575968e+01 2.202863e+00 -2.550000e+01
      vertex   1.895968e+01 1.882864e+00 -2.710000e+01
      vertex   1.575968e+01 1.882864e+00 -2.710000e+01
    endloop
  endfacet
  facet normal 0.000000e+00 9.805804e+00 -1.961176e+00
    outer loop
      vertex   1.895968e+01 2.362864e+00 -2.470000e+01
      vertex   1.895968e+01 2.202863e+00 -2.550000e+01
      vertex   1.575968e+01 2.362864e+00 -2.470000e+01
    endloop
  endfacet
  facet normal 0.000000e+00 9.501856e+00 -1.900386e+00
    outer loop
      vertex   1.575968e+01 2.362864e+00 -2.470000e+01
      vertex   1.895968e+01 2.202863e+00 -2.550000e+01
      vertex   1.575968e+01 2.202863e+00 -2.550000e+01
    endloop
  endfacet
  facet normal 0.000000e+00 1.379404e+00 -3.678403e+00
    outer loop
      vertex   1.575968e+01 3.642864e+00 -2.422000e+01
      vertex   1.895968e+01 3.642864e+00 -2.422000e+01
      vertex   1.895968e+01 2.362864e+00 -2.470000e+01
    endloop
  endfacet
  facet normal 0.000000e+00 3.511241e+00 -9.363290e+00
    outer loop
      vertex   1.575968e+01 2.362864e+00 -2.470000e+01
      vertex   1.575968e+01 3.642864e+00 -2.422000e+01
      vertex   1.895968e+01 2.362864e+00 -2.470000e+01
    endloop
  endfacet
  facet normal 0.000000e+00 1.128214e+00 -8.179568e+00
    outer loop
      vertex   1.575968e+01 8.282864e+00 -2.358000e+01
      vertex   1.895968e+01 8.282864e+00 -2.358000e+01
      vertex   1.895968e+01 3.642864e+00 -2.422000e+01
    endloop
  endfacet
  facet normal 0.000000e+00 1.366372e+00 -9.906212e+00
    outer loop
      vertex   1.575968e+01 3.642864e+00 -2.422000e+01
      vertex   1.575968e+01 8.282864e+00 -2.358000e+01
      vertex   1.895968e+01 3.642864e+00 -2.422000e+01
    endloop
  endfacet
  facet normal 0.000000e+00 2.683280e+00 -3.577711e+00
    outer loop
      vertex   1.575968e+01 9.562864e+00 -2.262000e+01
      vertex   1.895968e+01 9.562864e+00 -2.262000e+01
      vertex   1.895968e+01 8.282864e+00 -2.358000e+01
    endloop
  endfacet
  facet normal 0.000000e+00 5.999996e+00 -8.000003e+00
    outer loop
      vertex   1.575968e+01 8.282864e+00 -2.358000e+01
      vertex   1.575968e+01 9.562864e+00 -2.262000e+01
      vertex   1.895968e+01 8.282864e+00 -2.358000e+01
    endloop
  endfacet
  facet normal 0.000000e+00 9.103672e+00 -4.138013e+00
    outer loop
      vertex   1.895968e+01 1.036286e+01 -2.086000e+01
      vertex   1.895968e+01 9.562864e+00 -2.262000e+01
      vertex   1.575968e+01 1.036286e+01 -2.086000e+01
    endloop
  endfacet
  facet normal 0.000000e+00 7.792027e+00 -3.541814e+00
    outer loop
      vertex   1.575968e+01 1.036286e+01 -2.086000e+01
      vertex   1.895968e+01 9.562864e+00 -2.262000e+01
      vertex   1.575968e+01 9.562864e+00 -2.262000e+01
    endloop
  endfacet
  facet normal 0.000000e+00 9.615239e+00 -2.747211e+00
    outer loop
      vertex   1.895968e+01 1.100286e+01 -1.862000e+01
      vertex   1.895968e+01 1.036286e+01 -2.086000e+01
      vertex   1.575968e+01 1.100286e+01 -1.862000e+01
    endloop
  endfacet
  facet normal 2.775558e-16 7.773459e+00 -2.220988e+00
    outer loop
      vertex   1.575968e+01 1.100286e+01 -1.862000e+01
      vertex   1.895968e+01 1.036286e+01 -2.086000e+01
      vertex   1.575968e+01 1.036286e+01 -2.086000e+01
    endloop
  endfacet
  facet normal 0.000000e+00 9.974586e+00 -7.124712e-01
    outer loop
      vertex   1.895968e+01 1.116286e+01 -1.638000e+01
      vertex   1.895968e+01 1.100286e+01 -1.862000e+01
      vertex   1.575968e+01 1.116286e+01 -1.638000e+01
    endloop
  endfacet
  facet normal 0.000000e+00 8.164651e+00 -5.831900e-01
    outer loop
      vertex   1.575968e+01 1.116286e+01 -1.638000e+01
      vertex   1.895968e+01 1.100286e+01 -1.862000e+01
      vertex   1.575968e+01 1.100286e+01 -1.862000e+01
    endloop
  endfacet
  facet normal 0.000000e+00 9.838699e+00 1.788853e+00
    outer loop
      vertex   1.895968e+01 1.084286e+01 -1.462000e+01
      vertex   1.895968e+01 1.116286e+01 -1.638000e+01
      vertex   1.575968e+01 1.084286e+01 -1.462000e+01
    endloop
  endfacet
  facet normal -1.387779e-16 8.587922e+00 1.561439e+00
    outer loop
      vertex   1.575968e+01 1.084286e+01 -1.462000e+01
      vertex   1.895968e+01 1.116286e+01 -1.638000e+01
      vertex   1.575968e+01 1.116286e+01 -1.638000e+01
    endloop
  endfacet
  facet normal 0.000000e+00 9.284764e+00 3.713914e+00
    outer loop
      vertex   1.895968e+01 1.020286e+01 -1.302000e+01
      vertex   1.895968e+01 1.084286e+01 -1.462000e+01
      vertex   1.575968e+01 1.020286e+01 -1.302000e+01
    endloop
  endfacet
  facet normal -2.775558e-16 8.174779e+00 3.269919e+00
    outer loop
      vertex   1.575968e+01 1.020286e+01 -1.302000e+01
      vertex   1.895968e+01 1.084286e+01 -1.462000e+01
      vertex   1.575968e+01 1.084286e+01 -1.462000e+01
    endloop
  endfacet
  facet normal 0.000000e+00 8.944283e+00 4.472115e+00
    outer loop
      vertex   1.895968e+01 9.402864e+00 -1.142000e+01
      vertex   1.895968e+01 1.020286e+01 -1.302000e+01
      vertex   1.575968e+01 9.402864e+00 -1.142000e+01
    endloop
  endfacet
  facet normal -2.775558e-16 7.807212e+00 3.903583e+00
    outer loop
      vertex   1.575968e+01 9.402864e+00 -1.142000e+01
      vertex   1.895968e+01 1.020286e+01 -1.302000e+01
      vertex   1.575968e+01 1.020286e+01 -1.302000e+01
    endloop
  endfacet
  facet normal 0.000000e+00 2.747211e+00 9.615239e+00
    outer loop
      vertex   1.895968e+01 4.922863e+00 -1.014000e+01
      vertex   1.895968e+01 9.402864e+00 -1.142000e+01
      vertex   1.575968e+01 4.922863e+00 -1.014000e+01
    endloop
  endfacet
  facet normal 0.000000e+00 1.555301e+00 5.443556e+00
    outer loop
      vertex   1.575968e+01 4.922863e+00 -1.014000e+01
      vertex   1.895968e+01 9.402864e+00 -1.142000e+01
      vertex   1.575968e+01 9.402864e+00 -1.142000e+01
    endloop
  endfacet
  facet normal 0.000000e+00 3.417436e+00 9.397932e+00
    outer loop
      vertex   1.895968e+01 3.162864e+00 -9.500000e+00
      vertex   1.895968e+01 4.922863e+00 -1.014000e+01
      vertex   1.575968e+01 3.162864e+00 -9.500000e+00
    endloop
  endfacet
  facet normal -2.775558e-16 2.949465e+00 8.111015e+00
    outer loop
      vertex   1.575968e+01 3.162864e+00 -9.500000e+00
      vertex   1.895968e+01 4.922863e+00 -1.014000e+01
      vertex   1.575968e+01 4.922863e+00 -1.014000e+01
    endloop
  endfacet
  facet normal 0.000000e+00 5.546990e+00 8.320511e+00
    outer loop
      vertex   1.895968e+01 2.202863e+00 -8.860001e+00
      vertex   1.895968e+01 3.162864e+00 -9.500000e+00
      vertex   1.575968e+01 2.202863e+00 -8.860001e+00
    endloop
  endfacet
  facet normal 0.000000e+00 5.218170e+00 7.827278e+00
    outer loop
      vertex   1.575968e+01 2.202863e+00 -8.860001e+00
      vertex   1.895968e+01 3.162864e+00 -9.500000e+00
      vertex   1.575968e+01 3.162864e+00 -9.500000e+00
    endloop
  endfacet
  facet normal 0.000000e+00 1.000000e+01 0.000000e+00
    outer loop
      vertex   1.895968e+01 2.202863e+00 -7.579998e+00
      vertex   1.895968e+01 2.202863e+00 -8.860001e+00
      vertex   1.575968e+01 2.202863e+00 -7.579998e+00
    endloop
  endfacet
  facet normal 0.000000e+00 9.284764e+00 0.000000e+00
    outer loop
      vertex   1.575968e+01 2.202863e+00 -7.579998e+00
      vertex   1.895968e+01 2.202863e+00 -8.860001e+00
      vertex   1.575968e+01 2.202863e+00 -8.860001e+00
    endloop
  endfacet
  facet normal 0.000000e+00 9.991680e+00 -4.078251e-01
    outer loop
      vertex   1.895968e+01 2.522864e+00 2.600002e-01
      vertex   1.895968e+01 2.202863e+00 -7.579998e+00
      vertex   1.575968e+01 2.522864e+00 2.600002e-01
    endloop
  endfacet
  facet normal 0.000000e+00 3.773134e+00 -1.540060e-01
    outer loop
      vertex   1.575968e+01 2.522864e+00 2.600002e-01
      vertex   1.895968e+01 2.202863e+00 -7.579998e+00
      vertex   1.575968e+01 2.202863e+00 -7.579998e+00
    endloop
  endfacet
  facet normal 0.000000e+00 7.525764e+00 6.585050e+00
    outer loop
      vertex   1.895968e+01 1.402864e+00 1.539999e+00
      vertex   1.895968e+01 2.522864e+00 2.600002e-01
      vertex   1.575968e+01 1.402864e+00 1.539999e+00
    endloop
  endfacet
  facet normal 0.000000e+00 6.645412e+00 5.814741e+00
    outer loop
      vertex   1.575968e+01 1.402864e+00 1.539999e+00
      vertex   1.895968e+01 2.522864e+00 2.600002e-01
      vertex   1.575968e+01 2.522864e+00 2.600002e-01
    endloop
  endfacet
  facet normal 0.000000e+00 1.000000e+01 0.000000e+00
    outer loop
      vertex   1.895968e+01 1.402864e+00 2.820002e+00
      vertex   1.895968e+01 1.402864e+00 1.539999e+00
      vertex   1.575968e+01 1.402864e+00 2.820002e+00
    endloop
  endfacet
  facet normal 0.000000e+00 9.284764e+00 0.000000e+00
    outer loop
      vertex   1.575968e+01 1.402864e+00 2.820002e+00
      vertex   1.895968e+01 1.402864e+00 1.539999e+00
      vertex   1.575968e+01 1.402864e+00 1.539999e+00
    endloop
  endfacet
  facet normal 0.000000e+00 3.040598e+00 -3.909352e+00
    outer loop
      vertex   1.575968e+01 2.842864e+00 3.939999e+00
      vertex   1.895968e+01 2.842864e+00 3.939999e+00
      vertex   1.895968e+01 1.402864e+00 2.820002e+00
    endloop
  endfacet
  facet normal 0.000000e+00 6.139395e+00 -7.893531e+00
    outer loop
      vertex   1.575968e+01 1.402864e+00 2.820002e+00
      vertex   1.575968e+01 2.842864e+00 3.939999e+00
      vertex   1.895968e+01 1.402864e+00 2.820002e+00
    endloop
  endfacet
  facet normal 0.000000e+00 7.474091e+00 6.643641e+00
    outer loop
      vertex   1.895968e+01 1.562863e+00 5.379999e+00
      vertex   1.895968e+01 2.842864e+00 3.939999e+00
      vertex   1.575968e+01 1.562863e+00 5.379999e+00
    endloop
  endfacet
  facet normal 0.000000e+00 6.403097e+00 5.691646e+00
    outer loop
      vertex   1.575968e+01 1.562863e+00 5.379999e+00
      vertex   1.895968e+01 2.842864e+00 3.939999e+00
      vertex   1.575968e+01 2.842864e+00 3.939999e+00
    endloop
  endfacet
  facet normal 0.000000e+00 1.000000e+01 0.000000e+00
    outer loop
      vertex   1.895968e+01 1.562863e+00 6.660000e+00
      vertex   1.895968e+01 1.562863e+00 5.379999e+00
      vertex   1.575968e+01 1.562863e+00 6.660000e+00
    endloop
  endfacet
  facet normal 0.000000e+00 9.284766e+00 0.000000e+00
    outer loop
      vertex   1.575968e+01 1.562863e+00 6.660000e+00
      vertex   1.895968e+01 1.562863e+00 5.379999e+00
      vertex   1.575968e+01 1.562863e+00 5.379999e+00
    endloop
  endfacet
  facet normal 0.000000e+00 7.999995e+00 -6.000008e+00
    outer loop
      vertex   1.895968e+01 2.522864e+00 7.939999e+00
      vertex   1.895968e+01 1.562863e+00 6.660000e+00
      vertex   1.575968e+01 2.522864e+00 7.939999e+00
    endloop
  endfacet
  facet normal -2.775558e-16 7.155413e+00 -5.366570e+00
    outer loop
      vertex   1.575968e+01 2.522864e+00 7.939999e+00
      vertex   1.895968e+01 1.562863e+00 6.660000e+00
      vertex   1.575968e+01 1.562863e+00 6.660000e+00
    endloop
  endfacet
  facet normal 0.000000e+00 6.643639e+00 7.474092e+00
    outer loop
      vertex   1.895968e+01 1.082864e+00 9.219999e+00
      vertex   1.895968e+01 2.522864e+00 7.939999e+00
      vertex   1.575968e+01 1.082864e+00 9.219999e+00
    endloop
  endfacet
  facet normal 5.551115e-16 5.691645e+00 6.403099e+00
    outer loop
      vertex   1.575968e+01 1.082864e+00 9.219999e+00
      vertex   1.895968e+01 2.522864e+00 7.939999e+00
      vertex   1.575968e+01 2.522864e+00 7.939999e+00
    endloop
  endfacet
  facet normal 0.000000e+00 1.000000e+01 0.000000e+00
    outer loop
      vertex   1.895968e+01 1.082864e+00 1.050000e+01
      vertex   1.895968e+01 1.082864e+00 9.219999e+00
      vertex   1.575968e+01 1.082864e+00 1.050000e+01
    endloop
  endfacet
  facet normal 0.000000e+00 9.284765e+00 0.000000e+00
    outer loop
      vertex   1.575968e+01 1.082864e+00 1.050000e+01
      vertex   1.895968e+01 1.082864e+00 9.219999e+00
      vertex   1.575968e+01 1.082864e+00 9.219999e+00
    endloop
  endfacet
  facet normal 0.000000e+00 7.525768e+00 -6.585045e+00
    outer loop
      vertex   1.895968e+01 2.202863e+00 1.178000e+01
      vertex   1.895968e+01 1.082864e+00 1.050000e+01
      vertex   1.575968e+01 2.202863e+00 1.178000e+01
    endloop
  endfacet
  facet normal 2.775558e-16 6.645417e+00 -5.814738e+00
    outer loop
      vertex   1.575968e+01 2.202863e+00 1.178000e+01
      vertex   1.895968e+01 1.082864e+00 1.050000e+01
      vertex   1.575968e+01 1.082864e+00 1.050000e+01
    endloop
  endfacet
  facet normal 0.000000e+00 7.739574e+00 6.332376e+00
    outer loop
      vertex   1.895968e+01 7.628637e-01 1.354000e+01
      vertex   1.895968e+01 2.202863e+00 1.178000e+01
      vertex   1.575968e+01 7.628637e-01 1.354000e+01
    endloop
  endfacet
  facet normal 5.551115e-16 6.308830e+00 5.161768e+00
    outer loop
      vertex   1.575968e+01 7.628637e-01 1.354000e+01
      vertex   1.895968e+01 2.202863e+00 1.178000e+01
      vertex   1.575968e+01 2.202863e+00 1.178000e+01
    endloop
  endfacet
  facet normal 0.000000e+00 1.000000e+01 0.000000e+00
    outer loop
      vertex   1.895968e+01 7.628637e-01 1.482000e+01
      vertex   1.895968e+01 7.628637e-01 1.354000e+01
      vertex   1.575968e+01 7.628637e-01 1.482000e+01
    endloop
  endfacet
  facet normal 0.000000e+00 9.284767e+00 0.000000e+00
    outer loop
      vertex   1.575968e+01 7.628637e-01 1.482000e+01
      vertex   1.895968e+01 7.628637e-01 1.354000e+01
      vertex   1.575968e+01 7.628637e-01 1.354000e+01
    endloop
  endfacet
  facet normal 0.000000e+00 8.479985e+00 -5.299985e+00
    outer loop
      vertex   1.895968e+01 1.562863e+00 1.610000e+01
      vertex   1.895968e+01 7.628637e-01 1.482000e+01
      vertex   1.575968e+01 1.562863e+00 1.610000e+01
    endloop
  endfacet
  facet normal 0.000000e+00 7.669564e+00 -4.793473e+00
    outer loop
      vertex   1.575968e+01 1.562863e+00 1.610000e+01
      vertex   1.895968e+01 7.628637e-01 1.482000e+01
      vertex   1.575968e+01 7.628637e-01 1.482000e+01
    endloop
  endfacet
  facet normal 0.000000e+00 5.881715e+00 8.087362e+00
    outer loop
      vertex   1.895968e+01 -1.971363e-01 1.738000e+01
      vertex   1.895968e+01 1.562863e+00 1.610000e+01
      vertex   1.575968e+01 -1.971363e-01 1.738000e+01
    endloop
  endfacet
  facet normal 0.000000e+00 4.863581e+00 6.687426e+00
    outer loop
      vertex   1.575968e+01 -1.971363e-01 1.738000e+01
      vertex   1.895968e+01 1.562863e+00 1.610000e+01
      vertex   1.575968e+01 1.562863e+00 1.610000e+01
    endloop
  endfacet
  facet normal 0.000000e+00 9.958932e+00 9.053579e-01
    outer loop
      vertex   1.895968e+01 -3.571364e-01 1.914000e+01
      vertex   1.895968e+01 -1.971363e-01 1.738000e+01
      vertex   1.575968e+01 -3.571364e-01 1.914000e+01
    endloop
  endfacet
  facet normal 0.000000e+00 8.717813e+00 7.925287e-01
    outer loop
      vertex   1.575968e+01 -3.571364e-01 1.914000e+01
      vertex   1.895968e+01 -1.971363e-01 1.738000e+01
      vertex   1.575968e+01 -1.971363e-01 1.738000e+01
    endloop
  endfacet
  facet normal 0.000000e+00 3.600004e+00 -4.799998e+00
    outer loop
      vertex   1.575968e+01 1.562863e+00 2.058000e+01
      vertex   1.895968e+01 1.562863e+00 2.058000e+01
      vertex   1.895968e+01 -3.571364e-01 1.914000e+01
    endloop
  endfacet
  facet normal 0.000000e+00 6.000006e+00 -7.999996e+00
    outer loop
      vertex   1.575968e+01 -3.571364e-01 1.914000e+01
      vertex   1.575968e+01 1.562863e+00 2.058000e+01
      vertex   1.895968e+01 -3.571364e-01 1.914000e+01
    endloop
  endfacet
endsolid
