solid ascii
  facet normal 0.000000e+00 -1.950903e+00 -4.331876e-16
    outer loop
      vertex   0.000000e+00 -6.000000e+01 1.000000e+01
      vertex   3.400000e+01 -6.000000e+01 1.000000e+01
      vertex   3.334670e+01 -6.000000e+01 1.663307e+01
    endloop
  endfacet
  facet normal 9.910296e+00 -9.084439e-01 9.760823e-01
    outer loop
      vertex   3.400000e+01 -6.000000e+01 1.000000e+01
      vertex   4.500000e+01 6.000000e+01 1.000000e+01
      vertex   3.334670e+01 -6.000000e+01 1.663307e+01
    endloop
  endfacet
  facet normal 0.000000e+00 1.950903e+00 4.331875e-16
    outer loop
      vertex   0.000000e+00 6.000000e+01 1.000000e+01
      vertex   4.413534e+01 6.000000e+01 1.877906e+01
      vertex   4.500000e+01 6.000000e+01 1.000000e+01
    endloop
  endfacet
  facet normal 9.890294e+00 -9.066104e-01 9.741098e-01
    outer loop
      vertex   4.500000e+01 6.000000e+01 1.000000e+01
      vertex   4.413534e+01 6.000000e+01 1.877906e+01
      vertex   3.334670e+01 -6.000000e+01 1.663307e+01
    endloop
  endfacet
  facet normal 0.000000e+00 -1.950903e+00 -4.331876e-16
    outer loop
      vertex   0.000000e+00 -6.000000e+01 1.000000e+01
      vertex   3.334670e+01 -6.000000e+01 1.663307e+01
      vertex   3.141190e+01 -6.000000e+01 2.301124e+01
    endloop
  endfacet
  facet normal 9.529450e+00 -9.084439e-01 2.890727e+00
    outer loop
      vertex   3.334670e+01 -6.000000e+01 1.663307e+01
      vertex   4.413534e+01 6.000000e+01 1.877906e+01
      vertex   3.141190e+01 -6.000000e+01 2.301124e+01
    endloop
  endfacet
  facet normal 0.000000e+00 1.950903e+00 4.331875e-16
    outer loop
      vertex   0.000000e+00 6.000000e+01 1.000000e+01
      vertex   4.157458e+01 6.000000e+01 2.722075e+01
      vertex   4.413534e+01 6.000000e+01 1.877906e+01
    endloop
  endfacet
  facet normal 9.510216e+00 -9.066104e-01 2.884892e+00
    outer loop
      vertex   4.413534e+01 6.000000e+01 1.877906e+01
      vertex   4.157458e+01 6.000000e+01 2.722075e+01
      vertex   3.141190e+01 -6.000000e+01 2.301124e+01
    endloop
  endfacet
  facet normal 0.000000e+00 -1.950903e+00 -4.331875e-16
    outer loop
      vertex   0.000000e+00 -6.000000e+01 1.000000e+01
      vertex   3.141190e+01 -6.000000e+01 2.301124e+01
      vertex   2.826997e+01 -6.000000e+01 2.888939e+01
    endloop
  endfacet
  facet normal 8.782392e+00 -9.084439e-01 4.694286e+00
    outer loop
      vertex   3.141190e+01 -6.000000e+01 2.301124e+01
      vertex   4.157458e+01 6.000000e+01 2.722075e+01
      vertex   2.826997e+01 -6.000000e+01 2.888939e+01
    endloop
  endfacet
  facet normal 0.000000e+00 1.950903e+00 4.331875e-16
    outer loop
      vertex   0.000000e+00 6.000000e+01 1.000000e+01
      vertex   3.741613e+01 6.000000e+01 3.500066e+01
      vertex   4.157458e+01 6.000000e+01 2.722075e+01
    endloop
  endfacet
  facet normal 8.764666e+00 -9.066105e-01 4.684810e+00
    outer loop
      vertex   4.157458e+01 6.000000e+01 2.722075e+01
      vertex   3.741613e+01 6.000000e+01 3.500066e+01
      vertex   2.826997e+01 -6.000000e+01 2.888939e+01
    endloop
  endfacet
  facet normal 0.000000e+00 -1.950903e+00 -4.331875e-16
    outer loop
      vertex   0.000000e+00 -6.000000e+01 1.000000e+01
      vertex   2.826997e+01 -6.000000e+01 2.888939e+01
      vertex   2.404163e+01 -6.000000e+01 3.404163e+01
    endloop
  endfacet
  facet normal 7.697833e+00 -9.084441e-01 6.317444e+00
    outer loop
      vertex   2.826997e+01 -6.000000e+01 2.888939e+01
      vertex   3.741613e+01 6.000000e+01 3.500066e+01
      vertex   2.404163e+01 -6.000000e+01 3.404163e+01
    endloop
  endfacet
  facet normal 0.000000e+00 1.950903e+00 4.331876e-16
    outer loop
      vertex   0.000000e+00 6.000000e+01 1.000000e+01
      vertex   3.181981e+01 6.000000e+01 4.181981e+01
      vertex   3.741613e+01 6.000000e+01 3.500066e+01
    endloop
  endfacet
  facet normal 7.682294e+00 -9.066104e-01 6.304695e+00
    outer loop
      vertex   3.741613e+01 6.000000e+01 3.500066e+01
      vertex   3.181981e+01 6.000000e+01 4.181981e+01
      vertex   2.404163e+01 -6.000000e+01 3.404163e+01
    endloop
  endfacet
  facet normal 0.000000e+00 -1.950903e+00 -4.331875e-16
    outer loop
      vertex   0.000000e+00 -6.000000e+01 1.000000e+01
      vertex   2.404163e+01 -6.000000e+01 3.404163e+01
      vertex   1.888939e+01 -6.000000e+01 3.826997e+01
    endloop
  endfacet
  facet normal 6.317444e+00 -9.084439e-01 7.697833e+00
    outer loop
      vertex   2.404163e+01 -6.000000e+01 3.404163e+01
      vertex   3.181981e+01 6.000000e+01 4.181981e+01
      vertex   1.888939e+01 -6.000000e+01 3.826997e+01
    endloop
  endfacet
  facet normal 0.000000e+00 1.950903e+00 4.331876e-16
    outer loop
      vertex   0.000000e+00 6.000000e+01 1.000000e+01
      vertex   2.500066e+01 6.000000e+01 4.741613e+01
      vertex   3.181981e+01 6.000000e+01 4.181981e+01
    endloop
  endfacet
  facet normal 6.304695e+00 -9.066105e-01 7.682294e+00
    outer loop
      vertex   3.181981e+01 6.000000e+01 4.181981e+01
      vertex   2.500066e+01 6.000000e+01 4.741613e+01
      vertex   1.888939e+01 -6.000000e+01 3.826997e+01
    endloop
  endfacet
  facet normal 0.000000e+00 -1.950903e+00 -4.331875e-16
    outer loop
      vertex   0.000000e+00 -6.000000e+01 1.000000e+01
      vertex   1.888939e+01 -6.000000e+01 3.826997e+01
      vertex   1.301124e+01 -6.000000e+01 4.141190e+01
    endloop
  endfacet
  facet normal 4.694286e+00 -9.084441e-01 8.782392e+00
    outer loop
      vertex   1.888939e+01 -6.000000e+01 3.826997e+01
      vertex   2.500066e+01 6.000000e+01 4.741613e+01
      vertex   1.301124e+01 -6.000000e+01 4.141190e+01
    endloop
  endfacet
  facet normal 0.000000e+00 1.950903e+00 4.331875e-16
    outer loop
      vertex   0.000000e+00 6.000000e+01 1.000000e+01
      vertex   1.722075e+01 6.000000e+01 5.157458e+01
      vertex   2.500066e+01 6.000000e+01 4.741613e+01
    endloop
  endfacet
  facet normal 4.684810e+00 -9.066104e-01 8.764666e+00
    outer loop
      vertex   2.500066e+01 6.000000e+01 4.741613e+01
      vertex   1.722075e+01 6.000000e+01 5.157458e+01
      vertex   1.301124e+01 -6.000000e+01 4.141190e+01
    endloop
  endfacet
  facet normal 0.000000e+00 -1.950903e+00 -4.331876e-16
    outer loop
      vertex   0.000000e+00 -6.000000e+01 1.000000e+01
      vertex   1.301124e+01 -6.000000e+01 4.141190e+01
      vertex   6.633071e+00 -6.000000e+01 4.334670e+01
    endloop
  endfacet
  facet normal 2.890727e+00 -9.084439e-01 9.529450e+00
    outer loop
      vertex   1.301124e+01 -6.000000e+01 4.141190e+01
      vertex   1.722075e+01 6.000000e+01 5.157458e+01
      vertex   6.633071e+00 -6.000000e+01 4.334670e+01
    endloop
  endfacet
  facet normal 0.000000e+00 1.950903e+00 4.331875e-16
    outer loop
      vertex   0.000000e+00 6.000000e+01 1.000000e+01
      vertex   8.779064e+00 6.000000e+01 5.413534e+01
      vertex   1.722075e+01 6.000000e+01 5.157458e+01
    endloop
  endfacet
  facet normal 2.884892e+00 -9.066104e-01 9.510216e+00
    outer loop
      vertex   1.722075e+01 6.000000e+01 5.157458e+01
      vertex   8.779064e+00 6.000000e+01 5.413534e+01
      vertex   6.633071e+00 -6.000000e+01 4.334670e+01
    endloop
  endfacet
  facet normal 0.000000e+00 -1.950903e+00 -4.331876e-16
    outer loop
      vertex   0.000000e+00 -6.000000e+01 1.000000e+01
      vertex   6.633071e+00 -6.000000e+01 4.334670e+01
      vertex   2.081900e-15 -6.000000e+01 4.400000e+01
    endloop
  endfacet
  facet normal 9.760823e-01 -9.084440e-01 9.910296e+00
    outer loop
      vertex   6.633071e+00 -6.000000e+01 4.334670e+01
      vertex   8.779064e+00 6.000000e+01 5.413534e+01
      vertex   2.081900e-15 -6.000000e+01 4.400000e+01
    endloop
  endfacet
  facet normal 0.000000e+00 1.950903e+00 4.331875e-16
    outer loop
      vertex   0.000000e+00 6.000000e+01 1.000000e+01
      vertex   2.755455e-15 6.000000e+01 5.500000e+01
      vertex   8.779064e+00 6.000000e+01 5.413534e+01
    endloop
  endfacet
  facet normal 9.741098e-01 -9.066102e-01 9.890294e+00
    outer loop
      vertex   8.779064e+00 6.000000e+01 5.413534e+01
      vertex   2.755455e-15 6.000000e+01 5.500000e+01
      vertex   2.081900e-15 -6.000000e+01 4.400000e+01
    endloop
  endfacet
  facet normal 0.000000e+00 -1.950903e+00 -4.331876e-16
    outer loop
      vertex   0.000000e+00 -6.000000e+01 1.000000e+01
      vertex   2.081900e-15 -6.000000e+01 4.400000e+01
      vertex   -6.633071e+00 -6.000000e+01 4.334670e+01
    endloop
  endfacet
  facet normal -9.760823e-01 -9.084439e-01 9.910296e+00
    outer loop
      vertex   2.081900e-15 -6.000000e+01 4.400000e+01
      vertex   2.755455e-15 6.000000e+01 5.500000e+01
      vertex   -6.633071e+00 -6.000000e+01 4.334670e+01
    endloop
  endfacet
  facet normal 0.000000e+00 1.950903e+00 4.331875e-16
    outer loop
      vertex   0.000000e+00 6.000000e+01 1.000000e+01
      vertex   -8.779064e+00 6.000000e+01 5.413534e+01
      vertex   2.755455e-15 6.000000e+01 5.500000e+01
    endloop
  endfacet
  facet normal -9.741098e-01 -9.066104e-01 9.890294e+00
    outer loop
      vertex   2.755455e-15 6.000000e+01 5.500000e+01
      vertex   -8.779064e+00 6.000000e+01 5.413534e+01
      vertex   -6.633071e+00 -6.000000e+01 4.334670e+01
    endloop
  endfacet
  facet normal 0.000000e+00 -1.950903e+00 -4.331876e-16
    outer loop
      vertex   0.000000e+00 -6.000000e+01 1.000000e+01
      vertex   -6.633071e+00 -6.000000e+01 4.334670e+01
      vertex   -1.301124e+01 -6.000000e+01 4.141190e+01
    endloop
  endfacet
  facet normal -2.890727e+00 -9.084439e-01 9.529450e+00
    outer loop
      vertex   -6.633071e+00 -6.000000e+01 4.334670e+01
      vertex   -8.779064e+00 6.000000e+01 5.413534e+01
      vertex   -1.301124e+01 -6.000000e+01 4.141190e+01
    endloop
  endfacet
  facet normal 0.000000e+00 1.950903e+00 4.331875e-16
    outer loop
      vertex   0.000000e+00 6.000000e+01 1.000000e+01
      vertex   -1.722075e+01 6.000000e+01 5.157458e+01
      vertex   -8.779064e+00 6.000000e+01 5.413534e+01
    endloop
  endfacet
  facet normal -2.884892e+00 -9.066104e-01 9.510216e+00
    outer loop
      vertex   -8.779064e+00 6.000000e+01 5.413534e+01
      vertex   -1.722075e+01 6.000000e+01 5.157458e+01
      vertex   -1.301124e+01 -6.000000e+01 4.141190e+01
    endloop
  endfacet
  facet normal 0.000000e+00 -1.950903e+00 -4.331875e-16
    outer loop
      vertex   0.000000e+00 -6.000000e+01 1.000000e+01
      vertex   -1.301124e+01 -6.000000e+01 4.141190e+01
      vertex   -1.888939e+01 -6.000000e+01 3.826997e+01
    endloop
  endfacet
  facet normal -4.694286e+00 -9.084439e-01 8.782392e+00
    outer loop
      vertex   -1.301124e+01 -6.000000e+01 4.141190e+01
      vertex   -1.722075e+01 6.000000e+01 5.157458e+01
      vertex   -1.888939e+01 -6.000000e+01 3.826997e+01
    endloop
  endfacet
  facet normal 0.000000e+00 1.950903e+00 4.331875e-16
    outer loop
      vertex   0.000000e+00 6.000000e+01 1.000000e+01
      vertex   -2.500066e+01 6.000000e+01 4.741613e+01
      vertex   -1.722075e+01 6.000000e+01 5.157458e+01
    endloop
  endfacet
  facet normal -4.684810e+00 -9.066105e-01 8.764666e+00
    outer loop
      vertex   -1.722075e+01 6.000000e+01 5.157458e+01
      vertex   -2.500066e+01 6.000000e+01 4.741613e+01
      vertex   -1.888939e+01 -6.000000e+01 3.826997e+01
    endloop
  endfacet
  facet normal 0.000000e+00 -1.950903e+00 -4.331875e-16
    outer loop
      vertex   0.000000e+00 -6.000000e+01 1.000000e+01
      vertex   -1.888939e+01 -6.000000e+01 3.826997e+01
      vertex   -2.404163e+01 -6.000000e+01 3.404163e+01
    endloop
  endfacet
  facet normal -6.317444e+00 -9.084441e-01 7.697833e+00
    outer loop
      vertex   -1.888939e+01 -6.000000e+01 3.826997e+01
      vertex   -2.500066e+01 6.000000e+01 4.741613e+01
      vertex   -2.404163e+01 -6.000000e+01 3.404163e+01
    endloop
  endfacet
  facet normal 0.000000e+00 1.950903e+00 4.331876e-16
    outer loop
      vertex   0.000000e+00 6.000000e+01 1.000000e+01
      vertex   -3.181981e+01 6.000000e+01 4.181981e+01
      vertex   -2.500066e+01 6.000000e+01 4.741613e+01
    endloop
  endfacet
  facet normal -6.304695e+00 -9.066104e-01 7.682294e+00
    outer loop
      vertex   -2.500066e+01 6.000000e+01 4.741613e+01
      vertex   -3.181981e+01 6.000000e+01 4.181981e+01
      vertex   -2.404163e+01 -6.000000e+01 3.404163e+01
    endloop
  endfacet
  facet normal 0.000000e+00 -1.950903e+00 -4.331875e-16
    outer loop
      vertex   0.000000e+00 -6.000000e+01 1.000000e+01
      vertex   -2.404163e+01 -6.000000e+01 3.404163e+01
      vertex   -2.826997e+01 -6.000000e+01 2.888939e+01
    endloop
  endfacet
  facet normal -7.697833e+00 -9.084439e-01 6.317444e+00
    outer loop
      vertex   -2.404163e+01 -6.000000e+01 3.404163e+01
      vertex   -3.181981e+01 6.000000e+01 4.181981e+01
      vertex   -2.826997e+01 -6.000000e+01 2.888939e+01
    endloop
  endfacet
  facet normal 0.000000e+00 1.950903e+00 4.331876e-16
    outer loop
      vertex   0.000000e+00 6.000000e+01 1.000000e+01
      vertex   -3.741613e+01 6.000000e+01 3.500066e+01
      vertex   -3.181981e+01 6.000000e+01 4.181981e+01
    endloop
  endfacet
  facet normal -7.682294e+00 -9.066105e-01 6.304695e+00
    outer loop
      vertex   -3.181981e+01 6.000000e+01 4.181981e+01
      vertex   -3.741613e+01 6.000000e+01 3.500066e+01
      vertex   -2.826997e+01 -6.000000e+01 2.888939e+01
    endloop
  endfacet
  facet normal 0.000000e+00 -1.950903e+00 -4.331875e-16
    outer loop
      vertex   0.000000e+00 -6.000000e+01 1.000000e+01
      vertex   -2.826997e+01 -6.000000e+01 2.888939e+01
      vertex   -3.141190e+01 -6.000000e+01 2.301124e+01
    endloop
  endfacet
  facet normal -8.782392e+00 -9.084441e-01 4.694286e+00
    outer loop
      vertex   -2.826997e+01 -6.000000e+01 2.888939e+01
      vertex   -3.741613e+01 6.000000e+01 3.500066e+01
      vertex   -3.141190e+01 -6.000000e+01 2.301124e+01
    endloop
  endfacet
  facet normal 0.000000e+00 1.950903e+00 4.331875e-16
    outer loop
      vertex   0.000000e+00 6.000000e+01 1.000000e+01
      vertex   -4.157458e+01 6.000000e+01 2.722075e+01
      vertex   -3.741613e+01 6.000000e+01 3.500066e+01
    endloop
  endfacet
  facet normal -8.764666e+00 -9.066104e-01 4.684810e+00
    outer loop
      vertex   -3.741613e+01 6.000000e+01 3.500066e+01
      vertex   -4.157458e+01 6.000000e+01 2.722075e+01
      vertex   -3.141190e+01 -6.000000e+01 2.301124e+01
    endloop
  endfacet
  facet normal 0.000000e+00 -1.950903e+00 -4.331876e-16
    outer loop
      vertex   0.000000e+00 -6.000000e+01 1.000000e+01
      vertex   -3.141190e+01 -6.000000e+01 2.301124e+01
      vertex   -3.334670e+01 -6.000000e+01 1.663307e+01
    endloop
  endfacet
  facet normal -9.529450e+00 -9.084439e-01 2.890727e+00
    outer loop
      vertex   -3.141190e+01 -6.000000e+01 2.301124e+01
      vertex   -4.157458e+01 6.000000e+01 2.722075e+01
      vertex   -3.334670e+01 -6.000000e+01 1.663307e+01
    endloop
  endfacet
  facet normal 0.000000e+00 1.950903e+00 4.331875e-16
    outer loop
      vertex   0.000000e+00 6.000000e+01 1.000000e+01
      vertex   -4.413534e+01 6.000000e+01 1.877906e+01
      vertex   -4.157458e+01 6.000000e+01 2.722075e+01
    endloop
  endfacet
  facet normal -9.510216e+00 -9.066104e-01 2.884892e+00
    outer loop
      vertex   -4.157458e+01 6.000000e+01 2.722075e+01
      vertex   -4.413534e+01 6.000000e+01 1.877906e+01
      vertex   -3.334670e+01 -6.000000e+01 1.663307e+01
    endloop
  endfacet
  facet normal 0.000000e+00 -1.950903e+00 -4.331876e-16
    outer loop
      vertex   0.000000e+00 -6.000000e+01 1.000000e+01
      vertex   -3.334670e+01 -6.000000e+01 1.663307e+01
      vertex   -3.400000e+01 -6.000000e+01 1.000000e+01
    endloop
  endfacet
  facet normal -9.910296e+00 -9.084440e-01 9.760823e-01
    outer loop
      vertex   -3.334670e+01 -6.000000e+01 1.663307e+01
      vertex   -4.413534e+01 6.000000e+01 1.877906e+01
      vertex   -3.400000e+01 -6.000000e+01 1.000000e+01
    endloop
  endfacet
  facet normal 0.000000e+00 1.950903e+00 4.331875e-16
    outer loop
      vertex   0.000000e+00 6.000000e+01 1.000000e+01
      vertex   -4.500000e+01 6.000000e+01 1.000000e+01
      vertex   -4.413534e+01 6.000000e+01 1.877906e+01
    endloop
  endfacet
  facet normal -9.890294e+00 -9.066102e-01 9.741098e-01
    outer loop
      vertex   -4.413534e+01 6.000000e+01 1.877906e+01
      vertex   -4.500000e+01 6.000000e+01 1.000000e+01
      vertex   -3.400000e+01 -6.000000e+01 1.000000e+01
    endloop
  endfacet
  facet normal 0.000000e+00 -1.950903e+00 -4.331876e-16
    outer loop
      vertex   0.000000e+00 -6.000000e+01 1.000000e+01
      vertex   -3.400000e+01 -6.000000e+01 1.000000e+01
      vertex   -3.334670e+01 -6.000000e+01 3.366929e+00
    endloop
  endfacet
  facet normal -9.910296e+00 -9.084439e-01 -9.760823e-01
    outer loop
      vertex   -3.400000e+01 -6.000000e+01 1.000000e+01
      vertex   -4.500000e+01 6.000000e+01 1.000000e+01
      vertex   -3.334670e+01 -6.000000e+01 3.366929e+00
    endloop
  endfacet
  facet normal 0.000000e+00 1.950903e+00 4.331875e-16
    outer loop
      vertex   0.000000e+00 6.000000e+01 1.000000e+01
      vertex   -4.413534e+01 6.000000e+01 1.220936e+00
      vertex   -4.500000e+01 6.000000e+01 1.000000e+01
    endloop
  endfacet
  facet normal -9.890294e+00 -9.066103e-01 -9.741098e-01
    outer loop
      vertex   -4.500000e+01 6.000000e+01 1.000000e+01
      vertex   -4.413534e+01 6.000000e+01 1.220936e+00
      vertex   -3.334670e+01 -6.000000e+01 3.366929e+00
    endloop
  endfacet
  facet normal 0.000000e+00 -1.950903e+00 -4.331876e-16
    outer loop
      vertex   0.000000e+00 -6.000000e+01 1.000000e+01
      vertex   -3.334670e+01 -6.000000e+01 3.366929e+00
      vertex   -3.141190e+01 -6.000000e+01 -3.011237e+00
    endloop
  endfacet
  facet normal -9.529450e+00 -9.084439e-01 -2.890727e+00
    outer loop
      vertex   -3.334670e+01 -6.000000e+01 3.366929e+00
      vertex   -4.413534e+01 6.000000e+01 1.220936e+00
      vertex   -3.141190e+01 -6.000000e+01 -3.011237e+00
    endloop
  endfacet
  facet normal 0.000000e+00 1.950903e+00 4.331875e-16
    outer loop
      vertex   0.000000e+00 6.000000e+01 1.000000e+01
      vertex   -4.157458e+01 6.000000e+01 -7.220755e+00
      vertex   -4.413534e+01 6.000000e+01 1.220936e+00
    endloop
  endfacet
  facet normal -9.510216e+00 -9.066103e-01 -2.884892e+00
    outer loop
      vertex   -4.413534e+01 6.000000e+01 1.220936e+00
      vertex   -4.157458e+01 6.000000e+01 -7.220755e+00
      vertex   -3.141190e+01 -6.000000e+01 -3.011237e+00
    endloop
  endfacet
  facet normal 0.000000e+00 -1.950903e+00 -4.331875e-16
    outer loop
      vertex   0.000000e+00 -6.000000e+01 1.000000e+01
      vertex   -3.141190e+01 -6.000000e+01 -3.011237e+00
      vertex   -2.826997e+01 -6.000000e+01 -8.889388e+00
    endloop
  endfacet
  facet normal -8.782392e+00 -9.084439e-01 -4.694286e+00
    outer loop
      vertex   -3.141190e+01 -6.000000e+01 -3.011237e+00
      vertex   -4.157458e+01 6.000000e+01 -7.220755e+00
      vertex   -2.826997e+01 -6.000000e+01 -8.889388e+00
    endloop
  endfacet
  facet normal 0.000000e+00 1.950903e+00 4.331875e-16
    outer loop
      vertex   0.000000e+00 6.000000e+01 1.000000e+01
      vertex   -3.741613e+01 6.000000e+01 -1.500066e+01
      vertex   -4.157458e+01 6.000000e+01 -7.220755e+00
    endloop
  endfacet
  facet normal -8.764666e+00 -9.066105e-01 -4.684810e+00
    outer loop
      vertex   -4.157458e+01 6.000000e+01 -7.220755e+00
      vertex   -3.741613e+01 6.000000e+01 -1.500066e+01
      vertex   -2.826997e+01 -6.000000e+01 -8.889388e+00
    endloop
  endfacet
  facet normal 0.000000e+00 -1.950903e+00 -4.331875e-16
    outer loop
      vertex   0.000000e+00 -6.000000e+01 1.000000e+01
      vertex   -2.826997e+01 -6.000000e+01 -8.889388e+00
      vertex   -2.404163e+01 -6.000000e+01 -1.404163e+01
    endloop
  endfacet
  facet normal -7.697833e+00 -9.084440e-01 -6.317444e+00
    outer loop
      vertex   -2.826997e+01 -6.000000e+01 -8.889388e+00
      vertex   -3.741613e+01 6.000000e+01 -1.500066e+01
      vertex   -2.404163e+01 -6.000000e+01 -1.404163e+01
    endloop
  endfacet
  facet normal 0.000000e+00 1.950903e+00 4.331876e-16
    outer loop
      vertex   0.000000e+00 6.000000e+01 1.000000e+01
      vertex   -3.181981e+01 6.000000e+01 -2.181981e+01
      vertex   -3.741613e+01 6.000000e+01 -1.500066e+01
    endloop
  endfacet
  facet normal -7.682294e+00 -9.066103e-01 -6.304695e+00
    outer loop
      vertex   -3.741613e+01 6.000000e+01 -1.500066e+01
      vertex   -3.181981e+01 6.000000e+01 -2.181981e+01
      vertex   -2.404163e+01 -6.000000e+01 -1.404163e+01
    endloop
  endfacet
  facet normal 0.000000e+00 -1.950903e+00 -4.331875e-16
    outer loop
      vertex   0.000000e+00 -6.000000e+01 1.000000e+01
      vertex   -2.404163e+01 -6.000000e+01 -1.404163e+01
      vertex   -1.888939e+01 -6.000000e+01 -1.826997e+01
    endloop
  endfacet
  facet normal -6.317444e+00 -9.084439e-01 -7.697833e+00
    outer loop
      vertex   -2.404163e+01 -6.000000e+01 -1.404163e+01
      vertex   -3.181981e+01 6.000000e+01 -2.181981e+01
      vertex   -1.888939e+01 -6.000000e+01 -1.826997e+01
    endloop
  endfacet
  facet normal 0.000000e+00 1.950903e+00 4.331876e-16
    outer loop
      vertex   0.000000e+00 6.000000e+01 1.000000e+01
      vertex   -2.500066e+01 6.000000e+01 -2.741613e+01
      vertex   -3.181981e+01 6.000000e+01 -2.181981e+01
    endloop
  endfacet
  facet normal -6.304695e+00 -9.066105e-01 -7.682294e+00
    outer loop
      vertex   -3.181981e+01 6.000000e+01 -2.181981e+01
      vertex   -2.500066e+01 6.000000e+01 -2.741613e+01
      vertex   -1.888939e+01 -6.000000e+01 -1.826997e+01
    endloop
  endfacet
  facet normal 0.000000e+00 -1.950903e+00 -4.331875e-16
    outer loop
      vertex   0.000000e+00 -6.000000e+01 1.000000e+01
      vertex   -1.888939e+01 -6.000000e+01 -1.826997e+01
      vertex   -1.301124e+01 -6.000000e+01 -2.141190e+01
    endloop
  endfacet
  facet normal -4.694286e+00 -9.084440e-01 -8.782392e+00
    outer loop
      vertex   -1.888939e+01 -6.000000e+01 -1.826997e+01
      vertex   -2.500066e+01 6.000000e+01 -2.741613e+01
      vertex   -1.301124e+01 -6.000000e+01 -2.141190e+01
    endloop
  endfacet
  facet normal 0.000000e+00 1.950903e+00 4.331875e-16
    outer loop
      vertex   0.000000e+00 6.000000e+01 1.000000e+01
      vertex   -1.722075e+01 6.000000e+01 -3.157458e+01
      vertex   -2.500066e+01 6.000000e+01 -2.741613e+01
    endloop
  endfacet
  facet normal -4.684810e+00 -9.066103e-01 -8.764666e+00
    outer loop
      vertex   -2.500066e+01 6.000000e+01 -2.741613e+01
      vertex   -1.722075e+01 6.000000e+01 -3.157458e+01
      vertex   -1.301124e+01 -6.000000e+01 -2.141190e+01
    endloop
  endfacet
  facet normal 0.000000e+00 -1.950903e+00 -4.331876e-16
    outer loop
      vertex   0.000000e+00 -6.000000e+01 1.000000e+01
      vertex   -1.301124e+01 -6.000000e+01 -2.141190e+01
      vertex   -6.633071e+00 -6.000000e+01 -2.334670e+01
    endloop
  endfacet
  facet normal -2.890727e+00 -9.084439e-01 -9.529450e+00
    outer loop
      vertex   -1.301124e+01 -6.000000e+01 -2.141190e+01
      vertex   -1.722075e+01 6.000000e+01 -3.157458e+01
      vertex   -6.633071e+00 -6.000000e+01 -2.334670e+01
    endloop
  endfacet
  facet normal 0.000000e+00 1.950903e+00 4.331875e-16
    outer loop
      vertex   0.000000e+00 6.000000e+01 1.000000e+01
      vertex   -8.779064e+00 6.000000e+01 -3.413534e+01
      vertex   -1.722075e+01 6.000000e+01 -3.157458e+01
    endloop
  endfacet
  facet normal -2.884892e+00 -9.066103e-01 -9.510216e+00
    outer loop
      vertex   -1.722075e+01 6.000000e+01 -3.157458e+01
      vertex   -8.779064e+00 6.000000e+01 -3.413534e+01
      vertex   -6.633071e+00 -6.000000e+01 -2.334670e+01
    endloop
  endfacet
  facet normal 0.000000e+00 -1.950903e+00 -4.331876e-16
    outer loop
      vertex   0.000000e+00 -6.000000e+01 1.000000e+01
      vertex   -6.633071e+00 -6.000000e+01 -2.334670e+01
      vertex   -6.245699e-15 -6.000000e+01 -2.400000e+01
    endloop
  endfacet
  facet normal -9.760823e-01 -9.084440e-01 -9.910296e+00
    outer loop
      vertex   -6.633071e+00 -6.000000e+01 -2.334670e+01
      vertex   -8.779064e+00 6.000000e+01 -3.413534e+01
      vertex   -6.245699e-15 -6.000000e+01 -2.400000e+01
    endloop
  endfacet
  facet normal 0.000000e+00 1.950903e+00 4.331875e-16
    outer loop
      vertex   0.000000e+00 6.000000e+01 1.000000e+01
      vertex   -8.266366e-15 6.000000e+01 -3.500000e+01
      vertex   -8.779064e+00 6.000000e+01 -3.413534e+01
    endloop
  endfacet
  facet normal -9.741098e-01 -9.066102e-01 -9.890294e+00
    outer loop
      vertex   -8.779064e+00 6.000000e+01 -3.413534e+01
      vertex   -8.266366e-15 6.000000e+01 -3.500000e+01
      vertex   -6.245699e-15 -6.000000e+01 -2.400000e+01
    endloop
  endfacet
  facet normal 0.000000e+00 -1.950903e+00 -4.331876e-16
    outer loop
      vertex   0.000000e+00 -6.000000e+01 1.000000e+01
      vertex   -6.245699e-15 -6.000000e+01 -2.400000e+01
      vertex   6.633071e+00 -6.000000e+01 -2.334670e+01
    endloop
  endfacet
  facet normal 9.760823e-01 -9.084439e-01 -9.910296e+00
    outer loop
      vertex   -6.245699e-15 -6.000000e+01 -2.400000e+01
      vertex   -8.266366e-15 6.000000e+01 -3.500000e+01
      vertex   6.633071e+00 -6.000000e+01 -2.334670e+01
    endloop
  endfacet
  facet normal 0.000000e+00 1.950903e+00 4.331875e-16
    outer loop
      vertex   0.000000e+00 6.000000e+01 1.000000e+01
      vertex   8.779064e+00 6.000000e+01 -3.413534e+01
      vertex   -8.266366e-15 6.000000e+01 -3.500000e+01
    endloop
  endfacet
  facet normal 9.741098e-01 -9.066103e-01 -9.890294e+00
    outer loop
      vertex   -8.266366e-15 6.000000e+01 -3.500000e+01
      vertex   8.779064e+00 6.000000e+01 -3.413534e+01
      vertex   6.633071e+00 -6.000000e+01 -2.334670e+01
    endloop
  endfacet
  facet normal 0.000000e+00 -1.950903e+00 -4.331876e-16
    outer loop
      vertex   0.000000e+00 -6.000000e+01 1.000000e+01
      vertex   6.633071e+00 -6.000000e+01 -2.334670e+01
      vertex   1.301124e+01 -6.000000e+01 -2.141190e+01
    endloop
  endfacet
  facet normal 2.890727e+00 -9.084439e-01 -9.529450e+00
    outer loop
      vertex   6.633071e+00 -6.000000e+01 -2.334670e+01
      vertex   8.779064e+00 6.000000e+01 -3.413534e+01
      vertex   1.301124e+01 -6.000000e+01 -2.141190e+01
    endloop
  endfacet
  facet normal 0.000000e+00 1.950903e+00 4.331875e-16
    outer loop
      vertex   0.000000e+00 6.000000e+01 1.000000e+01
      vertex   1.722075e+01 6.000000e+01 -3.157458e+01
      vertex   8.779064e+00 6.000000e+01 -3.413534e+01
    endloop
  endfacet
  facet normal 2.884892e+00 -9.066103e-01 -9.510216e+00
    outer loop
      vertex   8.779064e+00 6.000000e+01 -3.413534e+01
      vertex   1.722075e+01 6.000000e+01 -3.157458e+01
      vertex   1.301124e+01 -6.000000e+01 -2.141190e+01
    endloop
  endfacet
  facet normal 0.000000e+00 -1.950903e+00 -4.331875e-16
    outer loop
      vertex   0.000000e+00 -6.000000e+01 1.000000e+01
      vertex   1.301124e+01 -6.000000e+01 -2.141190e+01
      vertex   1.888939e+01 -6.000000e+01 -1.826997e+01
    endloop
  endfacet
  facet normal 4.694286e+00 -9.084439e-01 -8.782392e+00
    outer loop
      vertex   1.301124e+01 -6.000000e+01 -2.141190e+01
      vertex   1.722075e+01 6.000000e+01 -3.157458e+01
      vertex   1.888939e+01 -6.000000e+01 -1.826997e+01
    endloop
  endfacet
  facet normal 0.000000e+00 1.950903e+00 4.331875e-16
    outer loop
      vertex   0.000000e+00 6.000000e+01 1.000000e+01
      vertex   2.500066e+01 6.000000e+01 -2.741613e+01
      vertex   1.722075e+01 6.000000e+01 -3.157458e+01
    endloop
  endfacet
  facet normal 4.684810e+00 -9.066105e-01 -8.764666e+00
    outer loop
      vertex   1.722075e+01 6.000000e+01 -3.157458e+01
      vertex   2.500066e+01 6.000000e+01 -2.741613e+01
      vertex   1.888939e+01 -6.000000e+01 -1.826997e+01
    endloop
  endfacet
  facet normal 0.000000e+00 -1.950903e+00 -4.331875e-16
    outer loop
      vertex   0.000000e+00 -6.000000e+01 1.000000e+01
      vertex   1.888939e+01 -6.000000e+01 -1.826997e+01
      vertex   2.404163e+01 -6.000000e+01 -1.404163e+01
    endloop
  endfacet
  facet normal 6.317444e+00 -9.084440e-01 -7.697833e+00
    outer loop
      vertex   1.888939e+01 -6.000000e+01 -1.826997e+01
      vertex   2.500066e+01 6.000000e+01 -2.741613e+01
      vertex   2.404163e+01 -6.000000e+01 -1.404163e+01
    endloop
  endfacet
  facet normal 0.000000e+00 1.950903e+00 4.331876e-16
    outer loop
      vertex   0.000000e+00 6.000000e+01 1.000000e+01
      vertex   3.181981e+01 6.000000e+01 -2.181981e+01
      vertex   2.500066e+01 6.000000e+01 -2.741613e+01
    endloop
  endfacet
  facet normal 6.304695e+00 -9.066103e-01 -7.682294e+00
    outer loop
      vertex   2.500066e+01 6.000000e+01 -2.741613e+01
      vertex   3.181981e+01 6.000000e+01 -2.181981e+01
      vertex   2.404163e+01 -6.000000e+01 -1.404163e+01
    endloop
  endfacet
  facet normal 0.000000e+00 -1.950903e+00 -4.331875e-16
    outer loop
      vertex   0.000000e+00 -6.000000e+01 1.000000e+01
      vertex   2.404163e+01 -6.000000e+01 -1.404163e+01
      vertex   2.826997e+01 -6.000000e+01 -8.889388e+00
    endloop
  endfacet
  facet normal 7.697833e+00 -9.084439e-01 -6.317444e+00
    outer loop
      vertex   2.404163e+01 -6.000000e+01 -1.404163e+01
      vertex   3.181981e+01 6.000000e+01 -2.181981e+01
      vertex   2.826997e+01 -6.000000e+01 -8.889388e+00
    endloop
  endfacet
  facet normal 0.000000e+00 1.950903e+00 4.331876e-16
    outer loop
      vertex   0.000000e+00 6.000000e+01 1.000000e+01
      vertex   3.741613e+01 6.000000e+01 -1.500066e+01
      vertex   3.181981e+01 6.000000e+01 -2.181981e+01
    endloop
  endfacet
  facet normal 7.682294e+00 -9.066105e-01 -6.304695e+00
    outer loop
      vertex   3.181981e+01 6.000000e+01 -2.181981e+01
      vertex   3.741613e+01 6.000000e+01 -1.500066e+01
      vertex   2.826997e+01 -6.000000e+01 -8.889388e+00
    endloop
  endfacet
  facet normal 0.000000e+00 -1.950903e+00 -4.331875e-16
    outer loop
      vertex   0.000000e+00 -6.000000e+01 1.000000e+01
      vertex   2.826997e+01 -6.000000e+01 -8.889388e+00
      vertex   3.141190e+01 -6.000000e+01 -3.011237e+00
    endloop
  endfacet
  facet normal 8.782392e+00 -9.084440e-01 -4.694286e+00
    outer loop
      vertex   2.826997e+01 -6.000000e+01 -8.889388e+00
      vertex   3.741613e+01 6.000000e+01 -1.500066e+01
      vertex   3.141190e+01 -6.000000e+01 -3.011237e+00
    endloop
  endfacet
  facet normal 0.000000e+00 1.950903e+00 4.331875e-16
    outer loop
      vertex   0.000000e+00 6.000000e+01 1.000000e+01
      vertex   4.157458e+01 6.000000e+01 -7.220755e+00
      vertex   3.741613e+01 6.000000e+01 -1.500066e+01
    endloop
  endfacet
  facet normal 8.764666e+00 -9.066103e-01 -4.684810e+00
    outer loop
      vertex   3.741613e+01 6.000000e+01 -1.500066e+01
      vertex   4.157458e+01 6.000000e+01 -7.220755e+00
      vertex   3.141190e+01 -6.000000e+01 -3.011237e+00
    endloop
  endfacet
  facet normal 0.000000e+00 -1.950903e+00 -4.331876e-16
    outer loop
      vertex   0.000000e+00 -6.000000e+01 1.000000e+01
      vertex   3.141190e+01 -6.000000e+01 -3.011237e+00
      vertex   3.334670e+01 -6.000000e+01 3.366929e+00
    endloop
  endfacet
  facet normal 9.529450e+00 -9.084439e-01 -2.890727e+00
    outer loop
      vertex   3.141190e+01 -6.000000e+01 -3.011237e+00
      vertex   4.157458e+01 6.000000e+01 -7.220755e+00
      vertex   3.334670e+01 -6.000000e+01 3.366929e+00
    endloop
  endfacet
  facet normal 0.000000e+00 1.950903e+00 4.331875e-16
    outer loop
      vertex   0.000000e+00 6.000000e+01 1.000000e+01
      vertex   4.413534e+01 6.000000e+01 1.220936e+00
      vertex   4.157458e+01 6.000000e+01 -7.220755e+00
    endloop
  endfacet
  facet normal 9.510216e+00 -9.066103e-01 -2.884892e+00
    outer loop
      vertex   4.157458e+01 6.000000e+01 -7.220755e+00
      vertex   4.413534e+01 6.000000e+01 1.220936e+00
      vertex   3.334670e+01 -6.000000e+01 3.366929e+00
    endloop
  endfacet
  facet normal 0.000000e+00 -1.950903e+00 -4.331876e-16
    outer loop
      vertex   0.000000e+00 -6.000000e+01 1.000000e+01
      vertex   3.334670e+01 -6.000000e+01 3.366929e+00
      vertex   3.400000e+01 -6.000000e+01 1.000000e+01
    endloop
  endfacet
  facet normal 9.910296e+00 -9.084440e-01 -9.760823e-01
    outer loop
      vertex   3.334670e+01 -6.000000e+01 3.366929e+00
      vertex   4.413534e+01 6.000000e+01 1.220936e+00
      vertex   3.400000e+01 -6.000000e+01 1.000000e+01
    endloop
  endfacet
  facet normal 0.000000e+00 1.950903e+00 4.331875e-16
    outer loop
      vertex   0.000000e+00 6.000000e+01 1.000000e+01
      vertex   4.500000e+01 6.000000e+01 1.000000e+01
      vertex   4.413534e+01 6.000000e+01 1.220936e+00
    endloop
  endfacet
  facet normal 9.890294e+00 -9.066102e-01 -9.741098e-01
    outer loop
      vertex   4.413534e+01 6.000000e+01 1.220936e+00
      vertex   4.500000e+01 6.000000e+01 1.000000e+01
      vertex   3.400000e+01 -6.000000e+01 1.000000e+01
    endloop
  endfacet
endsolid
