solid ascii
  facet normal 5.165204e-01 2.087472e+00 -5.271666e+00
    outer loop
      vertex   6.993998e+00 9.494738e+00 -2.454417e+00
      vertex   8.611124e+00 1.242906e+01 -1.134037e+00
      vertex   9.999999e+00 -1.082531e+01 -1.020621e+01
    endloop
  endfacet
  facet normal 7.477904e-02 3.022096e-01 -7.632008e-01
    outer loop
      vertex   -1.222223e+01 4.009375e-01 -7.938161e+00
      vertex   8.611124e+00 1.242906e+01 -1.134037e+00
      vertex   6.902123e+00 9.441688e+00 -2.484417e+00
    endloop
  endfacet
  facet normal 3.873014e-01 1.565282e+00 -3.952920e+00
    outer loop
      vertex   -1.222223e+01 4.009375e-01 -7.938161e+00
      vertex   6.902123e+00 9.441688e+00 -2.484417e+00
      vertex   -8.641427e+00 4.676276e-01 -7.560912e+00
    endloop
  endfacet
  facet normal 4.536048e-01 1.833234e+00 -4.629629e+00
    outer loop
      vertex   -1.222223e+01 4.009375e-01 -7.938161e+00
      vertex   -8.641427e+00 4.676276e-01 -7.560912e+00
      vertex   9.999999e+00 -1.082531e+01 -1.020621e+01
    endloop
  endfacet
  facet normal 7.440153e-02 3.006961e-01 -7.593815e-01
    outer loop
      vertex   -8.641427e+00 4.676276e-01 -7.560912e+00
      vertex   7.938348e+00 -7.908163e+00 -9.253087e+00
      vertex   9.999999e+00 -1.082531e+01 -1.020621e+01
    endloop
  endfacet
  facet normal 4.418132e-01 1.785853e+00 -4.510150e+00
    outer loop
      vertex   7.938348e+00 -7.908163e+00 -9.253087e+00
      vertex   8.036347e+00 -7.957662e+00 -9.263087e+00
      vertex   9.999999e+00 -1.082531e+01 -1.020621e+01
    endloop
  endfacet
  facet normal 4.537516e-01 1.833282e+00 -4.629507e+00
    outer loop
      vertex   8.036347e+00 -7.957662e+00 -9.263087e+00
      vertex   8.030223e+00 -7.855137e+00 -9.223087e+00
      vertex   9.999999e+00 -1.082531e+01 -1.020621e+01
    endloop
  endfacet
  facet normal 4.411938e-01 1.785920e+00 -4.509261e+00
    outer loop
      vertex   6.902123e+00 9.441688e+00 -2.484417e+00
      vertex   8.611124e+00 1.242906e+01 -1.134037e+00
      vertex   6.993998e+00 9.494738e+00 -2.454417e+00
    endloop
  endfacet
  facet normal 7.440595e-02 3.006984e-01 -7.593778e-01
    outer loop
      vertex   6.993998e+00 9.494738e+00 -2.454417e+00
      vertex   9.999999e+00 -1.082531e+01 -1.020621e+01
      vertex   8.030223e+00 -7.855137e+00 -9.223087e+00
    endloop
  endfacet
  facet normal -3.099088e+00 3.578544e+00 3.163018e+00
    outer loop
      vertex   6.185423e+00 9.828188e+00 -5.681570e-01
      vertex   2.777730e-01 -6.815937e+00 1.247426e+01
      vertex   8.611124e+00 1.242906e+01 -1.134037e+00
    endloop
  endfacet
  facet normal -2.721640e+00 3.142682e+00 2.777771e+00
    outer loop
      vertex   -1.222223e+01 4.009375e-01 -7.938161e+00
      vertex   -9.450003e+00 8.010776e-01 -5.674662e+00
      vertex   8.611124e+00 1.242906e+01 -1.134037e+00
    endloop
  endfacet
  facet normal -2.721659e+00 3.142723e+00 2.777787e+00
    outer loop
      vertex   -1.222223e+01 4.009375e-01 -7.938161e+00
      vertex   2.777730e-01 -6.815937e+00 1.247426e+01
      vertex   -9.450003e+00 8.010776e-01 -5.674662e+00
    endloop
  endfacet
  facet normal -4.464332e-01 5.155885e-01 4.554065e-01
    outer loop
      vertex   -9.450003e+00 8.010776e-01 -5.674662e+00
      vertex   -9.358152e+00 8.541101e-01 -5.644662e+00
      vertex   8.611124e+00 1.242906e+01 -1.134037e+00
    endloop
  endfacet
  facet normal -2.651096e+00 3.061205e+00 2.705735e+00
    outer loop
      vertex   -3.200952e-02 -4.530338e+00 9.584864e+00
      vertex   2.777730e-01 -6.815937e+00 1.247426e+01
      vertex   6.185423e+00 9.828188e+00 -5.681570e-01
    endloop
  endfacet
  facet normal -4.486659e-01 5.180771e-01 4.579148e-01
    outer loop
      vertex   -9.358152e+00 8.541101e-01 -5.644662e+00
      vertex   6.185423e+00 9.828188e+00 -5.681570e-01
      vertex   8.611124e+00 1.242906e+01 -1.134037e+00
    endloop
  endfacet
  facet normal -2.721489e+00 3.142756e+00 2.777791e+00
    outer loop
      vertex   -6.875187e-02 -4.615188e+00 9.644863e+00
      vertex   2.777730e-01 -6.815937e+00 1.247426e+01
      vertex   -3.200952e-02 -4.530338e+00 9.584864e+00
    endloop
  endfacet
  facet normal -2.650672e+00 3.061263e+00 2.705731e+00
    outer loop
      vertex   -1.238670e-01 -4.583363e+00 9.554864e+00
      vertex   2.777730e-01 -6.815937e+00 1.247426e+01
      vertex   -6.875187e-02 -4.615188e+00 9.644863e+00
    endloop
  endfacet
  facet normal -4.464235e-01 5.154862e-01 4.556288e-01
    outer loop
      vertex   -9.450003e+00 8.010776e-01 -5.674662e+00
      vertex   2.777730e-01 -6.815937e+00 1.247426e+01
      vertex   -1.238670e-01 -4.583363e+00 9.554864e+00
    endloop
  endfacet
  facet normal -2.582578e+00 -5.069576e+00 -2.108862e-01
    outer loop
      vertex   -9.334502e+00 -1.132919e+00 -6.429162e+00
      vertex   -1.222223e+01 4.009375e-01 -7.938161e+00
      vertex   9.999999e+00 -1.082531e+01 -1.020621e+01
    endloop
  endfacet
  facet normal -3.720198e-01 -7.302671e-01 -3.037359e-02
    outer loop
      vertex   2.777730e-01 -6.815937e+00 1.247426e+01
      vertex   -1.222223e+01 4.009375e-01 -7.938161e+00
      vertex   -9.334502e+00 -1.132919e+00 -6.429162e+00
    endloop
  endfacet
  facet normal -3.738340e-01 -7.341450e-01 -2.972489e-02
    outer loop
      vertex   -9.236503e+00 -1.182416e+00 -6.439162e+00
      vertex   -9.334502e+00 -1.132919e+00 -6.429162e+00
      vertex   9.999999e+00 -1.082531e+01 -1.020621e+01
    endloop
  endfacet
  facet normal -1.877265e-03 -3.689560e-03 -1.546307e-04
    outer loop
      vertex   2.777730e-01 -6.815937e+00 1.247426e+01
      vertex   -9.334502e+00 -1.132919e+00 -6.429162e+00
      vertex   -9.279377e+00 -1.164739e+00 -6.339162e+00
    endloop
  endfacet
  facet normal -2.268024e+00 -4.452143e+00 -1.851784e-01
    outer loop
      vertex   2.777730e-01 -6.815937e+00 1.247426e+01
      vertex   4.675802e-02 -6.549187e+00 8.890363e+00
      vertex   9.999999e+00 -1.082531e+01 -1.020621e+01
    endloop
  endfacet
  facet normal -1.936547e+00 -3.801399e+00 -1.581102e-01
    outer loop
      vertex   2.777730e-01 -6.815937e+00 1.247426e+01
      vertex   -9.279377e+00 -1.164739e+00 -6.339162e+00
      vertex   4.675802e-02 -6.549187e+00 8.890363e+00
    endloop
  endfacet
  facet normal -3.722220e-01 -7.303797e-01 -3.045682e-02
    outer loop
      vertex   4.675802e-02 -6.549187e+00 8.890363e+00
      vertex   8.962296e-02 -6.566863e+00 8.790362e+00
      vertex   9.999999e+00 -1.082531e+01 -1.020621e+01
    endloop
  endfacet
  facet normal -3.738914e-01 -7.339484e-01 -3.052769e-02
    outer loop
      vertex   8.962296e-02 -6.566863e+00 8.790362e+00
      vertex   7.343273e+00 -9.558212e+00 -8.131337e+00
      vertex   9.999999e+00 -1.082531e+01 -1.020621e+01
    endloop
  endfacet
  facet normal -2.268029e+00 -4.452117e+00 -1.851946e-01
    outer loop
      vertex   7.343273e+00 -9.558212e+00 -8.131337e+00
      vertex   -9.236503e+00 -1.182416e+00 -6.439162e+00
      vertex   9.999999e+00 -1.082531e+01 -1.020621e+01
    endloop
  endfacet
  facet normal 5.165162e+00 -5.964179e-01 2.319534e+00
    outer loop
      vertex   1.779398e+00 -5.548838e+00 9.456238e+00
      vertex   2.777730e-01 -6.815937e+00 1.247426e+01
      vertex   9.999999e+00 -1.082531e+01 -1.020621e+01
    endloop
  endfacet
  facet normal 7.440385e-01 -8.591491e-02 3.341270e-01
    outer loop
      vertex   8.611124e+00 1.242906e+01 -1.134037e+00
      vertex   2.777730e-01 -6.815937e+00 1.247426e+01
      vertex   1.779398e+00 -5.548838e+00 9.456238e+00
    endloop
  endfacet
  facet normal 3.754817e-03 -4.336260e-04 1.686094e-03
    outer loop
      vertex   8.611124e+00 1.242906e+01 -1.134037e+00
      vertex   1.779398e+00 -5.548838e+00 9.456238e+00
      vertex   1.816140e+00 -5.463987e+00 9.396237e+00
    endloop
  endfacet
  facet normal 4.536094e+00 -5.237876e-01 2.037044e+00
    outer loop
      vertex   8.611124e+00 1.242906e+01 -1.134037e+00
      vertex   8.033573e+00 8.894538e+00 -7.567846e-01
      vertex   9.999999e+00 -1.082531e+01 -1.020621e+01
    endloop
  endfacet
  facet normal 3.873063e+00 -4.472278e-01 1.739283e+00
    outer loop
      vertex   8.611124e+00 1.242906e+01 -1.134037e+00
      vertex   1.816140e+00 -5.463987e+00 9.396237e+00
      vertex   8.033573e+00 8.894538e+00 -7.567846e-01
    endloop
  endfacet
  facet normal 7.440419e-01 -8.591458e-02 3.341288e-01
    outer loop
      vertex   8.033573e+00 8.894538e+00 -7.567846e-01
      vertex   9.069798e+00 -8.455337e+00 -7.525437e+00
      vertex   9.999999e+00 -1.082531e+01 -1.020621e+01
    endloop
  endfacet
  facet normal 4.419088e+00 -5.099784e-01 1.984231e+00
    outer loop
      vertex   9.069798e+00 -8.455337e+00 -7.525437e+00
      vertex   9.075924e+00 -8.557888e+00 -7.565437e+00
      vertex   9.999999e+00 -1.082531e+01 -1.020621e+01
    endloop
  endfacet
  facet normal 4.534255e+00 -5.243832e-01 2.036899e+00
    outer loop
      vertex   9.075924e+00 -8.557888e+00 -7.565437e+00
      vertex   9.033049e+00 -8.540188e+00 -7.465437e+00
      vertex   9.999999e+00 -1.082531e+01 -1.020621e+01
    endloop
  endfacet
  facet normal 4.418468e+00 -5.101832e-01 1.984210e+00
    outer loop
      vertex   9.033049e+00 -8.540188e+00 -7.465437e+00
      vertex   1.779398e+00 -5.548838e+00 9.456238e+00
      vertex   9.999999e+00 -1.082531e+01 -1.020621e+01
    endloop
  endfacet
  facet normal 5.432673e+00 -7.933104e+00 -2.609144e+00
    outer loop
      vertex   6.902123e+00 9.441688e+00 -2.484417e+00
      vertex   6.993998e+00 9.494738e+00 -2.454417e+00
      vertex   6.878598e+00 9.028363e+00 -1.276687e+00
    endloop
  endfacet
  facet normal 4.961061e+00 -8.202909e+00 -2.710667e+00
    outer loop
      vertex   6.878498e+00 9.028313e+00 -1.276717e+00
      vertex   6.902123e+00 9.441688e+00 -2.484417e+00
      vertex   6.878598e+00 9.028363e+00 -1.276687e+00
    endloop
  endfacet
  facet normal 3.688085e-01 -5.385925e-01 -1.771364e-01
    outer loop
      vertex   -8.641427e+00 4.676276e-01 -7.560912e+00
      vertex   6.902123e+00 9.441688e+00 -2.484417e+00
      vertex   6.878498e+00 9.028313e+00 -1.276717e+00
    endloop
  endfacet
  facet normal 5.452744e+00 -7.962973e+00 -2.618902e+00
    outer loop
      vertex   -8.756827e+00 1.270063e-03 -6.383187e+00
      vertex   -8.641427e+00 4.676276e-01 -7.560912e+00
      vertex   6.878498e+00 9.028313e+00 -1.276717e+00
    endloop
  endfacet
  facet normal -9.906195e+00 -1.844932e-01 -1.043649e+00
    outer loop
      vertex   8.030223e+00 -7.855137e+00 -9.223087e+00
      vertex   7.920948e+00 -8.423937e+00 -8.085312e+00
      vertex   6.993998e+00 9.494738e+00 -2.454417e+00
    endloop
  endfacet
  facet normal -9.920472e+00 -1.847414e-01 -1.045210e+00
    outer loop
      vertex   6.993998e+00 9.494738e+00 -2.454417e+00
      vertex   7.920948e+00 -8.423937e+00 -8.085312e+00
      vertex   6.878598e+00 9.028363e+00 -1.276687e+00
    endloop
  endfacet
  facet normal -9.943246e+00 -1.852341e-01 -1.047641e+00
    outer loop
      vertex   8.036347e+00 -7.957662e+00 -9.263087e+00
      vertex   7.920948e+00 -8.424037e+00 -8.085362e+00
      vertex   8.030223e+00 -7.855137e+00 -9.223087e+00
    endloop
  endfacet
  facet normal -8.757613e-04 3.396489e-05 -6.713060e-05
    outer loop
      vertex   8.030223e+00 -7.855137e+00 -9.223087e+00
      vertex   7.920948e+00 -8.424037e+00 -8.085362e+00
      vertex   7.920948e+00 -8.423937e+00 -8.085312e+00
    endloop
  endfacet
  facet normal 4.489879e+00 8.148400e+00 3.666682e+00
    outer loop
      vertex   8.036347e+00 -7.957662e+00 -9.263087e+00
      vertex   7.938348e+00 -7.908163e+00 -9.253087e+00
      vertex   7.920948e+00 -8.424037e+00 -8.085362e+00
    endloop
  endfacet
  facet normal 4.836903e+00 7.971792e+00 3.593832e+00
    outer loop
      vertex   7.920948e+00 -8.424037e+00 -8.085362e+00
      vertex   7.938348e+00 -7.908163e+00 -9.253087e+00
      vertex   7.920848e+00 -8.423987e+00 -8.085338e+00
    endloop
  endfacet
  facet normal 4.473757e+00 8.117754e+00 3.652865e+00
    outer loop
      vertex   7.938348e+00 -7.908163e+00 -9.253087e+00
      vertex   -8.641427e+00 4.676276e-01 -7.560912e+00
      vertex   7.920848e+00 -8.423987e+00 -8.085338e+00
    endloop
  endfacet
  facet normal 3.037239e-01 5.511153e-01 2.479920e-01
    outer loop
      vertex   7.920848e+00 -8.423987e+00 -8.085338e+00
      vertex   -8.641427e+00 4.676276e-01 -7.560912e+00
      vertex   -8.756827e+00 1.270063e-03 -6.383187e+00
    endloop
  endfacet
  facet normal 6.710705e+00 7.195243e+00 -1.565538e+00
    outer loop
      vertex   6.235530e-01 -5.414638e+00 8.938139e+00
      vertex   -8.757627e+00 1.605079e-03 -6.381287e+00
      vertex   -1.238670e-01 -4.583363e+00 9.554864e+00
    endloop
  endfacet
  facet normal 4.582642e-01 4.913644e-01 -1.069049e-01
    outer loop
      vertex   -1.238670e-01 -4.583363e+00 9.554864e+00
      vertex   -8.757627e+00 1.605079e-03 -6.381287e+00
      vertex   -9.450003e+00 8.010776e-01 -5.674662e+00
    endloop
  endfacet
  facet normal 1.423392e+00 -5.807695e+00 7.881723e+00
    outer loop
      vertex   -8.757627e+00 1.605079e-03 -6.381287e+00
      vertex   -8.757552e+00 1.657605e-03 -6.381262e+00
      vertex   -9.358152e+00 8.541101e-01 -5.644662e+00
    endloop
  endfacet
  facet normal 9.622338e-01 -6.111022e+00 7.856813e+00
    outer loop
      vertex   -9.450003e+00 8.010776e-01 -5.674662e+00
      vertex   -8.757627e+00 1.605079e-03 -6.381287e+00
      vertex   -9.358152e+00 8.541101e-01 -5.644662e+00
    endloop
  endfacet
  facet normal 6.570978e+00 7.272697e+00 -1.789997e+00
    outer loop
      vertex   6.236080e-01 -5.414662e+00 8.938238e+00
      vertex   6.235530e-01 -5.414638e+00 8.938139e+00
      vertex   -6.875187e-02 -4.615188e+00 9.644863e+00
    endloop
  endfacet
  facet normal 6.735907e+00 7.222109e+00 -1.571208e+00
    outer loop
      vertex   -6.875187e-02 -4.615188e+00 9.644863e+00
      vertex   6.235530e-01 -5.414638e+00 8.938139e+00
      vertex   -1.238670e-01 -4.583363e+00 9.554864e+00
    endloop
  endfacet
  facet normal -7.872596e+00 -1.515287e+00 -5.909777e+00
    outer loop
      vertex   6.236455e-01 -5.414562e+00 8.938163e+00
      vertex   6.236080e-01 -5.414662e+00 8.938238e+00
      vertex   -3.200952e-02 -4.530338e+00 9.584864e+00
    endloop
  endfacet
  facet normal -7.669256e+00 -1.107037e+00 -6.261931e+00
    outer loop
      vertex   -3.200952e-02 -4.530338e+00 9.584864e+00
      vertex   6.236080e-01 -5.414662e+00 8.938238e+00
      vertex   -6.875187e-02 -4.615188e+00 9.644863e+00
    endloop
  endfacet
  facet normal -7.697958e+00 -1.111157e+00 -6.285441e+00
    outer loop
      vertex   6.877798e+00 9.028713e+00 -1.274794e+00
      vertex   6.236455e-01 -5.414562e+00 8.938163e+00
      vertex   6.185423e+00 9.828188e+00 -5.681570e-01
    endloop
  endfacet
  facet normal -5.206693e-01 -7.515191e-02 -4.251244e-01
    outer loop
      vertex   6.185423e+00 9.828188e+00 -5.681570e-01
      vertex   6.236455e-01 -5.414562e+00 8.938163e+00
      vertex   -3.200952e-02 -4.530338e+00 9.584864e+00
    endloop
  endfacet
  facet normal 6.508310e-02 -4.133401e-01 5.314136e-01
    outer loop
      vertex   -8.757552e+00 1.657605e-03 -6.381262e+00
      vertex   6.877798e+00 9.028713e+00 -1.274794e+00
      vertex   6.185423e+00 9.828188e+00 -5.681570e-01
    endloop
  endfacet
  facet normal 9.586267e-01 -6.088297e+00 7.827504e+00
    outer loop
      vertex   -9.358152e+00 8.541101e-01 -5.644662e+00
      vertex   -8.757552e+00 1.657605e-03 -6.381262e+00
      vertex   6.185423e+00 9.828188e+00 -5.681570e-01
    endloop
  endfacet
  facet normal 6.979836e+00 -3.356862e+00 -6.211558e+00
    outer loop
      vertex   -8.757527e+00 -3.349409e-04 -6.382037e+00
      vertex   -8.757477e+00 -3.674626e-04 -6.381962e+00
      vertex   -9.279377e+00 -1.164739e+00 -6.339162e+00
    endloop
  endfacet
  facet normal 7.376872e+00 -3.518257e+00 -5.762258e+00
    outer loop
      vertex   -9.334502e+00 -1.132919e+00 -6.429162e+00
      vertex   -8.757527e+00 -3.349409e-04 -6.382037e+00
      vertex   -9.279377e+00 -1.164739e+00 -6.339162e+00
    endloop
  endfacet
  facet normal 1.683244e-04 -1.104084e-04 8.733211e-04
    outer loop
      vertex   -9.236503e+00 -1.182416e+00 -6.439162e+00
      vertex   -8.757427e+00 -3.850088e-04 -6.382062e+00
      vertex   -8.757527e+00 -3.349409e-04 -6.382037e+00
    endloop
  endfacet
  facet normal 6.413286e-01 -7.407972e-01 9.951880e+00
    outer loop
      vertex   -9.334502e+00 -1.132919e+00 -6.429162e+00
      vertex   -9.236503e+00 -1.182416e+00 -6.439162e+00
      vertex   -8.757527e+00 -3.349409e-04 -6.382037e+00
    endloop
  endfacet
  facet normal 6.399673e-01 -7.391611e-01 9.929084e+00
    outer loop
      vertex   7.343273e+00 -9.558212e+00 -8.131337e+00
      vertex   7.920249e+00 -8.425637e+00 -8.084212e+00
      vertex   -8.757427e+00 -3.850088e-04 -6.382062e+00
    endloop
  endfacet
  facet normal 6.391155e-01 -7.379781e-01 9.914781e+00
    outer loop
      vertex   -9.236503e+00 -1.182416e+00 -6.439162e+00
      vertex   7.343273e+00 -9.558212e+00 -8.131337e+00
      vertex   -8.757427e+00 -3.850088e-04 -6.382062e+00
    endloop
  endfacet
  facet normal -8.018696e+00 4.259370e+00 -4.190259e+00
    outer loop
      vertex   7.920249e+00 -8.425637e+00 -8.084212e+00
      vertex   7.343273e+00 -9.558212e+00 -8.131337e+00
      vertex   6.237680e-01 -5.416613e+00 8.937363e+00
    endloop
  endfacet
  facet normal -7.923831e+00 4.208782e+00 -4.140638e+00
    outer loop
      vertex   6.237680e-01 -5.416613e+00 8.937363e+00
      vertex   7.343273e+00 -9.558212e+00 -8.131337e+00
      vertex   8.962296e-02 -6.566863e+00 8.790362e+00
    endloop
  endfacet
  facet normal -7.811148e+00 4.186865e+00 -4.378590e+00
    outer loop
      vertex   6.237680e-01 -5.416613e+00 8.937363e+00
      vertex   8.962296e-02 -6.566863e+00 8.790362e+00
      vertex   6.237256e-01 -5.416587e+00 8.937463e+00
    endloop
  endfacet
  facet normal -6.923107e-01 3.677197e-01 -3.617518e-01
    outer loop
      vertex   6.237256e-01 -5.416587e+00 8.937463e+00
      vertex   8.962296e-02 -6.566863e+00 8.790362e+00
      vertex   4.675802e-02 -6.549187e+00 8.890363e+00
    endloop
  endfacet
  facet normal 4.989832e-01 -2.379849e-01 -3.897040e-01
    outer loop
      vertex   -8.757477e+00 -3.674626e-04 -6.381962e+00
      vertex   6.237256e-01 -5.416587e+00 8.937463e+00
      vertex   4.675802e-02 -6.549187e+00 8.890363e+00
    endloop
  endfacet
  facet normal 7.349787e+00 -3.505354e+00 -5.740133e+00
    outer loop
      vertex   -9.279377e+00 -1.164739e+00 -6.339162e+00
      vertex   -8.757477e+00 -3.674626e-04 -6.381962e+00
      vertex   4.675802e-02 -6.549187e+00 8.890363e+00
    endloop
  endfacet
  facet normal 1.597716e+00 9.778242e+00 -1.043683e+00
    outer loop
      vertex   9.033049e+00 -8.540188e+00 -7.465437e+00
      vertex   7.921948e+00 -8.424612e+00 -8.083537e+00
      vertex   1.779398e+00 -5.548838e+00 9.456238e+00
    endloop
  endfacet
  facet normal 1.600117e+00 9.792336e+00 -1.045153e+00
    outer loop
      vertex   1.779398e+00 -5.548838e+00 9.456238e+00
      vertex   7.921948e+00 -8.424612e+00 -8.083537e+00
      vertex   6.254631e-01 -5.415587e+00 8.938038e+00
    endloop
  endfacet
  facet normal 2.556355e+00 -6.272936e+00 -7.305565e+00
    outer loop
      vertex   1.816140e+00 -5.463987e+00 9.396237e+00
      vertex   1.779398e+00 -5.548838e+00 9.456238e+00
      vertex   6.255004e-01 -5.415512e+00 8.937987e+00
    endloop
  endfacet
  facet normal 2.580288e+00 -6.244372e+00 -7.351504e+00
    outer loop
      vertex   6.255004e-01 -5.415512e+00 8.937987e+00
      vertex   1.779398e+00 -5.548838e+00 9.456238e+00
      vertex   6.254631e-01 -5.415587e+00 8.938038e+00
    endloop
  endfacet
  facet normal 1.604527e+00 9.814509e+00 -1.049241e+00
    outer loop
      vertex   9.075924e+00 -8.557888e+00 -7.565437e+00
      vertex   7.921999e+00 -8.424637e+00 -8.083637e+00
      vertex   9.033049e+00 -8.540188e+00 -7.465437e+00
    endloop
  endfacet
  facet normal 1.659356e-04 8.747270e-04 -1.347263e-04
    outer loop
      vertex   9.033049e+00 -8.540188e+00 -7.465437e+00
      vertex   7.921999e+00 -8.424637e+00 -8.083637e+00
      vertex   7.921948e+00 -8.424612e+00 -8.083537e+00
    endloop
  endfacet
  facet normal -3.600730e-01 -3.037809e-01 7.236936e-01
    outer loop
      vertex   7.921999e+00 -8.424637e+00 -8.083637e+00
      vertex   9.075924e+00 -8.557888e+00 -7.565437e+00
      vertex   9.069798e+00 -8.455337e+00 -7.525437e+00
    endloop
  endfacet
  facet normal -4.173192e+00 -3.169838e+00 8.406801e+00
    outer loop
      vertex   7.921973e+00 -8.424538e+00 -8.083612e+00
      vertex   7.921999e+00 -8.424637e+00 -8.083637e+00
      vertex   9.069798e+00 -8.455337e+00 -7.525437e+00
    endloop
  endfacet
  facet normal -4.120380e+00 -3.476833e+00 8.281260e+00
    outer loop
      vertex   7.921973e+00 -8.424538e+00 -8.083612e+00
      vertex   9.069798e+00 -8.455337e+00 -7.525437e+00
      vertex   8.033573e+00 8.894538e+00 -7.567846e-01
    endloop
  endfacet
  facet normal -4.169724e+00 -3.518516e+00 8.380540e+00
    outer loop
      vertex   6.879648e+00 9.027763e+00 -1.274984e+00
      vertex   7.921973e+00 -8.424538e+00 -8.083612e+00
      vertex   8.033573e+00 8.894538e+00 -7.567846e-01
    endloop
  endfacet
  facet normal 2.566098e+00 -6.296312e+00 -7.332911e+00
    outer loop
      vertex   8.033573e+00 8.894538e+00 -7.567846e-01
      vertex   1.816140e+00 -5.463987e+00 9.396237e+00
      vertex   6.879648e+00 9.027763e+00 -1.274984e+00
    endloop
  endfacet
  facet normal 1.745731e-01 -4.283650e-01 -4.988938e-01
    outer loop
      vertex   6.879648e+00 9.027763e+00 -1.274984e+00
      vertex   1.816140e+00 -5.463987e+00 9.396237e+00
      vertex   6.255004e-01 -5.415512e+00 8.937987e+00
    endloop
  endfacet
  facet normal -4.432699e-01 -1.775136e+00 4.495263e+00
    outer loop
      vertex   6.878498e+00 9.028313e+00 -1.276717e+00
      vertex   6.880223e+00 9.031313e+00 -1.275362e+00
      vertex   -8.760427e+00 1.202561e-03 -6.383562e+00
    endloop
  endfacet
  facet normal -5.048424e-01 -1.998693e+00 5.068704e+00
    outer loop
      vertex   6.878598e+00 9.028363e+00 -1.276687e+00
      vertex   6.880223e+00 9.031313e+00 -1.275362e+00
      vertex   6.878498e+00 9.028313e+00 -1.276717e+00
    endloop
  endfacet
  facet normal -4.475093e-01 -1.843536e+00 4.629152e+00
    outer loop
      vertex   -8.756827e+00 1.270063e-03 -6.383187e+00
      vertex   6.878498e+00 9.028313e+00 -1.276717e+00
      vertex   -8.760427e+00 1.202561e-03 -6.383562e+00
    endloop
  endfacet
  facet normal -8.645886e-05 -3.516364e-04 8.933966e-04
    outer loop
      vertex   7.920848e+00 -8.423987e+00 -8.085338e+00
      vertex   -8.756827e+00 1.270063e-03 -6.383187e+00
      vertex   -8.760427e+00 1.202561e-03 -6.383562e+00
    endloop
  endfacet
  facet normal -8.593766e-05 -3.534150e-04 8.927408e-04
    outer loop
      vertex   7.922924e+00 -8.426912e+00 -8.086287e+00
      vertex   6.880223e+00 9.031313e+00 -1.275362e+00
      vertex   6.878598e+00 9.028363e+00 -1.276687e+00
    endloop
  endfacet
  facet normal -4.282233e-01 -1.781861e+00 4.624075e+00
    outer loop
      vertex   7.922924e+00 -8.426912e+00 -8.086287e+00
      vertex   7.920948e+00 -8.424037e+00 -8.085362e+00
      vertex   -8.760427e+00 1.202561e-03 -6.383562e+00
    endloop
  endfacet
  facet normal -3.969785e-02 -7.489743e-02 1.480326e-01
    outer loop
      vertex   7.922924e+00 -8.426912e+00 -8.086287e+00
      vertex   7.920948e+00 -8.423937e+00 -8.085312e+00
      vertex   7.920948e+00 -8.424037e+00 -8.085362e+00
    endloop
  endfacet
  facet normal -5.899891e-01 -1.150824e+00 -8.570824e-02
    outer loop
      vertex   7.920948e+00 -8.424037e+00 -8.085362e+00
      vertex   7.920848e+00 -8.423987e+00 -8.085338e+00
      vertex   -8.760427e+00 1.202561e-03 -6.383562e+00
    endloop
  endfacet
  facet normal -9.144651e-05 -3.530770e-04 8.910296e-04
    outer loop
      vertex   6.878598e+00 9.028363e+00 -1.276687e+00
      vertex   7.920948e+00 -8.423937e+00 -8.085312e+00
      vertex   7.922924e+00 -8.426912e+00 -8.086287e+00
    endloop
  endfacet
  facet normal 2.715198e+00 -3.164081e+00 -2.781383e+00
    outer loop
      vertex   -8.757627e+00 1.605079e-03 -6.381287e+00
      vertex   6.239555e-01 -5.416862e+00 8.941063e+00
      vertex   -8.760427e+00 1.202561e-03 -6.383562e+00
    endloop
  endfacet
  facet normal 2.630350e+00 -3.066803e+00 -2.695032e+00
    outer loop
      vertex   6.235530e-01 -5.414638e+00 8.938139e+00
      vertex   6.239555e-01 -5.416862e+00 8.941063e+00
      vertex   -8.757627e+00 1.605079e-03 -6.381287e+00
    endloop
  endfacet
  facet normal 5.251075e-04 -6.046289e-04 -5.389681e-04
    outer loop
      vertex   6.880223e+00 9.031313e+00 -1.275362e+00
      vertex   -8.757627e+00 1.605079e-03 -6.381287e+00
      vertex   -8.760427e+00 1.202561e-03 -6.383562e+00
    endloop
  endfacet
  facet normal 3.555784e+00 -2.864800e+00 -2.668706e+00
    outer loop
      vertex   6.236080e-01 -5.414662e+00 8.938238e+00
      vertex   6.239555e-01 -5.416862e+00 8.941063e+00
      vertex   6.235530e-01 -5.414638e+00 8.938139e+00
    endloop
  endfacet
  facet normal 5.206462e-04 -6.026487e-04 -5.334421e-04
    outer loop
      vertex   6.880223e+00 9.031313e+00 -1.275362e+00
      vertex   6.239555e-01 -5.416862e+00 8.941063e+00
      vertex   6.236080e-01 -5.414662e+00 8.938238e+00
    endloop
  endfacet
  facet normal 1.765526e-06 -2.452195e-06 -2.386830e-06
    outer loop
      vertex   6.880223e+00 9.031313e+00 -1.275362e+00
      vertex   6.236080e-01 -5.414662e+00 8.938238e+00
      vertex   6.236455e-01 -5.414562e+00 8.938163e+00
    endloop
  endfacet
  facet normal 2.723275e+00 -3.146409e+00 -2.776191e+00
    outer loop
      vertex   6.880223e+00 9.031313e+00 -1.275362e+00
      vertex   6.877798e+00 9.028713e+00 -1.274794e+00
      vertex   -8.757627e+00 1.605079e-03 -6.381287e+00
    endloop
  endfacet
  facet normal -1.189162e-06 -5.175746e-08 3.732556e-06
    outer loop
      vertex   6.877798e+00 9.028713e+00 -1.274794e+00
      vertex   -8.757552e+00 1.657605e-03 -6.381262e+00
      vertex   -8.757627e+00 1.605079e-03 -6.381287e+00
    endloop
  endfacet
  facet normal 5.210498e-04 -6.027166e-04 -5.332910e-04
    outer loop
      vertex   6.236455e-01 -5.414562e+00 8.938163e+00
      vertex   6.877798e+00 9.028713e+00 -1.274794e+00
      vertex   6.880223e+00 9.031313e+00 -1.275362e+00
    endloop
  endfacet
  facet normal 2.252369e+00 4.435370e+00 1.888485e-01
    outer loop
      vertex   -8.757527e+00 -3.349409e-04 -6.382037e+00
      vertex   -8.760427e+00 1.202561e-03 -6.383562e+00
      vertex   6.239555e-01 -5.416862e+00 8.941063e+00
    endloop
  endfacet
  facet normal 5.272312e-01 4.303318e-01 -1.706774e-01
    outer loop
      vertex   -8.757477e+00 -3.674626e-04 -6.381962e+00
      vertex   -8.757527e+00 -3.349409e-04 -6.382037e+00
      vertex   6.239555e-01 -5.416862e+00 8.941063e+00
    endloop
  endfacet
  facet normal 4.393346e-04 8.627108e-04 3.438506e-05
    outer loop
      vertex   7.922924e+00 -8.426912e+00 -8.086287e+00
      vertex   -8.760427e+00 1.202561e-03 -6.383562e+00
      vertex   -8.757527e+00 -3.349409e-04 -6.382037e+00
    endloop
  endfacet
  facet normal -3.709954e-06 -7.294210e-06 -2.455495e-07
    outer loop
      vertex   7.922924e+00 -8.426912e+00 -8.086287e+00
      vertex   -8.757527e+00 -3.349409e-04 -6.382037e+00
      vertex   -8.757427e+00 -3.850088e-04 -6.382062e+00
    endloop
  endfacet
  facet normal 2.255961e+00 4.427706e+00 1.877919e-01
    outer loop
      vertex   7.922924e+00 -8.426912e+00 -8.086287e+00
      vertex   -8.757427e+00 -3.850088e-04 -6.382062e+00
      vertex   7.920249e+00 -8.425637e+00 -8.084212e+00
    endloop
  endfacet
  facet normal 2.277051e+00 4.477095e+00 1.846348e-01
    outer loop
      vertex   7.922924e+00 -8.426912e+00 -8.086287e+00
      vertex   7.920249e+00 -8.425637e+00 -8.084212e+00
      vertex   6.239555e-01 -5.416862e+00 8.941063e+00
    endloop
  endfacet
  facet normal 4.369704e-04 8.575910e-04 3.570956e-05
    outer loop
      vertex   7.920249e+00 -8.425637e+00 -8.084212e+00
      vertex   6.237680e-01 -5.416613e+00 8.937363e+00
      vertex   6.239555e-01 -5.416862e+00 8.941063e+00
    endloop
  endfacet
  facet normal 2.888813e+00 4.233857e+00 1.393513e-01
    outer loop
      vertex   6.237680e-01 -5.416613e+00 8.937363e+00
      vertex   6.237256e-01 -5.416587e+00 8.937463e+00
      vertex   6.239555e-01 -5.416862e+00 8.941063e+00
    endloop
  endfacet
  facet normal 4.339985e-04 8.591326e-04 3.797945e-05
    outer loop
      vertex   -8.757477e+00 -3.674626e-04 -6.381962e+00
      vertex   6.239555e-01 -5.416862e+00 8.941063e+00
      vertex   6.237256e-01 -5.416587e+00 8.937463e+00
    endloop
  endfacet
  facet normal -4.525905e+00 5.197260e-01 -2.036542e+00
    outer loop
      vertex   6.254631e-01 -5.415587e+00 8.938038e+00
      vertex   6.239555e-01 -5.416862e+00 8.941063e+00
      vertex   6.880223e+00 9.031313e+00 -1.275362e+00
    endloop
  endfacet
  facet normal 1.908872e-01 -3.540092e-01 -3.838469e-01
    outer loop
      vertex   6.255004e-01 -5.415512e+00 8.937987e+00
      vertex   6.254631e-01 -5.415587e+00 8.938038e+00
      vertex   6.880223e+00 9.031313e+00 -1.275362e+00
    endloop
  endfacet
  facet normal -8.748347e-04 1.019994e-04 -3.930391e-04
    outer loop
      vertex   7.922924e+00 -8.426912e+00 -8.086287e+00
      vertex   6.239555e-01 -5.416862e+00 8.941063e+00
      vertex   6.254631e-01 -5.415587e+00 8.938038e+00
    endloop
  endfacet
  facet normal -4.428266e+00 4.959458e-01 -1.985897e+00
    outer loop
      vertex   7.922924e+00 -8.426912e+00 -8.086287e+00
      vertex   6.254631e-01 -5.415587e+00 8.938038e+00
      vertex   7.921948e+00 -8.424612e+00 -8.083537e+00
    endloop
  endfacet
  facet normal -1.202824e-01 3.100820e-02 -6.860921e-02
    outer loop
      vertex   7.922924e+00 -8.426912e+00 -8.086287e+00
      vertex   7.921948e+00 -8.424612e+00 -8.083537e+00
      vertex   7.921999e+00 -8.424637e+00 -8.083637e+00
    endloop
  endfacet
  facet normal -4.537323e+00 5.216325e-01 -2.031713e+00
    outer loop
      vertex   7.922924e+00 -8.426912e+00 -8.086287e+00
      vertex   7.921999e+00 -8.424637e+00 -8.083637e+00
      vertex   6.880223e+00 9.031313e+00 -1.275362e+00
    endloop
  endfacet
  facet normal 1.226402e+00 7.436572e-01 -1.719027e+00
    outer loop
      vertex   7.921999e+00 -8.424637e+00 -8.083637e+00
      vertex   7.921973e+00 -8.424538e+00 -8.083612e+00
      vertex   6.880223e+00 9.031313e+00 -1.275362e+00
    endloop
  endfacet
  facet normal -4.540051e+00 5.177547e-01 -2.047991e+00
    outer loop
      vertex   6.879648e+00 9.027763e+00 -1.274984e+00
      vertex   6.255004e-01 -5.415512e+00 8.937987e+00
      vertex   6.880223e+00 9.031313e+00 -1.275362e+00
    endloop
  endfacet
  facet normal -4.533869e+00 5.192046e-01 -2.024942e+00
    outer loop
      vertex   6.879648e+00 9.027763e+00 -1.274984e+00
      vertex   6.880223e+00 9.031313e+00 -1.275362e+00
      vertex   7.921973e+00 -8.424538e+00 -8.083612e+00
    endloop
  endfacet
endsolid
