solid ascii
  facet normal -1.609305e+00 -2.228123e+00 6.796518e+00
    outer loop
      vertex   9.680000e+00 -1.076740e+02 6.242001e+00
      vertex   1.149600e+01 -1.076740e+02 6.672000e+00
      vertex   1.217400e+01 -1.048205e+02 7.768001e+00
    endloop
  endfacet
  facet normal 0.000000e+00 -9.999998e+00 0.000000e+00
    outer loop
      vertex   1.010400e+01 -1.076740e+02 4.428000e+00
      vertex   1.192400e+01 -1.076740e+02 4.852000e+00
      vertex   9.680000e+00 -1.076740e+02 6.242001e+00
    endloop
  endfacet
  facet normal 0.000000e+00 -9.999989e+00 0.000000e+00
    outer loop
      vertex   1.149600e+01 -1.076740e+02 6.672000e+00
      vertex   9.680000e+00 -1.076740e+02 6.242001e+00
      vertex   1.192400e+01 -1.076740e+02 4.852000e+00
    endloop
  endfacet
  facet normal 6.798134e+00 -2.226664e+00 1.591777e+00
    outer loop
      vertex   1.301600e+01 -1.048205e+02 4.172000e+00
      vertex   1.217400e+01 -1.048205e+02 7.768001e+00
      vertex   1.149600e+01 -1.076740e+02 6.672000e+00
    endloop
  endfacet
  facet normal -1.594859e+00 -2.242570e+00 6.799923e+00
    outer loop
      vertex   1.217400e+01 -1.048205e+02 7.768001e+00
      vertex   8.584001e+00 -1.048205e+02 6.926000e+00
      vertex   9.680000e+00 -1.076740e+02 6.242001e+00
    endloop
  endfacet
  facet normal -6.800790e+00 -2.231102e+00 -1.589600e+00
    outer loop
      vertex   1.010400e+01 -1.076740e+02 4.428000e+00
      vertex   9.680000e+00 -1.076740e+02 6.242001e+00
      vertex   8.584001e+00 -1.048205e+02 6.926000e+00
    endloop
  endfacet
  facet normal 6.796598e+00 -2.220114e+00 1.598319e+00
    outer loop
      vertex   1.149600e+01 -1.076740e+02 6.672000e+00
      vertex   1.192400e+01 -1.076740e+02 4.852000e+00
      vertex   1.301600e+01 -1.048205e+02 4.172000e+00
    endloop
  endfacet
  facet normal 7.560506e+00 -4.125531e+00 1.770285e+00
    outer loop
      vertex   1.217400e+01 -1.048205e+02 7.768001e+00
      vertex   1.301600e+01 -1.048205e+02 4.172000e+00
      vertex   1.491800e+01 -1.006449e+02 5.780000e+00
    endloop
  endfacet
  facet normal 5.175790e+00 -6.453857e-01 5.788468e+00
    outer loop
      vertex   1.491800e+01 -1.006449e+02 5.780000e+00
      vertex   1.057200e+01 -1.006449e+02 9.666000e+00
      vertex   1.217400e+01 -1.048205e+02 7.768001e+00
    endloop
  endfacet
  facet normal -1.773765e+00 -4.118083e+00 7.562719e+00
    outer loop
      vertex   8.584001e+00 -1.048205e+02 6.926000e+00
      vertex   1.217400e+01 -1.048205e+02 7.768001e+00
      vertex   1.057200e+01 -1.006449e+02 9.666000e+00
    endloop
  endfacet
  facet normal 1.594486e+00 -2.230285e+00 -6.798340e+00
    outer loop
      vertex   9.426001e+00 -1.048205e+02 3.330000e+00
      vertex   1.301600e+01 -1.048205e+02 4.172000e+00
      vertex   1.192400e+01 -1.076740e+02 4.852000e+00
    endloop
  endfacet
  facet normal 1.584342e+00 -2.240429e+00 -6.800711e+00
    outer loop
      vertex   1.192400e+01 -1.076740e+02 4.852000e+00
      vertex   1.010400e+01 -1.076740e+02 4.428000e+00
      vertex   9.426001e+00 -1.048205e+02 3.330000e+00
    endloop
  endfacet
  facet normal 1.773427e+00 -4.120924e+00 -7.561285e+00
    outer loop
      vertex   1.301600e+01 -1.048205e+02 4.172000e+00
      vertex   9.426001e+00 -1.048205e+02 3.330000e+00
      vertex   1.102800e+01 -1.006449e+02 1.430000e+00
    endloop
  endfacet
  facet normal 5.789287e+00 -6.433690e-01 -5.177087e+00
    outer loop
      vertex   1.102800e+01 -1.006449e+02 1.430000e+00
      vertex   1.491800e+01 -1.006449e+02 5.780000e+00
      vertex   1.301600e+01 -1.048205e+02 4.172000e+00
    endloop
  endfacet
  facet normal -5.789203e+00 -6.424421e-01 5.179391e+00
    outer loop
      vertex   1.057200e+01 -1.006449e+02 9.666000e+00
      vertex   6.682000e+00 -1.006449e+02 5.318000e+00
      vertex   8.584001e+00 -1.048205e+02 6.926000e+00
    endloop
  endfacet
  facet normal -7.560507e+00 -4.125531e+00 -1.770286e+00
    outer loop
      vertex   9.426001e+00 -1.048205e+02 3.330000e+00
      vertex   8.584001e+00 -1.048205e+02 6.926000e+00
      vertex   6.682000e+00 -1.006449e+02 5.318000e+00
    endloop
  endfacet
  facet normal -6.800169e+00 -2.228448e+00 -1.592254e+00
    outer loop
      vertex   8.584001e+00 -1.048205e+02 6.926000e+00
      vertex   9.426001e+00 -1.048205e+02 3.330000e+00
      vertex   1.010400e+01 -1.076740e+02 4.428000e+00
    endloop
  endfacet
  facet normal 7.368649e+00 -1.447386e-02 -6.589437e+00
    outer loop
      vertex   1.491800e+01 -1.006449e+02 5.780000e+00
      vertex   1.102800e+01 -1.006449e+02 1.430000e+00
      vertex   1.237600e+01 -7.542122e+01 2.882000e+00
    endloop
  endfacet
  facet normal 7.425409e+00 -1.390142e-02 -6.652075e+00
    outer loop
      vertex   1.237600e+01 -7.542122e+01 2.882000e+00
      vertex   1.102800e+01 -1.006449e+02 1.430000e+00
      vertex   1.043200e+01 -7.542122e+01 7.120001e-01
    endloop
  endfacet
  facet normal 8.499084e-01 -1.644607e-03 -7.613930e-01
    outer loop
      vertex   9.834001e+00 -5.019888e+01 -1.000000e-02
      vertex   1.237600e+01 -7.542122e+01 2.882000e+00
      vertex   1.043200e+01 -7.542122e+01 7.120001e-01
    endloop
  endfacet
  facet normal 7.428283e+00 7.759421e-04 -6.522520e+00
    outer loop
      vertex   9.834001e+00 -5.019888e+01 -1.000000e-02
      vertex   1.491800e+01 -5.019888e+01 5.780000e+00
      vertex   1.237600e+01 -7.542122e+01 2.882000e+00
    endloop
  endfacet
  facet normal 7.431433e+00 0.000000e+00 -6.518530e+00
    outer loop
      vertex   1.237600e+01 -7.542122e+01 2.882000e+00
      vertex   1.491800e+01 -5.019888e+01 5.780000e+00
      vertex   1.491800e+01 -7.542122e+01 5.780000e+00
    endloop
  endfacet
  facet normal 7.517727e+00 0.000000e+00 -6.594223e+00
    outer loop
      vertex   1.491800e+01 -7.542122e+01 5.780000e+00
      vertex   1.491800e+01 -1.006449e+02 5.780000e+00
      vertex   1.237600e+01 -7.542122e+01 2.882000e+00
    endloop
  endfacet
  facet normal 6.621509e+00 -1.143548e-03 7.405322e+00
    outer loop
      vertex   1.057200e+01 -1.006449e+02 9.666000e+00
      vertex   1.491800e+01 -1.006449e+02 5.780000e+00
      vertex   1.274600e+01 -7.542122e+01 7.726001e+00
    endloop
  endfacet
  facet normal 7.664328e-01 0.000000e+00 8.554426e-01
    outer loop
      vertex   1.491800e+01 -5.019888e+01 5.780000e+00
      vertex   1.274600e+01 -7.542122e+01 7.726001e+00
      vertex   1.491800e+01 -7.542122e+01 5.780000e+00
    endloop
  endfacet
  facet normal 6.672960e+00 0.000000e+00 7.447927e+00
    outer loop
      vertex   1.491800e+01 -7.542122e+01 5.780000e+00
      vertex   1.274600e+01 -7.542122e+01 7.726001e+00
      vertex   1.491800e+01 -1.006449e+02 5.780000e+00
    endloop
  endfacet
  facet normal 6.621429e+00 1.143594e-03 7.405233e+00
    outer loop
      vertex   1.491800e+01 -5.019888e+01 5.780000e+00
      vertex   1.057200e+01 -5.019888e+01 9.666000e+00
      vertex   1.274600e+01 -7.542122e+01 7.726001e+00
    endloop
  endfacet
  facet normal 6.658109e+00 0.000000e+00 7.461205e+00
    outer loop
      vertex   1.057200e+01 -7.542122e+01 9.666000e+00
      vertex   1.274600e+01 -7.542122e+01 7.726001e+00
      vertex   1.057200e+01 -5.019888e+01 9.666000e+00
    endloop
  endfacet
  facet normal 7.640380e-01 0.000000e+00 8.561957e-01
    outer loop
      vertex   1.057200e+01 -1.006449e+02 9.666000e+00
      vertex   1.274600e+01 -7.542122e+01 7.726001e+00
      vertex   1.057200e+01 -7.542122e+01 9.666000e+00
    endloop
  endfacet
  facet normal -7.403312e+00 -8.187252e-04 6.623476e+00
    outer loop
      vertex   6.682000e+00 -1.006449e+02 5.318000e+00
      vertex   1.057200e+01 -1.006449e+02 9.666000e+00
      vertex   8.626000e+00 -7.542122e+01 7.494001e+00
    endloop
  endfacet
  facet normal -7.447928e+00 0.000000e+00 6.672957e+00
    outer loop
      vertex   1.057200e+01 -7.542122e+01 9.666000e+00
      vertex   8.626000e+00 -7.542122e+01 7.494001e+00
      vertex   1.057200e+01 -1.006449e+02 9.666000e+00
    endloop
  endfacet
  facet normal -7.398639e+00 0.000000e+00 6.628797e+00
    outer loop
      vertex   8.626000e+00 -7.542122e+01 7.494001e+00
      vertex   1.057200e+01 -7.542122e+01 9.666000e+00
      vertex   1.057200e+01 -5.019888e+01 9.666000e+00
    endloop
  endfacet
  facet normal -5.177271e+00 -6.469893e-01 -5.787146e+00
    outer loop
      vertex   6.682000e+00 -1.006449e+02 5.318000e+00
      vertex   1.102800e+01 -1.006449e+02 1.430000e+00
      vertex   9.426001e+00 -1.048205e+02 3.330000e+00
    endloop
  endfacet
  facet normal -6.635814e+00 2.935878e-01 -7.417502e+00
    outer loop
      vertex   1.102800e+01 -1.006449e+02 1.430000e+00
      vertex   6.682000e+00 -1.006449e+02 5.318000e+00
      vertex   9.772000e+00 -7.542122e+01 3.552000e+00
    endloop
  endfacet
  facet normal -6.607117e+00 2.930321e-01 -7.375226e+00
    outer loop
      vertex   9.772000e+00 -7.542122e+01 3.552000e+00
      vertex   6.682000e+00 -1.006449e+02 5.318000e+00
      vertex   7.602000e+00 -7.542122e+01 5.496001e+00
    endloop
  endfacet
  facet normal -7.665661e-01 3.381736e-02 -8.556831e-01
    outer loop
      vertex   8.516001e+00 -5.019888e+01 5.674000e+00
      vertex   9.772000e+00 -7.542122e+01 3.552000e+00
      vertex   7.602000e+00 -7.542122e+01 5.496001e+00
    endloop
  endfacet
  facet normal -9.695314e+00 -2.936587e-01 -2.248139e+00
    outer loop
      vertex   8.516001e+00 -5.019888e+01 5.674000e+00
      vertex   9.834001e+00 -5.019888e+01 -1.000000e-02
      vertex   9.772000e+00 -7.542122e+01 3.552000e+00
    endloop
  endfacet
  facet normal -9.644700e+00 -2.928277e-01 -2.241373e+00
    outer loop
      vertex   9.772000e+00 -7.542122e+01 3.552000e+00
      vertex   9.834001e+00 -5.019888e+01 -1.000000e-02
      vertex   1.043200e+01 -7.542122e+01 7.120001e-01
    endloop
  endfacet
  facet normal -1.119819e+00 -3.386756e-02 -2.602395e-01
    outer loop
      vertex   1.102800e+01 -1.006449e+02 1.430000e+00
      vertex   9.772000e+00 -7.542122e+01 3.552000e+00
      vertex   1.043200e+01 -7.542122e+01 7.120001e-01
    endloop
  endfacet
  facet normal -8.831352e+00 2.896902e-01 4.548408e+00
    outer loop
      vertex   1.057200e+01 -5.019888e+01 9.666000e+00
      vertex   8.516001e+00 -5.019888e+01 5.674000e+00
      vertex   8.626000e+00 -7.542122e+01 7.494001e+00
    endloop
  endfacet
  facet normal -8.876125e+00 2.895467e-01 4.549125e+00
    outer loop
      vertex   8.626000e+00 -7.542122e+01 7.494001e+00
      vertex   8.516001e+00 -5.019888e+01 5.674000e+00
      vertex   7.602000e+00 -7.542122e+01 5.496001e+00
    endloop
  endfacet
  facet normal -7.863235e-01 2.583618e-02 4.030006e-01
    outer loop
      vertex   6.682000e+00 -1.006449e+02 5.318000e+00
      vertex   8.626000e+00 -7.542122e+01 7.494001e+00
      vertex   7.602000e+00 -7.542122e+01 5.496001e+00
    endloop
  endfacet
  facet normal -9.733429e+00 -2.255832e-01 -2.256976e+00
    outer loop
      vertex   9.834001e+00 -5.019888e+01 -1.000000e-02
      vertex   8.516001e+00 -5.019888e+01 5.674000e+00
      vertex   8.892000e+00 -1.845812e+01 8.800001e-01
    endloop
  endfacet
  facet normal -9.631534e+00 -2.232888e-01 -2.233794e+00
    outer loop
      vertex   8.892000e+00 -1.845812e+01 8.800001e-01
      vertex   8.516001e+00 -5.019888e+01 5.674000e+00
      vertex   7.904000e+00 -1.845812e+01 5.140000e+00
    endloop
  endfacet
  facet normal -9.685699e+00 -2.255833e-01 -2.252483e+00
    outer loop
      vertex   7.948000e+00 1.328266e+01 1.772000e+00
      vertex   7.904000e+00 -1.845812e+01 5.140000e+00
      vertex   7.288001e+00 1.328266e+01 4.610000e+00
    endloop
  endfacet
  facet normal -9.724647e+00 -2.264867e-01 -2.246253e+00
    outer loop
      vertex   7.000000e+00 4.502797e+01 2.656000e+00
      vertex   7.288001e+00 1.328266e+01 4.610000e+00
      vertex   6.672000e+00 4.502797e+01 4.076000e+00
    endloop
  endfacet
  facet normal -4.468536e-01 -1.038914e-02 -1.032168e-01
    outer loop
      vertex   6.056001e+00 7.676878e+01 3.548000e+00
      vertex   7.000000e+00 4.502797e+01 2.656000e+00
      vertex   6.672000e+00 4.502797e+01 4.076000e+00
    endloop
  endfacet
  facet normal -9.733294e+00 -2.260385e-01 -2.257395e+00
    outer loop
      vertex   8.892000e+00 -1.845812e+01 8.800001e-01
      vertex   7.904000e+00 -1.845812e+01 5.140000e+00
      vertex   7.948000e+00 1.328266e+01 1.772000e+00
    endloop
  endfacet
  facet normal -9.731972e+00 -2.275991e-01 -2.263245e+00
    outer loop
      vertex   7.948000e+00 1.328266e+01 1.772000e+00
      vertex   7.288001e+00 1.328266e+01 4.610000e+00
      vertex   7.000000e+00 4.502797e+01 2.656000e+00
    endloop
  endfacet
  facet normal -5.752201e+00 5.851646e-02 -8.169764e+00
    outer loop
      vertex   6.056001e+00 7.676878e+01 3.548000e+00
      vertex   1.423400e+01 7.676878e+01 -2.210000e+00
      vertex   7.000000e+00 4.502797e+01 2.656000e+00
    endloop
  endfacet
  facet normal -5.551888e+00 5.663428e-02 -7.884247e+00
    outer loop
      vertex   7.000000e+00 4.502797e+01 2.656000e+00
      vertex   1.423400e+01 7.676878e+01 -2.210000e+00
      vertex   1.313200e+01 4.502797e+01 -1.662000e+00
    endloop
  endfacet
  facet normal -5.653735e+00 5.556841e-02 -8.021236e+00
    outer loop
      vertex   7.948000e+00 1.328266e+01 1.772000e+00
      vertex   1.313200e+01 4.502797e+01 -1.662000e+00
      vertex   1.203400e+01 1.328266e+01 -1.108000e+00
    endloop
  endfacet
  facet normal -5.711131e+00 5.640022e-02 -8.125847e+00
    outer loop
      vertex   8.892000e+00 -1.845812e+01 8.800001e-01
      vertex   1.203400e+01 1.328266e+01 -1.108000e+00
      vertex   1.093800e+01 -1.845812e+01 -5.580000e-01
    endloop
  endfacet
  facet normal -4.523273e-01 4.621491e-03 -6.435751e-01
    outer loop
      vertex   9.834001e+00 -5.019888e+01 -1.000000e-02
      vertex   8.892000e+00 -1.845812e+01 8.800001e-01
      vertex   1.093800e+01 -1.845812e+01 -5.580000e-01
    endloop
  endfacet
  facet normal -5.752717e+00 5.569997e-02 -8.169443e+00
    outer loop
      vertex   7.000000e+00 4.502797e+01 2.656000e+00
      vertex   1.313200e+01 4.502797e+01 -1.662000e+00
      vertex   7.948000e+00 1.328266e+01 1.772000e+00
    endloop
  endfacet
  facet normal -5.756359e+00 5.831015e-02 -8.166834e+00
    outer loop
      vertex   7.948000e+00 1.328266e+01 1.772000e+00
      vertex   1.203400e+01 1.328266e+01 -1.108000e+00
      vertex   8.892000e+00 -1.845812e+01 8.800001e-01
    endloop
  endfacet
  facet normal 7.499421e+00 -3.743994e-01 -6.584984e+00
    outer loop
      vertex   1.491800e+01 -5.019888e+01 5.780000e+00
      vertex   9.834001e+00 -5.019888e+01 -1.000000e-02
      vertex   1.475000e+01 -1.845812e+01 3.784000e+00
    endloop
  endfacet
  facet normal 7.375005e+00 -3.683019e-01 -6.474787e+00
    outer loop
      vertex   1.475000e+01 -1.845812e+01 3.784000e+00
      vertex   9.834001e+00 -5.019888e+01 -1.000000e-02
      vertex   1.093800e+01 -1.845812e+01 -5.580000e-01
    endloop
  endfacet
  facet normal 7.444332e+00 -3.703554e-01 -6.538870e+00
    outer loop
      vertex   1.457600e+01 1.328266e+01 1.786000e+00
      vertex   1.093800e+01 -1.845812e+01 -5.580000e-01
      vertex   1.203400e+01 1.328266e+01 -1.108000e+00
    endloop
  endfacet
  facet normal 7.498738e+00 -3.739832e-01 -6.567865e+00
    outer loop
      vertex   1.440200e+01 4.502797e+01 -2.120000e-01
      vertex   1.203400e+01 1.328266e+01 -1.108000e+00
      vertex   1.313200e+01 4.502797e+01 -1.662000e+00
    endloop
  endfacet
  facet normal 4.555740e-01 -2.270597e-02 -3.990203e-01
    outer loop
      vertex   1.423400e+01 7.676878e+01 -2.210000e+00
      vertex   1.440200e+01 4.502797e+01 -2.120000e-01
      vertex   1.313200e+01 4.502797e+01 -1.662000e+00
    endloop
  endfacet
  facet normal 7.499864e+00 -3.733576e-01 -6.584405e+00
    outer loop
      vertex   1.475000e+01 -1.845812e+01 3.784000e+00
      vertex   1.093800e+01 -1.845812e+01 -5.580000e-01
      vertex   1.457600e+01 1.328266e+01 1.786000e+00
    endloop
  endfacet
  facet normal 7.498260e+00 -3.734289e-01 -6.586239e+00
    outer loop
      vertex   1.457600e+01 1.328266e+01 1.786000e+00
      vertex   1.203400e+01 1.328266e+01 -1.108000e+00
      vertex   1.440200e+01 4.502797e+01 -2.120000e-01
    endloop
  endfacet
  facet normal 9.909990e+00 -2.188533e-02 -1.180951e+00
    outer loop
      vertex   1.423400e+01 7.676878e+01 -2.210000e+00
      vertex   1.574600e+01 7.676878e+01 1.047800e+01
      vertex   1.440200e+01 4.502797e+01 -2.120000e-01
    endloop
  endfacet
  facet normal 9.402576e+00 -2.009975e-02 -1.122459e+00
    outer loop
      vertex   1.440200e+01 4.502797e+01 -2.120000e-01
      vertex   1.574600e+01 7.676878e+01 1.047800e+01
      vertex   1.553800e+01 4.502797e+01 9.304001e+00
    endloop
  endfacet
  facet normal 9.658281e+00 -2.010942e-02 -1.150956e+00
    outer loop
      vertex   1.457600e+01 1.328266e+01 1.786000e+00
      vertex   1.553800e+01 4.502797e+01 9.304001e+00
      vertex   1.533200e+01 1.328266e+01 8.130000e+00
    endloop
  endfacet
  facet normal 9.837779e+00 -2.156491e-02 -1.159940e+00
    outer loop
      vertex   1.475000e+01 -1.845812e+01 3.784000e+00
      vertex   1.533200e+01 1.328266e+01 8.130000e+00
      vertex   1.512400e+01 -1.845812e+01 6.956000e+00
    endloop
  endfacet
  facet normal 9.924189e+00 -2.105521e-02 -1.170128e+00
    outer loop
      vertex   1.512400e+01 -1.845812e+01 6.956000e+00
      vertex   1.491800e+01 -5.019888e+01 5.780000e+00
      vertex   1.475000e+01 -1.845812e+01 3.784000e+00
    endloop
  endfacet
  facet normal 9.909740e+00 -2.014011e-02 -1.183003e+00
    outer loop
      vertex   1.440200e+01 4.502797e+01 -2.120000e-01
      vertex   1.553800e+01 4.502797e+01 9.304001e+00
      vertex   1.457600e+01 1.328266e+01 1.786000e+00
    endloop
  endfacet
  facet normal 9.909980e+00 -2.001208e-02 -1.180950e+00
    outer loop
      vertex   1.457600e+01 1.328266e+01 1.786000e+00
      vertex   1.533200e+01 1.328266e+01 8.130000e+00
      vertex   1.475000e+01 -1.845812e+01 3.784000e+00
    endloop
  endfacet
  facet normal 6.659869e+00 -3.198479e-01 7.448223e+00
    outer loop
      vertex   1.057200e+01 -5.019888e+01 9.666000e+00
      vertex   1.491800e+01 -5.019888e+01 5.780000e+00
      vertex   1.186600e+01 -1.845812e+01 9.872001e+00
    endloop
  endfacet
  facet normal 6.584540e+00 -3.153045e-01 7.356797e+00
    outer loop
      vertex   1.186600e+01 -1.845812e+01 9.872001e+00
      vertex   1.491800e+01 -5.019888e+01 5.780000e+00
      vertex   1.512400e+01 -1.845812e+01 6.956000e+00
    endloop
  endfacet
  facet normal 6.617836e+00 -3.173538e-01 7.407618e+00
    outer loop
      vertex   1.315600e+01 1.328266e+01 1.007400e+01
      vertex   1.512400e+01 -1.845812e+01 6.956000e+00
      vertex   1.533200e+01 1.328266e+01 8.130000e+00
    endloop
  endfacet
  facet normal 6.656675e+00 -3.187514e-01 7.451092e+00
    outer loop
      vertex   1.315600e+01 1.328266e+01 1.007400e+01
      vertex   1.533200e+01 1.328266e+01 8.130000e+00
      vertex   1.445000e+01 4.502797e+01 1.027600e+01
    endloop
  endfacet
  facet normal 6.657647e+00 -3.187978e-01 7.452178e+00
    outer loop
      vertex   1.553800e+01 4.502797e+01 9.304001e+00
      vertex   1.445000e+01 4.502797e+01 1.027600e+01
      vertex   1.533200e+01 1.328266e+01 8.130000e+00
    endloop
  endfacet
  facet normal 3.057535e-01 -1.466217e-02 3.422425e-01
    outer loop
      vertex   1.574600e+01 7.676878e+01 1.047800e+01
      vertex   1.445000e+01 4.502797e+01 1.027600e+01
      vertex   1.553800e+01 4.502797e+01 9.304001e+00
    endloop
  endfacet
  facet normal 6.663518e+00 -3.181973e-01 7.445038e+00
    outer loop
      vertex   1.186600e+01 -1.845812e+01 9.872001e+00
      vertex   1.512400e+01 -1.845812e+01 6.956000e+00
      vertex   1.315600e+01 1.328266e+01 1.007400e+01
    endloop
  endfacet
  facet normal 0.000000e+00 -6.358586e-02 9.991473e+00
    outer loop
      vertex   1.574600e+01 7.676878e+01 1.047800e+01
      vertex   5.744000e+00 7.676878e+01 1.047800e+01
      vertex   1.445000e+01 4.502797e+01 1.027600e+01
    endloop
  endfacet
  facet normal 0.000000e+00 -6.137222e-02 9.643635e+00
    outer loop
      vertex   1.445000e+01 4.502797e+01 1.027600e+01
      vertex   5.744000e+00 7.676878e+01 1.047800e+01
      vertex   6.952000e+00 4.502797e+01 1.027600e+01
    endloop
  endfacet
  facet normal 0.000000e+00 -6.357743e-02 9.991501e+00
    outer loop
      vertex   1.445000e+01 4.502797e+01 1.027600e+01
      vertex   6.952000e+00 4.502797e+01 1.027600e+01
      vertex   1.315600e+01 1.328266e+01 1.007400e+01
    endloop
  endfacet
  facet normal 0.000000e+00 -6.244888e-02 9.814145e+00
    outer loop
      vertex   1.315600e+01 1.328266e+01 1.007400e+01
      vertex   6.952000e+00 4.502797e+01 1.027600e+01
      vertex   8.160001e+00 1.328266e+01 1.007400e+01
    endloop
  endfacet
  facet normal 0.000000e+00 -6.358660e-02 9.991549e+00
    outer loop
      vertex   1.315600e+01 1.328266e+01 1.007400e+01
      vertex   8.160001e+00 1.328266e+01 1.007400e+01
      vertex   1.186600e+01 -1.845812e+01 9.872001e+00
    endloop
  endfacet
  facet normal 0.000000e+00 -6.320971e-02 9.932328e+00
    outer loop
      vertex   1.186600e+01 -1.845812e+01 9.872001e+00
      vertex   8.160001e+00 1.328266e+01 1.007400e+01
      vertex   9.364000e+00 -1.845812e+01 9.872001e+00
    endloop
  endfacet
  facet normal 0.000000e+00 -5.107721e-03 7.870039e-01
    outer loop
      vertex   1.057200e+01 -5.019888e+01 9.666000e+00
      vertex   1.186600e+01 -1.845812e+01 9.872001e+00
      vertex   9.364000e+00 -1.845812e+01 9.872001e+00
    endloop
  endfacet
  facet normal -8.881721e+00 -3.671348e-01 4.574348e+00
    outer loop
      vertex   8.516001e+00 -5.019888e+01 5.674000e+00
      vertex   1.057200e+01 -5.019888e+01 9.666000e+00
      vertex   7.822001e+00 -1.845812e+01 6.874001e+00
    endloop
  endfacet
  facet normal -8.825658e+00 -3.653506e-01 4.539413e+00
    outer loop
      vertex   7.822001e+00 -1.845812e+01 6.874001e+00
      vertex   1.057200e+01 -5.019888e+01 9.666000e+00
      vertex   9.364000e+00 -1.845812e+01 9.872001e+00
    endloop
  endfacet
  facet normal -8.852402e+00 -3.648342e-01 4.563555e+00
    outer loop
      vertex   7.130000e+00 1.328266e+01 8.076000e+00
      vertex   9.364000e+00 -1.845812e+01 9.872001e+00
      vertex   8.160001e+00 1.328266e+01 1.007400e+01
    endloop
  endfacet
  facet normal -8.870803e+00 -3.666860e-01 4.577337e+00
    outer loop
      vertex   6.436000e+00 4.502797e+01 9.276000e+00
      vertex   8.160001e+00 1.328266e+01 1.007400e+01
      vertex   6.952000e+00 4.502797e+01 1.027600e+01
    endloop
  endfacet
  facet normal -3.145175e-01 -1.300281e-02 1.622911e-01
    outer loop
      vertex   5.744000e+00 7.676878e+01 1.047800e+01
      vertex   6.436000e+00 4.502797e+01 9.276000e+00
      vertex   6.952000e+00 4.502797e+01 1.027600e+01
    endloop
  endfacet
  facet normal -8.884193e+00 -3.667342e-01 4.569521e+00
    outer loop
      vertex   7.822001e+00 -1.845812e+01 6.874001e+00
      vertex   9.364000e+00 -1.845812e+01 9.872001e+00
      vertex   7.130000e+00 1.328266e+01 8.076000e+00
    endloop
  endfacet
  facet normal -8.879964e+00 -3.671728e-01 4.577764e+00
    outer loop
      vertex   7.130000e+00 1.328266e+01 8.076000e+00
      vertex   8.160001e+00 1.328266e+01 1.007400e+01
      vertex   6.436000e+00 4.502797e+01 9.276000e+00
    endloop
  endfacet
  facet normal -9.980356e+00 -2.005716e-01 -4.493337e-01
    outer loop
      vertex   5.744000e+00 7.676878e+01 1.047800e+01
      vertex   6.056001e+00 7.676878e+01 3.548000e+00
      vertex   6.436000e+00 4.502797e+01 9.276000e+00
    endloop
  endfacet
  facet normal -9.830238e+00 -1.981985e-01 -4.461424e-01
    outer loop
      vertex   6.436000e+00 4.502797e+01 9.276000e+00
      vertex   6.056001e+00 7.676878e+01 3.548000e+00
      vertex   6.672000e+00 4.502797e+01 4.076000e+00
    endloop
  endfacet
  facet normal -9.910241e+00 -1.999024e-01 -4.517686e-01
    outer loop
      vertex   7.130000e+00 1.328266e+01 8.076000e+00
      vertex   6.672000e+00 4.502797e+01 4.076000e+00
      vertex   7.288001e+00 1.328266e+01 4.610000e+00
    endloop
  endfacet
  facet normal -9.962122e+00 -2.012028e-01 -4.710961e-01
    outer loop
      vertex   7.822001e+00 -1.845812e+01 6.874001e+00
      vertex   7.288001e+00 1.328266e+01 4.610000e+00
      vertex   7.904000e+00 -1.845812e+01 5.140000e+00
    endloop
  endfacet
  facet normal -5.456022e-01 -1.095396e-02 -2.580084e-02
    outer loop
      vertex   8.516001e+00 -5.019888e+01 5.674000e+00
      vertex   7.822001e+00 -1.845812e+01 6.874001e+00
      vertex   7.904000e+00 -1.845812e+01 5.140000e+00
    endloop
  endfacet
  facet normal -9.980206e+00 -2.010605e-01 -4.529487e-01
    outer loop
      vertex   6.436000e+00 4.502797e+01 9.276000e+00
      vertex   6.672000e+00 4.502797e+01 4.076000e+00
      vertex   7.130000e+00 1.328266e+01 8.076000e+00
    endloop
  endfacet
  facet normal -9.980103e+00 -2.003538e-01 -4.549533e-01
    outer loop
      vertex   7.130000e+00 1.328266e+01 8.076000e+00
      vertex   7.288001e+00 1.328266e+01 4.610000e+00
      vertex   7.822001e+00 -1.845812e+01 6.874001e+00
    endloop
  endfacet
  facet normal -9.970307e+00 -2.646908e-01 -4.488813e-01
    outer loop
      vertex   5.744000e+00 7.676878e+01 1.047800e+01
      vertex   5.054001e+00 1.055916e+02 8.808001e+00
      vertex   6.056001e+00 7.676878e+01 3.548000e+00
    endloop
  endfacet
  facet normal -1.577000e+00 -4.188297e-02 -7.090662e-02
    outer loop
      vertex   6.056001e+00 7.676878e+01 3.548000e+00
      vertex   5.054001e+00 1.055916e+02 8.808001e+00
      vertex   5.262000e+00 1.055916e+02 4.182000e+00
    endloop
  endfacet
  facet normal -9.933142e+00 -2.643933e-01 -4.466236e-01
    outer loop
      vertex   5.262000e+00 1.055916e+02 4.182000e+00
      vertex   5.054001e+00 1.055916e+02 8.808001e+00
      vertex   4.362000e+00 1.344176e+02 7.134001e+00
    endloop
  endfacet
  facet normal -9.932743e+00 -2.634827e-01 -4.553938e-01
    outer loop
      vertex   4.362000e+00 1.344176e+02 7.134001e+00
      vertex   4.468000e+00 1.344176e+02 4.822000e+00
      vertex   5.262000e+00 1.055916e+02 4.182000e+00
    endloop
  endfacet
  facet normal -9.983261e+00 -2.648241e-01 -4.577100e-01
    outer loop
      vertex   4.468000e+00 1.344176e+02 4.822000e+00
      vertex   4.362000e+00 1.344176e+02 7.134001e+00
      vertex   3.674000e+00 1.632434e+02 5.462000e+00
    endloop
  endfacet
  facet normal -7.031230e+00 -3.713922e-02 -7.065111e+00
    outer loop
      vertex   1.076400e+01 1.632434e+02 -1.594000e+00
      vertex   9.194000e+00 1.344176e+02 1.200000e-01
      vertex   3.674000e+00 1.632434e+02 5.462000e+00
    endloop
  endfacet
  facet normal -1.575186e+00 -8.236805e-03 -1.583226e+00
    outer loop
      vertex   3.674000e+00 1.632434e+02 5.462000e+00
      vertex   9.194000e+00 1.344176e+02 1.200000e-01
      vertex   4.468000e+00 1.344176e+02 4.822000e+00
    endloop
  endfacet
  facet normal -6.974171e+00 -3.743993e-02 -7.009769e+00
    outer loop
      vertex   4.468000e+00 1.344176e+02 4.822000e+00
      vertex   9.194000e+00 1.344176e+02 1.200000e-01
      vertex   7.626000e+00 1.055916e+02 1.834000e+00
    endloop
  endfacet
  facet normal -7.042642e+00 -3.803949e-02 -7.090633e+00
    outer loop
      vertex   5.262000e+00 1.055916e+02 4.182000e+00
      vertex   7.626000e+00 1.055916e+02 1.834000e+00
      vertex   6.056001e+00 7.676878e+01 3.548000e+00
    endloop
  endfacet
  facet normal -7.042611e+00 -3.655903e-02 -7.090601e+00
    outer loop
      vertex   5.262000e+00 1.055916e+02 4.182000e+00
      vertex   4.468000e+00 1.344176e+02 4.822000e+00
      vertex   7.626000e+00 1.055916e+02 1.834000e+00
    endloop
  endfacet
  facet normal -5.738385e+00 -1.720888e-01 -8.150141e+00
    outer loop
      vertex   6.056001e+00 7.676878e+01 3.548000e+00
      vertex   7.626000e+00 1.055916e+02 1.834000e+00
      vertex   1.423400e+01 7.676878e+01 -2.210000e+00
    endloop
  endfacet
  facet normal -1.284198e+00 -3.852182e-02 -1.823856e+00
    outer loop
      vertex   1.423400e+01 7.676878e+01 -2.210000e+00
      vertex   7.626000e+00 1.055916e+02 1.834000e+00
      vertex   1.307400e+01 1.055916e+02 -2.002000e+00
    endloop
  endfacet
  facet normal -5.690585e+00 -1.710125e-01 -8.081938e+00
    outer loop
      vertex   1.307400e+01 1.055916e+02 -2.002000e+00
      vertex   7.626000e+00 1.055916e+02 1.834000e+00
      vertex   9.194000e+00 1.344176e+02 1.200000e-01
    endloop
  endfacet
  facet normal -5.753579e+00 -1.723576e-01 -8.168884e+00
    outer loop
      vertex   1.192000e+01 1.344176e+02 -1.800000e+00
      vertex   9.194000e+00 1.344176e+02 1.200000e-01
      vertex   1.076400e+01 1.632434e+02 -1.594000e+00
    endloop
  endfacet
  facet normal -5.753601e+00 -1.730917e-01 -8.168915e+00
    outer loop
      vertex   1.192000e+01 1.344176e+02 -1.800000e+00
      vertex   1.307400e+01 1.055916e+02 -2.002000e+00
      vertex   9.194000e+00 1.344176e+02 1.200000e-01
    endloop
  endfacet
  facet normal 7.056028e+00 3.334477e-01 -7.018209e+00
    outer loop
      vertex   1.781600e+01 1.632434e+02 5.496001e+00
      vertex   1.662200e+01 1.344176e+02 2.926000e+00
      vertex   1.076400e+01 1.632434e+02 -1.594000e+00
    endloop
  endfacet
  facet normal 1.586707e+00 7.491321e-02 -1.578649e+00
    outer loop
      vertex   1.076400e+01 1.632434e+02 -1.594000e+00
      vertex   1.662200e+01 1.344176e+02 2.926000e+00
      vertex   1.192000e+01 1.344176e+02 -1.800000e+00
    endloop
  endfacet
  facet normal 7.017740e+00 3.308438e-01 -6.982101e+00
    outer loop
      vertex   1.192000e+01 1.344176e+02 -1.800000e+00
      vertex   1.662200e+01 1.344176e+02 2.926000e+00
      vertex   1.542800e+01 1.055916e+02 3.600000e-01
    endloop
  endfacet
  facet normal 7.077140e+00 3.357249e-01 -7.053168e+00
    outer loop
      vertex   1.307400e+01 1.055916e+02 -2.002000e+00
      vertex   1.542800e+01 1.055916e+02 3.600000e-01
      vertex   1.423400e+01 7.676878e+01 -2.210000e+00
    endloop
  endfacet
  facet normal 7.077210e+00 3.327506e-01 -7.053239e+00
    outer loop
      vertex   1.307400e+01 1.055916e+02 -2.002000e+00
      vertex   1.192000e+01 1.344176e+02 -1.800000e+00
      vertex   1.542800e+01 1.055916e+02 3.600000e-01
    endloop
  endfacet
  facet normal 9.882095e+00 -3.043673e-01 -1.177627e+00
    outer loop
      vertex   1.423400e+01 7.676878e+01 -2.210000e+00
      vertex   1.542800e+01 1.055916e+02 3.600000e-01
      vertex   1.574600e+01 7.676878e+01 1.047800e+01
    endloop
  endfacet
  facet normal 2.763319e+00 -8.488958e-02 -3.286710e-01
    outer loop
      vertex   1.574600e+01 7.676878e+01 1.047800e+01
      vertex   1.542800e+01 1.055916e+02 3.600000e-01
      vertex   1.643400e+01 1.055916e+02 8.818001e+00
    endloop
  endfacet
  facet normal 9.728658e+00 -2.999657e-01 -1.157133e+00
    outer loop
      vertex   1.643400e+01 1.055916e+02 8.818001e+00
      vertex   1.542800e+01 1.055916e+02 3.600000e-01
      vertex   1.662200e+01 1.344176e+02 2.926000e+00
    endloop
  endfacet
  facet normal 9.910003e+00 -3.048438e-01 -1.184893e+00
    outer loop
      vertex   1.712800e+01 1.344176e+02 7.158000e+00
      vertex   1.662200e+01 1.344176e+02 2.926000e+00
      vertex   1.781600e+01 1.632434e+02 5.496001e+00
    endloop
  endfacet
  facet normal 9.909993e+00 -3.068222e-01 -1.184892e+00
    outer loop
      vertex   1.712800e+01 1.344176e+02 7.158000e+00
      vertex   1.643400e+01 1.055916e+02 8.818001e+00
      vertex   1.662200e+01 1.344176e+02 2.926000e+00
    endloop
  endfacet
  facet normal 7.038183e+00 2.398388e-01 7.076108e+00
    outer loop
      vertex   1.072600e+01 1.632434e+02 1.254800e+01
      vertex   1.240000e+01 1.344176e+02 1.186000e+01
      vertex   1.781600e+01 1.632434e+02 5.496001e+00
    endloop
  endfacet
  facet normal 1.563630e+00 5.333221e-02 1.572276e+00
    outer loop
      vertex   1.781600e+01 1.632434e+02 5.496001e+00
      vertex   1.240000e+01 1.344176e+02 1.186000e+01
      vertex   1.712800e+01 1.344176e+02 7.158000e+00
    endloop
  endfacet
  facet normal 6.946051e+00 2.347417e-01 6.984460e+00
    outer loop
      vertex   1.712800e+01 1.344176e+02 7.158000e+00
      vertex   1.240000e+01 1.344176e+02 1.186000e+01
      vertex   1.407000e+01 1.055916e+02 1.116800e+01
    endloop
  endfacet
  facet normal 7.036373e+00 2.397038e-01 7.078297e+00
    outer loop
      vertex   1.643400e+01 1.055916e+02 8.818001e+00
      vertex   1.407000e+01 1.055916e+02 1.116800e+01
      vertex   1.574600e+01 7.676878e+01 1.047800e+01
    endloop
  endfacet
  facet normal 7.036341e+00 2.382126e-01 7.078264e+00
    outer loop
      vertex   1.643400e+01 1.055916e+02 8.818001e+00
      vertex   1.712800e+01 1.344176e+02 7.158000e+00
      vertex   1.407000e+01 1.055916e+02 1.116800e+01
    endloop
  endfacet
  facet normal 0.000000e+00 -2.299298e-01 9.604654e+00
    outer loop
      vertex   5.744000e+00 7.676878e+01 1.047800e+01
      vertex   1.574600e+01 7.676878e+01 1.047800e+01
      vertex   1.407000e+01 1.055916e+02 1.116800e+01
    endloop
  endfacet
  facet normal 3.469447e-17 -5.307391e-02 2.217010e+00
    outer loop
      vertex   5.744000e+00 7.676878e+01 1.047800e+01
      vertex   1.407000e+01 1.055916e+02 1.116800e+01
      vertex   7.404000e+00 1.055916e+02 1.116800e+01
    endloop
  endfacet
  facet normal -3.469447e-17 -2.731314e-02 1.137759e+00
    outer loop
      vertex   7.404000e+00 1.055916e+02 1.116800e+01
      vertex   1.240000e+01 1.344176e+02 1.186000e+01
      vertex   9.064000e+00 1.344176e+02 1.186000e+01
    endloop
  endfacet
  facet normal 0.000000e+00 -2.364685e-01 9.850354e+00
    outer loop
      vertex   7.404000e+00 1.055916e+02 1.116800e+01
      vertex   1.407000e+01 1.055916e+02 1.116800e+01
      vertex   1.240000e+01 1.344176e+02 1.186000e+01
    endloop
  endfacet
  facet normal 0.000000e+00 -2.382119e-01 9.980587e+00
    outer loop
      vertex   9.064000e+00 1.344176e+02 1.186000e+01
      vertex   1.240000e+01 1.344176e+02 1.186000e+01
      vertex   1.072600e+01 1.632434e+02 1.254800e+01
    endloop
  endfacet
  facet normal -7.074152e+00 2.395151e-01 7.040207e+00
    outer loop
      vertex   3.674000e+00 1.632434e+02 5.462000e+00
      vertex   4.362000e+00 1.344176e+02 7.134001e+00
      vertex   1.072600e+01 1.632434e+02 1.254800e+01
    endloop
  endfacet
  facet normal -1.571629e+00 5.329445e-02 1.563648e+00
    outer loop
      vertex   1.072600e+01 1.632434e+02 1.254800e+01
      vertex   4.362000e+00 1.344176e+02 7.134001e+00
      vertex   9.064000e+00 1.344176e+02 1.186000e+01
    endloop
  endfacet
  facet normal -6.983139e+00 2.358315e-01 6.947679e+00
    outer loop
      vertex   9.064000e+00 1.344176e+02 1.186000e+01
      vertex   4.362000e+00 1.344176e+02 7.134001e+00
      vertex   5.054001e+00 1.055916e+02 8.808001e+00
    endloop
  endfacet
  facet normal -7.072324e+00 2.387284e-01 7.042353e+00
    outer loop
      vertex   7.404000e+00 1.055916e+02 1.116800e+01
      vertex   5.054001e+00 1.055916e+02 8.808001e+00
      vertex   5.744000e+00 7.676878e+01 1.047800e+01
    endloop
  endfacet
  facet normal -7.072315e+00 2.382138e-01 7.042344e+00
    outer loop
      vertex   7.404000e+00 1.055916e+02 1.116800e+01
      vertex   9.064000e+00 1.344176e+02 1.186000e+01
      vertex   5.054001e+00 1.055916e+02 8.808001e+00
    endloop
  endfacet
  facet normal -7.041173e+00 -1.137721e-03 7.007387e+00
    outer loop
      vertex   3.674000e+00 1.632434e+02 5.462000e+00
      vertex   1.072600e+01 1.632434e+02 1.254800e+01
      vertex   6.022000e+00 1.920694e+02 7.826000e+00
    endloop
  endfacet
  facet normal -6.902446e+00 0.000000e+00 6.876134e+00
    outer loop
      vertex   6.022000e+00 1.920694e+02 7.826000e+00
      vertex   1.072600e+01 1.632434e+02 1.254800e+01
      vertex   1.072600e+01 1.920694e+02 1.254800e+01
    endloop
  endfacet
  facet normal -7.042168e+00 0.000000e+00 7.006387e+00
    outer loop
      vertex   8.376000e+00 2.208921e+02 1.018600e+01
      vertex   1.072600e+01 2.208921e+02 1.254800e+01
      vertex   1.072600e+01 2.497179e+02 1.254800e+01
    endloop
  endfacet
  facet normal -7.089055e+00 0.000000e+00 7.053035e+00
    outer loop
      vertex   1.072600e+01 2.208921e+02 1.254800e+01
      vertex   8.376000e+00 2.208921e+02 1.018600e+01
      vertex   1.072600e+01 1.920694e+02 1.254800e+01
    endloop
  endfacet
  facet normal -7.037651e+00 7.319209e-04 7.010824e+00
    outer loop
      vertex   6.022000e+00 1.920694e+02 7.826000e+00
      vertex   1.072600e+01 1.920694e+02 1.254800e+01
      vertex   8.376000e+00 2.208921e+02 1.018600e+01
    endloop
  endfacet
  facet normal -7.040625e+00 1.219406e-03 7.007837e+00
    outer loop
      vertex   8.376000e+00 2.208921e+02 1.018600e+01
      vertex   3.674000e+00 2.208921e+02 5.462000e+00
      vertex   6.022000e+00 1.920694e+02 7.826000e+00
    endloop
  endfacet
  facet normal -7.041173e+00 -1.630643e-04 7.007386e+00
    outer loop
      vertex   1.072600e+01 2.497179e+02 1.254800e+01
      vertex   3.674000e+00 2.497179e+02 5.462000e+00
      vertex   8.376000e+00 2.208921e+02 1.018600e+01
    endloop
  endfacet
  facet normal -6.905361e+00 -1.387779e-16 6.873202e+00
    outer loop
      vertex   8.376000e+00 2.208921e+02 1.018600e+01
      vertex   3.674000e+00 2.497179e+02 5.462000e+00
      vertex   3.674000e+00 2.208921e+02 5.462000e+00
    endloop
  endfacet
  facet normal -7.095039e+00 0.000000e+00 7.047015e+00
    outer loop
      vertex   3.674000e+00 1.920694e+02 5.462000e+00
      vertex   6.022000e+00 1.920694e+02 7.826000e+00
      vertex   3.674000e+00 2.208921e+02 5.462000e+00
    endloop
  endfacet
  facet normal -7.048113e+00 0.000000e+00 7.000406e+00
    outer loop
      vertex   6.022000e+00 1.920694e+02 7.826000e+00
      vertex   3.674000e+00 1.920694e+02 5.462000e+00
      vertex   3.674000e+00 1.632434e+02 5.462000e+00
    endloop
  endfacet
  facet normal -7.007279e+00 3.266599e-04 -7.041045e+00
    outer loop
      vertex   1.076400e+01 1.632434e+02 -1.594000e+00
      vertex   3.674000e+00 1.632434e+02 5.462000e+00
      vertex   8.400001e+00 1.920694e+02 7.600001e-01
    endloop
  endfacet
  facet normal -6.871667e+00 -1.387779e-16 -6.906744e+00
    outer loop
      vertex   8.400001e+00 1.920694e+02 7.600001e-01
      vertex   3.674000e+00 1.632434e+02 5.462000e+00
      vertex   3.674000e+00 1.920694e+02 5.462000e+00
    endloop
  endfacet
  facet normal -8.106219e-01 0.000000e+00 -8.140683e-01
    outer loop
      vertex   3.674000e+00 1.920694e+02 5.462000e+00
      vertex   3.674000e+00 2.208921e+02 5.462000e+00
      vertex   6.036000e+00 2.208921e+02 3.110000e+00
    endloop
  endfacet
  facet normal -7.056053e+00 0.000000e+00 -7.086051e+00
    outer loop
      vertex   3.674000e+00 2.208921e+02 5.462000e+00
      vertex   3.674000e+00 2.497179e+02 5.462000e+00
      vertex   6.036000e+00 2.208921e+02 3.110000e+00
    endloop
  endfacet
  facet normal -7.006275e+00 -4.889435e-04 -7.042023e+00
    outer loop
      vertex   1.076400e+01 2.208921e+02 -1.594000e+00
      vertex   8.400001e+00 1.920694e+02 7.600001e-01
      vertex   6.036000e+00 2.208921e+02 3.110000e+00
    endloop
  endfacet
  facet normal -7.006346e+00 -4.876358e-04 -7.042109e+00
    outer loop
      vertex   3.674000e+00 1.920694e+02 5.462000e+00
      vertex   6.036000e+00 2.208921e+02 3.110000e+00
      vertex   8.400001e+00 1.920694e+02 7.600001e-01
    endloop
  endfacet
  facet normal -7.007358e+00 3.242497e-04 -7.041123e+00
    outer loop
      vertex   3.674000e+00 2.497179e+02 5.462000e+00
      vertex   1.076400e+01 2.497179e+02 -1.594000e+00
      vertex   6.036000e+00 2.208921e+02 3.110000e+00
    endloop
  endfacet
  facet normal -6.871525e+00 0.000000e+00 -6.906586e+00
    outer loop
      vertex   6.036000e+00 2.208921e+02 3.110000e+00
      vertex   1.076400e+01 2.497179e+02 -1.594000e+00
      vertex   1.076400e+01 2.208921e+02 -1.594000e+00
    endloop
  endfacet
  facet normal -7.056066e+00 -0.000000e+00 -7.086038e+00
    outer loop
      vertex   1.076400e+01 1.920694e+02 -1.594000e+00
      vertex   1.076400e+01 1.632434e+02 -1.594000e+00
      vertex   8.400001e+00 1.920694e+02 7.600001e-01
    endloop
  endfacet
  facet normal -8.113023e-01 -0.000000e+00 -8.147485e-01
    outer loop
      vertex   1.076400e+01 2.208921e+02 -1.594000e+00
      vertex   1.076400e+01 1.920694e+02 -1.594000e+00
      vertex   8.400001e+00 1.920694e+02 7.600001e-01
    endloop
  endfacet
  facet normal 7.043150e+00 1.610974e-04 -7.005400e+00
    outer loop
      vertex   1.781600e+01 1.632434e+02 5.496001e+00
      vertex   1.076400e+01 1.632434e+02 -1.594000e+00
      vertex   1.546600e+01 1.920694e+02 3.134000e+00
    endloop
  endfacet
  facet normal 6.908122e+00 2.775558e-16 -6.870132e+00
    outer loop
      vertex   1.546600e+01 1.920694e+02 3.134000e+00
      vertex   1.076400e+01 1.632434e+02 -1.594000e+00
      vertex   1.076400e+01 1.920694e+02 -1.594000e+00
    endloop
  endfacet
  facet normal 7.095037e+00 0.000000e+00 -7.047017e+00
    outer loop
      vertex   1.076400e+01 2.208921e+02 -1.594000e+00
      vertex   1.076400e+01 2.497179e+02 -1.594000e+00
      vertex   1.311200e+01 2.208921e+02 7.700002e-01
    endloop
  endfacet
  facet normal 7.048101e+00 6.938894e-17 -7.000397e+00
    outer loop
      vertex   1.311200e+01 2.208921e+02 7.700002e-01
      vertex   1.076400e+01 1.920694e+02 -1.594000e+00
      vertex   1.076400e+01 2.208921e+02 -1.594000e+00
    endloop
  endfacet
  facet normal 7.043630e+00 7.331109e-04 -7.004895e+00
    outer loop
      vertex   1.076400e+01 1.920694e+02 -1.594000e+00
      vertex   1.311200e+01 2.208921e+02 7.700002e-01
      vertex   1.546600e+01 1.920694e+02 3.134000e+00
    endloop
  endfacet
  facet normal 7.040658e+00 2.454524e-04 -7.007883e+00
    outer loop
      vertex   1.781600e+01 2.208921e+02 5.496001e+00
      vertex   1.546600e+01 1.920694e+02 3.134000e+00
      vertex   1.311200e+01 2.208921e+02 7.700002e-01
    endloop
  endfacet
  facet normal 7.043149e+00 -8.135642e-04 -7.005400e+00
    outer loop
      vertex   1.076400e+01 2.497179e+02 -1.594000e+00
      vertex   1.781600e+01 2.497179e+02 5.496001e+00
      vertex   1.311200e+01 2.208921e+02 7.700002e-01
    endloop
  endfacet
  facet normal 6.905206e+00 1.387779e-16 -6.873060e+00
    outer loop
      vertex   1.311200e+01 2.208921e+02 7.700002e-01
      vertex   1.781600e+01 2.497179e+02 5.496001e+00
      vertex   1.781600e+01 2.208921e+02 5.496001e+00
    endloop
  endfacet
  facet normal 7.042156e+00 0.000000e+00 -7.006378e+00
    outer loop
      vertex   1.546600e+01 1.920694e+02 3.134000e+00
      vertex   1.781600e+01 2.208921e+02 5.496001e+00
      vertex   1.781600e+01 1.920694e+02 5.496001e+00
    endloop
  endfacet
  facet normal 7.089053e+00 0.000000e+00 -7.053036e+00
    outer loop
      vertex   1.781600e+01 1.920694e+02 5.496001e+00
      vertex   1.781600e+01 1.632434e+02 5.496001e+00
      vertex   1.546600e+01 1.920694e+02 3.134000e+00
    endloop
  endfacet
  facet normal 7.005440e+00 -3.275294e-04 7.043189e+00
    outer loop
      vertex   1.072600e+01 1.632434e+02 1.254800e+01
      vertex   1.781600e+01 1.632434e+02 5.496001e+00
      vertex   1.308800e+01 1.920694e+02 1.020000e+01
    endloop
  endfacet
  facet normal 6.871528e+00 0.000000e+00 6.906587e+00
    outer loop
      vertex   1.308800e+01 1.920694e+02 1.020000e+01
      vertex   1.781600e+01 1.632434e+02 5.496001e+00
      vertex   1.781600e+01 1.920694e+02 5.496001e+00
    endloop
  endfacet
  facet normal 8.098431e-01 0.000000e+00 8.146679e-01
    outer loop
      vertex   1.781600e+01 2.497179e+02 5.496001e+00
      vertex   1.545200e+01 2.208921e+02 7.846000e+00
      vertex   1.781600e+01 2.208921e+02 5.496001e+00
    endloop
  endfacet
  facet normal 7.050035e+00 0.000000e+00 7.092038e+00
    outer loop
      vertex   1.781600e+01 2.208921e+02 5.496001e+00
      vertex   1.545200e+01 2.208921e+02 7.846000e+00
      vertex   1.781600e+01 1.920694e+02 5.496001e+00
    endloop
  endfacet
  facet normal 7.006269e+00 4.899660e-04 7.042029e+00
    outer loop
      vertex   1.545200e+01 2.208921e+02 7.846000e+00
      vertex   1.072600e+01 2.208921e+02 1.254800e+01
      vertex   1.308800e+01 1.920694e+02 1.020000e+01
    endloop
  endfacet
  facet normal 7.006276e+00 4.887981e-04 7.042022e+00
    outer loop
      vertex   1.308800e+01 1.920694e+02 1.020000e+01
      vertex   1.781600e+01 1.920694e+02 5.496001e+00
      vertex   1.545200e+01 2.208921e+02 7.846000e+00
    endloop
  endfacet
  facet normal 7.005361e+00 -3.250552e-04 7.043109e+00
    outer loop
      vertex   1.781600e+01 2.497179e+02 5.496001e+00
      vertex   1.072600e+01 2.497179e+02 1.254800e+01
      vertex   1.545200e+01 2.208921e+02 7.846000e+00
    endloop
  endfacet
  facet normal 6.871667e+00 -1.387779e-16 6.906741e+00
    outer loop
      vertex   1.545200e+01 2.208921e+02 7.846000e+00
      vertex   1.072600e+01 2.497179e+02 1.254800e+01
      vertex   1.072600e+01 2.208921e+02 1.254800e+01
    endloop
  endfacet
  facet normal 8.091592e-01 0.000000e+00 8.139838e-01
    outer loop
      vertex   1.072600e+01 1.632434e+02 1.254800e+01
      vertex   1.308800e+01 1.920694e+02 1.020000e+01
      vertex   1.072600e+01 1.920694e+02 1.254800e+01
    endloop
  endfacet
  facet normal 7.050019e+00 0.000000e+00 7.092054e+00
    outer loop
      vertex   1.072600e+01 1.920694e+02 1.254800e+01
      vertex   1.308800e+01 1.920694e+02 1.020000e+01
      vertex   1.072600e+01 2.208921e+02 1.254800e+01
    endloop
  endfacet
  facet normal -2.463698e+00 9.403166e-01 2.451876e+00
    outer loop
      vertex   3.674000e+00 2.497179e+02 5.462000e+00
      vertex   1.072600e+01 2.497179e+02 1.254800e+01
      vertex   9.112000e+00 2.523260e+02 9.926001e+00
    endloop
  endfacet
  facet normal 1.460560e+00 4.074188e+00 3.153481e+00
    outer loop
      vertex   1.519200e+01 2.523260e+02 7.110000e+00
      vertex   9.112000e+00 2.523260e+02 9.926001e+00
      vertex   1.072600e+01 2.497179e+02 1.254800e+01
    endloop
  endfacet
  facet normal 2.450793e+00 9.409196e-01 2.463999e+00
    outer loop
      vertex   1.072600e+01 2.497179e+02 1.254800e+01
      vertex   1.781600e+01 2.497179e+02 5.496001e+00
      vertex   1.519200e+01 2.523260e+02 7.110000e+00
    endloop
  endfacet
  facet normal -2.449683e+00 9.413668e-01 -2.461488e+00
    outer loop
      vertex   1.076400e+01 2.497179e+02 -1.594000e+00
      vertex   3.674000e+00 2.497179e+02 5.462000e+00
      vertex   6.296000e+00 2.523260e+02 3.850000e+00
    endloop
  endfacet
  facet normal -3.153614e+00 4.073834e+00 1.461583e+00
    outer loop
      vertex   9.112000e+00 2.523260e+02 9.926001e+00
      vertex   6.296000e+00 2.523260e+02 3.850000e+00
      vertex   3.674000e+00 2.497179e+02 5.462000e+00
    endloop
  endfacet
  facet normal 2.464305e+00 9.466850e-01 -2.451097e+00
    outer loop
      vertex   1.781600e+01 2.497179e+02 5.496001e+00
      vertex   1.076400e+01 2.497179e+02 -1.594000e+00
      vertex   1.237600e+01 2.523260e+02 1.034000e+00
    endloop
  endfacet
  facet normal -1.459482e+00 4.077314e+00 -3.151155e+00
    outer loop
      vertex   6.296000e+00 2.523260e+02 3.850000e+00
      vertex   1.237600e+01 2.523260e+02 1.034000e+00
      vertex   1.076400e+01 2.497179e+02 -1.594000e+00
    endloop
  endfacet
  facet normal 3.153505e+00 4.077232e+00 -1.461532e+00
    outer loop
      vertex   1.237600e+01 2.523260e+02 1.034000e+00
      vertex   1.519200e+01 2.523260e+02 7.110000e+00
      vertex   1.781600e+01 2.497179e+02 5.496001e+00
    endloop
  endfacet
  facet normal 0.000000e+00 7.073871e+00 0.000000e+00
    outer loop
      vertex   1.237600e+01 2.523260e+02 1.034000e+00
      vertex   9.112000e+00 2.523260e+02 9.926001e+00
      vertex   1.519200e+01 2.523260e+02 7.110000e+00
    endloop
  endfacet
  facet normal 0.000000e+00 7.073871e+00 0.000000e+00
    outer loop
      vertex   9.112000e+00 2.523260e+02 9.926001e+00
      vertex   1.237600e+01 2.523260e+02 1.034000e+00
      vertex   6.296000e+00 2.523260e+02 3.850000e+00
    endloop
  endfacet
endsolid
