solid csg.js
facet normal 0 0 -1
outer loop
vertex 0 0 0
vertex 2.5 0 0
vertex 2.451963201008076 -0.4877258050403206 0
endloop
endfacet
facet normal 0.9951847266721968 -0.0980171403295607 0
outer loop
vertex 2.451963201008076 -0.4877258050403206 0
vertex 2.5 0 0
vertex 2.5 0 4
endloop
endfacet
facet normal 0.9951847266721968 -0.0980171403295607 0
outer loop
vertex 2.451963201008076 -0.4877258050403206 0
vertex 2.5 0 4
vertex 2.451963201008076 -0.4877258050403206 4
endloop
endfacet
facet normal 0 0 1
outer loop
vertex 0 0 4
vertex 2.451963201008076 -0.4877258050403206 4
vertex 2.5 0 4
endloop
endfacet
facet normal 0 0 -1
outer loop
vertex 0 0 0
vertex 2.451963201008076 -0.4877258050403206 0
vertex 2.309698831278217 -0.9567085809127245 0
endloop
endfacet
facet normal 0.956940335732209 -0.2902846772544621 0
outer loop
vertex 2.309698831278217 -0.9567085809127245 0
vertex 2.451963201008076 -0.4877258050403206 0
vertex 2.451963201008076 -0.4877258050403206 4
endloop
endfacet
facet normal 0.956940335732209 -0.2902846772544621 0
outer loop
vertex 2.309698831278217 -0.9567085809127245 0
vertex 2.451963201008076 -0.4877258050403206 4
vertex 2.309698831278217 -0.9567085809127245 4
endloop
endfacet
facet normal 0 0 1
outer loop
vertex 0 0 4
vertex 2.309698831278217 -0.9567085809127245 4
vertex 2.451963201008076 -0.4877258050403206 4
endloop
endfacet
facet normal 0 0 -1
outer loop
vertex 0 0 0
vertex 2.309698831278217 -0.9567085809127245 0
vertex 2.078674030756363 -1.3889255825490054 0
endloop
endfacet
facet normal 0.8819212643483549 -0.4713967368259978 0
outer loop
vertex 2.078674030756363 -1.3889255825490054 0
vertex 2.309698831278217 -0.9567085809127245 0
vertex 2.309698831278217 -0.9567085809127245 4
endloop
endfacet
facet normal 0.8819212643483549 -0.4713967368259978 0
outer loop
vertex 2.078674030756363 -1.3889255825490054 0
vertex 2.309698831278217 -0.9567085809127245 4
vertex 2.078674030756363 -1.3889255825490054 4
endloop
endfacet
facet normal 0 0 1
outer loop
vertex 0 0 4
vertex 2.078674030756363 -1.3889255825490054 4
vertex 2.309698831278217 -0.9567085809127245 4
endloop
endfacet
facet normal 0 0 -1
outer loop
vertex 0 0 0
vertex 2.078674030756363 -1.3889255825490054 0
vertex 1.7677669529663689 -1.7677669529663687 0
endloop
endfacet
facet normal 0.773010453362737 -0.6343932841636455 0
outer loop
vertex 1.7677669529663689 -1.7677669529663687 0
vertex 2.078674030756363 -1.3889255825490054 0
vertex 2.078674030756363 -1.3889255825490054 4
endloop
endfacet
facet normal 0.773010453362737 -0.6343932841636455 0
outer loop
vertex 1.7677669529663689 -1.7677669529663687 0
vertex 2.078674030756363 -1.3889255825490054 4
vertex 1.7677669529663689 -1.7677669529663687 4
endloop
endfacet
facet normal 0 0 1
outer loop
vertex 0 0 4
vertex 1.7677669529663689 -1.7677669529663687 4
vertex 2.078674030756363 -1.3889255825490054 4
endloop
endfacet
facet normal 0 0 -1
outer loop
vertex 0 0 0
vertex 1.7677669529663689 -1.7677669529663687 0
vertex 1.3889255825490057 -2.078674030756363 0
endloop
endfacet
facet normal 0.6343932841636458 -0.7730104533627367 0
outer loop
vertex 1.3889255825490057 -2.078674030756363 0
vertex 1.7677669529663689 -1.7677669529663687 0
vertex 1.7677669529663689 -1.7677669529663687 4
endloop
endfacet
facet normal 0.6343932841636458 -0.7730104533627367 0
outer loop
vertex 1.3889255825490057 -2.078674030756363 0
vertex 1.7677669529663689 -1.7677669529663687 4
vertex 1.3889255825490057 -2.078674030756363 4
endloop
endfacet
facet normal 0 0 1
outer loop
vertex 0 0 4
vertex 1.3889255825490057 -2.078674030756363 4
vertex 1.7677669529663689 -1.7677669529663687 4
endloop
endfacet
facet normal 0 0 -1
outer loop
vertex 0 0 0
vertex 1.3889255825490057 -2.078674030756363 0
vertex 0.9567085809127246 -2.309698831278217 0
endloop
endfacet
facet normal 0.4713967368259977 -0.8819212643483549 0
outer loop
vertex 0.9567085809127246 -2.309698831278217 0
vertex 1.3889255825490057 -2.078674030756363 0
vertex 1.3889255825490057 -2.078674030756363 4
endloop
endfacet
facet normal 0.4713967368259977 -0.8819212643483549 0
outer loop
vertex 0.9567085809127246 -2.309698831278217 0
vertex 1.3889255825490057 -2.078674030756363 4
vertex 0.9567085809127246 -2.309698831278217 4
endloop
endfacet
facet normal 0 0 1
outer loop
vertex 0 0 4
vertex 0.9567085809127246 -2.309698831278217 4
vertex 1.3889255825490057 -2.078674030756363 4
endloop
endfacet
facet normal 0 0 -1
outer loop
vertex 0 0 0
vertex 0.9567085809127246 -2.309698831278217 0
vertex 0.4877258050403208 -2.451963201008076 0
endloop
endfacet
facet normal 0.2902846772544621 -0.9569403357322089 0
outer loop
vertex 0.4877258050403208 -2.451963201008076 0
vertex 0.9567085809127246 -2.309698831278217 0
vertex 0.9567085809127246 -2.309698831278217 4
endloop
endfacet
facet normal 0.2902846772544621 -0.9569403357322089 0
outer loop
vertex 0.4877258050403208 -2.451963201008076 0
vertex 0.9567085809127246 -2.309698831278217 4
vertex 0.4877258050403208 -2.451963201008076 4
endloop
endfacet
facet normal 0 0 1
outer loop
vertex 0 0 4
vertex 0.4877258050403208 -2.451963201008076 4
vertex 0.9567085809127246 -2.309698831278217 4
endloop
endfacet
facet normal 0 0 -1
outer loop
vertex 0 0 0
vertex 0.4877258050403208 -2.451963201008076 0
vertex 1.5307579422779716e-16 -2.5 0
endloop
endfacet
facet normal 0.0980171403295607 -0.9951847266721968 0
outer loop
vertex 1.5307579422779716e-16 -2.5 0
vertex 0.4877258050403208 -2.451963201008076 0
vertex 0.4877258050403208 -2.451963201008076 4
endloop
endfacet
facet normal 0.0980171403295607 -0.9951847266721968 0
outer loop
vertex 1.5307579422779716e-16 -2.5 0
vertex 0.4877258050403208 -2.451963201008076 4
vertex 1.5307579422779716e-16 -2.5 4
endloop
endfacet
facet normal 0 0 1
outer loop
vertex 0 0 4
vertex 1.5307579422779716e-16 -2.5 4
vertex 0.4877258050403208 -2.451963201008076 4
endloop
endfacet
facet normal 0 0 -1
outer loop
vertex 0 0 0
vertex 1.5307579422779716e-16 -2.5 0
vertex -0.4877258050403205 -2.451963201008076 0
endloop
endfacet
facet normal -0.0980171403295607 -0.9951847266721968 0
outer loop
vertex -0.4877258050403205 -2.451963201008076 0
vertex 1.5307579422779716e-16 -2.5 0
vertex 1.5307579422779716e-16 -2.5 4
endloop
endfacet
facet normal -0.0980171403295607 -0.9951847266721968 0
outer loop
vertex -0.4877258050403205 -2.451963201008076 0
vertex 1.5307579422779716e-16 -2.5 4
vertex -0.4877258050403205 -2.451963201008076 4
endloop
endfacet
facet normal 0 0 1
outer loop
vertex 0 0 4
vertex -0.4877258050403205 -2.451963201008076 4
vertex 1.5307579422779716e-16 -2.5 4
endloop
endfacet
facet normal 0 0 -1
outer loop
vertex 0 0 0
vertex -0.4877258050403205 -2.451963201008076 0
vertex -0.9567085809127243 -2.309698831278217 0
endloop
endfacet
facet normal -0.2902846772544621 -0.9569403357322089 0
outer loop
vertex -0.9567085809127243 -2.309698831278217 0
vertex -0.4877258050403205 -2.451963201008076 0
vertex -0.4877258050403205 -2.451963201008076 4
endloop
endfacet
facet normal -0.2902846772544621 -0.9569403357322089 0
outer loop
vertex -0.9567085809127243 -2.309698831278217 0
vertex -0.4877258050403205 -2.451963201008076 4
vertex -0.9567085809127243 -2.309698831278217 4
endloop
endfacet
facet normal 0 0 1
outer loop
vertex 0 0 4
vertex -0.9567085809127243 -2.309698831278217 4
vertex -0.4877258050403205 -2.451963201008076 4
endloop
endfacet
facet normal 0 0 -1
outer loop
vertex 0 0 0
vertex -0.9567085809127243 -2.309698831278217 0
vertex -1.388925582549005 -2.0786740307563636 0
endloop
endfacet
facet normal -0.4713967368259973 -0.8819212643483552 0
outer loop
vertex -1.388925582549005 -2.0786740307563636 0
vertex -0.9567085809127243 -2.309698831278217 0
vertex -0.9567085809127243 -2.309698831278217 4
endloop
endfacet
facet normal -0.4713967368259973 -0.8819212643483552 0
outer loop
vertex -1.388925582549005 -2.0786740307563636 0
vertex -0.9567085809127243 -2.309698831278217 4
vertex -1.388925582549005 -2.0786740307563636 4
endloop
endfacet
facet normal 0 0 1
outer loop
vertex 0 0 4
vertex -1.388925582549005 -2.0786740307563636 4
vertex -0.9567085809127243 -2.309698831278217 4
endloop
endfacet
facet normal 0 0 -1
outer loop
vertex 0 0 0
vertex -1.388925582549005 -2.0786740307563636 0
vertex -1.7677669529663687 -1.7677669529663689 0
endloop
endfacet
facet normal -0.6343932841636456 -0.7730104533627369 0
outer loop
vertex -1.7677669529663687 -1.7677669529663689 0
vertex -1.388925582549005 -2.0786740307563636 0
vertex -1.388925582549005 -2.0786740307563636 4
endloop
endfacet
facet normal -0.6343932841636456 -0.7730104533627369 0
outer loop
vertex -1.7677669529663687 -1.7677669529663689 0
vertex -1.388925582549005 -2.0786740307563636 4
vertex -1.7677669529663687 -1.7677669529663689 4
endloop
endfacet
facet normal 0 0 1
outer loop
vertex 0 0 4
vertex -1.7677669529663687 -1.7677669529663689 4
vertex -1.388925582549005 -2.0786740307563636 4
endloop
endfacet
facet normal 0 0 -1
outer loop
vertex 0 0 0
vertex -1.7677669529663687 -1.7677669529663689 0
vertex -2.078674030756363 -1.3889255825490054 0
endloop
endfacet
facet normal -0.7730104533627369 -0.6343932841636456 0
outer loop
vertex -2.078674030756363 -1.3889255825490054 0
vertex -1.7677669529663687 -1.7677669529663689 0
vertex -1.7677669529663687 -1.7677669529663689 4
endloop
endfacet
facet normal -0.7730104533627369 -0.6343932841636456 0
outer loop
vertex -2.078674030756363 -1.3889255825490054 0
vertex -1.7677669529663687 -1.7677669529663689 4
vertex -2.078674030756363 -1.3889255825490054 4
endloop
endfacet
facet normal 0 0 1
outer loop
vertex 0 0 4
vertex -2.078674030756363 -1.3889255825490054 4
vertex -1.7677669529663687 -1.7677669529663689 4
endloop
endfacet
facet normal 0 0 -1
outer loop
vertex 0 0 0
vertex -2.078674030756363 -1.3889255825490054 0
vertex -2.309698831278217 -0.9567085809127247 0
endloop
endfacet
facet normal -0.8819212643483548 -0.471396736825998 0
outer loop
vertex -2.309698831278217 -0.9567085809127247 0
vertex -2.078674030756363 -1.3889255825490054 0
vertex -2.078674030756363 -1.3889255825490054 4
endloop
endfacet
facet normal -0.8819212643483548 -0.471396736825998 0
outer loop
vertex -2.309698831278217 -0.9567085809127247 0
vertex -2.078674030756363 -1.3889255825490054 4
vertex -2.309698831278217 -0.9567085809127247 4
endloop
endfacet
facet normal 0 0 1
outer loop
vertex 0 0 4
vertex -2.309698831278217 -0.9567085809127247 4
vertex -2.078674030756363 -1.3889255825490054 4
endloop
endfacet
facet normal 0 0 -1
outer loop
vertex 0 0 0
vertex -2.309698831278217 -0.9567085809127247 0
vertex -2.451963201008076 -0.48772580504032154 0
endloop
endfacet
facet normal -0.9569403357322088 -0.2902846772544625 0
outer loop
vertex -2.451963201008076 -0.48772580504032154 0
vertex -2.309698831278217 -0.9567085809127247 0
vertex -2.309698831278217 -0.9567085809127247 4
endloop
endfacet
facet normal -0.9569403357322088 -0.2902846772544625 0
outer loop
vertex -2.451963201008076 -0.48772580504032154 0
vertex -2.309698831278217 -0.9567085809127247 4
vertex -2.451963201008076 -0.48772580504032154 4
endloop
endfacet
facet normal 0 0 1
outer loop
vertex 0 0 4
vertex -2.451963201008076 -0.48772580504032154 4
vertex -2.309698831278217 -0.9567085809127247 4
endloop
endfacet
facet normal 0 0 -1
outer loop
vertex 0 0 0
vertex -2.451963201008076 -0.48772580504032154 0
vertex -2.5 -3.061515884555943e-16 0
endloop
endfacet
facet normal -0.9951847266721968 -0.09801714032956059 0
outer loop
vertex -2.5 -3.061515884555943e-16 0
vertex -2.451963201008076 -0.48772580504032154 0
vertex -2.451963201008076 -0.48772580504032154 4
endloop
endfacet
facet normal -0.9951847266721968 -0.09801714032956059 0
outer loop
vertex -2.5 -3.061515884555943e-16 0
vertex -2.451963201008076 -0.48772580504032154 4
vertex -2.5 -3.061515884555943e-16 4
endloop
endfacet
facet normal 0 0 1
outer loop
vertex 0 0 4
vertex -2.5 -3.061515884555943e-16 4
vertex -2.451963201008076 -0.48772580504032154 4
endloop
endfacet
facet normal 0 0 -1
outer loop
vertex 0 0 0
vertex -2.5 -3.061515884555943e-16 0
vertex -2.451963201008076 0.4877258050403209 0
endloop
endfacet
facet normal -0.9951847266721968 0.09801714032956058 0
outer loop
vertex -2.451963201008076 0.4877258050403209 0
vertex -2.5 -3.061515884555943e-16 0
vertex -2.5 -3.061515884555943e-16 4
endloop
endfacet
facet normal -0.9951847266721968 0.09801714032956058 0
outer loop
vertex -2.451963201008076 0.4877258050403209 0
vertex -2.5 -3.061515884555943e-16 4
vertex -2.451963201008076 0.4877258050403209 4
endloop
endfacet
facet normal 0 0 1
outer loop
vertex 0 0 4
vertex -2.451963201008076 0.4877258050403209 4
vertex -2.5 -3.061515884555943e-16 4
endloop
endfacet
facet normal 0 0 -1
outer loop
vertex 0 0 0
vertex -2.451963201008076 0.4877258050403209 0
vertex -2.309698831278217 0.9567085809127241 0
endloop
endfacet
facet normal -0.9569403357322088 0.29028467725446244 0
outer loop
vertex -2.309698831278217 0.9567085809127241 0
vertex -2.451963201008076 0.4877258050403209 0
vertex -2.451963201008076 0.4877258050403209 4
endloop
endfacet
facet normal -0.9569403357322088 0.29028467725446244 0
outer loop
vertex -2.309698831278217 0.9567085809127241 0
vertex -2.451963201008076 0.4877258050403209 4
vertex -2.309698831278217 0.9567085809127241 4
endloop
endfacet
facet normal 0 0 1
outer loop
vertex 0 0 4
vertex -2.309698831278217 0.9567085809127241 4
vertex -2.451963201008076 0.4877258050403209 4
endloop
endfacet
facet normal 0 0 -1
outer loop
vertex 0 0 0
vertex -2.309698831278217 0.9567085809127241 0
vertex -2.0786740307563636 1.388925582549005 0
endloop
endfacet
facet normal -0.8819212643483553 0.4713967368259972 0
outer loop
vertex -2.0786740307563636 1.388925582549005 0
vertex -2.309698831278217 0.9567085809127241 0
vertex -2.309698831278217 0.9567085809127241 4
endloop
endfacet
facet normal -0.8819212643483553 0.4713967368259972 0
outer loop
vertex -2.0786740307563636 1.388925582549005 0
vertex -2.309698831278217 0.9567085809127241 4
vertex -2.0786740307563636 1.388925582549005 4
endloop
endfacet
facet normal 0 0 1
outer loop
vertex 0 0 4
vertex -2.0786740307563636 1.388925582549005 4
vertex -2.309698831278217 0.9567085809127241 4
endloop
endfacet
facet normal 0 0 -1
outer loop
vertex 0 0 0
vertex -2.0786740307563636 1.388925582549005 0
vertex -1.7677669529663693 1.7677669529663687 0
endloop
endfacet
facet normal -0.7730104533627373 0.6343932841636452 0
outer loop
vertex -1.7677669529663693 1.7677669529663687 0
vertex -2.0786740307563636 1.388925582549005 0
vertex -2.0786740307563636 1.388925582549005 4
endloop
endfacet
facet normal -0.7730104533627373 0.6343932841636452 0
outer loop
vertex -1.7677669529663693 1.7677669529663687 0
vertex -2.0786740307563636 1.388925582549005 4
vertex -1.7677669529663693 1.7677669529663687 4
endloop
endfacet
facet normal 0 0 1
outer loop
vertex 0 0 4
vertex -1.7677669529663693 1.7677669529663687 4
vertex -2.0786740307563636 1.388925582549005 4
endloop
endfacet
facet normal 0 0 -1
outer loop
vertex 0 0 0
vertex -1.7677669529663693 1.7677669529663687 0
vertex -1.3889255825490054 2.078674030756363 0
endloop
endfacet
facet normal -0.6343932841636452 0.7730104533627372 0
outer loop
vertex -1.3889255825490054 2.078674030756363 0
vertex -1.7677669529663693 1.7677669529663687 0
vertex -1.7677669529663693 1.7677669529663687 4
endloop
endfacet
facet normal -0.6343932841636452 0.7730104533627372 0
outer loop
vertex -1.3889255825490054 2.078674030756363 0
vertex -1.7677669529663693 1.7677669529663687 4
vertex -1.3889255825490054 2.078674030756363 4
endloop
endfacet
facet normal 0 0 1
outer loop
vertex 0 0 4
vertex -1.3889255825490054 2.078674030756363 4
vertex -1.7677669529663693 1.7677669529663687 4
endloop
endfacet
facet normal 0 0 -1
outer loop
vertex 0 0 0
vertex -1.3889255825490054 2.078674030756363 0
vertex -0.9567085809127258 2.309698831278216 0
endloop
endfacet
facet normal -0.4713967368259976 0.8819212643483552 0
outer loop
vertex -0.9567085809127258 2.309698831278216 0
vertex -1.3889255825490054 2.078674030756363 0
vertex -1.3889255825490054 2.078674030756363 4
endloop
endfacet
facet normal -0.4713967368259976 0.8819212643483552 0
outer loop
vertex -0.9567085809127258 2.309698831278216 0
vertex -1.3889255825490054 2.078674030756363 4
vertex -0.9567085809127258 2.309698831278216 4
endloop
endfacet
facet normal 0 0 1
outer loop
vertex 0 0 4
vertex -0.9567085809127258 2.309698831278216 4
vertex -1.3889255825490054 2.078674030756363 4
endloop
endfacet
facet normal 0 0 -1
outer loop
vertex 0 0 0
vertex -0.9567085809127258 2.309698831278216 0
vertex -0.48772580504032165 2.4519632010080756 0
endloop
endfacet
facet normal -0.2902846772544627 0.9569403357322087 0
outer loop
vertex -0.48772580504032165 2.4519632010080756 0
vertex -0.9567085809127258 2.309698831278216 0
vertex -0.9567085809127258 2.309698831278216 4
endloop
endfacet
facet normal -0.2902846772544627 0.9569403357322087 0
outer loop
vertex -0.48772580504032165 2.4519632010080756 0
vertex -0.9567085809127258 2.309698831278216 4
vertex -0.48772580504032165 2.4519632010080756 4
endloop
endfacet
facet normal 0 0 1
outer loop
vertex 0 0 4
vertex -0.48772580504032165 2.4519632010080756 4
vertex -0.9567085809127258 2.309698831278216 4
endloop
endfacet
facet normal 0 0 -1
outer loop
vertex 0 0 0
vertex -0.48772580504032165 2.4519632010080756 0
vertex -4.592273826833915e-16 2.5 0
endloop
endfacet
facet normal -0.09801714032956149 0.9951847266721968 0
outer loop
vertex -4.592273826833915e-16 2.5 0
vertex -0.48772580504032165 2.4519632010080756 0
vertex -0.48772580504032165 2.4519632010080756 4
endloop
endfacet
facet normal -0.09801714032956149 0.9951847266721968 0
outer loop
vertex -4.592273826833915e-16 2.5 0
vertex -0.48772580504032165 2.4519632010080756 4
vertex -4.592273826833915e-16 2.5 4
endloop
endfacet
facet normal 0 0 1
outer loop
vertex 0 0 4
vertex -4.592273826833915e-16 2.5 4
vertex -0.48772580504032165 2.4519632010080756 4
endloop
endfacet
facet normal 0 0 -1
outer loop
vertex 0 0 0
vertex -4.592273826833915e-16 2.5 0
vertex 0.48772580504032076 2.451963201008076 0
endloop
endfacet
facet normal 0.09801714032956059 0.9951847266721968 0
outer loop
vertex 0.48772580504032076 2.451963201008076 0
vertex -4.592273826833915e-16 2.5 0
vertex -4.592273826833915e-16 2.5 4
endloop
endfacet
facet normal 0.09801714032956059 0.9951847266721968 0
outer loop
vertex 0.48772580504032076 2.451963201008076 0
vertex -4.592273826833915e-16 2.5 4
vertex 0.48772580504032076 2.451963201008076 4
endloop
endfacet
facet normal 0 0 1
outer loop
vertex 0 0 4
vertex 0.48772580504032076 2.451963201008076 4
vertex -4.592273826833915e-16 2.5 4
endloop
endfacet
facet normal 0 0 -1
outer loop
vertex 0 0 0
vertex 0.48772580504032076 2.451963201008076 0
vertex 0.956708580912725 2.3096988312782165 0
endloop
endfacet
facet normal 0.29028467725446266 0.9569403357322087 0
outer loop
vertex 0.956708580912725 2.3096988312782165 0
vertex 0.48772580504032076 2.451963201008076 0
vertex 0.48772580504032076 2.451963201008076 4
endloop
endfacet
facet normal 0.29028467725446266 0.9569403357322087 0
outer loop
vertex 0.956708580912725 2.3096988312782165 0
vertex 0.48772580504032076 2.451963201008076 4
vertex 0.956708580912725 2.3096988312782165 4
endloop
endfacet
facet normal 0 0 1
outer loop
vertex 0 0 4
vertex 0.956708580912725 2.3096988312782165 4
vertex 0.48772580504032076 2.451963201008076 4
endloop
endfacet
facet normal 0 0 -1
outer loop
vertex 0 0 0
vertex 0.956708580912725 2.3096988312782165 0
vertex 1.3889255825490046 2.0786740307563636 0
endloop
endfacet
facet normal 0.4713967368259977 0.8819212643483552 0
outer loop
vertex 1.3889255825490046 2.0786740307563636 0
vertex 0.956708580912725 2.3096988312782165 0
vertex 0.956708580912725 2.3096988312782165 4
endloop
endfacet
facet normal 0.4713967368259977 0.8819212643483552 0
outer loop
vertex 1.3889255825490046 2.0786740307563636 0
vertex 0.956708580912725 2.3096988312782165 4
vertex 1.3889255825490046 2.0786740307563636 4
endloop
endfacet
facet normal 0 0 1
outer loop
vertex 0 0 4
vertex 1.3889255825490046 2.0786740307563636 4
vertex 0.956708580912725 2.3096988312782165 4
endloop
endfacet
facet normal 0 0 -1
outer loop
vertex 0 0 0
vertex 1.3889255825490046 2.0786740307563636 0
vertex 1.7677669529663684 1.7677669529663693 0
endloop
endfacet
facet normal 0.6343932841636449 0.7730104533627375 0
outer loop
vertex 1.7677669529663684 1.7677669529663693 0
vertex 1.3889255825490046 2.0786740307563636 0
vertex 1.3889255825490046 2.0786740307563636 4
endloop
endfacet
facet normal 0.6343932841636449 0.7730104533627375 0
outer loop
vertex 1.7677669529663684 1.7677669529663693 0
vertex 1.3889255825490046 2.0786740307563636 4
vertex 1.7677669529663684 1.7677669529663693 4
endloop
endfacet
facet normal 0 0 1
outer loop
vertex 0 0 4
vertex 1.7677669529663684 1.7677669529663693 4
vertex 1.3889255825490046 2.0786740307563636 4
endloop
endfacet
facet normal 0 0 -1
outer loop
vertex 0 0 0
vertex 1.7677669529663684 1.7677669529663693 0
vertex 2.078674030756363 1.3889255825490054 0
endloop
endfacet
facet normal 0.7730104533627371 0.6343932841636455 0
outer loop
vertex 2.078674030756363 1.3889255825490054 0
vertex 1.7677669529663684 1.7677669529663693 0
vertex 1.7677669529663684 1.7677669529663693 4
endloop
endfacet
facet normal 0.7730104533627371 0.6343932841636455 0
outer loop
vertex 2.078674030756363 1.3889255825490054 0
vertex 1.7677669529663684 1.7677669529663693 4
vertex 2.078674030756363 1.3889255825490054 4
endloop
endfacet
facet normal 0 0 1
outer loop
vertex 0 0 4
vertex 2.078674030756363 1.3889255825490054 4
vertex 1.7677669529663684 1.7677669529663693 4
endloop
endfacet
facet normal 0 0 -1
outer loop
vertex 0 0 0
vertex 2.078674030756363 1.3889255825490054 0
vertex 2.309698831278216 0.956708580912726 0
endloop
endfacet
facet normal 0.8819212643483549 0.47139673682599775 0
outer loop
vertex 2.309698831278216 0.956708580912726 0
vertex 2.078674030756363 1.3889255825490054 0
vertex 2.078674030756363 1.3889255825490054 4
endloop
endfacet
facet normal 0.8819212643483549 0.47139673682599775 0
outer loop
vertex 2.309698831278216 0.956708580912726 0
vertex 2.078674030756363 1.3889255825490054 4
vertex 2.309698831278216 0.956708580912726 4
endloop
endfacet
facet normal 0 0 1
outer loop
vertex 0 0 4
vertex 2.309698831278216 0.956708580912726 4
vertex 2.078674030756363 1.3889255825490054 4
endloop
endfacet
facet normal 0 0 -1
outer loop
vertex 0 0 0
vertex 2.309698831278216 0.956708580912726 0
vertex 2.4519632010080756 0.4877258050403218 0
endloop
endfacet
facet normal 0.9569403357322087 0.2902846772544627 0
outer loop
vertex 2.4519632010080756 0.4877258050403218 0
vertex 2.309698831278216 0.956708580912726 0
vertex 2.309698831278216 0.956708580912726 4
endloop
endfacet
facet normal 0.9569403357322087 0.2902846772544627 0
outer loop
vertex 2.4519632010080756 0.4877258050403218 0
vertex 2.309698831278216 0.956708580912726 4
vertex 2.4519632010080756 0.4877258050403218 4
endloop
endfacet
facet normal 0 0 1
outer loop
vertex 0 0 4
vertex 2.4519632010080756 0.4877258050403218 4
vertex 2.309698831278216 0.956708580912726 4
endloop
endfacet
facet normal 0 0 -1
outer loop
vertex 0 0 0
vertex 2.4519632010080756 0.4877258050403218 0
vertex 2.5 6.123031769111886e-16 0
endloop
endfacet
facet normal 0.9951847266721968 0.09801714032956149 0
outer loop
vertex 2.5 6.123031769111886e-16 0
vertex 2.4519632010080756 0.4877258050403218 0
vertex 2.4519632010080756 0.4877258050403218 4
endloop
endfacet
facet normal 0.9951847266721968 0.09801714032956149 0
outer loop
vertex 2.5 6.123031769111886e-16 0
vertex 2.4519632010080756 0.4877258050403218 4
vertex 2.5 6.123031769111886e-16 4
endloop
endfacet
facet normal 0 0 1
outer loop
vertex 0 0 4
vertex 2.5 6.123031769111886e-16 4
vertex 2.4519632010080756 0.4877258050403218 4
endloop
endfacet
facet normal 0 0 -1
outer loop
vertex 0 0 4
vertex 6.666666666666667 0 4
vertex 6.538568536021536 -1.3006021467741884 4
endloop
endfacet
facet normal 0.7660316744578947 -0.07544753463339653 0.6383597287149123
outer loop
vertex 6.666666666666667 0 4
vertex 3.333333333333333 0 8
vertex 6.538568536021536 -1.3006021467741884 4
endloop
endfacet
facet normal 0 0 1
outer loop
vertex 0 0 8
vertex 3.2692842680107677 -0.6503010733870941 8
vertex 3.333333333333333 0 8
endloop
endfacet
facet normal 0.7660316744578943 -0.07544753463339708 0.6383597287149126
outer loop
vertex 3.333333333333333 0 8
vertex 3.2692842680107677 -0.6503010733870941 8
vertex 6.538568536021536 -1.3006021467741884 4
endloop
endfacet
facet normal 0 0 -1
outer loop
vertex 0 0 4
vertex 6.538568536021536 -1.3006021467741884 4
vertex 6.159196883408579 -2.551222882433932 4
endloop
endfacet
facet normal 0.7365935068039899 -0.22344319745569302 0.6383597287149123
outer loop
vertex 6.538568536021536 -1.3006021467741884 4
vertex 3.2692842680107677 -0.6503010733870941 8
vertex 6.159196883408579 -2.551222882433932 4
endloop
endfacet
facet normal 0 0 1
outer loop
vertex 0 0 8
vertex 3.079598441704289 -1.275611441216966 8
vertex 3.2692842680107677 -0.6503010733870941 8
endloop
endfacet
facet normal 0.73659350680399 -0.223443197455693 0.6383597287149124
outer loop
vertex 3.2692842680107677 -0.6503010733870941 8
vertex 3.079598441704289 -1.275611441216966 8
vertex 6.159196883408579 -2.551222882433932 4
endloop
endfacet
facet normal 0 0 -1
outer loop
vertex 0 0 4
vertex 6.159196883408579 -2.551222882433932 4
vertex 5.543130748683635 -3.7038015534640145 4
endloop
endfacet
facet normal 0.6788484637700052 -0.3628520635081563 0.6383597287149125
outer loop
vertex 6.159196883408579 -2.551222882433932 4
vertex 3.079598441704289 -1.275611441216966 8
vertex 5.543130748683635 -3.7038015534640145 4
endloop
endfacet
facet normal 0 0 1
outer loop
vertex 0 0 8
vertex 2.7715653743418174 -1.851900776732007 8
vertex 3.079598441704289 -1.275611441216966 8
endloop
endfacet
facet normal 0.6788484637700057 -0.36285206350815624 0.6383597287149122
outer loop
vertex 3.079598441704289 -1.275611441216966 8
vertex 2.7715653743418174 -1.851900776732007 8
vertex 5.543130748683635 -3.7038015534640145 4
endloop
endfacet
facet normal 0 0 -1
outer loop
vertex 0 0 4
vertex 5.543130748683635 -3.7038015534640145 4
vertex 4.714045207910317 -4.714045207910317 4
endloop
endfacet
facet normal 0.5950156549759446 -0.488316728249782 0.6383597287149122
outer loop
vertex 5.543130748683635 -3.7038015534640145 4
vertex 2.7715653743418174 -1.851900776732007 8
vertex 4.714045207910317 -4.714045207910317 4
endloop
endfacet
facet normal 0 0 1
outer loop
vertex 0 0 8
vertex 2.3570226039551585 -2.357022603955158 8
vertex 2.7715653743418174 -1.851900776732007 8
endloop
endfacet
facet normal 0.595015654975944 -0.488316728249782 0.6383597287149125
outer loop
vertex 2.7715653743418174 -1.851900776732007 8
vertex 2.3570226039551585 -2.357022603955158 8
vertex 4.714045207910317 -4.714045207910317 4
endloop
endfacet
facet normal 0 0 -1
outer loop
vertex 0 0 4
vertex 4.714045207910317 -4.714045207910317 4
vertex 3.7038015534640154 -5.543130748683635 4
endloop
endfacet
facet normal 0.48831672824978095 -0.5950156549759444 0.6383597287149131
outer loop
vertex 4.714045207910317 -4.714045207910317 4
vertex 2.3570226039551585 -2.357022603955158 8
vertex 3.7038015534640154 -5.543130748683635 4
endloop
endfacet
facet normal 0 0 1
outer loop
vertex 0 0 8
vertex 1.8519007767320075 -2.7715653743418174 8
vertex 2.3570226039551585 -2.357022603955158 8
endloop
endfacet
facet normal 0.48831672824978173 -0.5950156549759442 0.6383597287149128
outer loop
vertex 2.3570226039551585 -2.357022603955158 8
vertex 1.8519007767320075 -2.7715653743418174 8
vertex 3.7038015534640154 -5.543130748683635 4
endloop
endfacet
facet normal 0 0 -1
outer loop
vertex 0 0 4
vertex 3.7038015534640154 -5.543130748683635 4
vertex 2.5512228824339322 -6.159196883408579 4
endloop
endfacet
facet normal 0.36285206350815574 -0.6788484637700058 0.6383597287149123
outer loop
vertex 3.7038015534640154 -5.543130748683635 4
vertex 1.8519007767320075 -2.7715653743418174 8
vertex 2.5512228824339322 -6.159196883408579 4
endloop
endfacet
facet normal 0 0 1
outer loop
vertex 0 0 8
vertex 1.275611441216966 -3.079598441704289 8
vertex 1.8519007767320075 -2.7715653743418174 8
endloop
endfacet
facet normal 0.36285206350815463 -0.6788484637700061 0.6383597287149126
outer loop
vertex 1.8519007767320075 -2.7715653743418174 8
vertex 1.275611441216966 -3.079598441704289 8
vertex 2.5512228824339322 -6.159196883408579 4
endloop
endfacet
facet normal 0 0 -1
outer loop
vertex 0 0 4
vertex 2.5512228824339322 -6.159196883408579 4
vertex 1.3006021467741888 -6.538568536021536 4
endloop
endfacet
facet normal 0.2234431974556919 -0.7365935068039903 0.6383597287149125
outer loop
vertex 2.5512228824339322 -6.159196883408579 4
vertex 1.275611441216966 -3.079598441704289 8
vertex 1.3006021467741888 -6.538568536021536 4
endloop
endfacet
facet normal 0 0 1
outer loop
vertex 0 0 8
vertex 0.6503010733870944 -3.2692842680107677 8
vertex 1.275611441216966 -3.079598441704289 8
endloop
endfacet
facet normal 0.22344319745569224 -0.7365935068039902 0.6383597287149125
outer loop
vertex 1.275611441216966 -3.079598441704289 8
vertex 0.6503010733870944 -3.2692842680107677 8
vertex 1.3006021467741888 -6.538568536021536 4
endloop
endfacet
facet normal 0 0 -1
outer loop
vertex 0 0 4
vertex 1.3006021467741888 -6.538568536021536 4
vertex 4.082021179407924e-16 -6.666666666666667 4
endloop
endfacet
facet normal 0.07544753463339594 -0.7660316744578944 0.6383597287149128
outer loop
vertex 1.3006021467741888 -6.538568536021536 4
vertex 0.6503010733870944 -3.2692842680107677 8
vertex 4.082021179407924e-16 -6.666666666666667 4
endloop
endfacet
facet normal 0 0 1
outer loop
vertex 0 0 8
vertex 2.0410105897039619e-16 -3.333333333333333 8
vertex 0.6503010733870944 -3.2692842680107677 8
endloop
endfacet
facet normal 0.07544753463339594 -0.7660316744578944 0.6383597287149128
outer loop
vertex 0.6503010733870944 -3.2692842680107677 8
vertex 2.0410105897039619e-16 -3.333333333333333 8
vertex 4.082021179407924e-16 -6.666666666666667 4
endloop
endfacet
facet normal 0 0 -1
outer loop
vertex 0 0 4
vertex 4.082021179407924e-16 -6.666666666666667 4
vertex -1.300602146774188 -6.538568536021536 4
endloop
endfacet
facet normal -0.07544753463339653 -0.7660316744578947 0.6383597287149123
outer loop
vertex 4.082021179407924e-16 -6.666666666666667 4
vertex 2.0410105897039619e-16 -3.333333333333333 8
vertex -1.300602146774188 -6.538568536021536 4
endloop
endfacet
facet normal 0 0 1
outer loop
vertex 0 0 8
vertex -0.6503010733870939 -3.2692842680107677 8
vertex 2.0410105897039619e-16 -3.333333333333333 8
endloop
endfacet
facet normal -0.07544753463339708 -0.7660316744578943 0.6383597287149126
outer loop
vertex 2.0410105897039619e-16 -3.333333333333333 8
vertex -0.6503010733870939 -3.2692842680107677 8
vertex -1.300602146774188 -6.538568536021536 4
endloop
endfacet
facet normal 0 0 -1
outer loop
vertex 0 0 4
vertex -1.300602146774188 -6.538568536021536 4
vertex -2.551222882433932 -6.159196883408579 4
endloop
endfacet
facet normal -0.22344319745569252 -0.73659350680399 0.6383597287149124
outer loop
vertex -1.300602146774188 -6.538568536021536 4
vertex -0.6503010733870939 -3.2692842680107677 8
vertex -2.551222882433932 -6.159196883408579 4
endloop
endfacet
facet normal 0 0 1
outer loop
vertex 0 0 8
vertex -1.2756114412169657 -3.079598441704289 8
vertex -0.6503010733870939 -3.2692842680107677 8
endloop
endfacet
facet normal -0.223443197455693 -0.73659350680399 0.6383597287149124
outer loop
vertex -0.6503010733870939 -3.2692842680107677 8
vertex -1.2756114412169657 -3.079598441704289 8
vertex -2.551222882433932 -6.159196883408579 4
endloop
endfacet
facet normal 0 0 -1
outer loop
vertex 0 0 4
vertex -2.551222882433932 -6.159196883408579 4
vertex -3.703801553464013 -5.5431307486836365 4
endloop
endfacet
facet normal -0.3628520635081554 -0.6788484637700058 0.6383597287149124
outer loop
vertex -2.551222882433932 -6.159196883408579 4
vertex -1.2756114412169657 -3.079598441704289 8
vertex -3.703801553464013 -5.5431307486836365 4
endloop
endfacet
facet normal 0 0 1
outer loop
vertex 0 0 8
vertex -1.8519007767320064 -2.771565374341818 8
vertex -1.2756114412169657 -3.079598441704289 8
endloop
endfacet
facet normal -0.3628520635081554 -0.6788484637700058 0.6383597287149124
outer loop
vertex -1.2756114412169657 -3.079598441704289 8
vertex -1.8519007767320064 -2.771565374341818 8
vertex -3.703801553464013 -5.5431307486836365 4
endloop
endfacet
facet normal 0 0 -1
outer loop
vertex 0 0 4
vertex -3.703801553464013 -5.5431307486836365 4
vertex -4.714045207910317 -4.714045207910317 4
endloop
endfacet
facet normal -0.488316728249782 -0.595015654975944 0.6383597287149125
outer loop
vertex -3.703801553464013 -5.5431307486836365 4
vertex -1.8519007767320064 -2.771565374341818 8
vertex -4.714045207910317 -4.714045207910317 4
endloop
endfacet
facet normal 0 0 1
outer loop
vertex 0 0 8
vertex -2.357022603955158 -2.3570226039551585 8
vertex -1.8519007767320064 -2.771565374341818 8
endloop
endfacet
facet normal -0.48831672824978145 -0.5950156549759448 0.6383597287149124
outer loop
vertex -1.8519007767320064 -2.771565374341818 8
vertex -2.357022603955158 -2.3570226039551585 8
vertex -4.714045207910317 -4.714045207910317 4
endloop
endfacet
facet normal 0 0 -1
outer loop
vertex 0 0 4
vertex -4.714045207910317 -4.714045207910317 4
vertex -5.543130748683636 -3.7038015534640145 4
endloop
endfacet
facet normal -0.595015654975945 -0.4883167282497822 0.6383597287149116
outer loop
vertex -4.714045207910317 -4.714045207910317 4
vertex -2.357022603955158 -2.3570226039551585 8
vertex -5.543130748683636 -3.7038015534640145 4
endloop
endfacet
facet normal 0 0 1
outer loop
vertex 0 0 8
vertex -2.7715653743418174 -1.851900776732007 8
vertex -2.357022603955158 -2.3570226039551585 8
endloop
endfacet
facet normal -0.5950156549759448 -0.48831672824978145 0.6383597287149124
outer loop
vertex -2.357022603955158 -2.3570226039551585 8
vertex -2.7715653743418174 -1.851900776732007 8
vertex -5.543130748683636 -3.7038015534640145 4
endloop
endfacet
facet normal 0 0 -1
outer loop
vertex 0 0 4
vertex -5.543130748683636 -3.7038015534640145 4
vertex -6.159196883408579 -2.5512228824339327 4
endloop
endfacet
facet normal -0.6788484637700054 -0.3628520635081562 0.6383597287149124
outer loop
vertex -5.543130748683636 -3.7038015534640145 4
vertex -2.7715653743418174 -1.851900776732007 8
vertex -6.159196883408579 -2.5512228824339327 4
endloop
endfacet
facet normal 0 0 1
outer loop
vertex 0 0 8
vertex -3.079598441704289 -1.2756114412169661 8
vertex -2.7715653743418174 -1.851900776732007 8
endloop
endfacet
facet normal -0.6788484637700054 -0.3628520635081562 0.6383597287149124
outer loop
vertex -2.7715653743418174 -1.851900776732007 8
vertex -3.079598441704289 -1.2756114412169661 8
vertex -6.159196883408579 -2.5512228824339327 4
endloop
endfacet
facet normal 0 0 -1
outer loop
vertex 0 0 4
vertex -6.159196883408579 -2.5512228824339327 4
vertex -6.538568536021536 -1.3006021467741908 4
endloop
endfacet
facet normal -0.7365935068039899 -0.22344319745569335 0.6383597287149123
outer loop
vertex -6.159196883408579 -2.5512228824339327 4
vertex -3.079598441704289 -1.2756114412169661 8
vertex -6.538568536021536 -1.3006021467741908 4
endloop
endfacet
facet normal 0 0 1
outer loop
vertex 0 0 8
vertex -3.2692842680107677 -0.6503010733870953 8
vertex -3.079598441704289 -1.2756114412169661 8
endloop
endfacet
facet normal -0.7365935068039899 -0.22344319745569335 0.6383597287149123
outer loop
vertex -3.079598441704289 -1.2756114412169661 8
vertex -3.2692842680107677 -0.6503010733870953 8
vertex -6.538568536021536 -1.3006021467741908 4
endloop
endfacet
facet normal 0 0 -1
outer loop
vertex 0 0 4
vertex -6.538568536021536 -1.3006021467741908 4
vertex -6.666666666666667 -8.164042358815848e-16 4
endloop
endfacet
facet normal -0.7660316744578947 -0.07544753463339653 0.6383597287149123
outer loop
vertex -6.538568536021536 -1.3006021467741908 4
vertex -3.2692842680107677 -0.6503010733870953 8
vertex -6.666666666666667 -8.164042358815848e-16 4
endloop
endfacet
facet normal 0 0 1
outer loop
vertex 0 0 8
vertex -3.333333333333333 -4.0820211794079237e-16 8
vertex -3.2692842680107677 -0.6503010733870953 8
endloop
endfacet
facet normal -0.7660316744578951 -0.07544753463339708 0.6383597287149119
outer loop
vertex -3.2692842680107677 -0.6503010733870953 8
vertex -3.333333333333333 -4.0820211794079237e-16 8
vertex -6.666666666666667 -8.164042358815848e-16 4
endloop
endfacet
facet normal 0 0 -1
outer loop
vertex 0 0 4
vertex -6.666666666666667 -8.164042358815848e-16 4
vertex -6.538568536021536 1.300602146774189 4
endloop
endfacet
facet normal -0.766031674457895 0.07544753463339593 0.6383597287149121
outer loop
vertex -6.666666666666667 -8.164042358815848e-16 4
vertex -3.333333333333333 -4.0820211794079237e-16 8
vertex -6.538568536021536 1.300602146774189 4
endloop
endfacet
facet normal 0 0 1
outer loop
vertex 0 0 8
vertex -3.2692842680107677 0.6503010733870944 8
vertex -3.333333333333333 -4.0820211794079237e-16 8
endloop
endfacet
facet normal -0.7660316744578951 0.07544753463339596 0.6383597287149119
outer loop
vertex -3.333333333333333 -4.0820211794079237e-16 8
vertex -3.2692842680107677 0.6503010733870944 8
vertex -6.538568536021536 1.300602146774189 4
endloop
endfacet
facet normal 0 0 -1
outer loop
vertex 0 0 4
vertex -6.538568536021536 1.300602146774189 4
vertex -6.159196883408579 2.5512228824339314 4
endloop
endfacet
facet normal -0.73659350680399 0.2234431974556928 0.6383597287149124
outer loop
vertex -6.538568536021536 1.300602146774189 4
vertex -3.2692842680107677 0.6503010733870944 8
vertex -6.159196883408579 2.5512228824339314 4
endloop
endfacet
facet normal 0 0 1
outer loop
vertex 0 0 8
vertex -3.0795984417042894 1.2756114412169655 8
vertex -3.2692842680107677 0.6503010733870944 8
endloop
endfacet
facet normal -0.7365935068039908 0.22344319745569183 0.6383597287149119
outer loop
vertex -3.2692842680107677 0.6503010733870944 8
vertex -3.0795984417042894 1.2756114412169655 8
vertex -6.159196883408579 2.5512228824339314 4
endloop
endfacet
facet normal 0 0 -1
outer loop
vertex 0 0 4
vertex -6.159196883408579 2.5512228824339314 4
vertex -5.5431307486836365 3.703801553464013 4
endloop
endfacet
facet normal -0.6788484637700058 0.36285206350815474 0.6383597287149128
outer loop
vertex -6.159196883408579 2.5512228824339314 4
vertex -3.0795984417042894 1.2756114412169655 8
vertex -5.5431307486836365 3.703801553464013 4
endloop
endfacet
facet normal 0 0 1
outer loop
vertex 0 0 8
vertex -2.771565374341818 1.8519007767320064 8
vertex -3.0795984417042894 1.2756114412169655 8
endloop
endfacet
facet normal -0.6788484637700054 0.3628520635081562 0.6383597287149124
outer loop
vertex -3.0795984417042894 1.2756114412169655 8
vertex -2.771565374341818 1.8519007767320064 8
vertex -5.5431307486836365 3.703801553464013 4
endloop
endfacet
facet normal 0 0 -1
outer loop
vertex 0 0 4
vertex -5.5431307486836365 3.703801553464013 4
vertex -4.714045207910318 4.714045207910317 4
endloop
endfacet
facet normal -0.5950156549759454 0.48831672824978084 0.6383597287149122
outer loop
vertex -5.5431307486836365 3.703801553464013 4
vertex -2.771565374341818 1.8519007767320064 8
vertex -4.714045207910318 4.714045207910317 4
endloop
endfacet
facet normal 0 0 1
outer loop
vertex 0 0 8
vertex -2.357022603955159 2.357022603955158 8
vertex -2.771565374341818 1.8519007767320064 8
endloop
endfacet
facet normal -0.5950156549759454 0.48831672824978073 0.6383597287149122
outer loop
vertex -2.771565374341818 1.8519007767320064 8
vertex -2.357022603955159 2.357022603955158 8
vertex -4.714045207910318 4.714045207910317 4
endloop
endfacet
facet normal 0 0 -1
outer loop
vertex 0 0 4
vertex -4.714045207910318 4.714045207910317 4
vertex -3.7038015534640145 5.543130748683635 4
endloop
endfacet
facet normal -0.48831672824978145 0.5950156549759453 0.638359728714912
outer loop
vertex -4.714045207910318 4.714045207910317 4
vertex -2.357022603955159 2.357022603955158 8
vertex -3.7038015534640145 5.543130748683635 4
endloop
endfacet
facet normal 0 0 1
outer loop
vertex 0 0 8
vertex -1.851900776732007 2.7715653743418174 8
vertex -2.357022603955159 2.357022603955158 8
endloop
endfacet
facet normal -0.48831672824978195 0.5950156549759451 0.6383597287149118
outer loop
vertex -2.357022603955159 2.357022603955158 8
vertex -1.851900776732007 2.7715653743418174 8
vertex -3.7038015534640145 5.543130748683635 4
endloop
endfacet
facet normal 0 0 -1
outer loop
vertex 0 0 4
vertex -3.7038015534640145 5.543130748683635 4
vertex -2.551222882433936 6.159196883408577 4
endloop
endfacet
facet normal -0.36285206350815585 0.6788484637700053 0.6383597287149126
outer loop
vertex -3.7038015534640145 5.543130748683635 4
vertex -1.851900776732007 2.7715653743418174 8
vertex -2.551222882433936 6.159196883408577 4
endloop
endfacet
facet normal 0 0 1
outer loop
vertex 0 0 8
vertex -1.2756114412169677 3.079598441704288 8
vertex -1.851900776732007 2.7715653743418174 8
endloop
endfacet
facet normal -0.3628520635081562 0.6788484637700054 0.6383597287149124
outer loop
vertex -1.851900776732007 2.7715653743418174 8
vertex -1.2756114412169677 3.079598441704288 8
vertex -2.551222882433936 6.159196883408577 4
endloop
endfacet
facet normal 0 0 -1
outer loop
vertex 0 0 4
vertex -2.551222882433936 6.159196883408577 4
vertex -1.300602146774191 6.538568536021535 4
endloop
endfacet
facet normal -0.22344319745569274 0.7365935068039898 0.6383597287149128
outer loop
vertex -2.551222882433936 6.159196883408577 4
vertex -1.2756114412169677 3.079598441704288 8
vertex -1.300602146774191 6.538568536021535 4
endloop
endfacet
facet normal 0 0 1
outer loop
vertex 0 0 8
vertex -0.6503010733870955 3.2692842680107677 8
vertex -1.2756114412169677 3.079598441704288 8
endloop
endfacet
facet normal -0.22344319745569366 0.7365935068039899 0.6383597287149123
outer loop
vertex -1.2756114412169677 3.079598441704288 8
vertex -0.6503010733870955 3.2692842680107677 8
vertex -1.300602146774191 6.538568536021535 4
endloop
endfacet
facet normal 0 0 -1
outer loop
vertex 0 0 4
vertex -1.300602146774191 6.538568536021535 4
vertex -1.2246063538223773e-15 6.666666666666667 4
endloop
endfacet
facet normal -0.07544753463339743 0.7660316744578949 0.6383597287149119
outer loop
vertex -1.300602146774191 6.538568536021535 4
vertex -0.6503010733870955 3.2692842680107677 8
vertex -1.2246063538223773e-15 6.666666666666667 4
endloop
endfacet
facet normal 0 0 1
outer loop
vertex 0 0 8
vertex -6.123031769111885e-16 3.333333333333333 8
vertex -0.6503010733870955 3.2692842680107677 8
endloop
endfacet
facet normal -0.07544753463339708 0.7660316744578951 0.6383597287149119
outer loop
vertex -0.6503010733870955 3.2692842680107677 8
vertex -6.123031769111885e-16 3.333333333333333 8
vertex -1.2246063538223773e-15 6.666666666666667 4
endloop
endfacet
facet normal 0 0 -1
outer loop
vertex 0 0 4
vertex -1.2246063538223773e-15 6.666666666666667 4
vertex 1.3006021467741888 6.538568536021536 4
endloop
endfacet
facet normal 0.07544753463339651 0.7660316744578946 0.6383597287149125
outer loop
vertex -1.2246063538223773e-15 6.666666666666667 4
vertex -6.123031769111885e-16 3.333333333333333 8
vertex 1.3006021467741888 6.538568536021536 4
endloop
endfacet
facet normal 0 0 1
outer loop
vertex 0 0 8
vertex 0.6503010733870943 3.2692842680107677 8
vertex -6.123031769111885e-16 3.333333333333333 8
endloop
endfacet
facet normal 0.07544753463339596 0.7660316744578951 0.6383597287149119
outer loop
vertex -6.123031769111885e-16 3.333333333333333 8
vertex 0.6503010733870943 3.2692842680107677 8
vertex 1.3006021467741888 6.538568536021536 4
endloop
endfacet
facet normal 0 0 -1
outer loop
vertex 0 0 4
vertex 1.3006021467741888 6.538568536021536 4
vertex 2.5512228824339336 6.159196883408578 4
endloop
endfacet
facet normal 0.2234431974556928 0.73659350680399 0.6383597287149124
outer loop
vertex 1.3006021467741888 6.538568536021536 4
vertex 0.6503010733870943 3.2692842680107677 8
vertex 2.5512228824339336 6.159196883408578 4
endloop
endfacet
facet normal 0 0 1
outer loop
vertex 0 0 8
vertex 1.2756114412169666 3.0795984417042885 8
vertex 0.6503010733870943 3.2692842680107677 8
endloop
endfacet
facet normal 0.22344319745569224 0.7365935068039904 0.6383597287149123
outer loop
vertex 0.6503010733870943 3.2692842680107677 8
vertex 1.2756114412169666 3.0795984417042885 8
vertex 2.5512228824339336 6.159196883408578 4
endloop
endfacet
facet normal 0 0 -1
outer loop
vertex 0 0 4
vertex 2.5512228824339336 6.159196883408578 4
vertex 3.7038015534640123 5.5431307486836365 4
endloop
endfacet
facet normal 0.36285206350815574 0.6788484637700061 0.6383597287149121
outer loop
vertex 2.5512228824339336 6.159196883408578 4
vertex 1.2756114412169666 3.0795984417042885 8
vertex 3.7038015534640123 5.5431307486836365 4
endloop
endfacet
facet normal 0 0 1
outer loop
vertex 0 0 8
vertex 1.851900776732006 2.771565374341818 8
vertex 1.2756114412169666 3.0795984417042885 8
endloop
endfacet
facet normal 0.36285206350815574 0.6788484637700056 0.6383597287149124
outer loop
vertex 1.2756114412169666 3.0795984417042885 8
vertex 1.851900776732006 2.771565374341818 8
vertex 3.7038015534640123 5.5431307486836365 4
endloop
endfacet
facet normal 0 0 -1
outer loop
vertex 0 0 4
vertex 3.7038015534640123 5.5431307486836365 4
vertex 4.714045207910316 4.714045207910318 4
endloop
endfacet
facet normal 0.48831672824978084 0.5950156549759454 0.6383597287149122
outer loop
vertex 3.7038015534640123 5.5431307486836365 4
vertex 1.851900776732006 2.771565374341818 8
vertex 4.714045207910316 4.714045207910318 4
endloop
endfacet
facet normal 0 0 1
outer loop
vertex 0 0 8
vertex 2.3570226039551576 2.357022603955159 8
vertex 1.851900776732006 2.771565374341818 8
endloop
endfacet
facet normal 0.48831672824978073 0.5950156549759454 0.6383597287149122
outer loop
vertex 1.851900776732006 2.771565374341818 8
vertex 2.3570226039551576 2.357022603955159 8
vertex 4.714045207910316 4.714045207910318 4
endloop
endfacet
facet normal 0 0 -1
outer loop
vertex 0 0 4
vertex 4.714045207910316 4.714045207910318 4
vertex 5.543130748683635 3.7038015534640145 4
endloop
endfacet
facet normal 0.5950156549759447 0.4883167282497815 0.6383597287149123
outer loop
vertex 4.714045207910316 4.714045207910318 4
vertex 2.3570226039551576 2.357022603955159 8
vertex 5.543130748683635 3.7038015534640145 4
endloop
endfacet
facet normal 0 0 1
outer loop
vertex 0 0 8
vertex 2.7715653743418174 1.851900776732007 8
vertex 2.3570226039551576 2.357022603955159 8
endloop
endfacet
facet normal 0.5950156549759444 0.48831672824978095 0.6383597287149131
outer loop
vertex 2.3570226039551576 2.357022603955159 8
vertex 2.7715653743418174 1.851900776732007 8
vertex 5.543130748683635 3.7038015534640145 4
endloop
endfacet
facet normal 0 0 -1
outer loop
vertex 0 0 4
vertex 5.543130748683635 3.7038015534640145 4
vertex 6.159196883408577 2.5512228824339362 4
endloop
endfacet
facet normal 0.6788484637700054 0.3628520635081558 0.6383597287149126
outer loop
vertex 5.543130748683635 3.7038015534640145 4
vertex 2.7715653743418174 1.851900776732007 8
vertex 6.159196883408577 2.5512228824339362 4
endloop
endfacet
facet normal 0 0 1
outer loop
vertex 0 0 8
vertex 3.079598441704288 1.275611441216968 8
vertex 2.7715653743418174 1.851900776732007 8
endloop
endfacet
facet normal 0.6788484637700057 0.36285206350815624 0.6383597287149122
outer loop
vertex 2.7715653743418174 1.851900776732007 8
vertex 3.079598441704288 1.275611441216968 8
vertex 6.159196883408577 2.5512228824339362 4
endloop
endfacet
facet normal 0 0 -1
outer loop
vertex 0 0 4
vertex 6.159196883408577 2.5512228824339362 4
vertex 6.538568536021535 1.3006021467741915 4
endloop
endfacet
facet normal 0.73659350680399 0.2234431974556928 0.6383597287149124
outer loop
vertex 6.159196883408577 2.5512228824339362 4
vertex 3.079598441704288 1.275611441216968 8
vertex 6.538568536021535 1.3006021467741915 4
endloop
endfacet
facet normal 0 0 1
outer loop
vertex 0 0 8
vertex 3.2692842680107677 0.6503010733870956 8
vertex 3.079598441704288 1.275611441216968 8
endloop
endfacet
facet normal 0.73659350680399 0.2234431974556932 0.6383597287149123
outer loop
vertex 3.079598441704288 1.275611441216968 8
vertex 3.2692842680107677 0.6503010733870956 8
vertex 6.538568536021535 1.3006021467741915 4
endloop
endfacet
facet normal 0 0 -1
outer loop
vertex 0 0 4
vertex 6.538568536021535 1.3006021467741915 4
vertex 6.666666666666667 1.6328084717631697e-15 4
endloop
endfacet
facet normal 0.7660316744578947 0.07544753463339686 0.6383597287149123
outer loop
vertex 6.538568536021535 1.3006021467741915 4
vertex 3.2692842680107677 0.6503010733870956 8
vertex 6.666666666666667 1.6328084717631697e-15 4
endloop
endfacet
facet normal 0 0 1
outer loop
vertex 0 0 8
vertex 3.333333333333333 8.164042358815847e-16 8
vertex 3.2692842680107677 0.6503010733870956 8
endloop
endfacet
facet normal 0.7660316744578944 0.07544753463339594 0.6383597287149128
outer loop
vertex 3.2692842680107677 0.6503010733870956 8
vertex 3.333333333333333 8.164042358815847e-16 8
vertex 6.666666666666667 1.6328084717631697e-15 4
endloop
endfacet
facet normal 0 0 -1
outer loop
vertex 0 0 8
vertex 5.666666666666667 0 8
vertex 5.557783255618306 -1.1055118247580602 8
endloop
endfacet
facet normal 0.8134016011760961 -0.08011306519279772 0.5761594674997345
outer loop
vertex 5.666666666666667 0 8
vertex 2.833333333333333 0 12
vertex 5.557783255618306 -1.1055118247580602 8
endloop
endfacet
facet normal 0 0 1
outer loop
vertex 0 0 12
vertex 2.7788916278091524 -0.55275591237903 12
vertex 2.833333333333333 0 12
endloop
endfacet
facet normal 0.8134016011760955 -0.08011306519279872 0.5761594674997352
outer loop
vertex 2.833333333333333 0 12
vertex 2.7788916278091524 -0.55275591237903 12
vertex 5.557783255618306 -1.1055118247580602 8
endloop
endfacet
facet normal 0 0 -1
outer loop
vertex 0 0 8
vertex 5.557783255618306 -1.1055118247580602 8
vertex 5.235317350897292 -2.168539450068842 8
endloop
endfacet
facet normal 0.7821430338037719 -0.2372604954109593 0.5761594674997347
outer loop
vertex 5.557783255618306 -1.1055118247580602 8
vertex 2.7788916278091524 -0.55275591237903 12
vertex 5.235317350897292 -2.168539450068842 8
endloop
endfacet
facet normal 0 0 1
outer loop
vertex 0 0 12
vertex 2.6176586754486455 -1.0842697250344209 12
vertex 2.7788916278091524 -0.55275591237903 12
endloop
endfacet
facet normal 0.7821430338037719 -0.23726049541095934 0.5761594674997347
outer loop
vertex 2.7788916278091524 -0.55275591237903 12
vertex 2.6176586754486455 -1.0842697250344209 12
vertex 5.235317350897292 -2.168539450068842 8
endloop
endfacet
facet normal 0 0 -1
outer loop
vertex 0 0 8
vertex 5.235317350897292 -2.168539450068842 8
vertex 4.71166113638109 -3.1482313204444123 8
endloop
endfacet
facet normal 0.7208271482732362 -0.3852901378476961 0.5761594674997342
outer loop
vertex 5.235317350897292 -2.168539450068842 8
vertex 2.6176586754486455 -1.0842697250344209 12
vertex 4.71166113638109 -3.1482313204444123 8
endloop
endfacet
facet normal 0 0 1
outer loop
vertex 0 0 12
vertex 2.3558305681905445 -1.574115660222206 12
vertex 2.6176586754486455 -1.0842697250344209 12
endloop
endfacet
facet normal 0.7208271482732362 -0.3852901378476961 0.5761594674997342
outer loop
vertex 2.6176586754486455 -1.0842697250344209 12
vertex 2.3558305681905445 -1.574115660222206 12
vertex 4.71166113638109 -3.1482313204444123 8
endloop
endfacet
facet normal 0 0 -1
outer loop
vertex 0 0 8
vertex 4.71166113638109 -3.1482313204444123 8
vertex 4.00693842672377 -4.006938426723769 8
endloop
endfacet
facet normal 0.6318102796790814 -0.5185132963601446 0.5761594674997346
outer loop
vertex 4.71166113638109 -3.1482313204444123 8
vertex 2.3558305681905445 -1.574115660222206 12
vertex 4.00693842672377 -4.006938426723769 8
endloop
endfacet
facet normal 0 0 1
outer loop
vertex 0 0 12
vertex 2.0034692133618845 -2.003469213361884 12
vertex 2.3558305681905445 -1.574115660222206 12
endloop
endfacet
facet normal 0.6318102796790802 -0.5185132963601458 0.5761594674997351
outer loop
vertex 2.3558305681905445 -1.574115660222206 12
vertex 2.0034692133618845 -2.003469213361884 12
vertex 4.00693842672377 -4.006938426723769 8
endloop
endfacet
facet normal 0 0 -1
outer loop
vertex 0 0 8
vertex 4.00693842672377 -4.006938426723769 8
vertex 3.1482313204444132 -4.71166113638109 8
endloop
endfacet
facet normal 0.5185132963601459 -0.6318102796790808 0.5761594674997345
outer loop
vertex 4.00693842672377 -4.006938426723769 8
vertex 2.0034692133618845 -2.003469213361884 12
vertex 3.1482313204444132 -4.71166113638109 8
endloop
endfacet
facet normal 0 0 1
outer loop
vertex 0 0 12
vertex 1.5741156602222064 -2.3558305681905445 12
vertex 2.0034692133618845 -2.003469213361884 12
endloop
endfacet
facet normal 0.5185132963601462 -0.6318102796790799 0.5761594674997348
outer loop
vertex 2.0034692133618845 -2.003469213361884 12
vertex 1.5741156602222064 -2.3558305681905445 12
vertex 3.1482313204444132 -4.71166113638109 8
endloop
endfacet
facet normal 0 0 -1
outer loop
vertex 0 0 8
vertex 3.1482313204444132 -4.71166113638109 8
vertex 2.1685394500688426 -5.235317350897292 8
endloop
endfacet
facet normal 0.38529013784769706 -0.7208271482732352 0.5761594674997349
outer loop
vertex 3.1482313204444132 -4.71166113638109 8
vertex 1.5741156602222064 -2.3558305681905445 12
vertex 2.1685394500688426 -5.235317350897292 8
endloop
endfacet
facet normal 0 0 1
outer loop
vertex 0 0 12
vertex 1.084269725034421 -2.6176586754486455 12
vertex 1.5741156602222064 -2.3558305681905445 12
endloop
endfacet
facet normal 0.38529013784769706 -0.7208271482732352 0.5761594674997349
outer loop
vertex 1.5741156602222064 -2.3558305681905445 12
vertex 1.084269725034421 -2.6176586754486455 12
vertex 2.1685394500688426 -5.235317350897292 8
endloop
endfacet
facet normal 0 0 -1
outer loop
vertex 0 0 8
vertex 2.1685394500688426 -5.235317350897292 8
vertex 1.1055118247580606 -5.557783255618306 8
endloop
endfacet
facet normal 0.23726049541095934 -0.7821430338037719 0.5761594674997347
outer loop
vertex 2.1685394500688426 -5.235317350897292 8
vertex 1.084269725034421 -2.6176586754486455 12
vertex 1.1055118247580606 -5.557783255618306 8
endloop
endfacet
facet normal 0 0 1
outer loop
vertex 0 0 12
vertex 0.5527559123790302 -2.7788916278091524 12
vertex 1.084269725034421 -2.6176586754486455 12
endloop
endfacet
facet normal 0.23726049541095934 -0.7821430338037719 0.5761594674997347
outer loop
vertex 1.084269725034421 -2.6176586754486455 12
vertex 0.5527559123790302 -2.7788916278091524 12
vertex 1.1055118247580606 -5.557783255618306 8
endloop
endfacet
facet normal 0 0 -1
outer loop
vertex 0 0 8
vertex 1.1055118247580606 -5.557783255618306 8
vertex 3.4697180024967356e-16 -5.666666666666667 8
endloop
endfacet
facet normal 0.08011306519279873 -0.8134016011760958 0.5761594674997347
outer loop
vertex 1.1055118247580606 -5.557783255618306 8
vertex 0.5527559123790302 -2.7788916278091524 12
vertex 3.4697180024967356e-16 -5.666666666666667 8
endloop
endfacet
facet normal 0 0 1
outer loop
vertex 0 0 12
vertex 1.7348590012483675e-16 -2.833333333333333 12
vertex 0.5527559123790302 -2.7788916278091524 12
endloop
endfacet
facet normal 0.08011306519279872 -0.8134016011760955 0.5761594674997352
outer loop
vertex 0.5527559123790302 -2.7788916278091524 12
vertex 1.7348590012483675e-16 -2.833333333333333 12
vertex 3.4697180024967356e-16 -5.666666666666667 8
endloop
endfacet
facet normal 0 0 -1
outer loop
vertex 0 0 8
vertex 3.4697180024967356e-16 -5.666666666666667 8
vertex -1.1055118247580598 -5.557783255618306 8
endloop
endfacet
facet normal -0.08011306519279772 -0.8134016011760961 0.5761594674997345
outer loop
vertex 3.4697180024967356e-16 -5.666666666666667 8
vertex 1.7348590012483675e-16 -2.833333333333333 12
vertex -1.1055118247580598 -5.557783255618306 8
endloop
endfacet
facet normal 0 0 1
outer loop
vertex 0 0 12
vertex -0.5527559123790298 -2.7788916278091524 12
vertex 1.7348590012483675e-16 -2.833333333333333 12
endloop
endfacet
facet normal -0.08011306519279872 -0.8134016011760955 0.5761594674997352
outer loop
vertex 1.7348590012483675e-16 -2.833333333333333 12
vertex -0.5527559123790298 -2.7788916278091524 12
vertex -1.1055118247580598 -5.557783255618306 8
endloop
endfacet
facet normal 0 0 -1
outer loop
vertex 0 0 8
vertex -1.1055118247580598 -5.557783255618306 8
vertex -2.1685394500688417 -5.235317350897292 8
endloop
endfacet
facet normal -0.2372604954109593 -0.7821430338037725 0.5761594674997338
outer loop
vertex -1.1055118247580598 -5.557783255618306 8
vertex -0.5527559123790298 -2.7788916278091524 12
vertex -2.1685394500688417 -5.235317350897292 8
endloop
endfacet
facet normal 0 0 1
outer loop
vertex 0 0 12
vertex -1.0842697250344209 -2.6176586754486455 12
vertex -0.5527559123790298 -2.7788916278091524 12
endloop
endfacet
facet normal -0.2372604954109591 -0.782143033803772 0.5761594674997347
outer loop
vertex -0.5527559123790298 -2.7788916278091524 12
vertex -1.0842697250344209 -2.6176586754486455 12
vertex -2.1685394500688417 -5.235317350897292 8
endloop
endfacet
facet normal 0 0 -1
outer loop
vertex 0 0 8
vertex -2.1685394500688417 -5.235317350897292 8
vertex -3.1482313204444115 -4.711661136381091 8
endloop
endfacet
facet normal -0.38529013784769656 -0.7208271482732355 0.5761594674997347
outer loop
vertex -2.1685394500688417 -5.235317350897292 8
vertex -1.0842697250344209 -2.6176586754486455 12
vertex -3.1482313204444115 -4.711661136381091 8
endloop
endfacet
facet normal 0 0 1
outer loop
vertex 0 0 12
vertex -1.5741156602222053 -2.3558305681905454 12
vertex -1.0842697250344209 -2.6176586754486455 12
endloop
endfacet
facet normal -0.38529013784769667 -0.7208271482732356 0.5761594674997347
outer loop
vertex -1.0842697250344209 -2.6176586754486455 12
vertex -1.5741156602222053 -2.3558305681905454 12
vertex -3.1482313204444115 -4.711661136381091 8
endloop
endfacet
facet normal 0 0 -1
outer loop
vertex 0 0 8
vertex -3.1482313204444115 -4.711661136381091 8
vertex -4.006938426723769 -4.00693842672377 8
endloop
endfacet
facet normal -0.5185132963601446 -0.6318102796790814 0.5761594674997346
outer loop
vertex -3.1482313204444115 -4.711661136381091 8
vertex -1.5741156602222053 -2.3558305681905454 12
vertex -4.006938426723769 -4.00693842672377 8
endloop
endfacet
facet normal 0 0 1
outer loop
vertex 0 0 12
vertex -2.003469213361884 -2.0034692133618845 12
vertex -1.5741156602222053 -2.3558305681905454 12
endloop
endfacet
facet normal -0.518513296360146 -0.63181027967908 0.5761594674997349
outer loop
vertex -1.5741156602222053 -2.3558305681905454 12
vertex -2.003469213361884 -2.0034692133618845 12
vertex -4.006938426723769 -4.00693842672377 8
endloop
endfacet
facet normal 0 0 -1
outer loop
vertex 0 0 8
vertex -4.006938426723769 -4.00693842672377 8
vertex -4.711661136381091 -3.1482313204444123 8
endloop
endfacet
facet normal -0.6318102796790808 -0.5185132963601459 0.5761594674997339
outer loop
vertex -4.006938426723769 -4.00693842672377 8
vertex -2.003469213361884 -2.0034692133618845 12
vertex -4.711661136381091 -3.1482313204444123 8
endloop
endfacet
facet normal 0 0 1
outer loop
vertex 0 0 12
vertex -2.355830568190545 -1.574115660222206 12
vertex -2.003469213361884 -2.0034692133618845 12
endloop
endfacet
facet normal -0.6318102796790807 -0.5185132963601459 0.5761594674997343
outer loop
vertex -2.003469213361884 -2.0034692133618845 12
vertex -2.355830568190545 -1.574115660222206 12
vertex -4.711661136381091 -3.1482313204444123 8
endloop
endfacet
facet normal 0 0 -1
outer loop
vertex 0 0 8
vertex -4.711661136381091 -3.1482313204444123 8
vertex -5.235317350897292 -2.1685394500688426 8
endloop
endfacet
facet normal -0.7208271482732352 -0.38529013784769695 0.576159467499735
outer loop
vertex -4.711661136381091 -3.1482313204444123 8
vertex -2.355830568190545 -1.574115660222206 12
vertex -5.235317350897292 -2.1685394500688426 8
endloop
endfacet
facet normal 0 0 1
outer loop
vertex 0 0 12
vertex -2.6176586754486455 -1.0842697250344213 12
vertex -2.355830568190545 -1.574115660222206 12
endloop
endfacet
facet normal -0.7208271482732354 -0.38529013784769706 0.5761594674997346
outer loop
vertex -2.355830568190545 -1.574115660222206 12
vertex -2.6176586754486455 -1.0842697250344213 12
vertex -5.235317350897292 -2.1685394500688426 8
endloop
endfacet
facet normal 0 0 -1
outer loop
vertex 0 0 8
vertex -5.235317350897292 -2.1685394500688426 8
vertex -5.557783255618306 -1.1055118247580622 8
endloop
endfacet
facet normal -0.7821430338037718 -0.23726049541095942 0.576159467499735
outer loop
vertex -5.235317350897292 -2.1685394500688426 8
vertex -2.6176586754486455 -1.0842697250344213 12
vertex -5.557783255618306 -1.1055118247580622 8
endloop
endfacet
facet normal 0 0 1
outer loop
vertex 0 0 12
vertex -2.7788916278091524 -0.552755912379031 12
vertex -2.6176586754486455 -1.0842697250344213 12
endloop
endfacet
facet normal -0.7821430338037714 -0.2372604954109594 0.5761594674997355
outer loop
vertex -2.6176586754486455 -1.0842697250344213 12
vertex -2.7788916278091524 -0.552755912379031 12
vertex -5.557783255618306 -1.1055118247580622 8
endloop
endfacet
facet normal 0 0 -1
outer loop
vertex 0 0 8
vertex -5.557783255618306 -1.1055118247580622 8
vertex -5.666666666666667 -6.939436004993471e-16 8
endloop
endfacet
facet normal -0.8134016011760961 -0.08011306519279872 0.5761594674997343
outer loop
vertex -5.557783255618306 -1.1055118247580622 8
vertex -2.7788916278091524 -0.552755912379031 12
vertex -5.666666666666667 -6.939436004993471e-16 8
endloop
endfacet
facet normal 0 0 1
outer loop
vertex 0 0 12
vertex -2.833333333333333 -3.469718002496735e-16 12
vertex -2.7788916278091524 -0.552755912379031 12
endloop
endfacet
facet normal -0.8134016011760958 -0.0801130651927977 0.5761594674997347
outer loop
vertex -2.7788916278091524 -0.552755912379031 12
vertex -2.833333333333333 -3.469718002496735e-16 12
vertex -5.666666666666667 -6.939436004993471e-16 8
endloop
endfacet
facet normal 0 0 -1
outer loop
vertex 0 0 8
vertex -5.666666666666667 -6.939436004993471e-16 8
vertex -5.557783255618306 1.1055118247580609 8
endloop
endfacet
facet normal -0.8134016011760962 0.08011306519279769 0.5761594674997345
outer loop
vertex -5.666666666666667 -6.939436004993471e-16 8
vertex -2.833333333333333 -3.469718002496735e-16 12
vertex -5.557783255618306 1.1055118247580609 8
endloop
endfacet
facet normal 0 0 1
outer loop
vertex 0 0 12
vertex -2.7788916278091524 0.5527559123790303 12
vertex -2.833333333333333 -3.469718002496735e-16 12
endloop
endfacet
facet normal -0.8134016011760958 0.08011306519279773 0.5761594674997347
outer loop
vertex -2.833333333333333 -3.469718002496735e-16 12
vertex -2.7788916278091524 0.5527559123790303 12
vertex -5.557783255618306 1.1055118247580609 8
endloop
endfacet
facet normal 0 0 -1
outer loop
vertex 0 0 8
vertex -5.557783255618306 1.1055118247580609 8
vertex -5.235317350897293 2.1685394500688417 8
endloop
endfacet
facet normal -0.782143033803772 0.237260495410959 0.5761594674997347
outer loop
vertex -5.557783255618306 1.1055118247580609 8
vertex -2.7788916278091524 0.5527559123790303 12
vertex -5.235317350897293 2.1685394500688417 8
endloop
endfacet
facet normal 0 0 1
outer loop
vertex 0 0 12
vertex -2.617658675448646 1.0842697250344207 12
vertex -2.7788916278091524 0.5527559123790303 12
endloop
endfacet
facet normal -0.7821430338037718 0.23726049541095895 0.576159467499735
outer loop
vertex -2.7788916278091524 0.5527559123790303 12
vertex -2.617658675448646 1.0842697250344207 12
vertex -5.235317350897293 2.1685394500688417 8
endloop
endfacet
facet normal 0 0 -1
outer loop
vertex 0 0 8
vertex -5.235317350897293 2.1685394500688417 8
vertex -4.711661136381091 3.1482313204444115 8
endloop
endfacet
facet normal -0.7208271482732344 0.3852901378476981 0.5761594674997352
outer loop
vertex -5.235317350897293 2.1685394500688417 8
vertex -2.617658675448646 1.0842697250344207 12
vertex -4.711661136381091 3.1482313204444115 8
endloop
endfacet
facet normal 0 0 1
outer loop
vertex 0 0 12
vertex -2.3558305681905454 1.5741156602222053 12
vertex -2.617658675448646 1.0842697250344207 12
endloop
endfacet
facet normal -0.7208271482732355 0.385290137847697 0.5761594674997347
outer loop
vertex -2.617658675448646 1.0842697250344207 12
vertex -2.3558305681905454 1.5741156602222053 12
vertex -4.711661136381091 3.1482313204444115 8
endloop
endfacet
facet normal 0 0 -1
outer loop
vertex 0 0 8
vertex -4.711661136381091 3.1482313204444115 8
vertex -4.00693842672377 4.006938426723769 8
endloop
endfacet
facet normal -0.6318102796790802 0.5185132963601458 0.5761594674997351
outer loop
vertex -4.711661136381091 3.1482313204444115 8
vertex -2.3558305681905454 1.5741156602222053 12
vertex -4.00693842672377 4.006938426723769 8
endloop
endfacet
facet normal 0 0 1
outer loop
vertex 0 0 12
vertex -2.003469213361885 2.003469213361884 12
vertex -2.3558305681905454 1.5741156602222053 12
endloop
endfacet
facet normal -0.63181027967908 0.518513296360146 0.5761594674997349
outer loop
vertex -2.3558305681905454 1.5741156602222053 12
vertex -2.003469213361885 2.003469213361884 12
vertex -4.00693842672377 4.006938426723769 8
endloop
endfacet
facet normal 0 0 -1
outer loop
vertex 0 0 8
vertex -4.00693842672377 4.006938426723769 8
vertex -3.1482313204444123 4.71166113638109 8
endloop
endfacet
facet normal -0.5185132963601446 0.6318102796790807 0.5761594674997355
outer loop
vertex -4.00693842672377 4.006938426723769 8
vertex -2.003469213361885 2.003469213361884 12
vertex -3.1482313204444123 4.71166113638109 8
endloop
endfacet
facet normal 0 0 1
outer loop
vertex 0 0 12
vertex -1.574115660222206 2.3558305681905445 12
vertex -2.003469213361885 2.003469213361884 12
endloop
endfacet
facet normal -0.5185132963601446 0.6318102796790807 0.5761594674997355
outer loop
vertex -2.003469213361885 2.003469213361884 12
vertex -1.574115660222206 2.3558305681905445 12
vertex -3.1482313204444123 4.71166113638109 8
endloop
endfacet
facet normal 0 0 -1
outer loop
vertex 0 0 8
vertex -3.1482313204444123 4.71166113638109 8
vertex -2.1685394500688453 5.23531735089729 8
endloop
endfacet
facet normal -0.38529013784769706 0.7208271482732354 0.5761594674997346
outer loop
vertex -3.1482313204444123 4.71166113638109 8
vertex -1.574115660222206 2.3558305681905445 12
vertex -2.1685394500688453 5.23531735089729 8
endloop
endfacet
facet normal 0 0 1
outer loop
vertex 0 0 12
vertex -1.0842697250344224 2.617658675448645 12
vertex -1.574115660222206 2.3558305681905445 12
endloop
endfacet
facet normal -0.3852901378476972 0.7208271482732352 0.5761594674997346
outer loop
vertex -1.574115660222206 2.3558305681905445 12
vertex -1.0842697250344224 2.617658675448645 12
vertex -2.1685394500688453 5.23531735089729 8
endloop
endfacet
facet normal 0 0 -1
outer loop
vertex 0 0 8
vertex -2.1685394500688453 5.23531735089729 8
vertex -1.1055118247580624 5.557783255618306 8
endloop
endfacet
facet normal -0.23726049541095984 0.782143033803771 0.5761594674997358
outer loop
vertex -2.1685394500688453 5.23531735089729 8
vertex -1.0842697250344224 2.617658675448645 12
vertex -1.1055118247580624 5.557783255618306 8
endloop
endfacet
facet normal 0 0 1
outer loop
vertex 0 0 12
vertex -0.5527559123790312 2.7788916278091524 12
vertex -1.0842697250344224 2.617658675448645 12
endloop
endfacet
facet normal -0.2372604954109595 0.7821430338037717 0.5761594674997349
outer loop
vertex -1.0842697250344224 2.617658675448645 12
vertex -0.5527559123790312 2.7788916278091524 12
vertex -1.1055118247580624 5.557783255618306 8
endloop
endfacet
facet normal 0 0 -1
outer loop
vertex 0 0 8
vertex -1.1055118247580624 5.557783255618306 8
vertex -1.0409154007490207e-15 5.666666666666667 8
endloop
endfacet
facet normal -0.08011306519279772 0.8134016011760953 0.5761594674997357
outer loop
vertex -1.1055118247580624 5.557783255618306 8
vertex -0.5527559123790312 2.7788916278091524 12
vertex -1.0409154007490207e-15 5.666666666666667 8
endloop
endfacet
facet normal 0 0 1
outer loop
vertex 0 0 12
vertex -5.204577003745102e-16 2.833333333333333 12
vertex -0.5527559123790312 2.7788916278091524 12
endloop
endfacet
facet normal -0.0801130651927977 0.8134016011760958 0.5761594674997347
outer loop
vertex -0.5527559123790312 2.7788916278091524 12
vertex -5.204577003745102e-16 2.833333333333333 12
vertex -1.0409154007490207e-15 5.666666666666667 8
endloop
endfacet
facet normal 0 0 -1
outer loop
vertex 0 0 8
vertex -1.0409154007490207e-15 5.666666666666667 8
vertex 1.1055118247580604 5.557783255618306 8
endloop
endfacet
facet normal 0.08011306519279769 0.8134016011760962 0.5761594674997345
outer loop
vertex -1.0409154007490207e-15 5.666666666666667 8
vertex -5.204577003745102e-16 2.833333333333333 12
vertex 1.1055118247580604 5.557783255618306 8
endloop
endfacet
facet normal 0 0 1
outer loop
vertex 0 0 12
vertex 0.5527559123790301 2.7788916278091524 12
vertex -5.204577003745102e-16 2.833333333333333 12
endloop
endfacet
facet normal 0.08011306519279773 0.8134016011760958 0.5761594674997347
outer loop
vertex -5.204577003745102e-16 2.833333333333333 12
vertex 0.5527559123790301 2.7788916278091524 12
vertex 1.1055118247580604 5.557783255618306 8
endloop
endfacet
facet normal 0 0 -1
outer loop
vertex 0 0 8
vertex 1.1055118247580604 5.557783255618306 8
vertex 2.1685394500688435 5.235317350897291 8
endloop
endfacet
facet normal 0.23726049541095945 0.7821430338037719 0.5761594674997346
outer loop
vertex 1.1055118247580604 5.557783255618306 8
vertex 0.5527559123790301 2.7788916278091524 12
vertex 2.1685394500688435 5.235317350897291 8
endloop
endfacet
facet normal 0 0 1
outer loop
vertex 0 0 12
vertex 1.0842697250344215 2.617658675448645 12
vertex 0.5527559123790301 2.7788916278091524 12
endloop
endfacet
facet normal 0.23726049541095942 0.7821430338037718 0.576159467499735
outer loop
vertex 0.5527559123790301 2.7788916278091524 12
vertex 1.0842697250344215 2.617658675448645 12
vertex 2.1685394500688435 5.235317350897291 8
endloop
endfacet
facet normal 0 0 -1
outer loop
vertex 0 0 8
vertex 2.1685394500688435 5.235317350897291 8
vertex 3.1482313204444106 4.711661136381091 8
endloop
endfacet
facet normal 0.38529013784769706 0.7208271482732354 0.5761594674997346
outer loop
vertex 2.1685394500688435 5.235317350897291 8
vertex 1.0842697250344215 2.617658675448645 12
vertex 3.1482313204444106 4.711661136381091 8
endloop
endfacet
facet normal 0 0 1
outer loop
vertex 0 0 12
vertex 1.574115660222205 2.3558305681905454 12
vertex 1.0842697250344215 2.617658675448645 12
endloop
endfacet
facet normal 0.38529013784769656 0.7208271482732355 0.5761594674997347
outer loop
vertex 1.0842697250344215 2.617658675448645 12
vertex 1.574115660222205 2.3558305681905454 12
vertex 3.1482313204444106 4.711661136381091 8
endloop
endfacet
facet normal 0 0 -1
outer loop
vertex 0 0 8
vertex 3.1482313204444106 4.711661136381091 8
vertex 4.006938426723768 4.00693842672377 8
endloop
endfacet
facet normal 0.518513296360146 0.63181027967908 0.5761594674997349
outer loop
vertex 3.1482313204444106 4.711661136381091 8
vertex 1.574115660222205 2.3558305681905454 12
vertex 4.006938426723768 4.00693842672377 8
endloop
endfacet
facet normal 0 0 1
outer loop
vertex 0 0 12
vertex 2.003469213361884 2.003469213361885 12
vertex 1.574115660222205 2.3558305681905454 12
endloop
endfacet
facet normal 0.5185132963601458 0.6318102796790801 0.5761594674997349
outer loop
vertex 1.574115660222205 2.3558305681905454 12
vertex 2.003469213361884 2.003469213361885 12
vertex 4.006938426723768 4.00693842672377 8
endloop
endfacet
facet normal 0 0 -1
outer loop
vertex 0 0 8
vertex 4.006938426723768 4.00693842672377 8
vertex 4.71166113638109 3.1482313204444123 8
endloop
endfacet
facet normal 0.6318102796790808 0.5185132963601461 0.576159467499734
outer loop
vertex 4.006938426723768 4.00693842672377 8
vertex 2.003469213361884 2.003469213361885 12
vertex 4.71166113638109 3.1482313204444123 8
endloop
endfacet
facet normal 0 0 1
outer loop
vertex 0 0 12
vertex 2.3558305681905445 1.574115660222206 12
vertex 2.003469213361884 2.003469213361885 12
endloop
endfacet
facet normal 0.6318102796790807 0.5185132963601446 0.5761594674997355
outer loop
vertex 2.003469213361884 2.003469213361885 12
vertex 2.3558305681905445 1.574115660222206 12
vertex 4.71166113638109 3.1482313204444123 8
endloop
endfacet
facet normal 0 0 -1
outer loop
vertex 0 0 8
vertex 4.71166113638109 3.1482313204444123 8
vertex 5.23531735089729 2.1685394500688457 8
endloop
endfacet
facet normal 0.7208271482732354 0.38529013784769706 0.5761594674997346
outer loop
vertex 4.71166113638109 3.1482313204444123 8
vertex 2.3558305681905445 1.574115660222206 12
vertex 5.23531735089729 2.1685394500688457 8
endloop
endfacet
facet normal 0 0 1
outer loop
vertex 0 0 12
vertex 2.617658675448645 1.0842697250344226 12
vertex 2.3558305681905445 1.574115660222206 12
endloop
endfacet
facet normal 0.7208271482732352 0.38529013784769756 0.5761594674997345
outer loop
vertex 2.3558305681905445 1.574115660222206 12
vertex 2.617658675448645 1.0842697250344226 12
vertex 5.23531735089729 2.1685394500688457 8
endloop
endfacet
facet normal 0 0 -1
outer loop
vertex 0 0 8
vertex 5.23531735089729 2.1685394500688457 8
vertex 5.557783255618306 1.1055118247580629 8
endloop
endfacet
facet normal 0.7821430338037723 0.23726049541096086 0.5761594674997336
outer loop
vertex 5.23531735089729 2.1685394500688457 8
vertex 2.617658675448645 1.0842697250344226 12
vertex 5.557783255618306 1.1055118247580629 8
endloop
endfacet
facet normal 0 0 1
outer loop
vertex 0 0 12
vertex 2.7788916278091524 0.5527559123790313 12
vertex 2.617658675448645 1.0842697250344226 12
endloop
endfacet
facet normal 0.7821430338037719 0.23726049541095942 0.5761594674997347
outer loop
vertex 2.617658675448645 1.0842697250344226 12
vertex 2.7788916278091524 0.5527559123790313 12
vertex 5.557783255618306 1.1055118247580629 8
endloop
endfacet
facet normal 0 0 -1
outer loop
vertex 0 0 8
vertex 5.557783255618306 1.1055118247580629 8
vertex 5.666666666666667 1.3878872009986942e-15 8
endloop
endfacet
facet normal 0.8134016011760955 0.08011306519279769 0.5761594674997353
outer loop
vertex 5.557783255618306 1.1055118247580629 8
vertex 2.7788916278091524 0.5527559123790313 12
vertex 5.666666666666667 1.3878872009986942e-15 8
endloop
endfacet
facet normal 0 0 1
outer loop
vertex 0 0 12
vertex 2.833333333333333 6.93943600499347e-16 12
vertex 2.7788916278091524 0.5527559123790313 12
endloop
endfacet
facet normal 0.8134016011760958 0.08011306519279873 0.5761594674997347
outer loop
vertex 2.7788916278091524 0.5527559123790313 12
vertex 2.833333333333333 6.93943600499347e-16 12
vertex 5.666666666666667 1.3878872009986942e-15 8
endloop
endfacet
facet normal 0 0 -1
outer loop
vertex 0 0 12
vertex 4.816666666666666 0 12
vertex 4.72411576727556 -0.939685051044351 12
endloop
endfacet
facet normal 0.7775211271305374 -0.07657914695092993 0.6241766826131255
outer loop
vertex 4.816666666666666 0 12
vertex 0 0 18
vertex 4.72411576727556 -0.939685051044351 12
endloop
endfacet
facet normal 0 0 -1
outer loop
vertex 0 0 12
vertex 4.72411576727556 -0.939685051044351 12
vertex 4.450019748262697 -1.8432585325585158 12
endloop
endfacet
facet normal 0.7476414262537822 -0.22679454718154868 0.6241766826131258
outer loop
vertex 4.72411576727556 -0.939685051044351 12
vertex 0 0 18
vertex 4.450019748262697 -1.8432585325585158 12
endloop
endfacet
facet normal 0 0 -1
outer loop
vertex 0 0 12
vertex 4.450019748262697 -1.8432585325585158 12
vertex 4.004911965923926 -2.6759966223777503 12
endloop
endfacet
facet normal 0.6890302846482365 -0.36829436015182654 0.624176682613126
outer loop
vertex 4.450019748262697 -1.8432585325585158 12
vertex 0 0 18
vertex 4.004911965923926 -2.6759966223777503 12
endloop
endfacet
facet normal 0 0 -1
outer loop
vertex 0 0 12
vertex 4.004911965923926 -2.6759966223777503 12
vertex 3.405897662715204 -3.4058976627152036 12
endloop
endfacet
facet normal 0.6039400956162964 -0.4956408274033253 0.6241766826131252
outer loop
vertex 4.004911965923926 -2.6759966223777503 12
vertex 0 0 18
vertex 3.405897662715204 -3.4058976627152036 12
endloop
endfacet
facet normal 0 0 -1
outer loop
vertex 0 0 12
vertex 3.405897662715204 -3.4058976627152036 12
vertex 2.6759966223777507 -4.004911965923926 12
endloop
endfacet
facet normal 0.4956408274033266 -0.6039400956162948 0.6241766826131255
outer loop
vertex 3.405897662715204 -3.4058976627152036 12
vertex 0 0 18
vertex 2.6759966223777507 -4.004911965923926 12
endloop
endfacet
facet normal 0 0 -1
outer loop
vertex 0 0 12
vertex 2.6759966223777507 -4.004911965923926 12
vertex 1.843258532558516 -4.450019748262697 12
endloop
endfacet
facet normal 0.3682943601518255 -0.6890302846482368 0.6241766826131262
outer loop
vertex 2.6759966223777507 -4.004911965923926 12
vertex 0 0 18
vertex 1.843258532558516 -4.450019748262697 12
endloop
endfacet
facet normal 0 0 -1
outer loop
vertex 0 0 12
vertex 1.843258532558516 -4.450019748262697 12
vertex 0.9396850510443514 -4.72411576727556 12
endloop
endfacet
facet normal 0.2267945471815487 -0.7476414262537822 0.6241766826131256
outer loop
vertex 1.843258532558516 -4.450019748262697 12
vertex 0 0 18
vertex 0.9396850510443514 -4.72411576727556 12
endloop
endfacet
facet normal 0 0 -1
outer loop
vertex 0 0 12
vertex 0.9396850510443514 -4.72411576727556 12
vertex 2.9492603021222253e-16 -4.816666666666666 12
endloop
endfacet
facet normal 0.07657914695093103 -0.7775211271305374 0.6241766826131255
outer loop
vertex 0.9396850510443514 -4.72411576727556 12
vertex 0 0 18
vertex 2.9492603021222253e-16 -4.816666666666666 12
endloop
endfacet
facet normal 0 0 -1
outer loop
vertex 0 0 12
vertex 2.9492603021222253e-16 -4.816666666666666 12
vertex -0.9396850510443507 -4.72411576727556 12
endloop
endfacet
facet normal -0.07657914695092992 -0.7775211271305376 0.6241766826131256
outer loop
vertex 2.9492603021222253e-16 -4.816666666666666 12
vertex 0 0 18
vertex -0.9396850510443507 -4.72411576727556 12
endloop
endfacet
facet normal 0 0 -1
outer loop
vertex 0 0 12
vertex -0.9396850510443507 -4.72411576727556 12
vertex -1.8432585325585154 -4.450019748262697 12
endloop
endfacet
facet normal -0.22679454718154868 -0.7476414262537822 0.6241766826131258
outer loop
vertex -0.9396850510443507 -4.72411576727556 12
vertex 0 0 18
vertex -1.8432585325585154 -4.450019748262697 12
endloop
endfacet
facet normal 0 0 -1
outer loop
vertex 0 0 12
vertex -1.8432585325585154 -4.450019748262697 12
vertex -2.6759966223777494 -4.004911965923927 12
endloop
endfacet
facet normal -0.3682943601518261 -0.6890302846482366 0.6241766826131261
outer loop
vertex -1.8432585325585154 -4.450019748262697 12
vertex 0 0 18
vertex -2.6759966223777494 -4.004911965923927 12
endloop
endfacet
facet normal 0 0 -1
outer loop
vertex 0 0 12
vertex -2.6759966223777494 -4.004911965923927 12
vertex -3.4058976627152036 -3.405897662715204 12
endloop
endfacet
facet normal -0.4956408274033267 -0.6039400956162938 0.6241766826131264
outer loop
vertex -2.6759966223777494 -4.004911965923927 12
vertex 0 0 18
vertex -3.4058976627152036 -3.405897662715204 12
endloop
endfacet
facet normal 0 0 -1
outer loop
vertex 0 0 12
vertex -3.4058976627152036 -3.405897662715204 12
vertex -4.0049119659239265 -2.6759966223777503 12
endloop
endfacet
facet normal -0.6039400956162947 -0.4956408274033268 0.6241766826131255
outer loop
vertex -3.4058976627152036 -3.405897662715204 12
vertex 0 0 18
vertex -4.0049119659239265 -2.6759966223777503 12
endloop
endfacet
facet normal 0 0 -1
outer loop
vertex 0 0 12
vertex -4.0049119659239265 -2.6759966223777503 12
vertex -4.450019748262697 -1.8432585325585162 12
endloop
endfacet
facet normal -0.6890302846482372 -0.3682943601518266 0.6241766826131251
outer loop
vertex -4.0049119659239265 -2.6759966223777503 12
vertex 0 0 18
vertex -4.450019748262697 -1.8432585325585162 12
endloop
endfacet
facet normal 0 0 -1
outer loop
vertex 0 0 12
vertex -4.450019748262697 -1.8432585325585162 12
vertex -4.72411576727556 -0.9396850510443527 12
endloop
endfacet
facet normal -0.7476414262537822 -0.2267945471815487 0.6241766826131256
outer loop
vertex -4.450019748262697 -1.8432585325585162 12
vertex 0 0 18
vertex -4.72411576727556 -0.9396850510443527 12
endloop
endfacet
facet normal 0 0 -1
outer loop
vertex 0 0 12
vertex -4.72411576727556 -0.9396850510443527 12
vertex -4.816666666666666 -5.898520604244451e-16 12
endloop
endfacet
facet normal -0.7775211271305376 -0.07657914695092995 0.6241766826131255
outer loop
vertex -4.72411576727556 -0.9396850510443527 12
vertex 0 0 18
vertex -4.816666666666666 -5.898520604244451e-16 12
endloop
endfacet
facet normal 0 0 -1
outer loop
vertex 0 0 12
vertex -4.816666666666666 -5.898520604244451e-16 12
vertex -4.72411576727556 0.9396850510443515 12
endloop
endfacet
facet normal -0.7775211271305372 0.07657914695092989 0.6241766826131258
outer loop
vertex -4.816666666666666 -5.898520604244451e-16 12
vertex 0 0 18
vertex -4.72411576727556 0.9396850510443515 12
endloop
endfacet
facet normal 0 0 -1
outer loop
vertex 0 0 12
vertex -4.72411576727556 0.9396850510443515 12
vertex -4.450019748262698 1.8432585325585151 12
endloop
endfacet
facet normal -0.7476414262537824 0.22679454718154834 0.6241766826131256
outer loop
vertex -4.72411576727556 0.9396850510443515 12
vertex 0 0 18
vertex -4.450019748262698 1.8432585325585151 12
endloop
endfacet
facet normal 0 0 -1
outer loop
vertex 0 0 12
vertex -4.450019748262698 1.8432585325585151 12
vertex -4.004911965923927 2.6759966223777494 12
endloop
endfacet
facet normal -0.6890302846482377 0.3682943601518251 0.6241766826131255
outer loop
vertex -4.450019748262698 1.8432585325585151 12
vertex 0 0 18
vertex -4.004911965923927 2.6759966223777494 12
endloop
endfacet
facet normal 0 0 -1
outer loop
vertex 0 0 12
vertex -4.004911965923927 2.6759966223777494 12
vertex -3.4058976627152044 3.4058976627152036 12
endloop
endfacet
facet normal -0.6039400956162948 0.49564082740332677 0.6241766826131255
outer loop
vertex -4.004911965923927 2.6759966223777494 12
vertex 0 0 18
vertex -3.4058976627152044 3.4058976627152036 12
endloop
endfacet
facet normal 0 0 -1
outer loop
vertex 0 0 12
vertex -3.4058976627152044 3.4058976627152036 12
vertex -2.6759966223777503 4.004911965923926 12
endloop
endfacet
facet normal -0.49564082740332643 0.6039400956162957 0.6241766826131248
outer loop
vertex -3.4058976627152044 3.4058976627152036 12
vertex 0 0 18
vertex -2.6759966223777503 4.004911965923926 12
endloop
endfacet
facet normal 0 0 -1
outer loop
vertex 0 0 12
vertex -2.6759966223777503 4.004911965923926 12
vertex -1.8432585325585185 4.450019748262696 12
endloop
endfacet
facet normal -0.36829436015182665 0.6890302846482363 0.6241766826131259
outer loop
vertex -2.6759966223777503 4.004911965923926 12
vertex 0 0 18
vertex -1.8432585325585185 4.450019748262696 12
endloop
endfacet
facet normal 0 0 -1
outer loop
vertex 0 0 12
vertex -1.8432585325585185 4.450019748262696 12
vertex -0.9396850510443531 4.724115767275559 12
endloop
endfacet
facet normal -0.2267945471815484 0.7476414262537824 0.6241766826131255
outer loop
vertex -1.8432585325585185 4.450019748262696 12
vertex 0 0 18
vertex -0.9396850510443531 4.724115767275559 12
endloop
endfacet
facet normal 0 0 -1
outer loop
vertex 0 0 12
vertex -0.9396850510443531 4.724115767275559 12
vertex -8.8477809063666755e-16 4.816666666666666 12
endloop
endfacet
facet normal -0.07657914695093063 0.7775211271305374 0.6241766826131255
outer loop
vertex -0.9396850510443531 4.724115767275559 12
vertex 0 0 18
vertex -8.8477809063666755e-16 4.816666666666666 12
endloop
endfacet
facet normal 0 0 -1
outer loop
vertex 0 0 12
vertex -8.8477809063666755e-16 4.816666666666666 12
vertex 0.9396850510443513 4.72411576727556 12
endloop
endfacet
facet normal 0.07657914695093106 0.7775211271305374 0.6241766826131255
outer loop
vertex -8.8477809063666755e-16 4.816666666666666 12
vertex 0 0 18
vertex 0.9396850510443513 4.72411576727556 12
endloop
endfacet
facet normal 0 0 -1
outer loop
vertex 0 0 12
vertex 0.9396850510443513 4.72411576727556 12
vertex 1.8432585325585167 4.450019748262697 12
endloop
endfacet
facet normal 0.22679454718154762 0.7476414262537823 0.6241766826131259
outer loop
vertex 0.9396850510443513 4.72411576727556 12
vertex 0 0 18
vertex 1.8432585325585167 4.450019748262697 12
endloop
endfacet
facet normal 0 0 -1
outer loop
vertex 0 0 12
vertex 1.8432585325585167 4.450019748262697 12
vertex 2.675996622377749 4.004911965923927 12
endloop
endfacet
facet normal 0.36829436015182543 0.6890302846482376 0.6241766826131254
outer loop
vertex 1.8432585325585167 4.450019748262697 12
vertex 0 0 18
vertex 2.675996622377749 4.004911965923927 12
endloop
endfacet
facet normal 0 0 -1
outer loop
vertex 0 0 12
vertex 2.675996622377749 4.004911965923927 12
vertex 3.405897662715203 3.4058976627152044 12
endloop
endfacet
facet normal 0.49564082740332677 0.6039400956162948 0.6241766826131255
outer loop
vertex 2.675996622377749 4.004911965923927 12
vertex 0 0 18
vertex 3.405897662715203 3.4058976627152044 12
endloop
endfacet
facet normal 0 0 -1
outer loop
vertex 0 0 12
vertex 3.405897662715203 3.4058976627152044 12
vertex 4.004911965923926 2.6759966223777503 12
endloop
endfacet
facet normal 0.6039400956162954 0.49564082740332543 0.6241766826131261
outer loop
vertex 3.405897662715203 3.4058976627152044 12
vertex 0 0 18
vertex 4.004911965923926 2.6759966223777503 12
endloop
endfacet
facet normal 0 0 -1
outer loop
vertex 0 0 12
vertex 4.004911965923926 2.6759966223777503 12
vertex 4.450019748262696 1.8432585325585187 12
endloop
endfacet
facet normal 0.6890302846482365 0.36829436015182676 0.6241766826131258
outer loop
vertex 4.004911965923926 2.6759966223777503 12
vertex 0 0 18
vertex 4.450019748262696 1.8432585325585187 12
endloop
endfacet
facet normal 0 0 -1
outer loop
vertex 0 0 12
vertex 4.450019748262696 1.8432585325585187 12
vertex 4.724115767275559 0.9396850510443533 12
endloop
endfacet
facet normal 0.7476414262537824 0.2267945471815484 0.6241766826131255
outer loop
vertex 4.450019748262696 1.8432585325585187 12
vertex 0 0 18
vertex 4.724115767275559 0.9396850510443533 12
endloop
endfacet
facet normal 0 0 -1
outer loop
vertex 0 0 12
vertex 4.724115767275559 0.9396850510443533 12
vertex 4.816666666666666 1.1797041208488901e-15 12
endloop
endfacet
facet normal 0.7775211271305372 0.07657914695093175 0.6241766826131258
outer loop
vertex 4.724115767275559 0.9396850510443533 12
vertex 0 0 18
vertex 4.816666666666666 1.1797041208488901e-15 12
endloop
endfacet
endsolid csg.js
