<svg xmlns="http://www.w3.org/2000/svg" xmlns:xlink="http://www.w3.org/1999/xlink" version="1.1" x="0px" y="0px" viewBox="0 0 100 125" enable-background="new 0 0 100 100" xml:space="preserve"><g><path d="M20.387,80.402l28.824,14.411C49.459,94.938,49.729,95,50,95s0.541-0.062,0.789-0.187l28.824-14.411   c0.598-0.299,0.976-0.909,0.976-1.579V21.177c0-0.67-0.378-1.28-0.976-1.579L50.789,5.187c-0.496-0.248-1.082-0.248-1.578,0   L20.387,19.598c-0.598,0.299-0.976,0.909-0.976,1.579v57.646C19.411,79.493,19.789,80.104,20.387,80.402z M77.06,77.733   L51.765,90.38V36.679L77.06,24.032V77.733z M50,8.738l24.878,12.438L50,33.615L25.122,21.177L50,8.738z M22.94,24.032   l25.295,12.646V90.38L22.94,77.733V24.032z"/></g><text x="0" y="115" fill="#000000" font-size="5px" font-weight="bold" font-family="'Helvetica Neue', Helvetica, Arial-Unicode, Arial, Sans-serif">Created by Tran</text><text x="0" y="120" fill="#000000" font-size="5px" font-weight="bold" font-family="'Helvetica Neue', Helvetica, Arial-Unicode, Arial, Sans-serif">from the Noun Project</text></svg>